G04 MADE WITH FRITZING*
G04 WWW.FRITZING.ORG*
G04 DOUBLE SIDED*
G04 HOLES PLATED*
G04 CONTOUR ON CENTER OF CONTOUR VECTOR*
%ASAXBY*%
%FSLAX23Y23*%
%MOIN*%
%OFA0B0*%
%SFA1.0B1.0*%
%ADD10C,0.196851*%
%ADD11C,0.075000*%
%ADD12C,0.082000*%
%ADD13C,0.074667*%
%ADD14C,0.074695*%
%ADD15C,0.124033*%
%ADD16C,0.070000*%
%ADD17C,0.062992*%
%ADD18C,0.140000*%
%ADD19C,0.078000*%
%ADD20C,0.070925*%
%ADD21C,0.070866*%
%ADD22C,0.085000*%
%ADD23C,0.110551*%
%ADD24R,0.062992X0.062992*%
%ADD25R,0.078000X0.078000*%
%ADD26R,0.082000X0.082000*%
%ADD27R,0.075000X0.075000*%
%ADD28C,0.020000*%
%LNCOPPER1*%
G90*
G70*
G54D10*
X291Y2805D03*
X283Y293D03*
X5393Y2805D03*
X5385Y293D03*
G54D11*
X2039Y1120D03*
X2039Y1348D03*
G54D12*
X2149Y2033D03*
X2149Y1735D03*
X2031Y2033D03*
X2031Y1735D03*
G54D11*
X2031Y2435D03*
X2031Y2135D03*
X2149Y2435D03*
X2149Y2135D03*
X1677Y2112D03*
X1677Y1812D03*
X2196Y1285D03*
X2196Y1185D03*
X1732Y2427D03*
X1732Y2727D03*
G54D13*
X252Y1978D03*
X352Y1978D03*
G54D14*
X452Y1978D03*
G54D15*
X157Y2273D03*
X546Y2273D03*
G54D13*
X5189Y1978D03*
X5289Y1978D03*
G54D14*
X5389Y1978D03*
G54D15*
X5094Y2273D03*
X5483Y2273D03*
G54D11*
X4165Y2647D03*
X4165Y2899D03*
X4338Y2033D03*
X4614Y2033D03*
X4338Y2136D03*
X4614Y2136D03*
X3346Y1515D03*
X3346Y1745D03*
X4400Y1136D03*
X4207Y1136D03*
X2696Y2338D03*
X2703Y1960D03*
X3625Y310D03*
X3625Y210D03*
X3622Y458D03*
X3622Y558D03*
X3802Y1078D03*
X3802Y1319D03*
G54D16*
X2461Y760D03*
X2461Y860D03*
G54D17*
X2728Y835D03*
X2728Y737D03*
G54D11*
X2572Y924D03*
X2572Y624D03*
G54D17*
X3888Y1493D03*
X3888Y1591D03*
G54D11*
X3054Y2345D03*
X2798Y2345D03*
X3054Y2522D03*
X2798Y2522D03*
X3239Y2393D03*
X3539Y2393D03*
X3747Y1466D03*
X3747Y1766D03*
X4386Y1252D03*
X4222Y1247D03*
G54D18*
X5023Y2565D03*
X5023Y2805D03*
X4833Y2685D03*
G54D12*
X3433Y277D03*
X3433Y377D03*
X3433Y477D03*
G54D19*
X3981Y1134D03*
X3981Y1034D03*
X3981Y934D03*
G54D12*
X4338Y1010D03*
X4636Y1010D03*
G54D20*
X3015Y1740D03*
G54D21*
X3015Y1546D03*
G54D16*
X2804Y1782D03*
X2804Y1882D03*
X2857Y1609D03*
X2857Y1709D03*
X3252Y2484D03*
X3452Y2484D03*
G54D19*
X2331Y1686D03*
X2331Y1586D03*
X2331Y1486D03*
X2331Y1386D03*
X2331Y1286D03*
X2331Y1186D03*
X2331Y1086D03*
X2331Y986D03*
X2331Y2545D03*
X2331Y2445D03*
X2331Y2345D03*
X2331Y2245D03*
X2331Y2145D03*
X2331Y2045D03*
X2331Y1945D03*
X2331Y1845D03*
X4231Y1845D03*
X4231Y1745D03*
X4231Y1645D03*
X4231Y1545D03*
X4231Y1445D03*
X4231Y1345D03*
X4231Y2545D03*
X4231Y2445D03*
X4231Y2345D03*
X4231Y2245D03*
X4231Y2145D03*
X4231Y2045D03*
G54D11*
X3204Y2273D03*
X3504Y2273D03*
X3204Y2173D03*
X3504Y2173D03*
X3204Y2073D03*
X3504Y2073D03*
X3204Y1973D03*
X3504Y1973D03*
X3204Y1873D03*
X3504Y1873D03*
X3204Y1773D03*
X3504Y1773D03*
X3204Y1673D03*
X3504Y1673D03*
X3204Y1573D03*
X3504Y1573D03*
X3204Y1473D03*
X3504Y1473D03*
X3204Y1373D03*
X3504Y1373D03*
X3204Y1273D03*
X3504Y1273D03*
X3204Y1173D03*
X3504Y1173D03*
X3204Y1073D03*
X3504Y1073D03*
X3204Y973D03*
X3504Y973D03*
G54D19*
X4045Y2699D03*
X3945Y2699D03*
X3845Y2699D03*
X3745Y2699D03*
X3645Y2699D03*
X3545Y2699D03*
G54D22*
X1245Y1362D03*
X1384Y1502D03*
X1036Y1850D03*
X897Y1710D03*
X1245Y1362D03*
X1384Y1502D03*
X1036Y1850D03*
X897Y1710D03*
X773Y890D03*
X912Y1029D03*
X564Y1377D03*
X425Y1238D03*
X773Y890D03*
X912Y1029D03*
X564Y1377D03*
X425Y1238D03*
X1253Y402D03*
X1392Y541D03*
X1044Y889D03*
X905Y750D03*
X1253Y402D03*
X1392Y541D03*
X1044Y889D03*
X905Y750D03*
X1741Y874D03*
X1881Y1013D03*
X1533Y1361D03*
X1393Y1222D03*
X1741Y874D03*
X1881Y1013D03*
X1533Y1361D03*
X1393Y1222D03*
X4929Y490D03*
X5126Y490D03*
X5126Y982D03*
X4929Y982D03*
X4929Y490D03*
X5126Y490D03*
X5126Y982D03*
X4929Y982D03*
G54D23*
X2015Y2798D03*
X2165Y2647D03*
X1865Y2647D03*
X1449Y2798D03*
X1598Y2647D03*
X1298Y2647D03*
G54D24*
X2728Y835D03*
X3888Y1493D03*
G54D25*
X3981Y1134D03*
G54D26*
X4337Y1010D03*
G54D27*
X3204Y2273D03*
G54D28*
X2180Y2003D02*
X2118Y2003D01*
X2118Y2065D01*
X2180Y2065D01*
X2180Y2003D01*
D02*
X2062Y2003D02*
X2000Y2003D01*
X2000Y2065D01*
X2062Y2065D01*
X2062Y2003D01*
D02*
X3652Y282D02*
X3597Y282D01*
X3597Y337D01*
X3652Y337D01*
X3652Y282D01*
D02*
X3594Y486D02*
X3649Y486D01*
X3649Y431D01*
X3594Y431D01*
X3594Y486D01*
D02*
X3402Y308D02*
X3464Y308D01*
X3464Y246D01*
X3402Y246D01*
X3402Y308D01*
D02*
G04 End of Copper1*
M02*