G04 MADE WITH FRITZING*
G04 WWW.FRITZING.ORG*
G04 DOUBLE SIDED*
G04 HOLES PLATED*
G04 CONTOUR ON CENTER OF CONTOUR VECTOR*
%ASAXBY*%
%FSLAX23Y23*%
%MOIN*%
%OFA0B0*%
%SFA1.0B1.0*%
%ADD10C,0.206851*%
%ADD11C,0.120551*%
%ADD12C,0.094000*%
%ADD13C,0.095000*%
%ADD14C,0.085000*%
%ADD15C,0.092000*%
%ADD16C,0.084667*%
%ADD17C,0.084695*%
%ADD18C,0.134033*%
%ADD19C,0.080000*%
%ADD20C,0.072992*%
%ADD21C,0.150000*%
%ADD22C,0.088000*%
%ADD23C,0.080925*%
%ADD24C,0.080866*%
%ADD25R,0.072992X0.072992*%
%ADD26R,0.088000X0.088000*%
%ADD27R,0.092000X0.092000*%
%ADD28R,0.085000X0.085000*%
%ADD29C,0.030000*%
%ADD30R,0.001000X0.001000*%
%LNMASK0*%
G90*
G70*
G54D10*
X291Y2805D03*
X283Y293D03*
X5393Y2805D03*
X5385Y293D03*
G54D11*
X2015Y2798D03*
X2165Y2647D03*
X1865Y2647D03*
G54D12*
X2183Y2928D03*
X1848Y2928D03*
G54D11*
X1449Y2798D03*
X1598Y2647D03*
X1298Y2647D03*
G54D12*
X1616Y2928D03*
X1281Y2928D03*
G54D13*
X4929Y490D03*
X5126Y490D03*
X5126Y982D03*
X4929Y982D03*
X773Y890D03*
X912Y1029D03*
X564Y1377D03*
X425Y1238D03*
X1253Y402D03*
X1392Y541D03*
X1044Y889D03*
X905Y750D03*
G54D14*
X2039Y1120D03*
X2039Y1348D03*
G54D15*
X2149Y2033D03*
X2149Y1735D03*
X2031Y2033D03*
X2031Y1735D03*
G54D14*
X2031Y2435D03*
X2031Y2135D03*
X2149Y2435D03*
X2149Y2135D03*
X1677Y2112D03*
X1677Y1812D03*
X2196Y1285D03*
X2196Y1185D03*
X1732Y2427D03*
X1732Y2727D03*
G54D16*
X252Y1978D03*
X352Y1978D03*
G54D17*
X452Y1978D03*
G54D18*
X157Y2273D03*
X546Y2273D03*
G54D16*
X5189Y1978D03*
X5289Y1978D03*
G54D17*
X5389Y1978D03*
G54D18*
X5094Y2273D03*
X5483Y2273D03*
G54D14*
X4165Y2647D03*
X4165Y2899D03*
X4338Y2033D03*
X4614Y2033D03*
X4338Y2136D03*
X4614Y2136D03*
X3346Y1515D03*
X3346Y1745D03*
X4400Y1136D03*
X4207Y1136D03*
X2696Y2338D03*
X2703Y1960D03*
X3625Y310D03*
X3625Y210D03*
X3622Y458D03*
X3622Y558D03*
X3802Y1078D03*
X3802Y1319D03*
G54D19*
X2461Y760D03*
X2461Y860D03*
G54D20*
X2728Y835D03*
X2728Y737D03*
G54D14*
X2572Y924D03*
X2572Y624D03*
G54D20*
X3888Y1493D03*
X3888Y1591D03*
G54D14*
X3054Y2345D03*
X2798Y2345D03*
X3054Y2522D03*
X2798Y2522D03*
X3239Y2393D03*
X3539Y2393D03*
X3747Y1466D03*
X3747Y1766D03*
X4386Y1252D03*
X4222Y1247D03*
G54D21*
X5023Y2565D03*
X5023Y2805D03*
X4833Y2685D03*
G54D15*
X3433Y277D03*
X3433Y377D03*
X3433Y477D03*
G54D22*
X3981Y1134D03*
X3981Y1034D03*
X3981Y934D03*
G54D15*
X4338Y1010D03*
X4636Y1010D03*
G54D23*
X3015Y1740D03*
G54D24*
X3015Y1546D03*
G54D19*
X2804Y1782D03*
X2804Y1882D03*
X2857Y1609D03*
X2857Y1709D03*
X3252Y2484D03*
X3452Y2484D03*
G54D22*
X2331Y1686D03*
X2331Y1586D03*
X2331Y1486D03*
X2331Y1386D03*
X2331Y1286D03*
X2331Y1186D03*
X2331Y1086D03*
X2331Y986D03*
X2331Y2545D03*
X2331Y2445D03*
X2331Y2345D03*
X2331Y2245D03*
X2331Y2145D03*
X2331Y2045D03*
X2331Y1945D03*
X2331Y1845D03*
X4231Y1845D03*
X4231Y1745D03*
X4231Y1645D03*
X4231Y1545D03*
X4231Y1445D03*
X4231Y1345D03*
X4231Y2545D03*
X4231Y2445D03*
X4231Y2345D03*
X4231Y2245D03*
X4231Y2145D03*
X4231Y2045D03*
G54D14*
X3204Y2273D03*
X3504Y2273D03*
X3204Y2173D03*
X3504Y2173D03*
X3204Y2073D03*
X3504Y2073D03*
X3204Y1973D03*
X3504Y1973D03*
X3204Y1873D03*
X3504Y1873D03*
X3204Y1773D03*
X3504Y1773D03*
X3204Y1673D03*
X3504Y1673D03*
X3204Y1573D03*
X3504Y1573D03*
X3204Y1473D03*
X3504Y1473D03*
X3204Y1373D03*
X3504Y1373D03*
X3204Y1273D03*
X3504Y1273D03*
X3204Y1173D03*
X3504Y1173D03*
X3204Y1073D03*
X3504Y1073D03*
X3204Y973D03*
X3504Y973D03*
G54D22*
X4045Y2699D03*
X3945Y2699D03*
X3845Y2699D03*
X3745Y2699D03*
X3645Y2699D03*
X3545Y2699D03*
G54D13*
X1245Y1362D03*
X1384Y1502D03*
X1036Y1850D03*
X897Y1710D03*
X1741Y874D03*
X1881Y1013D03*
X1533Y1361D03*
X1393Y1222D03*
G54D25*
X2728Y835D03*
X3888Y1493D03*
G54D26*
X3981Y1134D03*
G54D27*
X4337Y1010D03*
G54D28*
X3204Y2273D03*
G54D29*
G36*
X2180Y2003D02*
X2118Y2003D01*
X2118Y2065D01*
X2180Y2065D01*
X2180Y2003D01*
G37*
D02*
G36*
X2062Y2003D02*
X2000Y2003D01*
X2000Y2065D01*
X2062Y2065D01*
X2062Y2003D01*
G37*
D02*
G36*
X3652Y282D02*
X3597Y282D01*
X3597Y337D01*
X3652Y337D01*
X3652Y282D01*
G37*
D02*
G36*
X3594Y486D02*
X3649Y486D01*
X3649Y431D01*
X3594Y431D01*
X3594Y486D01*
G37*
D02*
G36*
X3402Y308D02*
X3464Y308D01*
X3464Y246D01*
X3402Y246D01*
X3402Y308D01*
G37*
D02*
G54D30*
X2292Y230D02*
X2299Y230D01*
X2521Y230D02*
X2527Y230D01*
X2290Y229D02*
X2300Y229D01*
X2519Y229D02*
X2529Y229D01*
X2288Y228D02*
X2302Y228D01*
X2374Y228D02*
X2379Y228D01*
X2517Y228D02*
X2530Y228D01*
X2287Y227D02*
X2303Y227D01*
X2374Y227D02*
X2386Y227D01*
X2516Y227D02*
X2532Y227D01*
X2920Y227D02*
X2931Y227D01*
X3033Y227D02*
X3044Y227D01*
X2286Y226D02*
X2304Y226D01*
X2373Y226D02*
X2391Y226D01*
X2515Y226D02*
X2533Y226D01*
X2919Y226D02*
X2937Y226D01*
X3032Y226D02*
X3050Y226D01*
X2286Y225D02*
X2305Y225D01*
X2373Y225D02*
X2393Y225D01*
X2514Y225D02*
X2533Y225D01*
X2919Y225D02*
X2940Y225D01*
X3032Y225D02*
X3053Y225D01*
X2285Y224D02*
X2305Y224D01*
X2373Y224D02*
X2394Y224D01*
X2514Y224D02*
X2534Y224D01*
X2919Y224D02*
X2940Y224D01*
X3032Y224D02*
X3053Y224D01*
X2285Y223D02*
X2306Y223D01*
X2374Y223D02*
X2395Y223D01*
X2513Y223D02*
X2535Y223D01*
X2919Y223D02*
X2941Y223D01*
X3032Y223D02*
X3054Y223D01*
X1980Y222D02*
X1983Y222D01*
X2284Y222D02*
X2306Y222D01*
X2374Y222D02*
X2395Y222D01*
X2513Y222D02*
X2535Y222D01*
X2919Y222D02*
X2941Y222D01*
X3032Y222D02*
X3054Y222D01*
X1979Y221D02*
X1991Y221D01*
X2284Y221D02*
X2307Y221D01*
X2374Y221D02*
X2395Y221D01*
X2512Y221D02*
X2535Y221D01*
X2668Y221D02*
X2679Y221D01*
X2920Y221D02*
X2941Y221D01*
X3032Y221D02*
X3054Y221D01*
X1978Y220D02*
X1996Y220D01*
X2284Y220D02*
X2307Y220D01*
X2374Y220D02*
X2396Y220D01*
X2512Y220D02*
X2536Y220D01*
X2667Y220D02*
X2684Y220D01*
X2920Y220D02*
X2942Y220D01*
X3033Y220D02*
X3054Y220D01*
X1978Y219D02*
X1999Y219D01*
X2284Y219D02*
X2307Y219D01*
X2374Y219D02*
X2396Y219D01*
X2512Y219D02*
X2536Y219D01*
X2667Y219D02*
X2687Y219D01*
X2920Y219D02*
X2942Y219D01*
X3033Y219D02*
X3055Y219D01*
X1979Y218D02*
X2000Y218D01*
X2284Y218D02*
X2307Y218D01*
X2374Y218D02*
X2396Y218D01*
X2512Y218D02*
X2536Y218D01*
X2667Y218D02*
X2688Y218D01*
X2920Y218D02*
X2942Y218D01*
X3033Y218D02*
X3055Y218D01*
X1979Y217D02*
X2001Y217D01*
X2284Y217D02*
X2307Y217D01*
X2375Y217D02*
X2397Y217D01*
X2512Y217D02*
X2536Y217D01*
X2667Y217D02*
X2688Y217D01*
X2920Y217D02*
X2942Y217D01*
X3033Y217D02*
X3055Y217D01*
X1979Y216D02*
X2001Y216D01*
X2284Y216D02*
X2307Y216D01*
X2375Y216D02*
X2397Y216D01*
X2512Y216D02*
X2536Y216D01*
X2667Y216D02*
X2689Y216D01*
X2920Y216D02*
X2942Y216D01*
X3033Y216D02*
X3055Y216D01*
X1979Y215D02*
X2001Y215D01*
X2284Y215D02*
X2307Y215D01*
X2375Y215D02*
X2397Y215D01*
X2512Y215D02*
X2536Y215D01*
X2667Y215D02*
X2689Y215D01*
X2921Y215D02*
X2943Y215D01*
X3033Y215D02*
X3055Y215D01*
X1979Y214D02*
X2001Y214D01*
X2284Y214D02*
X2307Y214D01*
X2375Y214D02*
X2397Y214D01*
X2512Y214D02*
X2535Y214D01*
X2667Y214D02*
X2689Y214D01*
X2921Y214D02*
X2943Y214D01*
X3034Y214D02*
X3056Y214D01*
X1979Y213D02*
X2002Y213D01*
X2285Y213D02*
X2306Y213D01*
X2375Y213D02*
X2397Y213D01*
X2513Y213D02*
X2535Y213D01*
X2668Y213D02*
X2690Y213D01*
X2921Y213D02*
X2943Y213D01*
X3034Y213D02*
X3056Y213D01*
X1980Y212D02*
X2002Y212D01*
X2285Y212D02*
X2306Y212D01*
X2375Y212D02*
X2398Y212D01*
X2514Y212D02*
X2534Y212D01*
X2668Y212D02*
X2690Y212D01*
X2921Y212D02*
X2943Y212D01*
X3034Y212D02*
X3056Y212D01*
X1980Y211D02*
X2002Y211D01*
X2286Y211D02*
X2305Y211D01*
X2376Y211D02*
X2398Y211D01*
X2514Y211D02*
X2534Y211D01*
X2668Y211D02*
X2690Y211D01*
X2921Y211D02*
X2944Y211D01*
X3034Y211D02*
X3056Y211D01*
X1980Y210D02*
X2002Y210D01*
X2286Y210D02*
X2305Y210D01*
X2376Y210D02*
X2398Y210D01*
X2515Y210D02*
X2533Y210D01*
X2668Y210D02*
X2691Y210D01*
X2921Y210D02*
X2944Y210D01*
X3034Y210D02*
X3057Y210D01*
X1980Y209D02*
X2003Y209D01*
X2287Y209D02*
X2304Y209D01*
X2376Y209D02*
X2398Y209D01*
X2516Y209D02*
X2532Y209D01*
X2668Y209D02*
X2691Y209D01*
X2922Y209D02*
X2944Y209D01*
X3035Y209D02*
X3057Y209D01*
X1980Y208D02*
X2003Y208D01*
X2289Y208D02*
X2303Y208D01*
X2376Y208D02*
X2399Y208D01*
X2517Y208D02*
X2531Y208D01*
X2668Y208D02*
X2691Y208D01*
X2922Y208D02*
X2944Y208D01*
X3035Y208D02*
X3057Y208D01*
X1980Y207D02*
X2003Y207D01*
X2290Y207D02*
X2301Y207D01*
X2377Y207D02*
X2399Y207D01*
X2519Y207D02*
X2529Y207D01*
X2669Y207D02*
X2691Y207D01*
X2922Y207D02*
X2945Y207D01*
X3035Y207D02*
X3057Y207D01*
X1981Y206D02*
X2003Y206D01*
X2293Y206D02*
X2299Y206D01*
X2377Y206D02*
X2399Y206D01*
X2521Y206D02*
X2528Y206D01*
X2669Y206D02*
X2691Y206D01*
X2922Y206D02*
X2945Y206D01*
X3035Y206D02*
X3057Y206D01*
X1981Y205D02*
X2003Y205D01*
X2377Y205D02*
X2399Y205D01*
X2669Y205D02*
X2692Y205D01*
X2922Y205D02*
X2945Y205D01*
X3035Y205D02*
X3058Y205D01*
X1981Y204D02*
X2004Y204D01*
X2377Y204D02*
X2400Y204D01*
X2669Y204D02*
X2692Y204D01*
X2923Y204D02*
X2945Y204D01*
X3036Y204D02*
X3058Y204D01*
X1981Y203D02*
X2004Y203D01*
X2377Y203D02*
X2400Y203D01*
X2669Y203D02*
X2692Y203D01*
X2923Y203D02*
X2945Y203D01*
X3036Y203D02*
X3058Y203D01*
X1981Y202D02*
X2005Y202D01*
X2378Y202D02*
X2400Y202D01*
X2669Y202D02*
X2692Y202D01*
X2923Y202D02*
X2946Y202D01*
X3036Y202D02*
X3058Y202D01*
X1795Y201D02*
X1795Y201D01*
X1848Y201D02*
X1851Y201D01*
X1935Y201D02*
X1941Y201D01*
X1981Y201D02*
X2005Y201D01*
X2030Y201D02*
X2034Y201D01*
X2335Y201D02*
X2338Y201D01*
X2378Y201D02*
X2400Y201D01*
X2626Y201D02*
X2628Y201D01*
X2669Y201D02*
X2693Y201D01*
X2856Y201D02*
X2857Y201D01*
X2923Y201D02*
X2946Y201D01*
X3036Y201D02*
X3059Y201D01*
X1684Y200D02*
X1692Y200D01*
X1718Y200D02*
X1728Y200D01*
X1788Y200D02*
X1802Y200D01*
X1842Y200D02*
X1857Y200D01*
X1931Y200D02*
X1947Y200D01*
X1980Y200D02*
X2006Y200D01*
X2024Y200D02*
X2040Y200D01*
X2172Y200D02*
X2183Y200D01*
X2329Y200D02*
X2344Y200D01*
X2378Y200D02*
X2400Y200D01*
X2407Y200D02*
X2419Y200D01*
X2466Y200D02*
X2481Y200D01*
X2620Y200D02*
X2635Y200D01*
X2669Y200D02*
X2694Y200D01*
X2737Y200D02*
X2747Y200D01*
X2849Y200D02*
X2863Y200D01*
X2910Y200D02*
X2917Y200D01*
X2923Y200D02*
X2946Y200D01*
X2990Y200D02*
X3001Y200D01*
X3036Y200D02*
X3059Y200D01*
X1681Y199D02*
X1696Y199D01*
X1716Y199D02*
X1731Y199D01*
X1740Y199D02*
X1760Y199D01*
X1786Y199D02*
X1806Y199D01*
X1840Y199D02*
X1861Y199D01*
X1929Y199D02*
X1950Y199D01*
X1976Y199D02*
X2008Y199D01*
X2022Y199D02*
X2043Y199D01*
X2076Y199D02*
X2095Y199D01*
X2111Y199D02*
X2131Y199D01*
X2145Y199D02*
X2163Y199D01*
X2170Y199D02*
X2186Y199D01*
X2218Y199D02*
X2239Y199D01*
X2255Y199D02*
X2274Y199D01*
X2289Y199D02*
X2309Y199D01*
X2326Y199D02*
X2347Y199D01*
X2378Y199D02*
X2401Y199D01*
X2405Y199D02*
X2422Y199D01*
X2464Y199D02*
X2485Y199D01*
X2518Y199D02*
X2537Y199D01*
X2553Y199D02*
X2560Y199D01*
X2574Y199D02*
X2592Y199D01*
X2617Y199D02*
X2638Y199D01*
X2664Y199D02*
X2696Y199D01*
X2709Y199D02*
X2728Y199D01*
X2734Y199D02*
X2751Y199D01*
X2781Y199D02*
X2789Y199D01*
X2799Y199D02*
X2821Y199D01*
X2846Y199D02*
X2867Y199D01*
X2907Y199D02*
X2921Y199D01*
X2923Y199D02*
X2946Y199D01*
X2963Y199D02*
X2981Y199D01*
X2988Y199D02*
X3004Y199D01*
X3037Y199D02*
X3059Y199D01*
X1679Y198D02*
X1698Y198D01*
X1714Y198D02*
X1733Y198D01*
X1739Y198D02*
X1760Y198D01*
X1784Y198D02*
X1808Y198D01*
X1838Y198D02*
X1863Y198D01*
X1928Y198D02*
X1953Y198D01*
X1975Y198D02*
X2009Y198D01*
X2020Y198D02*
X2045Y198D01*
X2075Y198D02*
X2096Y198D01*
X2110Y198D02*
X2131Y198D01*
X2144Y198D02*
X2165Y198D01*
X2168Y198D02*
X2189Y198D01*
X2219Y198D02*
X2240Y198D01*
X2254Y198D02*
X2275Y198D01*
X2288Y198D02*
X2309Y198D01*
X2325Y198D02*
X2350Y198D01*
X2378Y198D02*
X2401Y198D01*
X2403Y198D02*
X2424Y198D01*
X2462Y198D02*
X2487Y198D01*
X2517Y198D02*
X2539Y198D01*
X2550Y198D02*
X2563Y198D01*
X2572Y198D02*
X2593Y198D01*
X2616Y198D02*
X2641Y198D01*
X2663Y198D02*
X2697Y198D01*
X2708Y198D02*
X2729Y198D01*
X2732Y198D02*
X2754Y198D01*
X2779Y198D02*
X2792Y198D01*
X2799Y198D02*
X2821Y198D01*
X2845Y198D02*
X2869Y198D01*
X2905Y198D02*
X2946Y198D01*
X2961Y198D02*
X2983Y198D01*
X2986Y198D02*
X3007Y198D01*
X3037Y198D02*
X3059Y198D01*
X1678Y197D02*
X1700Y197D01*
X1713Y197D02*
X1735Y197D01*
X1739Y197D02*
X1760Y197D01*
X1782Y197D02*
X1810Y197D01*
X1837Y197D02*
X1865Y197D01*
X1927Y197D02*
X1955Y197D01*
X1975Y197D02*
X2010Y197D01*
X2019Y197D02*
X2047Y197D01*
X2075Y197D02*
X2096Y197D01*
X2110Y197D02*
X2132Y197D01*
X2144Y197D02*
X2191Y197D01*
X2219Y197D02*
X2240Y197D01*
X2254Y197D02*
X2276Y197D01*
X2288Y197D02*
X2310Y197D01*
X2324Y197D02*
X2352Y197D01*
X2379Y197D02*
X2426Y197D01*
X2461Y197D02*
X2489Y197D01*
X2517Y197D02*
X2539Y197D01*
X2549Y197D02*
X2565Y197D01*
X2571Y197D02*
X2593Y197D01*
X2614Y197D02*
X2642Y197D01*
X2663Y197D02*
X2698Y197D01*
X2708Y197D02*
X2756Y197D01*
X2777Y197D02*
X2794Y197D01*
X2799Y197D02*
X2821Y197D01*
X2843Y197D02*
X2871Y197D01*
X2904Y197D02*
X2947Y197D01*
X2961Y197D02*
X3009Y197D01*
X3037Y197D02*
X3059Y197D01*
X1677Y196D02*
X1701Y196D01*
X1712Y196D02*
X1761Y196D01*
X1781Y196D02*
X1812Y196D01*
X1836Y196D02*
X1867Y196D01*
X1926Y196D02*
X1956Y196D01*
X1975Y196D02*
X2010Y196D01*
X2018Y196D02*
X2049Y196D01*
X2075Y196D02*
X2097Y196D01*
X2110Y196D02*
X2132Y196D01*
X2144Y196D02*
X2193Y196D01*
X2219Y196D02*
X2241Y196D01*
X2254Y196D02*
X2276Y196D01*
X2288Y196D02*
X2310Y196D01*
X2323Y196D02*
X2354Y196D01*
X2379Y196D02*
X2428Y196D01*
X2460Y196D02*
X2490Y196D01*
X2517Y196D02*
X2539Y196D01*
X2548Y196D02*
X2567Y196D01*
X2571Y196D02*
X2593Y196D01*
X2613Y196D02*
X2644Y196D01*
X2663Y196D02*
X2698Y196D01*
X2708Y196D02*
X2757Y196D01*
X2777Y196D02*
X2796Y196D01*
X2799Y196D02*
X2822Y196D01*
X2842Y196D02*
X2873Y196D01*
X2903Y196D02*
X2947Y196D01*
X2961Y196D02*
X3010Y196D01*
X3037Y196D02*
X3060Y196D01*
X1676Y195D02*
X1703Y195D01*
X1711Y195D02*
X1761Y195D01*
X1780Y195D02*
X1813Y195D01*
X1835Y195D02*
X1868Y195D01*
X1925Y195D02*
X1958Y195D01*
X1975Y195D02*
X2010Y195D01*
X2017Y195D02*
X2050Y195D01*
X2075Y195D02*
X2097Y195D01*
X2110Y195D02*
X2132Y195D01*
X2144Y195D02*
X2194Y195D01*
X2219Y195D02*
X2241Y195D01*
X2254Y195D02*
X2276Y195D01*
X2288Y195D02*
X2310Y195D01*
X2322Y195D02*
X2355Y195D01*
X2379Y195D02*
X2429Y195D01*
X2459Y195D02*
X2492Y195D01*
X2517Y195D02*
X2540Y195D01*
X2547Y195D02*
X2569Y195D01*
X2571Y195D02*
X2593Y195D01*
X2613Y195D02*
X2646Y195D01*
X2663Y195D02*
X2698Y195D01*
X2708Y195D02*
X2759Y195D01*
X2776Y195D02*
X2797Y195D01*
X2799Y195D02*
X2822Y195D01*
X2841Y195D02*
X2874Y195D01*
X2902Y195D02*
X2947Y195D01*
X2962Y195D02*
X3012Y195D01*
X3037Y195D02*
X3060Y195D01*
X1675Y194D02*
X1704Y194D01*
X1710Y194D02*
X1761Y194D01*
X1779Y194D02*
X1815Y194D01*
X1835Y194D02*
X1870Y194D01*
X1924Y194D02*
X1959Y194D01*
X1976Y194D02*
X2010Y194D01*
X2017Y194D02*
X2052Y194D01*
X2075Y194D02*
X2097Y194D01*
X2110Y194D02*
X2132Y194D01*
X2144Y194D02*
X2196Y194D01*
X2219Y194D02*
X2241Y194D01*
X2254Y194D02*
X2276Y194D01*
X2288Y194D02*
X2310Y194D01*
X2322Y194D02*
X2357Y194D01*
X2379Y194D02*
X2431Y194D01*
X2458Y194D02*
X2493Y194D01*
X2518Y194D02*
X2540Y194D01*
X2547Y194D02*
X2594Y194D01*
X2612Y194D02*
X2647Y194D01*
X2664Y194D02*
X2698Y194D01*
X2708Y194D02*
X2760Y194D01*
X2775Y194D02*
X2822Y194D01*
X2840Y194D02*
X2876Y194D01*
X2901Y194D02*
X2947Y194D01*
X2962Y194D02*
X3013Y194D01*
X3038Y194D02*
X3060Y194D01*
X1674Y193D02*
X1705Y193D01*
X1709Y193D02*
X1761Y193D01*
X1779Y193D02*
X1816Y193D01*
X1834Y193D02*
X1871Y193D01*
X1924Y193D02*
X1960Y193D01*
X1976Y193D02*
X2009Y193D01*
X2017Y193D02*
X2053Y193D01*
X2075Y193D02*
X2097Y193D01*
X2110Y193D02*
X2133Y193D01*
X2144Y193D02*
X2197Y193D01*
X2219Y193D02*
X2241Y193D01*
X2254Y193D02*
X2276Y193D01*
X2288Y193D02*
X2310Y193D01*
X2321Y193D02*
X2358Y193D01*
X2379Y193D02*
X2432Y193D01*
X2458Y193D02*
X2494Y193D01*
X2518Y193D02*
X2540Y193D01*
X2546Y193D02*
X2594Y193D01*
X2611Y193D02*
X2648Y193D01*
X2664Y193D02*
X2697Y193D01*
X2708Y193D02*
X2761Y193D01*
X2775Y193D02*
X2822Y193D01*
X2840Y193D02*
X2877Y193D01*
X2901Y193D02*
X2948Y193D01*
X2962Y193D02*
X3014Y193D01*
X3038Y193D02*
X3060Y193D01*
X1674Y192D02*
X1706Y192D01*
X1709Y192D02*
X1762Y192D01*
X1778Y192D02*
X1817Y192D01*
X1834Y192D02*
X1872Y192D01*
X1923Y192D02*
X1962Y192D01*
X1978Y192D02*
X2008Y192D01*
X2016Y192D02*
X2054Y192D01*
X2075Y192D02*
X2098Y192D01*
X2111Y192D02*
X2133Y192D01*
X2145Y192D02*
X2198Y192D01*
X2219Y192D02*
X2242Y192D01*
X2254Y192D02*
X2277Y192D01*
X2288Y192D02*
X2311Y192D01*
X2321Y192D02*
X2359Y192D01*
X2380Y192D02*
X2433Y192D01*
X2457Y192D02*
X2495Y192D01*
X2518Y192D02*
X2540Y192D01*
X2546Y192D02*
X2594Y192D01*
X2611Y192D02*
X2649Y192D01*
X2666Y192D02*
X2696Y192D01*
X2709Y192D02*
X2762Y192D01*
X2774Y192D02*
X2822Y192D01*
X2839Y192D02*
X2878Y192D01*
X2900Y192D02*
X2948Y192D01*
X2962Y192D02*
X3015Y192D01*
X3038Y192D02*
X3060Y192D01*
X1673Y191D02*
X1762Y191D01*
X1778Y191D02*
X1818Y191D01*
X1834Y191D02*
X1873Y191D01*
X1923Y191D02*
X1963Y191D01*
X1983Y191D02*
X2007Y191D01*
X2016Y191D02*
X2055Y191D01*
X2076Y191D02*
X2098Y191D01*
X2111Y191D02*
X2133Y191D01*
X2145Y191D02*
X2199Y191D01*
X2220Y191D02*
X2242Y191D01*
X2255Y191D02*
X2277Y191D01*
X2289Y191D02*
X2311Y191D01*
X2321Y191D02*
X2360Y191D01*
X2380Y191D02*
X2434Y191D01*
X2456Y191D02*
X2496Y191D01*
X2518Y191D02*
X2541Y191D01*
X2545Y191D02*
X2594Y191D01*
X2610Y191D02*
X2650Y191D01*
X2671Y191D02*
X2695Y191D01*
X2709Y191D02*
X2763Y191D01*
X2774Y191D02*
X2823Y191D01*
X2839Y191D02*
X2879Y191D01*
X2900Y191D02*
X2948Y191D01*
X2962Y191D02*
X3016Y191D01*
X3038Y191D02*
X3061Y191D01*
X1673Y190D02*
X1762Y190D01*
X1777Y190D02*
X1819Y190D01*
X1834Y190D02*
X1847Y190D01*
X1851Y190D02*
X1874Y190D01*
X1923Y190D02*
X1937Y190D01*
X1941Y190D02*
X1964Y190D01*
X1984Y190D02*
X2007Y190D01*
X2016Y190D02*
X2029Y190D01*
X2033Y190D02*
X2056Y190D01*
X2076Y190D02*
X2098Y190D01*
X2111Y190D02*
X2133Y190D01*
X2145Y190D02*
X2200Y190D01*
X2220Y190D02*
X2242Y190D01*
X2255Y190D02*
X2277Y190D01*
X2289Y190D02*
X2311Y190D01*
X2320Y190D02*
X2334Y190D01*
X2338Y190D02*
X2361Y190D01*
X2380Y190D02*
X2435Y190D01*
X2456Y190D02*
X2497Y190D01*
X2518Y190D02*
X2541Y190D01*
X2545Y190D02*
X2594Y190D01*
X2610Y190D02*
X2651Y190D01*
X2672Y190D02*
X2695Y190D01*
X2709Y190D02*
X2764Y190D01*
X2774Y190D02*
X2823Y190D01*
X2838Y190D02*
X2880Y190D01*
X2899Y190D02*
X2948Y190D01*
X2963Y190D02*
X3017Y190D01*
X3038Y190D02*
X3061Y190D01*
X1673Y189D02*
X1762Y189D01*
X1777Y189D02*
X1791Y189D01*
X1796Y189D02*
X1820Y189D01*
X1833Y189D02*
X1846Y189D01*
X1852Y189D02*
X1875Y189D01*
X1923Y189D02*
X1936Y189D01*
X1942Y189D02*
X1964Y189D01*
X1984Y189D02*
X2007Y189D01*
X2016Y189D02*
X2029Y189D01*
X2034Y189D02*
X2057Y189D01*
X2076Y189D02*
X2098Y189D01*
X2111Y189D02*
X2133Y189D01*
X2145Y189D02*
X2201Y189D01*
X2220Y189D02*
X2242Y189D01*
X2255Y189D02*
X2277Y189D01*
X2289Y189D02*
X2311Y189D01*
X2320Y189D02*
X2333Y189D01*
X2339Y189D02*
X2362Y189D01*
X2380Y189D02*
X2436Y189D01*
X2456Y189D02*
X2469Y189D01*
X2474Y189D02*
X2498Y189D01*
X2519Y189D02*
X2541Y189D01*
X2545Y189D02*
X2595Y189D01*
X2609Y189D02*
X2623Y189D01*
X2628Y189D02*
X2652Y189D01*
X2672Y189D02*
X2695Y189D01*
X2709Y189D02*
X2765Y189D01*
X2774Y189D02*
X2823Y189D01*
X2838Y189D02*
X2852Y189D01*
X2856Y189D02*
X2881Y189D01*
X2899Y189D02*
X2948Y189D01*
X2963Y189D02*
X3018Y189D01*
X3039Y189D02*
X3061Y189D01*
X1673Y188D02*
X1763Y188D01*
X1777Y188D02*
X1790Y188D01*
X1797Y188D02*
X1821Y188D01*
X1833Y188D02*
X1846Y188D01*
X1853Y188D02*
X1876Y188D01*
X1923Y188D02*
X1936Y188D01*
X1943Y188D02*
X1965Y188D01*
X1984Y188D02*
X2007Y188D01*
X2016Y188D02*
X2028Y188D01*
X2035Y188D02*
X2058Y188D01*
X2076Y188D02*
X2098Y188D01*
X2111Y188D02*
X2134Y188D01*
X2145Y188D02*
X2170Y188D01*
X2177Y188D02*
X2202Y188D01*
X2220Y188D02*
X2242Y188D01*
X2255Y188D02*
X2277Y188D01*
X2289Y188D02*
X2311Y188D01*
X2320Y188D02*
X2333Y188D01*
X2340Y188D02*
X2363Y188D01*
X2380Y188D02*
X2405Y188D01*
X2412Y188D02*
X2437Y188D01*
X2455Y188D02*
X2468Y188D01*
X2476Y188D02*
X2499Y188D01*
X2519Y188D02*
X2541Y188D01*
X2545Y188D02*
X2595Y188D01*
X2609Y188D02*
X2622Y188D01*
X2630Y188D02*
X2653Y188D01*
X2673Y188D02*
X2695Y188D01*
X2709Y188D02*
X2734Y188D01*
X2741Y188D02*
X2765Y188D01*
X2774Y188D02*
X2823Y188D01*
X2838Y188D02*
X2851Y188D01*
X2858Y188D02*
X2882Y188D01*
X2898Y188D02*
X2949Y188D01*
X2963Y188D02*
X2988Y188D01*
X2994Y188D02*
X3019Y188D01*
X3039Y188D02*
X3061Y188D01*
X1673Y187D02*
X1763Y187D01*
X1776Y187D02*
X1790Y187D01*
X1798Y187D02*
X1821Y187D01*
X1833Y187D02*
X1846Y187D01*
X1854Y187D02*
X1877Y187D01*
X1923Y187D02*
X1936Y187D01*
X1944Y187D02*
X1966Y187D01*
X1985Y187D02*
X2007Y187D01*
X2015Y187D02*
X2028Y187D01*
X2036Y187D02*
X2058Y187D01*
X2076Y187D02*
X2099Y187D01*
X2111Y187D02*
X2134Y187D01*
X2146Y187D02*
X2169Y187D01*
X2178Y187D02*
X2203Y187D01*
X2220Y187D02*
X2243Y187D01*
X2255Y187D02*
X2278Y187D01*
X2289Y187D02*
X2312Y187D01*
X2320Y187D02*
X2333Y187D01*
X2341Y187D02*
X2363Y187D01*
X2381Y187D02*
X2405Y187D01*
X2413Y187D02*
X2438Y187D01*
X2455Y187D02*
X2468Y187D01*
X2477Y187D02*
X2500Y187D01*
X2519Y187D02*
X2542Y187D01*
X2545Y187D02*
X2595Y187D01*
X2609Y187D02*
X2622Y187D01*
X2631Y187D02*
X2654Y187D01*
X2673Y187D02*
X2696Y187D01*
X2710Y187D02*
X2733Y187D01*
X2742Y187D02*
X2766Y187D01*
X2774Y187D02*
X2824Y187D01*
X2837Y187D02*
X2851Y187D01*
X2859Y187D02*
X2882Y187D01*
X2898Y187D02*
X2949Y187D01*
X2963Y187D02*
X2987Y187D01*
X2996Y187D02*
X3020Y187D01*
X3039Y187D02*
X3061Y187D01*
X1673Y186D02*
X1763Y186D01*
X1776Y186D02*
X1789Y186D01*
X1799Y186D02*
X1822Y186D01*
X1833Y186D02*
X1846Y186D01*
X1855Y186D02*
X1877Y186D01*
X1923Y186D02*
X1936Y186D01*
X1945Y186D02*
X1967Y186D01*
X1985Y186D02*
X2008Y186D01*
X2015Y186D02*
X2028Y186D01*
X2037Y186D02*
X2059Y186D01*
X2077Y186D02*
X2099Y186D01*
X2112Y186D02*
X2134Y186D01*
X2146Y186D02*
X2169Y186D01*
X2179Y186D02*
X2203Y186D01*
X2220Y186D02*
X2243Y186D01*
X2256Y186D02*
X2278Y186D01*
X2290Y186D02*
X2312Y186D01*
X2320Y186D02*
X2333Y186D01*
X2342Y186D02*
X2364Y186D01*
X2381Y186D02*
X2404Y186D01*
X2415Y186D02*
X2439Y186D01*
X2455Y186D02*
X2468Y186D01*
X2478Y186D02*
X2500Y186D01*
X2519Y186D02*
X2542Y186D01*
X2545Y186D02*
X2595Y186D01*
X2609Y186D02*
X2622Y186D01*
X2632Y186D02*
X2655Y186D01*
X2673Y186D02*
X2696Y186D01*
X2710Y186D02*
X2733Y186D01*
X2743Y186D02*
X2767Y186D01*
X2774Y186D02*
X2824Y186D01*
X2837Y186D02*
X2851Y186D01*
X2860Y186D02*
X2883Y186D01*
X2898Y186D02*
X2916Y186D01*
X2925Y186D02*
X2949Y186D01*
X2963Y186D02*
X2987Y186D01*
X2997Y186D02*
X3021Y186D01*
X3039Y186D02*
X3062Y186D01*
X1673Y185D02*
X1763Y185D01*
X1776Y185D02*
X1789Y185D01*
X1800Y185D02*
X1823Y185D01*
X1833Y185D02*
X1846Y185D01*
X1856Y185D02*
X1878Y185D01*
X1923Y185D02*
X1936Y185D01*
X1945Y185D02*
X1968Y185D01*
X1985Y185D02*
X2008Y185D01*
X2015Y185D02*
X2028Y185D01*
X2038Y185D02*
X2060Y185D01*
X2077Y185D02*
X2099Y185D01*
X2112Y185D02*
X2134Y185D01*
X2146Y185D02*
X2169Y185D01*
X2180Y185D02*
X2204Y185D01*
X2221Y185D02*
X2243Y185D01*
X2256Y185D02*
X2278Y185D01*
X2290Y185D02*
X2312Y185D01*
X2320Y185D02*
X2333Y185D01*
X2342Y185D02*
X2365Y185D01*
X2381Y185D02*
X2404Y185D01*
X2416Y185D02*
X2440Y185D01*
X2454Y185D02*
X2468Y185D01*
X2479Y185D02*
X2501Y185D01*
X2520Y185D02*
X2542Y185D01*
X2546Y185D02*
X2564Y185D01*
X2567Y185D02*
X2596Y185D01*
X2608Y185D02*
X2622Y185D01*
X2633Y185D02*
X2655Y185D01*
X2673Y185D02*
X2696Y185D01*
X2710Y185D02*
X2733Y185D01*
X2744Y185D02*
X2768Y185D01*
X2774Y185D02*
X2824Y185D01*
X2837Y185D02*
X2851Y185D01*
X2861Y185D02*
X2884Y185D01*
X2898Y185D02*
X2915Y185D01*
X2926Y185D02*
X2949Y185D01*
X2964Y185D02*
X2987Y185D01*
X2998Y185D02*
X3021Y185D01*
X3039Y185D02*
X3062Y185D01*
X1672Y184D02*
X1696Y184D01*
X1701Y184D02*
X1731Y184D01*
X1736Y184D02*
X1764Y184D01*
X1776Y184D02*
X1790Y184D01*
X1801Y184D02*
X1824Y184D01*
X1833Y184D02*
X1846Y184D01*
X1856Y184D02*
X1879Y184D01*
X1923Y184D02*
X1936Y184D01*
X1946Y184D02*
X1968Y184D01*
X1985Y184D02*
X2008Y184D01*
X2015Y184D02*
X2028Y184D01*
X2038Y184D02*
X2061Y184D01*
X2077Y184D02*
X2099Y184D01*
X2112Y184D02*
X2134Y184D01*
X2146Y184D02*
X2169Y184D01*
X2181Y184D02*
X2205Y184D01*
X2221Y184D02*
X2243Y184D01*
X2256Y184D02*
X2278Y184D01*
X2290Y184D02*
X2312Y184D01*
X2320Y184D02*
X2333Y184D01*
X2343Y184D02*
X2365Y184D01*
X2381Y184D02*
X2404Y184D01*
X2417Y184D02*
X2440Y184D01*
X2454Y184D02*
X2468Y184D01*
X2479Y184D02*
X2502Y184D01*
X2520Y184D02*
X2542Y184D01*
X2546Y184D02*
X2563Y184D01*
X2569Y184D02*
X2596Y184D01*
X2608Y184D02*
X2622Y184D01*
X2633Y184D02*
X2656Y184D01*
X2673Y184D02*
X2696Y184D01*
X2710Y184D02*
X2733Y184D01*
X2745Y184D02*
X2768Y184D01*
X2775Y184D02*
X2792Y184D01*
X2798Y184D02*
X2824Y184D01*
X2837Y184D02*
X2851Y184D01*
X2862Y184D02*
X2885Y184D01*
X2897Y184D02*
X2915Y184D01*
X2927Y184D02*
X2950Y184D01*
X2964Y184D02*
X2987Y184D01*
X2999Y184D02*
X3022Y184D01*
X3040Y184D02*
X3062Y184D01*
X1673Y183D02*
X1695Y183D01*
X1702Y183D02*
X1730Y183D01*
X1737Y183D02*
X1764Y183D01*
X1776Y183D02*
X1790Y183D01*
X1802Y183D02*
X1824Y183D01*
X1834Y183D02*
X1846Y183D01*
X1857Y183D02*
X1879Y183D01*
X1923Y183D02*
X1936Y183D01*
X1946Y183D02*
X1969Y183D01*
X1985Y183D02*
X2008Y183D01*
X2016Y183D02*
X2029Y183D01*
X2039Y183D02*
X2061Y183D01*
X2077Y183D02*
X2099Y183D01*
X2112Y183D02*
X2135Y183D01*
X2146Y183D02*
X2169Y183D01*
X2182Y183D02*
X2205Y183D01*
X2221Y183D02*
X2243Y183D01*
X2256Y183D02*
X2279Y183D01*
X2290Y183D02*
X2313Y183D01*
X2320Y183D02*
X2333Y183D01*
X2344Y183D02*
X2366Y183D01*
X2381Y183D02*
X2404Y183D01*
X2417Y183D02*
X2441Y183D01*
X2454Y183D02*
X2469Y183D01*
X2480Y183D02*
X2503Y183D01*
X2520Y183D02*
X2542Y183D01*
X2546Y183D02*
X2563Y183D01*
X2571Y183D02*
X2596Y183D01*
X2608Y183D02*
X2623Y183D01*
X2634Y183D02*
X2657Y183D01*
X2674Y183D02*
X2696Y183D01*
X2710Y183D02*
X2733Y183D01*
X2746Y183D02*
X2769Y183D01*
X2775Y183D02*
X2792Y183D01*
X2800Y183D02*
X2825Y183D01*
X2837Y183D02*
X2851Y183D01*
X2863Y183D02*
X2885Y183D01*
X2897Y183D02*
X2914Y183D01*
X2927Y183D02*
X2950Y183D01*
X2964Y183D02*
X2987Y183D01*
X3000Y183D02*
X3023Y183D01*
X3040Y183D02*
X3062Y183D01*
X1673Y182D02*
X1695Y182D01*
X1703Y182D02*
X1730Y182D01*
X1738Y182D02*
X1764Y182D01*
X1775Y182D02*
X1791Y182D01*
X1802Y182D02*
X1825Y182D01*
X1834Y182D02*
X1846Y182D01*
X1857Y182D02*
X1880Y182D01*
X1923Y182D02*
X1936Y182D01*
X1947Y182D02*
X1969Y182D01*
X1986Y182D02*
X2008Y182D01*
X2016Y182D02*
X2029Y182D01*
X2040Y182D02*
X2062Y182D01*
X2077Y182D02*
X2100Y182D01*
X2112Y182D02*
X2135Y182D01*
X2147Y182D02*
X2169Y182D01*
X2183Y182D02*
X2206Y182D01*
X2221Y182D02*
X2244Y182D01*
X2256Y182D02*
X2279Y182D01*
X2290Y182D02*
X2313Y182D01*
X2320Y182D02*
X2333Y182D01*
X2344Y182D02*
X2366Y182D01*
X2382Y182D02*
X2405Y182D01*
X2418Y182D02*
X2442Y182D01*
X2454Y182D02*
X2469Y182D01*
X2481Y182D02*
X2503Y182D01*
X2520Y182D02*
X2543Y182D01*
X2547Y182D02*
X2563Y182D01*
X2572Y182D02*
X2597Y182D01*
X2608Y182D02*
X2623Y182D01*
X2635Y182D02*
X2657Y182D01*
X2674Y182D02*
X2697Y182D01*
X2711Y182D02*
X2733Y182D01*
X2747Y182D02*
X2770Y182D01*
X2776Y182D02*
X2791Y182D01*
X2801Y182D02*
X2825Y182D01*
X2836Y182D02*
X2852Y182D01*
X2863Y182D02*
X2886Y182D01*
X2897Y182D02*
X2914Y182D01*
X2928Y182D02*
X2950Y182D01*
X2964Y182D02*
X2987Y182D01*
X3000Y182D02*
X3023Y182D01*
X3040Y182D02*
X3063Y182D01*
X1673Y181D02*
X1694Y181D01*
X1704Y181D02*
X1730Y181D01*
X1739Y181D02*
X1764Y181D01*
X1775Y181D02*
X1791Y181D01*
X1803Y181D02*
X1825Y181D01*
X1834Y181D02*
X1846Y181D01*
X1858Y181D02*
X1880Y181D01*
X1923Y181D02*
X1936Y181D01*
X1947Y181D02*
X1970Y181D01*
X1986Y181D02*
X2009Y181D01*
X2016Y181D02*
X2029Y181D01*
X2040Y181D02*
X2062Y181D01*
X2078Y181D02*
X2100Y181D01*
X2113Y181D02*
X2135Y181D01*
X2147Y181D02*
X2169Y181D01*
X2183Y181D02*
X2206Y181D01*
X2221Y181D02*
X2244Y181D01*
X2257Y181D02*
X2279Y181D01*
X2291Y181D02*
X2313Y181D01*
X2320Y181D02*
X2334Y181D01*
X2345Y181D02*
X2367Y181D01*
X2382Y181D02*
X2405Y181D01*
X2419Y181D02*
X2444Y181D01*
X2454Y181D02*
X2470Y181D01*
X2481Y181D02*
X2504Y181D01*
X2520Y181D02*
X2543Y181D01*
X2548Y181D02*
X2562Y181D01*
X2573Y181D02*
X2598Y181D01*
X2607Y181D02*
X2624Y181D01*
X2635Y181D02*
X2658Y181D01*
X2674Y181D02*
X2697Y181D01*
X2711Y181D02*
X2733Y181D01*
X2748Y181D02*
X2770Y181D01*
X2776Y181D02*
X2790Y181D01*
X2802Y181D02*
X2825Y181D01*
X2836Y181D02*
X2852Y181D01*
X2864Y181D02*
X2886Y181D01*
X2897Y181D02*
X2913Y181D01*
X2928Y181D02*
X2950Y181D01*
X2964Y181D02*
X2987Y181D01*
X3001Y181D02*
X3024Y181D01*
X3040Y181D02*
X3063Y181D01*
X1673Y180D02*
X1694Y180D01*
X1705Y180D02*
X1730Y180D01*
X1740Y180D02*
X1767Y180D01*
X1775Y180D02*
X1792Y180D01*
X1803Y180D02*
X1826Y180D01*
X1835Y180D02*
X1846Y180D01*
X1858Y180D02*
X1881Y180D01*
X1924Y180D02*
X1937Y180D01*
X1948Y180D02*
X1971Y180D01*
X1986Y180D02*
X2009Y180D01*
X2016Y180D02*
X2029Y180D01*
X2041Y180D02*
X2063Y180D01*
X2078Y180D02*
X2100Y180D01*
X2113Y180D02*
X2135Y180D01*
X2147Y180D02*
X2170Y180D01*
X2184Y180D02*
X2207Y180D01*
X2222Y180D02*
X2244Y180D01*
X2257Y180D02*
X2279Y180D01*
X2291Y180D02*
X2313Y180D01*
X2321Y180D02*
X2334Y180D01*
X2345Y180D02*
X2367Y180D01*
X2382Y180D02*
X2405Y180D01*
X2419Y180D02*
X2445Y180D01*
X2454Y180D02*
X2470Y180D01*
X2482Y180D02*
X2504Y180D01*
X2521Y180D02*
X2543Y180D01*
X2548Y180D02*
X2561Y180D01*
X2573Y180D02*
X2599Y180D01*
X2607Y180D02*
X2624Y180D01*
X2636Y180D02*
X2658Y180D01*
X2674Y180D02*
X2697Y180D01*
X2711Y180D02*
X2734Y180D01*
X2748Y180D02*
X2771Y180D01*
X2777Y180D02*
X2790Y180D01*
X2802Y180D02*
X2828Y180D01*
X2836Y180D02*
X2853Y180D01*
X2864Y180D02*
X2887Y180D01*
X2897Y180D02*
X2913Y180D01*
X2928Y180D02*
X2950Y180D01*
X2965Y180D02*
X2987Y180D01*
X3002Y180D02*
X3024Y180D01*
X3040Y180D02*
X3063Y180D01*
X1673Y179D02*
X1694Y179D01*
X1705Y179D02*
X1730Y179D01*
X1740Y179D02*
X1770Y179D01*
X1774Y179D02*
X1792Y179D01*
X1804Y179D02*
X1827Y179D01*
X1835Y179D02*
X1846Y179D01*
X1859Y179D02*
X1881Y179D01*
X1924Y179D02*
X1937Y179D01*
X1948Y179D02*
X1971Y179D01*
X1986Y179D02*
X2009Y179D01*
X2016Y179D02*
X2030Y179D01*
X2041Y179D02*
X2063Y179D01*
X2078Y179D02*
X2100Y179D01*
X2113Y179D02*
X2135Y179D01*
X2147Y179D02*
X2170Y179D01*
X2185Y179D02*
X2208Y179D01*
X2222Y179D02*
X2244Y179D01*
X2257Y179D02*
X2279Y179D01*
X2291Y179D02*
X2313Y179D01*
X2321Y179D02*
X2334Y179D01*
X2346Y179D02*
X2368Y179D01*
X2382Y179D02*
X2405Y179D01*
X2420Y179D02*
X2448Y179D01*
X2453Y179D02*
X2470Y179D01*
X2482Y179D02*
X2505Y179D01*
X2521Y179D02*
X2543Y179D01*
X2549Y179D02*
X2561Y179D01*
X2574Y179D02*
X2625Y179D01*
X2636Y179D02*
X2659Y179D01*
X2675Y179D02*
X2697Y179D01*
X2711Y179D02*
X2734Y179D01*
X2749Y179D02*
X2771Y179D01*
X2778Y179D02*
X2789Y179D01*
X2803Y179D02*
X2831Y179D01*
X2835Y179D02*
X2853Y179D01*
X2865Y179D02*
X2888Y179D01*
X2896Y179D02*
X2913Y179D01*
X2928Y179D02*
X2951Y179D01*
X2965Y179D02*
X2987Y179D01*
X3002Y179D02*
X3025Y179D01*
X3041Y179D02*
X3063Y179D01*
X1673Y178D02*
X1694Y178D01*
X1706Y178D02*
X1730Y178D01*
X1741Y178D02*
X1792Y178D01*
X1804Y178D02*
X1827Y178D01*
X1836Y178D02*
X1846Y178D01*
X1859Y178D02*
X1882Y178D01*
X1924Y178D02*
X1938Y178D01*
X1949Y178D02*
X1972Y178D01*
X1987Y178D02*
X2009Y178D01*
X2017Y178D02*
X2030Y178D01*
X2042Y178D02*
X2064Y178D01*
X2078Y178D02*
X2101Y178D01*
X2113Y178D02*
X2136Y178D01*
X2147Y178D02*
X2170Y178D01*
X2185Y178D02*
X2208Y178D01*
X2222Y178D02*
X2245Y178D01*
X2257Y178D02*
X2280Y178D01*
X2291Y178D02*
X2314Y178D01*
X2321Y178D02*
X2335Y178D01*
X2346Y178D02*
X2368Y178D01*
X2382Y178D02*
X2405Y178D01*
X2420Y178D02*
X2471Y178D01*
X2483Y178D02*
X2505Y178D01*
X2521Y178D02*
X2543Y178D01*
X2551Y178D02*
X2559Y178D01*
X2574Y178D02*
X2625Y178D01*
X2637Y178D02*
X2659Y178D01*
X2675Y178D02*
X2697Y178D01*
X2711Y178D02*
X2734Y178D01*
X2749Y178D02*
X2772Y178D01*
X2779Y178D02*
X2788Y178D01*
X2803Y178D02*
X2853Y178D01*
X2865Y178D02*
X2888Y178D01*
X2896Y178D02*
X2913Y178D01*
X2928Y178D02*
X2951Y178D01*
X2965Y178D02*
X2987Y178D01*
X3003Y178D02*
X3025Y178D01*
X3041Y178D02*
X3063Y178D01*
X1673Y177D02*
X1694Y177D01*
X1706Y177D02*
X1730Y177D01*
X1741Y177D02*
X1792Y177D01*
X1805Y177D02*
X1828Y177D01*
X1837Y177D02*
X1845Y177D01*
X1860Y177D02*
X1882Y177D01*
X1924Y177D02*
X1938Y177D01*
X1949Y177D02*
X1972Y177D01*
X1987Y177D02*
X2009Y177D01*
X2017Y177D02*
X2031Y177D01*
X2042Y177D02*
X2064Y177D01*
X2078Y177D02*
X2101Y177D01*
X2113Y177D02*
X2136Y177D01*
X2148Y177D02*
X2170Y177D01*
X2186Y177D02*
X2209Y177D01*
X2222Y177D02*
X2245Y177D01*
X2257Y177D02*
X2280Y177D01*
X2291Y177D02*
X2314Y177D01*
X2321Y177D02*
X2335Y177D01*
X2347Y177D02*
X2369Y177D01*
X2383Y177D02*
X2405Y177D01*
X2421Y177D02*
X2471Y177D01*
X2483Y177D02*
X2506Y177D01*
X2521Y177D02*
X2544Y177D01*
X2552Y177D02*
X2558Y177D01*
X2574Y177D02*
X2625Y177D01*
X2637Y177D02*
X2660Y177D01*
X2675Y177D02*
X2698Y177D01*
X2712Y177D02*
X2734Y177D01*
X2750Y177D02*
X2772Y177D01*
X2782Y177D02*
X2787Y177D01*
X2803Y177D02*
X2853Y177D01*
X2866Y177D02*
X2889Y177D01*
X2896Y177D02*
X2913Y177D01*
X2929Y177D02*
X2951Y177D01*
X2965Y177D02*
X2988Y177D01*
X3003Y177D02*
X3026Y177D01*
X3041Y177D02*
X3064Y177D01*
X1673Y176D02*
X1694Y176D01*
X1706Y176D02*
X1730Y176D01*
X1742Y176D02*
X1793Y176D01*
X1805Y176D02*
X1828Y176D01*
X1839Y176D02*
X1844Y176D01*
X1860Y176D02*
X1883Y176D01*
X1925Y176D02*
X1939Y176D01*
X1950Y176D02*
X1972Y176D01*
X1987Y176D02*
X2010Y176D01*
X2017Y176D02*
X2031Y176D01*
X2042Y176D02*
X2065Y176D01*
X2079Y176D02*
X2101Y176D01*
X2114Y176D02*
X2136Y176D01*
X2148Y176D02*
X2170Y176D01*
X2186Y176D02*
X2209Y176D01*
X2222Y176D02*
X2245Y176D01*
X2258Y176D02*
X2280Y176D01*
X2292Y176D02*
X2314Y176D01*
X2322Y176D02*
X2336Y176D01*
X2347Y176D02*
X2369Y176D01*
X2383Y176D02*
X2406Y176D01*
X2421Y176D02*
X2471Y176D01*
X2484Y176D02*
X2506Y176D01*
X2521Y176D02*
X2544Y176D01*
X2574Y176D02*
X2625Y176D01*
X2638Y176D02*
X2660Y176D01*
X2675Y176D02*
X2698Y176D01*
X2712Y176D02*
X2734Y176D01*
X2750Y176D02*
X2773Y176D01*
X2803Y176D02*
X2854Y176D01*
X2866Y176D02*
X2889Y176D01*
X2896Y176D02*
X2913Y176D01*
X2929Y176D02*
X2951Y176D01*
X2965Y176D02*
X2988Y176D01*
X3004Y176D02*
X3026Y176D01*
X3041Y176D02*
X3064Y176D01*
X1673Y175D02*
X1694Y175D01*
X1707Y175D02*
X1730Y175D01*
X1742Y175D02*
X1793Y175D01*
X1806Y175D02*
X1828Y175D01*
X1861Y175D02*
X1883Y175D01*
X1925Y175D02*
X1939Y175D01*
X1950Y175D02*
X1973Y175D01*
X1987Y175D02*
X2010Y175D01*
X2018Y175D02*
X2032Y175D01*
X2043Y175D02*
X2065Y175D01*
X2079Y175D02*
X2101Y175D01*
X2114Y175D02*
X2136Y175D01*
X2148Y175D02*
X2171Y175D01*
X2187Y175D02*
X2209Y175D01*
X2223Y175D02*
X2245Y175D01*
X2258Y175D02*
X2280Y175D01*
X2292Y175D02*
X2314Y175D01*
X2322Y175D02*
X2336Y175D01*
X2347Y175D02*
X2370Y175D01*
X2383Y175D02*
X2406Y175D01*
X2422Y175D02*
X2471Y175D01*
X2484Y175D02*
X2507Y175D01*
X2522Y175D02*
X2544Y175D01*
X2575Y175D02*
X2625Y175D01*
X2638Y175D02*
X2661Y175D01*
X2675Y175D02*
X2698Y175D01*
X2712Y175D02*
X2735Y175D01*
X2751Y175D02*
X2773Y175D01*
X2804Y175D02*
X2854Y175D01*
X2867Y175D02*
X2889Y175D01*
X2896Y175D02*
X2913Y175D01*
X2929Y175D02*
X2952Y175D01*
X2966Y175D02*
X2988Y175D01*
X3004Y175D02*
X3027Y175D01*
X3041Y175D02*
X3064Y175D01*
X1673Y174D02*
X1694Y174D01*
X1707Y174D02*
X1731Y174D01*
X1742Y174D02*
X1793Y174D01*
X1806Y174D02*
X1829Y174D01*
X1861Y174D02*
X1883Y174D01*
X1926Y174D02*
X1940Y174D01*
X1951Y174D02*
X1973Y174D01*
X1987Y174D02*
X2010Y174D01*
X2018Y174D02*
X2032Y174D01*
X2043Y174D02*
X2066Y174D01*
X2079Y174D02*
X2101Y174D01*
X2114Y174D02*
X2137Y174D01*
X2148Y174D02*
X2171Y174D01*
X2187Y174D02*
X2210Y174D01*
X2223Y174D02*
X2245Y174D01*
X2258Y174D02*
X2280Y174D01*
X2292Y174D02*
X2314Y174D01*
X2323Y174D02*
X2337Y174D01*
X2348Y174D02*
X2370Y174D01*
X2383Y174D02*
X2406Y174D01*
X2422Y174D02*
X2471Y174D01*
X2485Y174D02*
X2507Y174D01*
X2522Y174D02*
X2544Y174D01*
X2575Y174D02*
X2625Y174D01*
X2639Y174D02*
X2661Y174D01*
X2676Y174D02*
X2698Y174D01*
X2712Y174D02*
X2735Y174D01*
X2751Y174D02*
X2774Y174D01*
X2804Y174D02*
X2853Y174D01*
X2867Y174D02*
X2890Y174D01*
X2896Y174D02*
X2913Y174D01*
X2929Y174D02*
X2952Y174D01*
X2966Y174D02*
X2988Y174D01*
X3005Y174D02*
X3027Y174D01*
X3042Y174D02*
X3064Y174D01*
X1674Y173D02*
X1695Y173D01*
X1707Y173D02*
X1731Y173D01*
X1743Y173D02*
X1792Y173D01*
X1806Y173D02*
X1829Y173D01*
X1861Y173D02*
X1884Y173D01*
X1926Y173D02*
X1940Y173D01*
X1951Y173D02*
X1974Y173D01*
X1988Y173D02*
X2010Y173D01*
X2019Y173D02*
X2033Y173D01*
X2044Y173D02*
X2066Y173D01*
X2079Y173D02*
X2102Y173D01*
X2114Y173D02*
X2137Y173D01*
X2148Y173D02*
X2171Y173D01*
X2187Y173D02*
X2210Y173D01*
X2223Y173D02*
X2246Y173D01*
X2258Y173D02*
X2281Y173D01*
X2292Y173D02*
X2315Y173D01*
X2323Y173D02*
X2337Y173D01*
X2348Y173D02*
X2370Y173D01*
X2383Y173D02*
X2406Y173D01*
X2422Y173D02*
X2471Y173D01*
X2485Y173D02*
X2507Y173D01*
X2522Y173D02*
X2544Y173D01*
X2575Y173D02*
X2625Y173D01*
X2639Y173D02*
X2662Y173D01*
X2676Y173D02*
X2698Y173D01*
X2712Y173D02*
X2735Y173D01*
X2752Y173D02*
X2774Y173D01*
X2804Y173D02*
X2853Y173D01*
X2868Y173D02*
X2890Y173D01*
X2896Y173D02*
X2913Y173D01*
X2929Y173D02*
X2952Y173D01*
X2966Y173D02*
X2988Y173D01*
X3005Y173D02*
X3028Y173D01*
X3042Y173D02*
X3064Y173D01*
X1674Y172D02*
X1695Y172D01*
X1708Y172D02*
X1731Y172D01*
X1743Y172D02*
X1792Y172D01*
X1807Y172D02*
X1830Y172D01*
X1862Y172D02*
X1884Y172D01*
X1927Y172D02*
X1941Y172D01*
X1951Y172D02*
X1974Y172D01*
X1988Y172D02*
X2010Y172D01*
X2019Y172D02*
X2034Y172D01*
X2044Y172D02*
X2066Y172D01*
X2079Y172D02*
X2102Y172D01*
X2114Y172D02*
X2137Y172D01*
X2149Y172D02*
X2171Y172D01*
X2188Y172D02*
X2211Y172D01*
X2223Y172D02*
X2246Y172D01*
X2258Y172D02*
X2281Y172D01*
X2292Y172D02*
X2315Y172D01*
X2324Y172D02*
X2338Y172D01*
X2348Y172D02*
X2371Y172D01*
X2384Y172D02*
X2406Y172D01*
X2423Y172D02*
X2471Y172D01*
X2485Y172D02*
X2508Y172D01*
X2522Y172D02*
X2545Y172D01*
X2576Y172D02*
X2624Y172D01*
X2639Y172D02*
X2662Y172D01*
X2676Y172D02*
X2699Y172D01*
X2713Y172D02*
X2735Y172D01*
X2752Y172D02*
X2774Y172D01*
X2804Y172D02*
X2853Y172D01*
X2868Y172D02*
X2891Y172D01*
X2896Y172D02*
X2913Y172D01*
X2930Y172D02*
X2952Y172D01*
X2966Y172D02*
X2989Y172D01*
X3006Y172D02*
X3028Y172D01*
X3042Y172D02*
X3065Y172D01*
X1674Y171D02*
X1695Y171D01*
X1708Y171D02*
X1731Y171D01*
X1743Y171D02*
X1792Y171D01*
X1807Y171D02*
X1830Y171D01*
X1862Y171D02*
X1884Y171D01*
X1928Y171D02*
X1942Y171D01*
X1952Y171D02*
X1974Y171D01*
X1988Y171D02*
X2011Y171D01*
X2020Y171D02*
X2035Y171D01*
X2044Y171D02*
X2067Y171D01*
X2080Y171D02*
X2102Y171D01*
X2115Y171D02*
X2137Y171D01*
X2149Y171D02*
X2171Y171D01*
X2188Y171D02*
X2211Y171D01*
X2223Y171D02*
X2246Y171D01*
X2259Y171D02*
X2281Y171D01*
X2293Y171D02*
X2315Y171D01*
X2324Y171D02*
X2339Y171D01*
X2349Y171D02*
X2371Y171D01*
X2384Y171D02*
X2407Y171D01*
X2423Y171D02*
X2470Y171D01*
X2486Y171D02*
X2508Y171D01*
X2522Y171D02*
X2545Y171D01*
X2576Y171D02*
X2624Y171D01*
X2640Y171D02*
X2662Y171D01*
X2676Y171D02*
X2699Y171D01*
X2713Y171D02*
X2735Y171D01*
X2752Y171D02*
X2775Y171D01*
X2805Y171D02*
X2853Y171D01*
X2868Y171D02*
X2891Y171D01*
X2897Y171D02*
X2913Y171D01*
X2930Y171D02*
X2952Y171D01*
X2966Y171D02*
X2989Y171D01*
X3006Y171D02*
X3028Y171D01*
X3042Y171D02*
X3065Y171D01*
X1674Y170D02*
X1695Y170D01*
X1708Y170D02*
X1731Y170D01*
X1743Y170D02*
X1767Y170D01*
X1769Y170D02*
X1791Y170D01*
X1808Y170D02*
X1830Y170D01*
X1862Y170D02*
X1885Y170D01*
X1928Y170D02*
X1943Y170D01*
X1952Y170D02*
X1975Y170D01*
X1988Y170D02*
X2011Y170D01*
X2021Y170D02*
X2036Y170D01*
X2045Y170D02*
X2067Y170D01*
X2080Y170D02*
X2102Y170D01*
X2115Y170D02*
X2137Y170D01*
X2149Y170D02*
X2171Y170D01*
X2188Y170D02*
X2211Y170D01*
X2224Y170D02*
X2246Y170D01*
X2259Y170D02*
X2281Y170D01*
X2293Y170D02*
X2315Y170D01*
X2325Y170D02*
X2340Y170D01*
X2349Y170D02*
X2372Y170D01*
X2384Y170D02*
X2407Y170D01*
X2423Y170D02*
X2470Y170D01*
X2486Y170D02*
X2509Y170D01*
X2523Y170D02*
X2545Y170D01*
X2576Y170D02*
X2599Y170D01*
X2602Y170D02*
X2624Y170D01*
X2640Y170D02*
X2663Y170D01*
X2676Y170D02*
X2699Y170D01*
X2713Y170D02*
X2736Y170D01*
X2753Y170D02*
X2775Y170D01*
X2805Y170D02*
X2828Y170D01*
X2830Y170D02*
X2852Y170D01*
X2869Y170D02*
X2891Y170D01*
X2897Y170D02*
X2913Y170D01*
X2930Y170D02*
X2953Y170D01*
X2967Y170D02*
X2989Y170D01*
X3006Y170D02*
X3029Y170D01*
X3043Y170D02*
X3065Y170D01*
X1674Y169D02*
X1695Y169D01*
X1709Y169D02*
X1731Y169D01*
X1744Y169D02*
X1767Y169D01*
X1773Y169D02*
X1791Y169D01*
X1808Y169D02*
X1831Y169D01*
X1863Y169D02*
X1885Y169D01*
X1929Y169D02*
X1944Y169D01*
X1952Y169D02*
X1975Y169D01*
X1989Y169D02*
X2011Y169D01*
X2022Y169D02*
X2037Y169D01*
X2045Y169D02*
X2067Y169D01*
X2080Y169D02*
X2103Y169D01*
X2115Y169D02*
X2138Y169D01*
X2149Y169D02*
X2172Y169D01*
X2189Y169D02*
X2212Y169D01*
X2224Y169D02*
X2247Y169D01*
X2259Y169D02*
X2282Y169D01*
X2293Y169D02*
X2316Y169D01*
X2326Y169D02*
X2341Y169D01*
X2349Y169D02*
X2372Y169D01*
X2384Y169D02*
X2407Y169D01*
X2424Y169D02*
X2447Y169D01*
X2451Y169D02*
X2469Y169D01*
X2486Y169D02*
X2509Y169D01*
X2523Y169D02*
X2545Y169D01*
X2576Y169D02*
X2599Y169D01*
X2605Y169D02*
X2623Y169D01*
X2640Y169D02*
X2663Y169D01*
X2677Y169D02*
X2699Y169D01*
X2713Y169D02*
X2736Y169D01*
X2753Y169D02*
X2776Y169D01*
X2805Y169D02*
X2828Y169D01*
X2834Y169D02*
X2851Y169D01*
X2869Y169D02*
X2892Y169D01*
X2897Y169D02*
X2913Y169D01*
X2930Y169D02*
X2953Y169D01*
X2967Y169D02*
X2989Y169D01*
X3007Y169D02*
X3029Y169D01*
X3043Y169D02*
X3065Y169D01*
X1674Y168D02*
X1696Y168D01*
X1709Y168D02*
X1732Y168D01*
X1744Y168D02*
X1767Y168D01*
X1775Y168D02*
X1790Y168D01*
X1808Y168D02*
X1831Y168D01*
X1863Y168D02*
X1885Y168D01*
X1930Y168D02*
X1945Y168D01*
X1953Y168D02*
X1975Y168D01*
X1989Y168D02*
X2011Y168D01*
X2022Y168D02*
X2038Y168D01*
X2045Y168D02*
X2068Y168D01*
X2080Y168D02*
X2103Y168D01*
X2115Y168D02*
X2138Y168D01*
X2149Y168D02*
X2172Y168D01*
X2189Y168D02*
X2212Y168D01*
X2224Y168D02*
X2247Y168D01*
X2259Y168D02*
X2282Y168D01*
X2293Y168D02*
X2316Y168D01*
X2327Y168D02*
X2343Y168D01*
X2350Y168D02*
X2372Y168D01*
X2385Y168D02*
X2407Y168D01*
X2424Y168D02*
X2447Y168D01*
X2454Y168D02*
X2468Y168D01*
X2487Y168D02*
X2509Y168D01*
X2523Y168D02*
X2545Y168D01*
X2576Y168D02*
X2599Y168D01*
X2607Y168D02*
X2623Y168D01*
X2641Y168D02*
X2663Y168D01*
X2677Y168D02*
X2699Y168D01*
X2713Y168D02*
X2736Y168D01*
X2753Y168D02*
X2776Y168D01*
X2805Y168D02*
X2828Y168D01*
X2836Y168D02*
X2851Y168D01*
X2869Y168D02*
X2892Y168D01*
X2897Y168D02*
X2913Y168D01*
X2931Y168D02*
X2953Y168D01*
X2967Y168D02*
X2990Y168D01*
X3007Y168D02*
X3029Y168D01*
X3043Y168D02*
X3065Y168D01*
X1675Y167D02*
X1696Y167D01*
X1709Y167D02*
X1732Y167D01*
X1744Y167D02*
X1767Y167D01*
X1775Y167D02*
X1790Y167D01*
X1808Y167D02*
X1831Y167D01*
X1863Y167D02*
X1886Y167D01*
X1931Y167D02*
X1947Y167D01*
X1953Y167D02*
X1976Y167D01*
X1989Y167D02*
X2011Y167D01*
X2023Y167D02*
X2040Y167D01*
X2045Y167D02*
X2068Y167D01*
X2080Y167D02*
X2103Y167D01*
X2115Y167D02*
X2138Y167D01*
X2150Y167D02*
X2172Y167D01*
X2189Y167D02*
X2212Y167D01*
X2224Y167D02*
X2247Y167D01*
X2259Y167D02*
X2282Y167D01*
X2294Y167D02*
X2316Y167D01*
X2328Y167D02*
X2344Y167D01*
X2350Y167D02*
X2373Y167D01*
X2385Y167D02*
X2407Y167D01*
X2424Y167D02*
X2448Y167D01*
X2454Y167D02*
X2468Y167D01*
X2487Y167D02*
X2510Y167D01*
X2523Y167D02*
X2546Y167D01*
X2577Y167D02*
X2600Y167D01*
X2608Y167D02*
X2623Y167D01*
X2641Y167D02*
X2664Y167D01*
X2677Y167D02*
X2700Y167D01*
X2714Y167D02*
X2736Y167D01*
X2754Y167D02*
X2776Y167D01*
X2805Y167D02*
X2828Y167D01*
X2836Y167D02*
X2851Y167D01*
X2869Y167D02*
X2892Y167D01*
X2897Y167D02*
X2914Y167D01*
X2931Y167D02*
X2953Y167D01*
X2967Y167D02*
X2990Y167D01*
X3007Y167D02*
X3030Y167D01*
X3043Y167D02*
X3065Y167D01*
X1675Y166D02*
X1696Y166D01*
X1709Y166D02*
X1732Y166D01*
X1744Y166D02*
X1767Y166D01*
X1776Y166D02*
X1790Y166D01*
X1809Y166D02*
X1831Y166D01*
X1863Y166D02*
X1886Y166D01*
X1932Y166D02*
X1949Y166D01*
X1953Y166D02*
X1976Y166D01*
X1989Y166D02*
X2012Y166D01*
X2024Y166D02*
X2042Y166D01*
X2045Y166D02*
X2068Y166D01*
X2081Y166D02*
X2103Y166D01*
X2116Y166D02*
X2138Y166D01*
X2150Y166D02*
X2172Y166D01*
X2190Y166D02*
X2212Y166D01*
X2224Y166D02*
X2247Y166D01*
X2260Y166D02*
X2282Y166D01*
X2294Y166D02*
X2316Y166D01*
X2329Y166D02*
X2347Y166D01*
X2350Y166D02*
X2373Y166D01*
X2385Y166D02*
X2408Y166D01*
X2425Y166D02*
X2448Y166D01*
X2454Y166D02*
X2469Y166D01*
X2487Y166D02*
X2510Y166D01*
X2523Y166D02*
X2546Y166D01*
X2577Y166D02*
X2600Y166D01*
X2608Y166D02*
X2623Y166D01*
X2641Y166D02*
X2664Y166D01*
X2677Y166D02*
X2700Y166D01*
X2714Y166D02*
X2736Y166D01*
X2754Y166D02*
X2777Y166D01*
X2806Y166D02*
X2828Y166D01*
X2837Y166D02*
X2851Y166D01*
X2870Y166D02*
X2893Y166D01*
X2897Y166D02*
X2914Y166D01*
X2931Y166D02*
X2954Y166D01*
X2967Y166D02*
X2990Y166D01*
X3007Y166D02*
X3030Y166D01*
X3043Y166D02*
X3066Y166D01*
X1675Y165D02*
X1696Y165D01*
X1710Y165D02*
X1732Y165D01*
X1745Y165D02*
X1768Y165D01*
X1776Y165D02*
X1790Y165D01*
X1809Y165D02*
X1832Y165D01*
X1864Y165D02*
X1886Y165D01*
X1933Y165D02*
X1976Y165D01*
X1989Y165D02*
X2012Y165D01*
X2025Y165D02*
X2069Y165D01*
X2081Y165D02*
X2103Y165D01*
X2116Y165D02*
X2139Y165D01*
X2150Y165D02*
X2173Y165D01*
X2190Y165D02*
X2213Y165D01*
X2225Y165D02*
X2247Y165D01*
X2260Y165D02*
X2282Y165D01*
X2294Y165D02*
X2316Y165D01*
X2330Y165D02*
X2373Y165D01*
X2385Y165D02*
X2408Y165D01*
X2425Y165D02*
X2448Y165D01*
X2454Y165D02*
X2469Y165D01*
X2487Y165D02*
X2510Y165D01*
X2523Y165D02*
X2546Y165D01*
X2577Y165D02*
X2600Y165D01*
X2608Y165D02*
X2623Y165D01*
X2641Y165D02*
X2664Y165D01*
X2677Y165D02*
X2700Y165D01*
X2714Y165D02*
X2737Y165D01*
X2754Y165D02*
X2777Y165D01*
X2806Y165D02*
X2829Y165D01*
X2837Y165D02*
X2851Y165D01*
X2870Y165D02*
X2893Y165D01*
X2897Y165D02*
X2914Y165D01*
X2931Y165D02*
X2954Y165D01*
X2968Y165D02*
X2990Y165D01*
X3008Y165D02*
X3030Y165D01*
X3044Y165D02*
X3066Y165D01*
X1675Y164D02*
X1696Y164D01*
X1710Y164D02*
X1733Y164D01*
X1745Y164D02*
X1768Y164D01*
X1776Y164D02*
X1790Y164D01*
X1809Y164D02*
X1832Y164D01*
X1864Y164D02*
X1886Y164D01*
X1934Y164D02*
X1976Y164D01*
X1990Y164D02*
X2012Y164D01*
X2026Y164D02*
X2069Y164D01*
X2081Y164D02*
X2104Y164D01*
X2116Y164D02*
X2139Y164D01*
X2150Y164D02*
X2173Y164D01*
X2190Y164D02*
X2213Y164D01*
X2225Y164D02*
X2248Y164D01*
X2260Y164D02*
X2283Y164D01*
X2294Y164D02*
X2317Y164D01*
X2331Y164D02*
X2373Y164D01*
X2385Y164D02*
X2408Y164D01*
X2425Y164D02*
X2448Y164D01*
X2455Y164D02*
X2469Y164D01*
X2488Y164D02*
X2510Y164D01*
X2524Y164D02*
X2546Y164D01*
X2577Y164D02*
X2600Y164D01*
X2609Y164D02*
X2623Y164D01*
X2642Y164D02*
X2664Y164D01*
X2678Y164D02*
X2700Y164D01*
X2714Y164D02*
X2737Y164D01*
X2754Y164D02*
X2777Y164D01*
X2806Y164D02*
X2829Y164D01*
X2837Y164D02*
X2851Y164D01*
X2870Y164D02*
X2893Y164D01*
X2897Y164D02*
X2914Y164D01*
X2931Y164D02*
X2954Y164D01*
X2968Y164D02*
X2990Y164D01*
X3008Y164D02*
X3030Y164D01*
X3044Y164D02*
X3066Y164D01*
X1675Y163D02*
X1697Y163D01*
X1710Y163D02*
X1733Y163D01*
X1745Y163D02*
X1768Y163D01*
X1776Y163D02*
X1791Y163D01*
X1809Y163D02*
X1832Y163D01*
X1864Y163D02*
X1887Y163D01*
X1935Y163D02*
X1977Y163D01*
X1990Y163D02*
X2012Y163D01*
X2028Y163D02*
X2069Y163D01*
X2081Y163D02*
X2104Y163D01*
X2116Y163D02*
X2139Y163D01*
X2150Y163D02*
X2173Y163D01*
X2190Y163D02*
X2213Y163D01*
X2225Y163D02*
X2248Y163D01*
X2260Y163D02*
X2283Y163D01*
X2294Y163D02*
X2317Y163D01*
X2332Y163D02*
X2374Y163D01*
X2386Y163D02*
X2408Y163D01*
X2425Y163D02*
X2448Y163D01*
X2455Y163D02*
X2469Y163D01*
X2488Y163D02*
X2511Y163D01*
X2524Y163D02*
X2546Y163D01*
X2578Y163D02*
X2600Y163D01*
X2609Y163D02*
X2623Y163D01*
X2642Y163D02*
X2665Y163D01*
X2678Y163D02*
X2700Y163D01*
X2715Y163D02*
X2737Y163D01*
X2754Y163D02*
X2777Y163D01*
X2806Y163D02*
X2829Y163D01*
X2837Y163D02*
X2852Y163D01*
X2870Y163D02*
X2893Y163D01*
X2898Y163D02*
X2914Y163D01*
X2932Y163D02*
X2954Y163D01*
X2968Y163D02*
X2991Y163D01*
X3008Y163D02*
X3031Y163D01*
X3044Y163D02*
X3066Y163D01*
X1676Y162D02*
X1697Y162D01*
X1710Y162D02*
X1733Y162D01*
X1745Y162D02*
X1768Y162D01*
X1777Y162D02*
X1791Y162D01*
X1810Y162D02*
X1832Y162D01*
X1864Y162D02*
X1887Y162D01*
X1936Y162D02*
X1977Y162D01*
X1990Y162D02*
X2013Y162D01*
X2029Y162D02*
X2069Y162D01*
X2081Y162D02*
X2104Y162D01*
X2116Y162D02*
X2139Y162D01*
X2151Y162D02*
X2173Y162D01*
X2190Y162D02*
X2213Y162D01*
X2225Y162D02*
X2248Y162D01*
X2260Y162D02*
X2283Y162D01*
X2295Y162D02*
X2317Y162D01*
X2334Y162D02*
X2374Y162D01*
X2386Y162D02*
X2408Y162D01*
X2426Y162D02*
X2449Y162D01*
X2455Y162D02*
X2469Y162D01*
X2488Y162D02*
X2511Y162D01*
X2524Y162D02*
X2547Y162D01*
X2578Y162D02*
X2600Y162D01*
X2609Y162D02*
X2623Y162D01*
X2642Y162D02*
X2665Y162D01*
X2678Y162D02*
X2701Y162D01*
X2715Y162D02*
X2737Y162D01*
X2755Y162D02*
X2778Y162D01*
X2806Y162D02*
X2829Y162D01*
X2838Y162D02*
X2852Y162D01*
X2870Y162D02*
X2893Y162D01*
X2898Y162D02*
X2915Y162D01*
X2932Y162D02*
X2955Y162D01*
X2968Y162D02*
X2991Y162D01*
X3008Y162D02*
X3031Y162D01*
X3044Y162D02*
X3066Y162D01*
X1676Y161D02*
X1697Y161D01*
X1710Y161D02*
X1733Y161D01*
X1746Y161D02*
X1768Y161D01*
X1777Y161D02*
X1791Y161D01*
X1810Y161D02*
X1833Y161D01*
X1864Y161D02*
X1887Y161D01*
X1938Y161D02*
X1977Y161D01*
X1990Y161D02*
X2013Y161D01*
X2031Y161D02*
X2069Y161D01*
X2082Y161D02*
X2104Y161D01*
X2117Y161D02*
X2140Y161D01*
X2151Y161D02*
X2173Y161D01*
X2191Y161D02*
X2213Y161D01*
X2225Y161D02*
X2248Y161D01*
X2261Y161D02*
X2283Y161D01*
X2295Y161D02*
X2317Y161D01*
X2335Y161D02*
X2374Y161D01*
X2386Y161D02*
X2409Y161D01*
X2426Y161D02*
X2449Y161D01*
X2455Y161D02*
X2470Y161D01*
X2488Y161D02*
X2511Y161D01*
X2524Y161D02*
X2547Y161D01*
X2578Y161D02*
X2601Y161D01*
X2609Y161D02*
X2624Y161D01*
X2642Y161D02*
X2665Y161D01*
X2678Y161D02*
X2701Y161D01*
X2715Y161D02*
X2738Y161D01*
X2755Y161D02*
X2778Y161D01*
X2807Y161D02*
X2829Y161D01*
X2838Y161D02*
X2852Y161D01*
X2871Y161D02*
X2894Y161D01*
X2898Y161D02*
X2915Y161D01*
X2932Y161D02*
X2955Y161D01*
X2968Y161D02*
X2991Y161D01*
X3008Y161D02*
X3031Y161D01*
X3044Y161D02*
X3067Y161D01*
X1676Y160D02*
X1697Y160D01*
X1711Y160D02*
X1733Y160D01*
X1746Y160D02*
X1769Y160D01*
X1777Y160D02*
X1791Y160D01*
X1810Y160D02*
X1833Y160D01*
X1864Y160D02*
X1887Y160D01*
X1940Y160D02*
X1977Y160D01*
X1990Y160D02*
X2013Y160D01*
X2032Y160D02*
X2070Y160D01*
X2082Y160D02*
X2105Y160D01*
X2117Y160D02*
X2140Y160D01*
X2151Y160D02*
X2174Y160D01*
X2191Y160D02*
X2214Y160D01*
X2226Y160D02*
X2249Y160D01*
X2261Y160D02*
X2284Y160D01*
X2295Y160D02*
X2317Y160D01*
X2337Y160D02*
X2374Y160D01*
X2386Y160D02*
X2409Y160D01*
X2426Y160D02*
X2449Y160D01*
X2456Y160D02*
X2470Y160D01*
X2488Y160D02*
X2511Y160D01*
X2524Y160D02*
X2547Y160D01*
X2578Y160D02*
X2601Y160D01*
X2610Y160D02*
X2624Y160D01*
X2642Y160D02*
X2665Y160D01*
X2678Y160D02*
X2701Y160D01*
X2715Y160D02*
X2738Y160D01*
X2755Y160D02*
X2778Y160D01*
X2807Y160D02*
X2829Y160D01*
X2838Y160D02*
X2852Y160D01*
X2871Y160D02*
X2894Y160D01*
X2898Y160D02*
X2915Y160D01*
X2932Y160D02*
X2955Y160D01*
X2969Y160D02*
X2991Y160D01*
X3008Y160D02*
X3031Y160D01*
X3045Y160D02*
X3067Y160D01*
X1676Y159D02*
X1697Y159D01*
X1711Y159D02*
X1734Y159D01*
X1746Y159D02*
X1769Y159D01*
X1777Y159D02*
X1792Y159D01*
X1810Y159D02*
X1833Y159D01*
X1865Y159D02*
X1887Y159D01*
X1941Y159D02*
X1977Y159D01*
X1991Y159D02*
X2013Y159D01*
X2034Y159D02*
X2070Y159D01*
X2082Y159D02*
X2105Y159D01*
X2117Y159D02*
X2140Y159D01*
X2151Y159D02*
X2174Y159D01*
X2191Y159D02*
X2214Y159D01*
X2226Y159D02*
X2249Y159D01*
X2261Y159D02*
X2284Y159D01*
X2295Y159D02*
X2318Y159D01*
X2339Y159D02*
X2375Y159D01*
X2386Y159D02*
X2409Y159D01*
X2426Y159D02*
X2449Y159D01*
X2456Y159D02*
X2470Y159D01*
X2489Y159D02*
X2512Y159D01*
X2525Y159D02*
X2547Y159D01*
X2578Y159D02*
X2601Y159D01*
X2610Y159D02*
X2624Y159D01*
X2643Y159D02*
X2666Y159D01*
X2679Y159D02*
X2701Y159D01*
X2715Y159D02*
X2738Y159D01*
X2755Y159D02*
X2778Y159D01*
X2807Y159D02*
X2830Y159D01*
X2838Y159D02*
X2853Y159D01*
X2871Y159D02*
X2894Y159D01*
X2899Y159D02*
X2915Y159D01*
X2932Y159D02*
X2955Y159D01*
X2969Y159D02*
X2992Y159D01*
X3009Y159D02*
X3031Y159D01*
X3045Y159D02*
X3067Y159D01*
X1676Y158D02*
X1698Y158D01*
X1711Y158D02*
X1734Y158D01*
X1746Y158D02*
X1769Y158D01*
X1778Y158D02*
X1792Y158D01*
X1810Y158D02*
X1833Y158D01*
X1865Y158D02*
X1888Y158D01*
X1944Y158D02*
X1978Y158D01*
X1991Y158D02*
X2014Y158D01*
X2036Y158D02*
X2070Y158D01*
X2082Y158D02*
X2105Y158D01*
X2117Y158D02*
X2140Y158D01*
X2151Y158D02*
X2174Y158D01*
X2191Y158D02*
X2214Y158D01*
X2226Y158D02*
X2249Y158D01*
X2261Y158D02*
X2284Y158D01*
X2295Y158D02*
X2318Y158D01*
X2341Y158D02*
X2375Y158D01*
X2387Y158D02*
X2409Y158D01*
X2426Y158D02*
X2449Y158D01*
X2456Y158D02*
X2470Y158D01*
X2489Y158D02*
X2512Y158D01*
X2525Y158D02*
X2547Y158D01*
X2579Y158D02*
X2601Y158D01*
X2610Y158D02*
X2624Y158D01*
X2643Y158D02*
X2666Y158D01*
X2679Y158D02*
X2702Y158D01*
X2716Y158D02*
X2738Y158D01*
X2755Y158D02*
X2778Y158D01*
X2807Y158D02*
X2830Y158D01*
X2839Y158D02*
X2853Y158D01*
X2871Y158D02*
X2894Y158D01*
X2899Y158D02*
X2916Y158D01*
X2933Y158D02*
X2955Y158D01*
X2969Y158D02*
X2992Y158D01*
X3009Y158D02*
X3032Y158D01*
X3045Y158D02*
X3067Y158D01*
X1677Y157D02*
X1698Y157D01*
X1711Y157D02*
X1734Y157D01*
X1746Y157D02*
X1769Y157D01*
X1778Y157D02*
X1792Y157D01*
X1810Y157D02*
X1833Y157D01*
X1865Y157D02*
X1888Y157D01*
X1946Y157D02*
X1978Y157D01*
X1991Y157D02*
X2014Y157D01*
X2039Y157D02*
X2070Y157D01*
X2082Y157D02*
X2105Y157D01*
X2117Y157D02*
X2141Y157D01*
X2152Y157D02*
X2174Y157D01*
X2191Y157D02*
X2214Y157D01*
X2226Y157D02*
X2249Y157D01*
X2261Y157D02*
X2284Y157D01*
X2296Y157D02*
X2318Y157D01*
X2344Y157D02*
X2375Y157D01*
X2387Y157D02*
X2410Y157D01*
X2427Y157D02*
X2449Y157D01*
X2457Y157D02*
X2471Y157D01*
X2489Y157D02*
X2512Y157D01*
X2525Y157D02*
X2547Y157D01*
X2579Y157D02*
X2601Y157D01*
X2610Y157D02*
X2625Y157D01*
X2643Y157D02*
X2666Y157D01*
X2679Y157D02*
X2702Y157D01*
X2716Y157D02*
X2739Y157D01*
X2755Y157D02*
X2778Y157D01*
X2808Y157D02*
X2830Y157D01*
X2839Y157D02*
X2853Y157D01*
X2871Y157D02*
X2894Y157D01*
X2899Y157D02*
X2916Y157D01*
X2933Y157D02*
X2956Y157D01*
X2969Y157D02*
X2992Y157D01*
X3009Y157D02*
X3032Y157D01*
X3045Y157D02*
X3067Y157D01*
X1677Y156D02*
X1698Y156D01*
X1712Y156D02*
X1734Y156D01*
X1747Y156D02*
X1769Y156D01*
X1778Y156D02*
X1793Y156D01*
X1811Y156D02*
X1834Y156D01*
X1865Y156D02*
X1888Y156D01*
X1949Y156D02*
X1978Y156D01*
X1991Y156D02*
X2014Y156D01*
X2042Y156D02*
X2070Y156D01*
X2083Y156D02*
X2106Y156D01*
X2118Y156D02*
X2141Y156D01*
X2152Y156D02*
X2175Y156D01*
X2191Y156D02*
X2214Y156D01*
X2226Y156D02*
X2250Y156D01*
X2262Y156D02*
X2285Y156D01*
X2296Y156D02*
X2318Y156D01*
X2347Y156D02*
X2375Y156D01*
X2387Y156D02*
X2410Y156D01*
X2427Y156D02*
X2449Y156D01*
X2457Y156D02*
X2471Y156D01*
X2489Y156D02*
X2512Y156D01*
X2525Y156D02*
X2548Y156D01*
X2579Y156D02*
X2602Y156D01*
X2611Y156D02*
X2625Y156D01*
X2643Y156D02*
X2666Y156D01*
X2679Y156D02*
X2702Y156D01*
X2716Y156D02*
X2739Y156D01*
X2755Y156D02*
X2779Y156D01*
X2808Y156D02*
X2830Y156D01*
X2839Y156D02*
X2854Y156D01*
X2871Y156D02*
X2894Y156D01*
X2899Y156D02*
X2916Y156D01*
X2933Y156D02*
X2956Y156D01*
X2969Y156D02*
X2992Y156D01*
X3009Y156D02*
X3032Y156D01*
X3045Y156D02*
X3068Y156D01*
X1677Y155D02*
X1698Y155D01*
X1712Y155D02*
X1734Y155D01*
X1747Y155D02*
X1769Y155D01*
X1778Y155D02*
X1793Y155D01*
X1811Y155D02*
X1834Y155D01*
X1865Y155D02*
X1888Y155D01*
X1953Y155D02*
X1978Y155D01*
X1991Y155D02*
X2015Y155D01*
X2045Y155D02*
X2070Y155D01*
X2083Y155D02*
X2106Y155D01*
X2118Y155D02*
X2141Y155D01*
X2152Y155D02*
X2175Y155D01*
X2191Y155D02*
X2214Y155D01*
X2227Y155D02*
X2250Y155D01*
X2262Y155D02*
X2285Y155D01*
X2296Y155D02*
X2318Y155D01*
X2350Y155D02*
X2375Y155D01*
X2387Y155D02*
X2410Y155D01*
X2427Y155D02*
X2450Y155D01*
X2457Y155D02*
X2472Y155D01*
X2489Y155D02*
X2512Y155D01*
X2525Y155D02*
X2548Y155D01*
X2579Y155D02*
X2602Y155D01*
X2611Y155D02*
X2625Y155D01*
X2643Y155D02*
X2666Y155D01*
X2679Y155D02*
X2702Y155D01*
X2716Y155D02*
X2739Y155D01*
X2755Y155D02*
X2779Y155D01*
X2808Y155D02*
X2830Y155D01*
X2840Y155D02*
X2854Y155D01*
X2871Y155D02*
X2895Y155D01*
X2900Y155D02*
X2917Y155D01*
X2933Y155D02*
X2956Y155D01*
X2970Y155D02*
X2993Y155D01*
X3009Y155D02*
X3032Y155D01*
X3045Y155D02*
X3068Y155D01*
X1677Y154D02*
X1698Y154D01*
X1712Y154D02*
X1735Y154D01*
X1747Y154D02*
X1770Y154D01*
X1779Y154D02*
X1794Y154D01*
X1811Y154D02*
X1834Y154D01*
X1865Y154D02*
X1888Y154D01*
X1955Y154D02*
X1978Y154D01*
X1992Y154D02*
X2015Y154D01*
X2047Y154D02*
X2071Y154D01*
X2083Y154D02*
X2106Y154D01*
X2118Y154D02*
X2141Y154D01*
X2152Y154D02*
X2175Y154D01*
X2191Y154D02*
X2215Y154D01*
X2227Y154D02*
X2250Y154D01*
X2262Y154D02*
X2285Y154D01*
X2296Y154D02*
X2319Y154D01*
X2351Y154D02*
X2375Y154D01*
X2387Y154D02*
X2410Y154D01*
X2427Y154D02*
X2450Y154D01*
X2457Y154D02*
X2472Y154D01*
X2489Y154D02*
X2512Y154D01*
X2526Y154D02*
X2548Y154D01*
X2580Y154D02*
X2602Y154D01*
X2611Y154D02*
X2626Y154D01*
X2643Y154D02*
X2666Y154D01*
X2680Y154D02*
X2703Y154D01*
X2716Y154D02*
X2739Y154D01*
X2755Y154D02*
X2779Y154D01*
X2808Y154D02*
X2831Y154D01*
X2840Y154D02*
X2854Y154D01*
X2871Y154D02*
X2895Y154D01*
X2900Y154D02*
X2917Y154D01*
X2933Y154D02*
X2956Y154D01*
X2970Y154D02*
X2993Y154D01*
X3009Y154D02*
X3032Y154D01*
X3046Y154D02*
X3068Y154D01*
X1678Y153D02*
X1699Y153D01*
X1712Y153D02*
X1735Y153D01*
X1747Y153D02*
X1770Y153D01*
X1779Y153D02*
X1794Y153D01*
X1811Y153D02*
X1835Y153D01*
X1865Y153D02*
X1888Y153D01*
X1955Y153D02*
X1978Y153D01*
X1992Y153D02*
X2015Y153D01*
X2048Y153D02*
X2071Y153D01*
X2083Y153D02*
X2106Y153D01*
X2118Y153D02*
X2142Y153D01*
X2153Y153D02*
X2175Y153D01*
X2191Y153D02*
X2215Y153D01*
X2227Y153D02*
X2250Y153D01*
X2262Y153D02*
X2285Y153D01*
X2296Y153D02*
X2319Y153D01*
X2352Y153D02*
X2375Y153D01*
X2388Y153D02*
X2411Y153D01*
X2427Y153D02*
X2450Y153D01*
X2458Y153D02*
X2472Y153D01*
X2489Y153D02*
X2512Y153D01*
X2526Y153D02*
X2548Y153D01*
X2580Y153D02*
X2602Y153D01*
X2612Y153D02*
X2626Y153D01*
X2643Y153D02*
X2666Y153D01*
X2680Y153D02*
X2703Y153D01*
X2716Y153D02*
X2740Y153D01*
X2755Y153D02*
X2779Y153D01*
X2808Y153D02*
X2831Y153D01*
X2840Y153D02*
X2855Y153D01*
X2872Y153D02*
X2895Y153D01*
X2901Y153D02*
X2918Y153D01*
X2934Y153D02*
X2957Y153D01*
X2970Y153D02*
X2993Y153D01*
X3009Y153D02*
X3032Y153D01*
X3046Y153D02*
X3068Y153D01*
X1678Y152D02*
X1699Y152D01*
X1712Y152D02*
X1735Y152D01*
X1748Y152D02*
X1770Y152D01*
X1780Y152D02*
X1794Y152D01*
X1811Y152D02*
X1835Y152D01*
X1865Y152D02*
X1888Y152D01*
X1955Y152D02*
X1978Y152D01*
X1992Y152D02*
X2016Y152D01*
X2048Y152D02*
X2071Y152D01*
X2083Y152D02*
X2107Y152D01*
X2118Y152D02*
X2142Y152D01*
X2153Y152D02*
X2176Y152D01*
X2191Y152D02*
X2215Y152D01*
X2227Y152D02*
X2251Y152D01*
X2262Y152D02*
X2286Y152D01*
X2297Y152D02*
X2320Y152D01*
X2352Y152D02*
X2375Y152D01*
X2388Y152D02*
X2411Y152D01*
X2427Y152D02*
X2450Y152D01*
X2458Y152D02*
X2473Y152D01*
X2489Y152D02*
X2513Y152D01*
X2526Y152D02*
X2548Y152D01*
X2580Y152D02*
X2602Y152D01*
X2612Y152D02*
X2627Y152D01*
X2643Y152D02*
X2666Y152D01*
X2680Y152D02*
X2703Y152D01*
X2717Y152D02*
X2740Y152D01*
X2755Y152D02*
X2779Y152D01*
X2809Y152D02*
X2831Y152D01*
X2841Y152D02*
X2855Y152D01*
X2872Y152D02*
X2895Y152D01*
X2901Y152D02*
X2918Y152D01*
X2934Y152D02*
X2957Y152D01*
X2970Y152D02*
X2993Y152D01*
X3009Y152D02*
X3033Y152D01*
X3046Y152D02*
X3068Y152D01*
X1678Y151D02*
X1699Y151D01*
X1713Y151D02*
X1735Y151D01*
X1748Y151D02*
X1770Y151D01*
X1780Y151D02*
X1795Y151D01*
X1811Y151D02*
X1836Y151D01*
X1865Y151D02*
X1888Y151D01*
X1955Y151D02*
X1979Y151D01*
X1992Y151D02*
X2017Y151D01*
X2048Y151D02*
X2071Y151D01*
X2083Y151D02*
X2107Y151D01*
X2118Y151D02*
X2142Y151D01*
X2153Y151D02*
X2176Y151D01*
X2191Y151D02*
X2215Y151D01*
X2227Y151D02*
X2251Y151D01*
X2262Y151D02*
X2286Y151D01*
X2297Y151D02*
X2322Y151D01*
X2353Y151D02*
X2375Y151D01*
X2388Y151D02*
X2411Y151D01*
X2427Y151D02*
X2450Y151D01*
X2458Y151D02*
X2473Y151D01*
X2489Y151D02*
X2513Y151D01*
X2526Y151D02*
X2548Y151D01*
X2580Y151D02*
X2603Y151D01*
X2612Y151D02*
X2627Y151D01*
X2643Y151D02*
X2666Y151D01*
X2680Y151D02*
X2704Y151D01*
X2717Y151D02*
X2740Y151D01*
X2755Y151D02*
X2779Y151D01*
X2809Y151D02*
X2831Y151D01*
X2841Y151D02*
X2856Y151D01*
X2872Y151D02*
X2895Y151D01*
X2901Y151D02*
X2919Y151D01*
X2934Y151D02*
X2957Y151D01*
X2970Y151D02*
X2994Y151D01*
X3009Y151D02*
X3033Y151D01*
X3046Y151D02*
X3069Y151D01*
X1678Y150D02*
X1699Y150D01*
X1713Y150D02*
X1735Y150D01*
X1748Y150D02*
X1770Y150D01*
X1780Y150D02*
X1795Y150D01*
X1811Y150D02*
X1836Y150D01*
X1865Y150D02*
X1888Y150D01*
X1904Y150D02*
X1911Y150D01*
X1955Y150D02*
X1979Y150D01*
X1992Y150D02*
X2018Y150D01*
X2048Y150D02*
X2071Y150D01*
X2084Y150D02*
X2107Y150D01*
X2119Y150D02*
X2143Y150D01*
X2153Y150D02*
X2176Y150D01*
X2191Y150D02*
X2215Y150D01*
X2227Y150D02*
X2251Y150D01*
X2263Y150D02*
X2286Y150D01*
X2297Y150D02*
X2323Y150D01*
X2352Y150D02*
X2376Y150D01*
X2388Y150D02*
X2411Y150D01*
X2427Y150D02*
X2450Y150D01*
X2459Y150D02*
X2474Y150D01*
X2489Y150D02*
X2513Y150D01*
X2526Y150D02*
X2549Y150D01*
X2580Y150D02*
X2603Y150D01*
X2613Y150D02*
X2628Y150D01*
X2643Y150D02*
X2667Y150D01*
X2680Y150D02*
X2704Y150D01*
X2717Y150D02*
X2741Y150D01*
X2755Y150D02*
X2779Y150D01*
X2809Y150D02*
X2831Y150D01*
X2841Y150D02*
X2856Y150D01*
X2872Y150D02*
X2895Y150D01*
X2902Y150D02*
X2919Y150D01*
X2934Y150D02*
X2958Y150D01*
X2970Y150D02*
X2994Y150D01*
X3009Y150D02*
X3033Y150D01*
X3046Y150D02*
X3069Y150D01*
X1678Y149D02*
X1699Y149D01*
X1713Y149D02*
X1736Y149D01*
X1748Y149D02*
X1771Y149D01*
X1781Y149D02*
X1796Y149D01*
X1811Y149D02*
X1837Y149D01*
X1865Y149D02*
X1888Y149D01*
X1902Y149D02*
X1913Y149D01*
X1955Y149D02*
X1979Y149D01*
X1992Y149D02*
X2019Y149D01*
X2048Y149D02*
X2071Y149D01*
X2084Y149D02*
X2108Y149D01*
X2119Y149D02*
X2143Y149D01*
X2153Y149D02*
X2177Y149D01*
X2191Y149D02*
X2215Y149D01*
X2228Y149D02*
X2252Y149D01*
X2263Y149D02*
X2287Y149D01*
X2297Y149D02*
X2324Y149D01*
X2352Y149D02*
X2376Y149D01*
X2388Y149D02*
X2412Y149D01*
X2427Y149D02*
X2450Y149D01*
X2459Y149D02*
X2474Y149D01*
X2489Y149D02*
X2513Y149D01*
X2526Y149D02*
X2549Y149D01*
X2581Y149D02*
X2603Y149D01*
X2613Y149D02*
X2628Y149D01*
X2643Y149D02*
X2667Y149D01*
X2681Y149D02*
X2704Y149D01*
X2717Y149D02*
X2741Y149D01*
X2755Y149D02*
X2779Y149D01*
X2809Y149D02*
X2832Y149D01*
X2842Y149D02*
X2857Y149D01*
X2872Y149D02*
X2895Y149D01*
X2902Y149D02*
X2920Y149D01*
X2934Y149D02*
X2958Y149D01*
X2971Y149D02*
X2994Y149D01*
X3009Y149D02*
X3033Y149D01*
X3046Y149D02*
X3069Y149D01*
X1678Y148D02*
X1699Y148D01*
X1713Y148D02*
X1736Y148D01*
X1748Y148D02*
X1771Y148D01*
X1781Y148D02*
X1797Y148D01*
X1811Y148D02*
X1838Y148D01*
X1865Y148D02*
X1888Y148D01*
X1901Y148D02*
X1915Y148D01*
X1931Y148D02*
X1931Y148D01*
X1955Y148D02*
X1979Y148D01*
X1993Y148D02*
X2020Y148D01*
X2048Y148D02*
X2072Y148D01*
X2084Y148D02*
X2108Y148D01*
X2119Y148D02*
X2143Y148D01*
X2154Y148D02*
X2177Y148D01*
X2191Y148D02*
X2216Y148D01*
X2228Y148D02*
X2252Y148D01*
X2263Y148D02*
X2287Y148D01*
X2297Y148D02*
X2325Y148D01*
X2352Y148D02*
X2376Y148D01*
X2389Y148D02*
X2412Y148D01*
X2427Y148D02*
X2450Y148D01*
X2460Y148D02*
X2475Y148D01*
X2489Y148D02*
X2514Y148D01*
X2527Y148D02*
X2549Y148D01*
X2581Y148D02*
X2603Y148D01*
X2614Y148D02*
X2629Y148D01*
X2643Y148D02*
X2667Y148D01*
X2681Y148D02*
X2705Y148D01*
X2717Y148D02*
X2742Y148D01*
X2755Y148D02*
X2779Y148D01*
X2809Y148D02*
X2832Y148D01*
X2842Y148D02*
X2857Y148D01*
X2872Y148D02*
X2895Y148D01*
X2903Y148D02*
X2920Y148D01*
X2934Y148D02*
X2958Y148D01*
X2971Y148D02*
X2995Y148D01*
X3009Y148D02*
X3034Y148D01*
X3046Y148D02*
X3069Y148D01*
X1679Y147D02*
X1699Y147D01*
X1714Y147D02*
X1736Y147D01*
X1749Y147D02*
X1771Y147D01*
X1782Y147D02*
X1797Y147D01*
X1811Y147D02*
X1839Y147D01*
X1865Y147D02*
X1888Y147D01*
X1900Y147D02*
X1916Y147D01*
X1931Y147D02*
X1933Y147D01*
X1955Y147D02*
X1980Y147D01*
X1993Y147D02*
X2021Y147D01*
X2048Y147D02*
X2072Y147D01*
X2084Y147D02*
X2109Y147D01*
X2119Y147D02*
X2144Y147D01*
X2154Y147D02*
X2178Y147D01*
X2191Y147D02*
X2216Y147D01*
X2228Y147D02*
X2253Y147D01*
X2263Y147D02*
X2288Y147D01*
X2298Y147D02*
X2326Y147D01*
X2352Y147D02*
X2377Y147D01*
X2389Y147D02*
X2413Y147D01*
X2426Y147D02*
X2450Y147D01*
X2460Y147D02*
X2476Y147D01*
X2489Y147D02*
X2514Y147D01*
X2527Y147D02*
X2549Y147D01*
X2581Y147D02*
X2603Y147D01*
X2614Y147D02*
X2630Y147D01*
X2643Y147D02*
X2668Y147D01*
X2681Y147D02*
X2705Y147D01*
X2717Y147D02*
X2742Y147D01*
X2755Y147D02*
X2779Y147D01*
X2810Y147D02*
X2832Y147D01*
X2843Y147D02*
X2858Y147D01*
X2871Y147D02*
X2895Y147D01*
X2903Y147D02*
X2921Y147D01*
X2934Y147D02*
X2959Y147D01*
X2971Y147D02*
X2996Y147D01*
X3009Y147D02*
X3034Y147D01*
X3047Y147D02*
X3069Y147D01*
X1679Y146D02*
X1700Y146D01*
X1714Y146D02*
X1736Y146D01*
X1749Y146D02*
X1771Y146D01*
X1782Y146D02*
X1798Y146D01*
X1811Y146D02*
X1841Y146D01*
X1865Y146D02*
X1888Y146D01*
X1899Y146D02*
X1917Y146D01*
X1931Y146D02*
X1935Y146D01*
X1954Y146D02*
X1981Y146D01*
X1993Y146D02*
X2023Y146D01*
X2047Y146D02*
X2073Y146D01*
X2084Y146D02*
X2109Y146D01*
X2119Y146D02*
X2144Y146D01*
X2154Y146D02*
X2178Y146D01*
X2191Y146D02*
X2217Y146D01*
X2228Y146D02*
X2253Y146D01*
X2263Y146D02*
X2288Y146D01*
X2298Y146D02*
X2327Y146D01*
X2352Y146D02*
X2377Y146D01*
X2389Y146D02*
X2414Y146D01*
X2426Y146D02*
X2450Y146D01*
X2461Y146D02*
X2476Y146D01*
X2489Y146D02*
X2515Y146D01*
X2527Y146D02*
X2549Y146D01*
X2581Y146D02*
X2604Y146D01*
X2615Y146D02*
X2631Y146D01*
X2643Y146D02*
X2669Y146D01*
X2681Y146D02*
X2706Y146D01*
X2717Y146D02*
X2743Y146D01*
X2755Y146D02*
X2779Y146D01*
X2810Y146D02*
X2832Y146D01*
X2843Y146D02*
X2859Y146D01*
X2871Y146D02*
X2895Y146D01*
X2904Y146D02*
X2922Y146D01*
X2934Y146D02*
X2959Y146D01*
X2971Y146D02*
X2996Y146D01*
X3008Y146D02*
X3035Y146D01*
X3047Y146D02*
X3069Y146D01*
X1678Y145D02*
X1700Y145D01*
X1714Y145D02*
X1736Y145D01*
X1749Y145D02*
X1771Y145D01*
X1783Y145D02*
X1799Y145D01*
X1810Y145D02*
X1842Y145D01*
X1865Y145D02*
X1888Y145D01*
X1898Y145D02*
X1918Y145D01*
X1931Y145D02*
X1937Y145D01*
X1954Y145D02*
X1982Y145D01*
X1993Y145D02*
X2024Y145D01*
X2047Y145D02*
X2074Y145D01*
X2084Y145D02*
X2110Y145D01*
X2119Y145D02*
X2145Y145D01*
X2154Y145D02*
X2179Y145D01*
X2191Y145D02*
X2218Y145D01*
X2228Y145D02*
X2254Y145D01*
X2263Y145D02*
X2288Y145D01*
X2298Y145D02*
X2328Y145D01*
X2351Y145D02*
X2378Y145D01*
X2389Y145D02*
X2415Y145D01*
X2426Y145D02*
X2450Y145D01*
X2461Y145D02*
X2477Y145D01*
X2489Y145D02*
X2516Y145D01*
X2527Y145D02*
X2549Y145D01*
X2581Y145D02*
X2604Y145D01*
X2615Y145D02*
X2631Y145D01*
X2643Y145D02*
X2670Y145D01*
X2681Y145D02*
X2707Y145D01*
X2717Y145D02*
X2744Y145D01*
X2755Y145D02*
X2779Y145D01*
X2810Y145D02*
X2832Y145D01*
X2844Y145D02*
X2860Y145D01*
X2871Y145D02*
X2895Y145D01*
X2904Y145D02*
X2923Y145D01*
X2934Y145D02*
X2960Y145D01*
X2971Y145D02*
X2997Y145D01*
X3008Y145D02*
X3036Y145D01*
X3047Y145D02*
X3070Y145D01*
X1678Y144D02*
X1700Y144D01*
X1714Y144D02*
X1737Y144D01*
X1749Y144D02*
X1772Y144D01*
X1783Y144D02*
X1800Y144D01*
X1810Y144D02*
X1843Y144D01*
X1864Y144D02*
X1888Y144D01*
X1897Y144D02*
X1918Y144D01*
X1931Y144D02*
X1939Y144D01*
X1953Y144D02*
X1983Y144D01*
X1993Y144D02*
X2025Y144D01*
X2047Y144D02*
X2075Y144D01*
X2084Y144D02*
X2111Y144D01*
X2119Y144D02*
X2145Y144D01*
X2154Y144D02*
X2180Y144D01*
X2190Y144D02*
X2219Y144D01*
X2228Y144D02*
X2255Y144D01*
X2263Y144D02*
X2289Y144D01*
X2298Y144D02*
X2330Y144D01*
X2351Y144D02*
X2379Y144D01*
X2389Y144D02*
X2416Y144D01*
X2425Y144D02*
X2450Y144D01*
X2462Y144D02*
X2478Y144D01*
X2488Y144D02*
X2517Y144D01*
X2527Y144D02*
X2549Y144D01*
X2582Y144D02*
X2604Y144D01*
X2616Y144D02*
X2632Y144D01*
X2642Y144D02*
X2671Y144D01*
X2681Y144D02*
X2708Y144D01*
X2717Y144D02*
X2745Y144D01*
X2754Y144D02*
X2778Y144D01*
X2810Y144D02*
X2833Y144D01*
X2844Y144D02*
X2860Y144D01*
X2871Y144D02*
X2895Y144D01*
X2905Y144D02*
X2924Y144D01*
X2934Y144D02*
X2961Y144D01*
X2971Y144D02*
X2999Y144D01*
X3008Y144D02*
X3037Y144D01*
X3047Y144D02*
X3070Y144D01*
X1677Y143D02*
X1700Y143D01*
X1714Y143D02*
X1737Y143D01*
X1749Y143D02*
X1772Y143D01*
X1784Y143D02*
X1801Y143D01*
X1809Y143D02*
X1845Y143D01*
X1864Y143D02*
X1888Y143D01*
X1897Y143D02*
X1919Y143D01*
X1931Y143D02*
X1942Y143D01*
X1952Y143D02*
X1984Y143D01*
X1992Y143D02*
X2027Y143D01*
X2046Y143D02*
X2076Y143D01*
X2084Y143D02*
X2113Y143D01*
X2118Y143D02*
X2146Y143D01*
X2155Y143D02*
X2182Y143D01*
X2189Y143D02*
X2220Y143D01*
X2227Y143D02*
X2256Y143D01*
X2262Y143D02*
X2290Y143D01*
X2298Y143D02*
X2332Y143D01*
X2351Y143D02*
X2380Y143D01*
X2387Y143D02*
X2418Y143D01*
X2424Y143D02*
X2449Y143D01*
X2462Y143D02*
X2479Y143D01*
X2488Y143D02*
X2519Y143D01*
X2526Y143D02*
X2549Y143D01*
X2582Y143D02*
X2604Y143D01*
X2616Y143D02*
X2633Y143D01*
X2642Y143D02*
X2673Y143D01*
X2680Y143D02*
X2709Y143D01*
X2717Y143D02*
X2747Y143D01*
X2753Y143D02*
X2778Y143D01*
X2810Y143D02*
X2833Y143D01*
X2845Y143D02*
X2862Y143D01*
X2870Y143D02*
X2894Y143D01*
X2905Y143D02*
X2925Y143D01*
X2932Y143D02*
X2962Y143D01*
X2970Y143D02*
X3000Y143D01*
X3007Y143D02*
X3038Y143D01*
X3046Y143D02*
X3070Y143D01*
X1672Y142D02*
X1700Y142D01*
X1715Y142D02*
X1737Y142D01*
X1750Y142D02*
X1772Y142D01*
X1784Y142D02*
X1802Y142D01*
X1808Y142D02*
X1847Y142D01*
X1863Y142D02*
X1888Y142D01*
X1896Y142D02*
X1919Y142D01*
X1931Y142D02*
X2029Y142D01*
X2045Y142D02*
X2147Y142D01*
X2155Y142D02*
X2290Y142D01*
X2299Y142D02*
X2334Y142D01*
X2350Y142D02*
X2449Y142D01*
X2463Y142D02*
X2481Y142D01*
X2487Y142D02*
X2549Y142D01*
X2582Y142D02*
X2604Y142D01*
X2617Y142D02*
X2634Y142D01*
X2640Y142D02*
X2710Y142D01*
X2716Y142D02*
X2778Y142D01*
X2811Y142D02*
X2833Y142D01*
X2845Y142D02*
X2863Y142D01*
X2869Y142D02*
X2894Y142D01*
X2906Y142D02*
X2964Y142D01*
X2970Y142D02*
X3070Y142D01*
X1669Y141D02*
X1700Y141D01*
X1715Y141D02*
X1737Y141D01*
X1750Y141D02*
X1772Y141D01*
X1785Y141D02*
X1850Y141D01*
X1862Y141D02*
X1888Y141D01*
X1896Y141D02*
X1919Y141D01*
X1932Y141D02*
X2033Y141D01*
X2043Y141D02*
X2148Y141D01*
X2155Y141D02*
X2291Y141D01*
X2299Y141D02*
X2337Y141D01*
X2348Y141D02*
X2449Y141D01*
X2463Y141D02*
X2549Y141D01*
X2582Y141D02*
X2605Y141D01*
X2617Y141D02*
X2778Y141D01*
X2811Y141D02*
X2833Y141D01*
X2846Y141D02*
X2894Y141D01*
X2907Y141D02*
X3070Y141D01*
X1669Y140D02*
X1700Y140D01*
X1715Y140D02*
X1737Y140D01*
X1750Y140D02*
X1772Y140D01*
X1785Y140D02*
X1887Y140D01*
X1896Y140D02*
X1919Y140D01*
X1932Y140D02*
X2149Y140D01*
X2155Y140D02*
X2292Y140D01*
X2299Y140D02*
X2449Y140D01*
X2464Y140D02*
X2549Y140D01*
X2583Y140D02*
X2605Y140D01*
X2618Y140D02*
X2777Y140D01*
X2811Y140D02*
X2833Y140D01*
X2847Y140D02*
X2894Y140D01*
X2908Y140D02*
X3070Y140D01*
X1669Y139D02*
X1700Y139D01*
X1715Y139D02*
X1737Y139D01*
X1750Y139D02*
X1773Y139D01*
X1786Y139D02*
X1833Y139D01*
X1836Y139D02*
X1887Y139D01*
X1896Y139D02*
X1919Y139D01*
X1933Y139D02*
X2015Y139D01*
X2018Y139D02*
X2150Y139D01*
X2155Y139D02*
X2293Y139D01*
X2299Y139D02*
X2448Y139D01*
X2465Y139D02*
X2549Y139D01*
X2583Y139D02*
X2605Y139D01*
X2619Y139D02*
X2777Y139D01*
X2811Y139D02*
X2833Y139D01*
X2847Y139D02*
X2893Y139D01*
X2908Y139D02*
X3069Y139D01*
X1669Y138D02*
X1700Y138D01*
X1716Y138D02*
X1738Y138D01*
X1751Y138D02*
X1773Y138D01*
X1787Y138D02*
X1832Y138D01*
X1837Y138D02*
X1887Y138D01*
X1896Y138D02*
X1920Y138D01*
X1933Y138D02*
X2015Y138D01*
X2019Y138D02*
X2151Y138D01*
X2156Y138D02*
X2294Y138D01*
X2299Y138D02*
X2448Y138D01*
X2466Y138D02*
X2549Y138D01*
X2583Y138D02*
X2605Y138D01*
X2619Y138D02*
X2777Y138D01*
X2812Y138D02*
X2834Y138D01*
X2848Y138D02*
X2893Y138D01*
X2909Y138D02*
X3069Y138D01*
X1669Y137D02*
X1699Y137D01*
X1716Y137D02*
X1738Y137D01*
X1751Y137D02*
X1773Y137D01*
X1788Y137D02*
X1832Y137D01*
X1838Y137D02*
X1886Y137D01*
X1896Y137D02*
X1919Y137D01*
X1934Y137D02*
X2015Y137D01*
X2020Y137D02*
X2152Y137D01*
X2156Y137D02*
X2296Y137D01*
X2300Y137D02*
X2448Y137D01*
X2466Y137D02*
X2549Y137D01*
X2583Y137D02*
X2605Y137D01*
X2620Y137D02*
X2777Y137D01*
X2812Y137D02*
X2834Y137D01*
X2849Y137D02*
X2892Y137D01*
X2910Y137D02*
X3069Y137D01*
X1669Y136D02*
X1699Y136D01*
X1716Y136D02*
X1738Y136D01*
X1751Y136D02*
X1773Y136D01*
X1789Y136D02*
X1831Y136D01*
X1839Y136D02*
X1886Y136D01*
X1896Y136D02*
X1919Y136D01*
X1934Y136D02*
X2014Y136D01*
X2021Y136D02*
X2154Y136D01*
X2156Y136D02*
X2297Y136D01*
X2299Y136D02*
X2323Y136D01*
X2326Y136D02*
X2447Y136D01*
X2467Y136D02*
X2548Y136D01*
X2583Y136D02*
X2606Y136D01*
X2621Y136D02*
X2664Y136D01*
X2666Y136D02*
X2776Y136D01*
X2812Y136D02*
X2834Y136D01*
X2850Y136D02*
X2892Y136D01*
X2911Y136D02*
X3068Y136D01*
X1670Y135D02*
X1699Y135D01*
X1716Y135D02*
X1738Y135D01*
X1751Y135D02*
X1773Y135D01*
X1789Y135D02*
X1831Y135D01*
X1840Y135D02*
X1885Y135D01*
X1896Y135D02*
X1919Y135D01*
X1935Y135D02*
X1975Y135D01*
X1978Y135D02*
X2014Y135D01*
X2022Y135D02*
X2068Y135D01*
X2071Y135D02*
X2105Y135D01*
X2107Y135D02*
X2212Y135D01*
X2214Y135D02*
X2249Y135D01*
X2251Y135D02*
X2323Y135D01*
X2327Y135D02*
X2373Y135D01*
X2375Y135D02*
X2409Y135D01*
X2411Y135D02*
X2446Y135D01*
X2468Y135D02*
X2509Y135D01*
X2513Y135D02*
X2548Y135D01*
X2584Y135D02*
X2606Y135D01*
X2622Y135D02*
X2663Y135D01*
X2667Y135D02*
X2776Y135D01*
X2812Y135D02*
X2834Y135D01*
X2851Y135D02*
X2891Y135D01*
X2912Y135D02*
X2992Y135D01*
X2994Y135D02*
X3030Y135D01*
X3032Y135D02*
X3068Y135D01*
X1670Y134D02*
X1699Y134D01*
X1716Y134D02*
X1738Y134D01*
X1751Y134D02*
X1773Y134D01*
X1790Y134D02*
X1830Y134D01*
X1841Y134D02*
X1885Y134D01*
X1896Y134D02*
X1919Y134D01*
X1936Y134D02*
X1974Y134D01*
X1979Y134D02*
X2013Y134D01*
X2024Y134D02*
X2067Y134D01*
X2072Y134D02*
X2104Y134D01*
X2108Y134D02*
X2140Y134D01*
X2143Y134D02*
X2211Y134D01*
X2216Y134D02*
X2248Y134D01*
X2252Y134D02*
X2284Y134D01*
X2286Y134D02*
X2323Y134D01*
X2328Y134D02*
X2372Y134D01*
X2376Y134D02*
X2409Y134D01*
X2412Y134D02*
X2446Y134D01*
X2469Y134D02*
X2508Y134D01*
X2514Y134D02*
X2548Y134D01*
X2584Y134D02*
X2606Y134D01*
X2623Y134D02*
X2662Y134D01*
X2668Y134D02*
X2702Y134D01*
X2705Y134D02*
X2737Y134D01*
X2741Y134D02*
X2775Y134D01*
X2812Y134D02*
X2834Y134D01*
X2852Y134D02*
X2891Y134D01*
X2913Y134D02*
X2955Y134D01*
X2959Y134D02*
X2991Y134D01*
X2995Y134D02*
X3029Y134D01*
X3033Y134D02*
X3067Y134D01*
X1671Y133D02*
X1698Y133D01*
X1717Y133D02*
X1739Y133D01*
X1752Y133D02*
X1774Y133D01*
X1792Y133D02*
X1829Y133D01*
X1843Y133D02*
X1884Y133D01*
X1897Y133D02*
X1918Y133D01*
X1937Y133D02*
X1974Y133D01*
X1980Y133D02*
X2013Y133D01*
X2025Y133D02*
X2066Y133D01*
X2073Y133D02*
X2104Y133D01*
X2109Y133D02*
X2140Y133D01*
X2144Y133D02*
X2210Y133D01*
X2217Y133D02*
X2248Y133D01*
X2253Y133D02*
X2283Y133D01*
X2288Y133D02*
X2323Y133D01*
X2330Y133D02*
X2371Y133D01*
X2377Y133D02*
X2408Y133D01*
X2413Y133D02*
X2445Y133D01*
X2470Y133D02*
X2507Y133D01*
X2515Y133D02*
X2547Y133D01*
X2584Y133D02*
X2606Y133D01*
X2624Y133D02*
X2661Y133D01*
X2669Y133D02*
X2701Y133D01*
X2706Y133D02*
X2737Y133D01*
X2742Y133D02*
X2774Y133D01*
X2813Y133D02*
X2834Y133D01*
X2853Y133D02*
X2890Y133D01*
X2914Y133D02*
X2954Y133D01*
X2960Y133D02*
X2990Y133D01*
X2996Y133D02*
X3028Y133D01*
X3035Y133D02*
X3067Y133D01*
X1672Y132D02*
X1698Y132D01*
X1717Y132D02*
X1739Y132D01*
X1752Y132D02*
X1774Y132D01*
X1793Y132D02*
X1828Y132D01*
X1844Y132D02*
X1883Y132D01*
X1898Y132D02*
X1918Y132D01*
X1938Y132D02*
X1973Y132D01*
X1982Y132D02*
X2012Y132D01*
X2027Y132D02*
X2065Y132D01*
X2074Y132D02*
X2103Y132D01*
X2110Y132D02*
X2139Y132D01*
X2145Y132D02*
X2209Y132D01*
X2218Y132D02*
X2247Y132D01*
X2254Y132D02*
X2283Y132D01*
X2289Y132D02*
X2323Y132D01*
X2331Y132D02*
X2370Y132D01*
X2379Y132D02*
X2407Y132D01*
X2415Y132D02*
X2444Y132D01*
X2471Y132D02*
X2506Y132D01*
X2516Y132D02*
X2546Y132D01*
X2584Y132D02*
X2606Y132D01*
X2625Y132D02*
X2660Y132D01*
X2670Y132D02*
X2700Y132D01*
X2708Y132D02*
X2736Y132D01*
X2744Y132D02*
X2774Y132D01*
X2813Y132D02*
X2835Y132D01*
X2854Y132D02*
X2889Y132D01*
X2916Y132D02*
X2953Y132D01*
X2961Y132D02*
X2990Y132D01*
X2997Y132D02*
X3027Y132D01*
X3036Y132D02*
X3066Y132D01*
X1673Y131D02*
X1697Y131D01*
X1717Y131D02*
X1739Y131D01*
X1752Y131D02*
X1774Y131D01*
X1794Y131D02*
X1827Y131D01*
X1846Y131D02*
X1882Y131D01*
X1898Y131D02*
X1917Y131D01*
X1939Y131D02*
X1972Y131D01*
X1983Y131D02*
X2011Y131D01*
X2028Y131D02*
X2064Y131D01*
X2075Y131D02*
X2102Y131D01*
X2111Y131D02*
X2138Y131D01*
X2147Y131D02*
X2208Y131D01*
X2219Y131D02*
X2246Y131D01*
X2255Y131D02*
X2282Y131D01*
X2291Y131D02*
X2324Y131D01*
X2333Y131D02*
X2368Y131D01*
X2380Y131D02*
X2406Y131D01*
X2416Y131D02*
X2444Y131D01*
X2473Y131D02*
X2505Y131D01*
X2517Y131D02*
X2546Y131D01*
X2585Y131D02*
X2606Y131D01*
X2627Y131D02*
X2659Y131D01*
X2671Y131D02*
X2700Y131D01*
X2709Y131D02*
X2736Y131D01*
X2745Y131D02*
X2773Y131D01*
X2813Y131D02*
X2835Y131D01*
X2855Y131D02*
X2888Y131D01*
X2917Y131D02*
X2951Y131D01*
X2962Y131D02*
X2989Y131D01*
X2998Y131D02*
X3026Y131D01*
X3037Y131D02*
X3066Y131D01*
X1673Y130D02*
X1696Y130D01*
X1717Y130D02*
X1739Y130D01*
X1752Y130D02*
X1774Y130D01*
X1796Y130D02*
X1826Y130D01*
X1848Y130D02*
X1881Y130D01*
X1899Y130D02*
X1917Y130D01*
X1940Y130D02*
X1971Y130D01*
X1985Y130D02*
X2010Y130D01*
X2030Y130D02*
X2063Y130D01*
X2076Y130D02*
X2101Y130D01*
X2113Y130D02*
X2137Y130D01*
X2148Y130D02*
X2207Y130D01*
X2220Y130D02*
X2245Y130D01*
X2256Y130D02*
X2281Y130D01*
X2292Y130D02*
X2324Y130D01*
X2335Y130D02*
X2367Y130D01*
X2382Y130D02*
X2405Y130D01*
X2417Y130D02*
X2442Y130D01*
X2474Y130D02*
X2504Y130D01*
X2519Y130D02*
X2545Y130D01*
X2585Y130D02*
X2607Y130D01*
X2628Y130D02*
X2658Y130D01*
X2673Y130D02*
X2699Y130D01*
X2710Y130D02*
X2735Y130D01*
X2746Y130D02*
X2771Y130D01*
X2813Y130D02*
X2835Y130D01*
X2857Y130D02*
X2887Y130D01*
X2919Y130D02*
X2950Y130D01*
X2964Y130D02*
X2988Y130D01*
X3000Y130D02*
X3025Y130D01*
X3039Y130D02*
X3065Y130D01*
X1675Y129D02*
X1695Y129D01*
X1718Y129D02*
X1739Y129D01*
X1753Y129D02*
X1774Y129D01*
X1798Y129D02*
X1824Y129D01*
X1850Y129D02*
X1879Y129D01*
X1900Y129D02*
X1916Y129D01*
X1941Y129D02*
X1970Y129D01*
X1986Y129D02*
X2009Y129D01*
X2032Y129D02*
X2061Y129D01*
X2078Y129D02*
X2100Y129D01*
X2114Y129D02*
X2136Y129D01*
X2150Y129D02*
X2206Y129D01*
X2222Y129D02*
X2244Y129D01*
X2258Y129D02*
X2280Y129D01*
X2294Y129D02*
X2325Y129D01*
X2337Y129D02*
X2366Y129D01*
X2384Y129D02*
X2404Y129D01*
X2418Y129D02*
X2441Y129D01*
X2476Y129D02*
X2503Y129D01*
X2521Y129D02*
X2544Y129D01*
X2585Y129D02*
X2606Y129D01*
X2630Y129D02*
X2656Y129D01*
X2674Y129D02*
X2697Y129D01*
X2712Y129D02*
X2734Y129D01*
X2748Y129D02*
X2770Y129D01*
X2813Y129D02*
X2835Y129D01*
X2859Y129D02*
X2885Y129D01*
X2921Y129D02*
X2949Y129D01*
X2965Y129D02*
X2987Y129D01*
X3001Y129D02*
X3024Y129D01*
X3040Y129D02*
X3064Y129D01*
X1676Y128D02*
X1694Y128D01*
X1718Y128D02*
X1739Y128D01*
X1753Y128D02*
X1774Y128D01*
X1800Y128D02*
X1823Y128D01*
X1852Y128D02*
X1878Y128D01*
X1901Y128D02*
X1914Y128D01*
X1943Y128D02*
X1968Y128D01*
X1988Y128D02*
X2008Y128D01*
X2034Y128D02*
X2059Y128D01*
X2080Y128D02*
X2099Y128D01*
X2116Y128D02*
X2134Y128D01*
X2152Y128D02*
X2182Y128D01*
X2184Y128D02*
X2204Y128D01*
X2224Y128D02*
X2243Y128D01*
X2259Y128D02*
X2278Y128D01*
X2295Y128D02*
X2325Y128D01*
X2339Y128D02*
X2364Y128D01*
X2386Y128D02*
X2402Y128D01*
X2420Y128D02*
X2440Y128D01*
X2478Y128D02*
X2501Y128D01*
X2523Y128D02*
X2543Y128D01*
X2586Y128D02*
X2606Y128D01*
X2632Y128D02*
X2654Y128D01*
X2676Y128D02*
X2696Y128D01*
X2714Y128D02*
X2732Y128D01*
X2749Y128D02*
X2768Y128D01*
X2814Y128D02*
X2835Y128D01*
X2861Y128D02*
X2883Y128D01*
X2922Y128D02*
X2947Y128D01*
X2967Y128D02*
X2986Y128D01*
X3003Y128D02*
X3022Y128D01*
X3042Y128D02*
X3062Y128D01*
X1677Y127D02*
X1692Y127D01*
X1719Y127D02*
X1738Y127D01*
X1754Y127D02*
X1773Y127D01*
X1802Y127D02*
X1820Y127D01*
X1855Y127D02*
X1875Y127D01*
X1903Y127D02*
X1912Y127D01*
X1945Y127D02*
X1966Y127D01*
X1991Y127D02*
X2006Y127D01*
X2037Y127D02*
X2057Y127D01*
X2082Y127D02*
X2097Y127D01*
X2118Y127D02*
X2133Y127D01*
X2154Y127D02*
X2183Y127D01*
X2186Y127D02*
X2202Y127D01*
X2226Y127D02*
X2241Y127D01*
X2261Y127D02*
X2277Y127D01*
X2297Y127D02*
X2327Y127D01*
X2342Y127D02*
X2362Y127D01*
X2389Y127D02*
X2400Y127D01*
X2422Y127D02*
X2438Y127D01*
X2481Y127D02*
X2498Y127D01*
X2525Y127D02*
X2541Y127D01*
X2587Y127D02*
X2605Y127D01*
X2635Y127D02*
X2652Y127D01*
X2679Y127D02*
X2695Y127D01*
X2716Y127D02*
X2731Y127D01*
X2751Y127D02*
X2766Y127D01*
X2814Y127D02*
X2834Y127D01*
X2864Y127D02*
X2880Y127D01*
X2925Y127D02*
X2945Y127D01*
X2969Y127D02*
X2985Y127D01*
X3005Y127D02*
X3020Y127D01*
X3045Y127D02*
X3061Y127D01*
X1679Y126D02*
X1689Y126D01*
X1728Y126D02*
X1729Y126D01*
X1807Y126D02*
X1815Y126D01*
X1858Y126D02*
X1872Y126D01*
X1949Y126D02*
X1962Y126D01*
X1994Y126D02*
X2003Y126D01*
X2041Y126D02*
X2054Y126D01*
X2085Y126D02*
X2095Y126D01*
X2120Y126D02*
X2130Y126D01*
X2155Y126D02*
X2186Y126D01*
X2189Y126D02*
X2200Y126D01*
X2229Y126D02*
X2239Y126D01*
X2264Y126D02*
X2274Y126D01*
X2299Y126D02*
X2329Y126D01*
X2345Y126D02*
X2359Y126D01*
X2425Y126D02*
X2435Y126D01*
X2486Y126D02*
X2493Y126D01*
X2528Y126D02*
X2538Y126D01*
X2596Y126D02*
X2597Y126D01*
X2637Y126D02*
X2637Y126D01*
X2639Y126D02*
X2648Y126D01*
X2682Y126D02*
X2692Y126D01*
X2719Y126D02*
X2729Y126D01*
X2754Y126D02*
X2764Y126D01*
X2868Y126D02*
X2876Y126D01*
X2928Y126D02*
X2942Y126D01*
X2972Y126D02*
X2982Y126D01*
X3008Y126D02*
X3018Y126D01*
X3048Y126D02*
X3058Y126D01*
X1683Y125D02*
X1684Y125D01*
X2157Y125D02*
X2188Y125D01*
X2301Y125D02*
X2332Y125D01*
X3013Y125D02*
X3013Y125D01*
X2158Y124D02*
X2190Y124D01*
X2302Y124D02*
X2334Y124D01*
X2159Y123D02*
X2192Y123D01*
X2302Y123D02*
X2336Y123D01*
X2159Y122D02*
X2193Y122D01*
X2303Y122D02*
X2337Y122D01*
X2159Y121D02*
X2195Y121D01*
X2303Y121D02*
X2338Y121D01*
X2160Y120D02*
X2196Y120D01*
X2303Y120D02*
X2340Y120D01*
X2160Y119D02*
X2197Y119D01*
X2304Y119D02*
X2341Y119D01*
X2160Y118D02*
X2198Y118D01*
X2304Y118D02*
X2342Y118D01*
X2160Y117D02*
X2199Y117D01*
X2304Y117D02*
X2343Y117D01*
X2160Y116D02*
X2183Y116D01*
X2186Y116D02*
X2200Y116D01*
X2304Y116D02*
X2327Y116D01*
X2330Y116D02*
X2343Y116D01*
X2161Y115D02*
X2183Y115D01*
X2188Y115D02*
X2200Y115D01*
X2304Y115D02*
X2327Y115D01*
X2332Y115D02*
X2344Y115D01*
X2161Y114D02*
X2183Y114D01*
X2189Y114D02*
X2201Y114D01*
X2305Y114D02*
X2327Y114D01*
X2333Y114D02*
X2345Y114D01*
X2161Y113D02*
X2184Y113D01*
X2190Y113D02*
X2202Y113D01*
X2305Y113D02*
X2328Y113D01*
X2334Y113D02*
X2345Y113D01*
X2162Y112D02*
X2184Y112D01*
X2191Y112D02*
X2202Y112D01*
X2305Y112D02*
X2328Y112D01*
X2335Y112D02*
X2346Y112D01*
X2162Y111D02*
X2184Y111D01*
X2192Y111D02*
X2203Y111D01*
X2306Y111D02*
X2328Y111D01*
X2336Y111D02*
X2346Y111D01*
X2162Y110D02*
X2185Y110D01*
X2193Y110D02*
X2203Y110D01*
X2306Y110D02*
X2329Y110D01*
X2337Y110D02*
X2347Y110D01*
X2163Y109D02*
X2185Y109D01*
X2193Y109D02*
X2203Y109D01*
X2306Y109D02*
X2329Y109D01*
X2337Y109D02*
X2347Y109D01*
X2163Y108D02*
X2186Y108D01*
X2193Y108D02*
X2204Y108D01*
X2307Y108D02*
X2330Y108D01*
X2338Y108D02*
X2347Y108D01*
X2163Y107D02*
X2186Y107D01*
X2193Y107D02*
X2204Y107D01*
X2307Y107D02*
X2330Y107D01*
X2338Y107D02*
X2348Y107D01*
X2164Y106D02*
X2187Y106D01*
X2193Y106D02*
X2204Y106D01*
X2308Y106D02*
X2331Y106D01*
X2337Y106D02*
X2348Y106D01*
X2164Y105D02*
X2189Y105D01*
X2192Y105D02*
X2204Y105D01*
X2308Y105D02*
X2332Y105D01*
X2336Y105D02*
X2348Y105D01*
X2165Y104D02*
X2204Y104D01*
X2309Y104D02*
X2348Y104D01*
X2165Y103D02*
X2204Y103D01*
X2309Y103D02*
X2347Y103D01*
X2166Y102D02*
X2203Y102D01*
X2310Y102D02*
X2347Y102D01*
X2167Y101D02*
X2203Y101D01*
X2311Y101D02*
X2347Y101D01*
X2167Y100D02*
X2202Y100D01*
X2311Y100D02*
X2346Y100D01*
X2168Y99D02*
X2202Y99D01*
X2312Y99D02*
X2346Y99D01*
X2169Y98D02*
X2201Y98D01*
X2313Y98D02*
X2345Y98D01*
X2170Y97D02*
X2201Y97D01*
X2314Y97D02*
X2344Y97D01*
X2171Y96D02*
X2200Y96D01*
X2315Y96D02*
X2344Y96D01*
X2172Y95D02*
X2199Y95D01*
X2316Y95D02*
X2343Y95D01*
X2174Y94D02*
X2198Y94D01*
X2317Y94D02*
X2341Y94D01*
X2175Y93D02*
X2196Y93D01*
X2319Y93D02*
X2340Y93D01*
X2178Y92D02*
X2194Y92D01*
X2321Y92D02*
X2338Y92D01*
X2183Y91D02*
X2190Y91D01*
X2326Y91D02*
X2334Y91D01*
D02*
G04 End of Mask0*
M02*