; NON-PLATED HOLES START AT T1
; THROUGH (PLATED) HOLES START AT T100
M48
INCH
T1C0.084000
T100C0.035000
T101C0.042000
T102C0.030000
T103C0.090551
T104C0.031496
T105C0.031497
T106C0.088356
T107C0.038000
T108C0.041333
T109C0.118110
T110C0.100000
T111C0.041361
T112C0.031555
T113C0.047244
%
T1
X021827Y029281
X012811Y029281
X018481Y029281
X016158Y029281
T100
X032035Y020726
X036249Y002099
X035035Y021726
X025722Y006235
X032035Y016726
X036216Y005584
X035035Y017726
X035035Y020726
X042074Y011356
X032035Y015726
X036216Y004584
X035035Y016726
X032035Y014726
X035035Y015726
X032389Y023929
X042222Y012467
X026956Y023378
X032035Y013726
X027983Y025218
X027983Y023447
X021492Y024348
X035035Y014726
X032035Y009726
X035389Y023929
X044000Y011356
X032035Y012726
X035035Y013726
X016768Y018119
X020390Y013482
X021964Y012852
X016768Y021119
X035035Y009726
X038018Y010782
X032035Y011726
X027034Y019599
X035035Y012726
X017319Y027269
X020390Y011198
X021964Y011852
X046138Y020332
X032035Y010726
X021492Y021348
X035035Y011726
X043857Y012520
X037467Y017657
X035035Y010726
X020311Y024348
X041649Y028993
X046138Y021356
X043382Y020332
X017319Y024269
X025722Y009235
X038018Y013189
X032035Y019726
X037467Y014657
X032035Y022726
X033463Y017448
X030542Y025218
X030542Y023447
X032035Y018726
X033463Y015152
X043382Y021356
X035035Y019726
X032035Y021726
X041649Y026474
X020311Y021348
X036249Y003099
X035035Y022726
X032035Y017726
X035035Y018726
T101
X020311Y020332
X043382Y010096
X021492Y020332
X034327Y002773
X034327Y003773
X046362Y010096
X034327Y004773
X020311Y017352
X021492Y017352
T102
X024611Y007596
X028037Y018821
X034518Y024842
X024611Y008598
X028566Y017091
X028037Y017819
X032518Y024842
X028566Y016089
T103
X014485Y027980
X018647Y026474
X021651Y026474
X012978Y026474
X020154Y027980
X015981Y026474
T104
X030151Y015464
T105
X038878Y014927
X038878Y015911
X027278Y007369
X027278Y008353
T106
X054827Y022734
X050944Y022734
X005457Y022734
X001574Y022734
T107
X023314Y021448
X023314Y014856
X039814Y010337
X042314Y020448
X035452Y026992
X037452Y026992
X039452Y026992
X023314Y018448
X042314Y025448
X036452Y026992
X038452Y026992
X042314Y017448
X023314Y012856
X023314Y024448
X042314Y023448
X023314Y009856
X040452Y026992
X042314Y015448
X023314Y010856
X023314Y022448
X023314Y015856
X039814Y011337
X042314Y021448
X023314Y019448
X042314Y013448
X042314Y018448
X023314Y020448
X023314Y013856
X023314Y025448
X042314Y024448
X042314Y016448
X023314Y011856
X023314Y023448
X023314Y016856
X042314Y022448
X042314Y014448
X039814Y009337
T108
X051886Y019781
X003516Y019781
X002516Y019781
X052886Y019781
T109
X002909Y028049
X053854Y002930
X002830Y002930
X053933Y028049
T110
X050232Y025649
X050232Y028049
X048332Y026849
T111
X004516Y019781
X053886Y019781
T112
X030150Y017395
T113
X012531Y004018
X017413Y008742
X013844Y015016
X051256Y009820
X013923Y005410
X018805Y010134
X049287Y009820
X051256Y004899
X010443Y008889
X015325Y013614
X049287Y004899
X008972Y017104
X007728Y008900
X012452Y013624
X010364Y018496
X013933Y012222
X005640Y013771
X009051Y007497
X004248Y012379
X009120Y010291
T00
M30
