G04 MADE WITH FRITZING*
G04 WWW.FRITZING.ORG*
G04 DOUBLE SIDED*
G04 HOLES PLATED*
G04 CONTOUR ON CENTER OF CONTOUR VECTOR*
%ASAXBY*%
%FSLAX23Y23*%
%MOIN*%
%OFA0B0*%
%SFA1.0B1.0*%
%ADD10R,0.001000X0.001000*%
%LNSILK0*%
G90*
G70*
G54D10*
X355Y3068D02*
X5355Y3068D01*
X342Y3067D02*
X5368Y3067D01*
X332Y3066D02*
X5378Y3066D01*
X324Y3065D02*
X5386Y3065D01*
X317Y3064D02*
X5393Y3064D01*
X312Y3063D02*
X5398Y3063D01*
X306Y3062D02*
X5404Y3062D01*
X301Y3061D02*
X5409Y3061D01*
X297Y3060D02*
X355Y3060D01*
X5355Y3060D02*
X5413Y3060D01*
X292Y3059D02*
X341Y3059D01*
X5369Y3059D02*
X5418Y3059D01*
X288Y3058D02*
X331Y3058D01*
X5379Y3058D02*
X5422Y3058D01*
X284Y3057D02*
X324Y3057D01*
X5386Y3057D02*
X5426Y3057D01*
X280Y3056D02*
X317Y3056D01*
X5393Y3056D02*
X5430Y3056D01*
X276Y3055D02*
X311Y3055D01*
X5399Y3055D02*
X5434Y3055D01*
X273Y3054D02*
X306Y3054D01*
X5404Y3054D02*
X5437Y3054D01*
X270Y3053D02*
X301Y3053D01*
X5409Y3053D02*
X5440Y3053D01*
X266Y3052D02*
X296Y3052D01*
X5414Y3052D02*
X5444Y3052D01*
X263Y3051D02*
X291Y3051D01*
X5419Y3051D02*
X5447Y3051D01*
X260Y3050D02*
X287Y3050D01*
X5423Y3050D02*
X5450Y3050D01*
X257Y3049D02*
X283Y3049D01*
X5427Y3049D02*
X5453Y3049D01*
X255Y3048D02*
X280Y3048D01*
X5430Y3048D02*
X5455Y3048D01*
X252Y3047D02*
X276Y3047D01*
X5434Y3047D02*
X5458Y3047D01*
X249Y3046D02*
X273Y3046D01*
X5437Y3046D02*
X5461Y3046D01*
X246Y3045D02*
X270Y3045D01*
X5440Y3045D02*
X5464Y3045D01*
X243Y3044D02*
X266Y3044D01*
X5444Y3044D02*
X5467Y3044D01*
X241Y3043D02*
X263Y3043D01*
X5447Y3043D02*
X5469Y3043D01*
X239Y3042D02*
X260Y3042D01*
X5450Y3042D02*
X5471Y3042D01*
X236Y3041D02*
X257Y3041D01*
X5453Y3041D02*
X5474Y3041D01*
X234Y3040D02*
X254Y3040D01*
X5456Y3040D02*
X5476Y3040D01*
X231Y3039D02*
X252Y3039D01*
X5458Y3039D02*
X5479Y3039D01*
X229Y3038D02*
X249Y3038D01*
X5461Y3038D02*
X5481Y3038D01*
X227Y3037D02*
X246Y3037D01*
X5464Y3037D02*
X5483Y3037D01*
X224Y3036D02*
X244Y3036D01*
X5466Y3036D02*
X5486Y3036D01*
X222Y3035D02*
X241Y3035D01*
X5469Y3035D02*
X5488Y3035D01*
X220Y3034D02*
X239Y3034D01*
X5471Y3034D02*
X5490Y3034D01*
X218Y3033D02*
X236Y3033D01*
X5474Y3033D02*
X5492Y3033D01*
X216Y3032D02*
X234Y3032D01*
X5476Y3032D02*
X5494Y3032D01*
X214Y3031D02*
X231Y3031D01*
X5479Y3031D02*
X5496Y3031D01*
X212Y3030D02*
X229Y3030D01*
X5481Y3030D02*
X5498Y3030D01*
X210Y3029D02*
X227Y3029D01*
X5483Y3029D02*
X5500Y3029D01*
X208Y3028D02*
X225Y3028D01*
X5485Y3028D02*
X5502Y3028D01*
X206Y3027D02*
X223Y3027D01*
X5487Y3027D02*
X5504Y3027D01*
X204Y3026D02*
X221Y3026D01*
X5489Y3026D02*
X5506Y3026D01*
X202Y3025D02*
X218Y3025D01*
X5492Y3025D02*
X5508Y3025D01*
X200Y3024D02*
X216Y3024D01*
X5494Y3024D02*
X5510Y3024D01*
X198Y3023D02*
X214Y3023D01*
X5496Y3023D02*
X5512Y3023D01*
X196Y3022D02*
X212Y3022D01*
X5498Y3022D02*
X5514Y3022D01*
X195Y3021D02*
X210Y3021D01*
X5500Y3021D02*
X5515Y3021D01*
X193Y3020D02*
X209Y3020D01*
X5501Y3020D02*
X5517Y3020D01*
X191Y3019D02*
X207Y3019D01*
X5503Y3019D02*
X5519Y3019D01*
X190Y3018D02*
X205Y3018D01*
X5505Y3018D02*
X5520Y3018D01*
X188Y3017D02*
X203Y3017D01*
X5507Y3017D02*
X5522Y3017D01*
X186Y3016D02*
X201Y3016D01*
X5509Y3016D02*
X5524Y3016D01*
X185Y3015D02*
X199Y3015D01*
X5511Y3015D02*
X5525Y3015D01*
X183Y3014D02*
X197Y3014D01*
X5513Y3014D02*
X5527Y3014D01*
X181Y3013D02*
X196Y3013D01*
X5514Y3013D02*
X5529Y3013D01*
X180Y3012D02*
X194Y3012D01*
X5516Y3012D02*
X5530Y3012D01*
X178Y3011D02*
X192Y3011D01*
X5518Y3011D02*
X5532Y3011D01*
X177Y3010D02*
X191Y3010D01*
X5519Y3010D02*
X5533Y3010D01*
X175Y3009D02*
X189Y3009D01*
X5521Y3009D02*
X5535Y3009D01*
X174Y3008D02*
X187Y3008D01*
X5523Y3008D02*
X5536Y3008D01*
X172Y3007D02*
X186Y3007D01*
X5524Y3007D02*
X5538Y3007D01*
X171Y3006D02*
X184Y3006D01*
X5526Y3006D02*
X5539Y3006D01*
X169Y3005D02*
X182Y3005D01*
X5528Y3005D02*
X5541Y3005D01*
X168Y3004D02*
X181Y3004D01*
X5529Y3004D02*
X5542Y3004D01*
X166Y3003D02*
X179Y3003D01*
X5531Y3003D02*
X5544Y3003D01*
X165Y3002D02*
X178Y3002D01*
X5532Y3002D02*
X5545Y3002D01*
X163Y3001D02*
X176Y3001D01*
X5534Y3001D02*
X5547Y3001D01*
X162Y3000D02*
X175Y3000D01*
X5535Y3000D02*
X5548Y3000D01*
X160Y2999D02*
X173Y2999D01*
X5537Y2999D02*
X5550Y2999D01*
X159Y2998D02*
X172Y2998D01*
X5538Y2998D02*
X5551Y2998D01*
X158Y2997D02*
X170Y2997D01*
X5540Y2997D02*
X5552Y2997D01*
X156Y2996D02*
X169Y2996D01*
X5541Y2996D02*
X5554Y2996D01*
X155Y2995D02*
X167Y2995D01*
X5543Y2995D02*
X5555Y2995D01*
X154Y2994D02*
X166Y2994D01*
X5544Y2994D02*
X5556Y2994D01*
X152Y2993D02*
X165Y2993D01*
X5545Y2993D02*
X5558Y2993D01*
X151Y2992D02*
X163Y2992D01*
X5547Y2992D02*
X5559Y2992D01*
X150Y2991D02*
X162Y2991D01*
X5548Y2991D02*
X5560Y2991D01*
X148Y2990D02*
X161Y2990D01*
X5549Y2990D02*
X5562Y2990D01*
X147Y2989D02*
X159Y2989D01*
X5551Y2989D02*
X5563Y2989D01*
X146Y2988D02*
X158Y2988D01*
X5552Y2988D02*
X5564Y2988D01*
X145Y2987D02*
X157Y2987D01*
X5553Y2987D02*
X5565Y2987D01*
X143Y2986D02*
X155Y2986D01*
X5555Y2986D02*
X5567Y2986D01*
X142Y2985D02*
X154Y2985D01*
X5556Y2985D02*
X5568Y2985D01*
X141Y2984D02*
X153Y2984D01*
X5557Y2984D02*
X5569Y2984D01*
X140Y2983D02*
X151Y2983D01*
X5559Y2983D02*
X5570Y2983D01*
X139Y2982D02*
X150Y2982D01*
X5560Y2982D02*
X5571Y2982D01*
X137Y2981D02*
X149Y2981D01*
X5561Y2981D02*
X5573Y2981D01*
X136Y2980D02*
X148Y2980D01*
X5562Y2980D02*
X5574Y2980D01*
X135Y2979D02*
X146Y2979D01*
X5564Y2979D02*
X5575Y2979D01*
X134Y2978D02*
X145Y2978D01*
X5565Y2978D02*
X5576Y2978D01*
X133Y2977D02*
X144Y2977D01*
X5566Y2977D02*
X5577Y2977D01*
X132Y2976D02*
X143Y2976D01*
X5567Y2976D02*
X5578Y2976D01*
X130Y2975D02*
X142Y2975D01*
X5568Y2975D02*
X5580Y2975D01*
X129Y2974D02*
X140Y2974D01*
X5570Y2974D02*
X5581Y2974D01*
X128Y2973D02*
X139Y2973D01*
X5571Y2973D02*
X5582Y2973D01*
X127Y2972D02*
X138Y2972D01*
X5572Y2972D02*
X5583Y2972D01*
X126Y2971D02*
X137Y2971D01*
X5573Y2971D02*
X5584Y2971D01*
X125Y2970D02*
X136Y2970D01*
X5574Y2970D02*
X5585Y2970D01*
X124Y2969D02*
X135Y2969D01*
X5575Y2969D02*
X5586Y2969D01*
X123Y2968D02*
X134Y2968D01*
X5576Y2968D02*
X5587Y2968D01*
X122Y2967D02*
X132Y2967D01*
X5578Y2967D02*
X5588Y2967D01*
X121Y2966D02*
X131Y2966D01*
X5579Y2966D02*
X5589Y2966D01*
X120Y2965D02*
X130Y2965D01*
X5580Y2965D02*
X5590Y2965D01*
X119Y2964D02*
X129Y2964D01*
X5581Y2964D02*
X5591Y2964D01*
X118Y2963D02*
X128Y2963D01*
X5582Y2963D02*
X5592Y2963D01*
X117Y2962D02*
X127Y2962D01*
X5583Y2962D02*
X5593Y2962D01*
X116Y2961D02*
X126Y2961D01*
X5584Y2961D02*
X5595Y2961D01*
X114Y2960D02*
X125Y2960D01*
X5585Y2960D02*
X5596Y2960D01*
X113Y2959D02*
X124Y2959D01*
X5586Y2959D02*
X5597Y2959D01*
X112Y2958D02*
X123Y2958D01*
X5587Y2958D02*
X5598Y2958D01*
X111Y2957D02*
X122Y2957D01*
X5588Y2957D02*
X5599Y2957D01*
X110Y2956D02*
X121Y2956D01*
X5589Y2956D02*
X5600Y2956D01*
X109Y2955D02*
X120Y2955D01*
X5590Y2955D02*
X5601Y2955D01*
X108Y2954D02*
X119Y2954D01*
X5591Y2954D02*
X5602Y2954D01*
X108Y2953D02*
X118Y2953D01*
X5592Y2953D02*
X5602Y2953D01*
X107Y2952D02*
X117Y2952D01*
X5593Y2952D02*
X5603Y2952D01*
X106Y2951D02*
X116Y2951D01*
X5594Y2951D02*
X5604Y2951D01*
X105Y2950D02*
X115Y2950D01*
X5595Y2950D02*
X5605Y2950D01*
X104Y2949D02*
X114Y2949D01*
X5596Y2949D02*
X5606Y2949D01*
X103Y2948D02*
X113Y2948D01*
X5597Y2948D02*
X5607Y2948D01*
X102Y2947D02*
X112Y2947D01*
X5598Y2947D02*
X5608Y2947D01*
X101Y2946D02*
X111Y2946D01*
X5599Y2946D02*
X5609Y2946D01*
X100Y2945D02*
X110Y2945D01*
X5600Y2945D02*
X5610Y2945D01*
X99Y2944D02*
X109Y2944D01*
X5601Y2944D02*
X5611Y2944D01*
X98Y2943D02*
X108Y2943D01*
X5602Y2943D02*
X5612Y2943D01*
X97Y2942D02*
X107Y2942D01*
X5603Y2942D02*
X5613Y2942D01*
X97Y2941D02*
X106Y2941D01*
X5604Y2941D02*
X5613Y2941D01*
X96Y2940D02*
X105Y2940D01*
X5605Y2940D02*
X5614Y2940D01*
X95Y2939D02*
X105Y2939D01*
X5605Y2939D02*
X5615Y2939D01*
X94Y2938D02*
X104Y2938D01*
X5606Y2938D02*
X5616Y2938D01*
X93Y2937D02*
X103Y2937D01*
X5607Y2937D02*
X5617Y2937D01*
X92Y2936D02*
X102Y2936D01*
X5608Y2936D02*
X5618Y2936D01*
X92Y2935D02*
X101Y2935D01*
X5609Y2935D02*
X5618Y2935D01*
X91Y2934D02*
X100Y2934D01*
X5610Y2934D02*
X5619Y2934D01*
X90Y2933D02*
X99Y2933D01*
X5611Y2933D02*
X5620Y2933D01*
X89Y2932D02*
X98Y2932D01*
X5612Y2932D02*
X5621Y2932D01*
X88Y2931D02*
X98Y2931D01*
X5612Y2931D02*
X5622Y2931D01*
X87Y2930D02*
X97Y2930D01*
X5613Y2930D02*
X5623Y2930D01*
X86Y2929D02*
X96Y2929D01*
X5614Y2929D02*
X5624Y2929D01*
X86Y2928D02*
X95Y2928D01*
X5615Y2928D02*
X5624Y2928D01*
X85Y2927D02*
X94Y2927D01*
X5616Y2927D02*
X5625Y2927D01*
X84Y2926D02*
X93Y2926D01*
X5617Y2926D02*
X5626Y2926D01*
X83Y2925D02*
X93Y2925D01*
X5617Y2925D02*
X5627Y2925D01*
X83Y2924D02*
X92Y2924D01*
X5618Y2924D02*
X5627Y2924D01*
X82Y2923D02*
X91Y2923D01*
X5619Y2923D02*
X5628Y2923D01*
X81Y2922D02*
X90Y2922D01*
X5620Y2922D02*
X5629Y2922D01*
X80Y2921D02*
X89Y2921D01*
X5621Y2921D02*
X5630Y2921D01*
X80Y2920D02*
X89Y2920D01*
X5621Y2920D02*
X5630Y2920D01*
X79Y2919D02*
X88Y2919D01*
X5622Y2919D02*
X5631Y2919D01*
X78Y2918D02*
X87Y2918D01*
X5623Y2918D02*
X5632Y2918D01*
X77Y2917D02*
X86Y2917D01*
X5624Y2917D02*
X5633Y2917D01*
X77Y2916D02*
X86Y2916D01*
X5624Y2916D02*
X5633Y2916D01*
X76Y2915D02*
X85Y2915D01*
X5625Y2915D02*
X5634Y2915D01*
X75Y2914D02*
X84Y2914D01*
X5626Y2914D02*
X5635Y2914D01*
X74Y2913D02*
X83Y2913D01*
X5627Y2913D02*
X5636Y2913D01*
X74Y2912D02*
X82Y2912D01*
X5628Y2912D02*
X5636Y2912D01*
X73Y2911D02*
X82Y2911D01*
X5628Y2911D02*
X5637Y2911D01*
X72Y2910D02*
X81Y2910D01*
X5629Y2910D02*
X5638Y2910D01*
X72Y2909D02*
X80Y2909D01*
X5630Y2909D02*
X5639Y2909D01*
X71Y2908D02*
X79Y2908D01*
X5631Y2908D02*
X5639Y2908D01*
X70Y2907D02*
X79Y2907D01*
X5631Y2907D02*
X5640Y2907D01*
X69Y2906D02*
X78Y2906D01*
X5632Y2906D02*
X5641Y2906D01*
X69Y2905D02*
X77Y2905D01*
X5633Y2905D02*
X5641Y2905D01*
X68Y2904D02*
X77Y2904D01*
X5633Y2904D02*
X5642Y2904D01*
X67Y2903D02*
X76Y2903D01*
X5634Y2903D02*
X5643Y2903D01*
X67Y2902D02*
X75Y2902D01*
X5635Y2902D02*
X5643Y2902D01*
X66Y2901D02*
X75Y2901D01*
X5635Y2901D02*
X5644Y2901D01*
X65Y2900D02*
X74Y2900D01*
X5636Y2900D02*
X5645Y2900D01*
X65Y2899D02*
X73Y2899D01*
X5637Y2899D02*
X5645Y2899D01*
X64Y2898D02*
X73Y2898D01*
X5637Y2898D02*
X5646Y2898D01*
X63Y2897D02*
X72Y2897D01*
X5638Y2897D02*
X5647Y2897D01*
X63Y2896D02*
X71Y2896D01*
X5639Y2896D02*
X5647Y2896D01*
X62Y2895D02*
X70Y2895D01*
X5640Y2895D02*
X5648Y2895D01*
X61Y2894D02*
X70Y2894D01*
X5640Y2894D02*
X5649Y2894D01*
X61Y2893D02*
X69Y2893D01*
X5641Y2893D02*
X5649Y2893D01*
X60Y2892D02*
X69Y2892D01*
X5641Y2892D02*
X5650Y2892D01*
X60Y2891D02*
X68Y2891D01*
X5642Y2891D02*
X5650Y2891D01*
X59Y2890D02*
X67Y2890D01*
X5643Y2890D02*
X5651Y2890D01*
X58Y2889D02*
X67Y2889D01*
X5643Y2889D02*
X5652Y2889D01*
X58Y2888D02*
X66Y2888D01*
X5644Y2888D02*
X5652Y2888D01*
X57Y2887D02*
X65Y2887D01*
X5645Y2887D02*
X5653Y2887D01*
X56Y2886D02*
X65Y2886D01*
X5645Y2886D02*
X5654Y2886D01*
X56Y2885D02*
X64Y2885D01*
X5646Y2885D02*
X5654Y2885D01*
X55Y2884D02*
X64Y2884D01*
X5646Y2884D02*
X5655Y2884D01*
X55Y2883D02*
X63Y2883D01*
X5647Y2883D02*
X5655Y2883D01*
X54Y2882D02*
X62Y2882D01*
X5648Y2882D02*
X5656Y2882D01*
X53Y2881D02*
X62Y2881D01*
X5648Y2881D02*
X5657Y2881D01*
X53Y2880D02*
X61Y2880D01*
X5649Y2880D02*
X5657Y2880D01*
X52Y2879D02*
X60Y2879D01*
X5650Y2879D02*
X5658Y2879D01*
X52Y2878D02*
X60Y2878D01*
X5650Y2878D02*
X5658Y2878D01*
X51Y2877D02*
X59Y2877D01*
X5651Y2877D02*
X5659Y2877D01*
X51Y2876D02*
X59Y2876D01*
X5651Y2876D02*
X5659Y2876D01*
X50Y2875D02*
X58Y2875D01*
X5652Y2875D02*
X5660Y2875D01*
X50Y2874D02*
X58Y2874D01*
X5652Y2874D02*
X5660Y2874D01*
X49Y2873D02*
X57Y2873D01*
X5653Y2873D02*
X5661Y2873D01*
X48Y2872D02*
X56Y2872D01*
X5654Y2872D02*
X5662Y2872D01*
X48Y2871D02*
X56Y2871D01*
X5654Y2871D02*
X5662Y2871D01*
X47Y2870D02*
X55Y2870D01*
X5655Y2870D02*
X5663Y2870D01*
X47Y2869D02*
X55Y2869D01*
X5655Y2869D02*
X5663Y2869D01*
X46Y2868D02*
X54Y2868D01*
X5656Y2868D02*
X5664Y2868D01*
X46Y2867D02*
X54Y2867D01*
X5656Y2867D02*
X5664Y2867D01*
X45Y2866D02*
X53Y2866D01*
X5657Y2866D02*
X5665Y2866D01*
X45Y2865D02*
X53Y2865D01*
X5657Y2865D02*
X5665Y2865D01*
X44Y2864D02*
X52Y2864D01*
X5658Y2864D02*
X5666Y2864D01*
X44Y2863D02*
X51Y2863D01*
X5659Y2863D02*
X5666Y2863D01*
X43Y2862D02*
X51Y2862D01*
X5659Y2862D02*
X5667Y2862D01*
X43Y2861D02*
X50Y2861D01*
X5660Y2861D02*
X5667Y2861D01*
X42Y2860D02*
X50Y2860D01*
X5660Y2860D02*
X5668Y2860D01*
X42Y2859D02*
X49Y2859D01*
X5661Y2859D02*
X5668Y2859D01*
X41Y2858D02*
X49Y2858D01*
X5661Y2858D02*
X5669Y2858D01*
X41Y2857D02*
X48Y2857D01*
X5662Y2857D02*
X5669Y2857D01*
X40Y2856D02*
X48Y2856D01*
X5662Y2856D02*
X5670Y2856D01*
X40Y2855D02*
X47Y2855D01*
X5663Y2855D02*
X5670Y2855D01*
X39Y2854D02*
X47Y2854D01*
X5663Y2854D02*
X5671Y2854D01*
X39Y2853D02*
X46Y2853D01*
X5664Y2853D02*
X5671Y2853D01*
X38Y2852D02*
X46Y2852D01*
X5664Y2852D02*
X5672Y2852D01*
X38Y2851D02*
X45Y2851D01*
X5665Y2851D02*
X5672Y2851D01*
X37Y2850D02*
X45Y2850D01*
X5665Y2850D02*
X5673Y2850D01*
X37Y2849D02*
X44Y2849D01*
X5666Y2849D02*
X5673Y2849D01*
X36Y2848D02*
X44Y2848D01*
X5666Y2848D02*
X5674Y2848D01*
X36Y2847D02*
X43Y2847D01*
X5667Y2847D02*
X5674Y2847D01*
X35Y2846D02*
X43Y2846D01*
X5667Y2846D02*
X5675Y2846D01*
X35Y2845D02*
X43Y2845D01*
X5667Y2845D02*
X5675Y2845D01*
X35Y2844D02*
X42Y2844D01*
X5668Y2844D02*
X5675Y2844D01*
X34Y2843D02*
X42Y2843D01*
X5668Y2843D02*
X5676Y2843D01*
X34Y2842D02*
X41Y2842D01*
X5669Y2842D02*
X5676Y2842D01*
X33Y2841D02*
X41Y2841D01*
X5669Y2841D02*
X5677Y2841D01*
X33Y2840D02*
X40Y2840D01*
X5670Y2840D02*
X5677Y2840D01*
X32Y2839D02*
X40Y2839D01*
X5670Y2839D02*
X5678Y2839D01*
X32Y2838D02*
X39Y2838D01*
X5670Y2838D02*
X5678Y2838D01*
X31Y2837D02*
X39Y2837D01*
X5671Y2837D02*
X5679Y2837D01*
X31Y2836D02*
X39Y2836D01*
X5671Y2836D02*
X5679Y2836D01*
X31Y2835D02*
X38Y2835D01*
X5672Y2835D02*
X5679Y2835D01*
X30Y2834D02*
X38Y2834D01*
X5672Y2834D02*
X5680Y2834D01*
X30Y2833D02*
X37Y2833D01*
X5673Y2833D02*
X5680Y2833D01*
X29Y2832D02*
X37Y2832D01*
X5673Y2832D02*
X5681Y2832D01*
X29Y2831D02*
X36Y2831D01*
X5674Y2831D02*
X5681Y2831D01*
X29Y2830D02*
X36Y2830D01*
X5674Y2830D02*
X5681Y2830D01*
X28Y2829D02*
X36Y2829D01*
X5674Y2829D02*
X5682Y2829D01*
X28Y2828D02*
X35Y2828D01*
X5675Y2828D02*
X5682Y2828D01*
X27Y2827D02*
X35Y2827D01*
X5675Y2827D02*
X5683Y2827D01*
X27Y2826D02*
X34Y2826D01*
X5676Y2826D02*
X5683Y2826D01*
X27Y2825D02*
X34Y2825D01*
X5676Y2825D02*
X5683Y2825D01*
X26Y2824D02*
X34Y2824D01*
X5676Y2824D02*
X5684Y2824D01*
X26Y2823D02*
X33Y2823D01*
X5677Y2823D02*
X5684Y2823D01*
X25Y2822D02*
X33Y2822D01*
X5677Y2822D02*
X5685Y2822D01*
X25Y2821D02*
X33Y2821D01*
X5677Y2821D02*
X5685Y2821D01*
X25Y2820D02*
X32Y2820D01*
X5678Y2820D02*
X5685Y2820D01*
X24Y2819D02*
X32Y2819D01*
X5678Y2819D02*
X5686Y2819D01*
X24Y2818D02*
X31Y2818D01*
X5679Y2818D02*
X5686Y2818D01*
X24Y2817D02*
X31Y2817D01*
X5679Y2817D02*
X5686Y2817D01*
X23Y2816D02*
X31Y2816D01*
X5679Y2816D02*
X5687Y2816D01*
X23Y2815D02*
X30Y2815D01*
X5680Y2815D02*
X5687Y2815D01*
X22Y2814D02*
X30Y2814D01*
X5680Y2814D02*
X5688Y2814D01*
X22Y2813D02*
X29Y2813D01*
X5681Y2813D02*
X5688Y2813D01*
X22Y2812D02*
X29Y2812D01*
X5681Y2812D02*
X5688Y2812D01*
X21Y2811D02*
X29Y2811D01*
X5681Y2811D02*
X5689Y2811D01*
X21Y2810D02*
X28Y2810D01*
X5682Y2810D02*
X5689Y2810D01*
X21Y2809D02*
X28Y2809D01*
X5682Y2809D02*
X5689Y2809D01*
X21Y2808D02*
X28Y2808D01*
X5682Y2808D02*
X5689Y2808D01*
X20Y2807D02*
X27Y2807D01*
X5683Y2807D02*
X5690Y2807D01*
X20Y2806D02*
X27Y2806D01*
X5683Y2806D02*
X5690Y2806D01*
X20Y2805D02*
X27Y2805D01*
X5683Y2805D02*
X5690Y2805D01*
X19Y2804D02*
X26Y2804D01*
X5684Y2804D02*
X5691Y2804D01*
X19Y2803D02*
X26Y2803D01*
X5684Y2803D02*
X5691Y2803D01*
X19Y2802D02*
X26Y2802D01*
X5684Y2802D02*
X5691Y2802D01*
X18Y2801D02*
X25Y2801D01*
X5685Y2801D02*
X5692Y2801D01*
X18Y2800D02*
X25Y2800D01*
X5685Y2800D02*
X5692Y2800D01*
X18Y2799D02*
X25Y2799D01*
X5685Y2799D02*
X5692Y2799D01*
X17Y2798D02*
X25Y2798D01*
X5685Y2798D02*
X5693Y2798D01*
X17Y2797D02*
X24Y2797D01*
X5686Y2797D02*
X5693Y2797D01*
X17Y2796D02*
X24Y2796D01*
X5686Y2796D02*
X5693Y2796D01*
X16Y2795D02*
X24Y2795D01*
X5686Y2795D02*
X5694Y2795D01*
X16Y2794D02*
X23Y2794D01*
X5687Y2794D02*
X5694Y2794D01*
X16Y2793D02*
X23Y2793D01*
X5687Y2793D02*
X5694Y2793D01*
X16Y2792D02*
X23Y2792D01*
X5687Y2792D02*
X5694Y2792D01*
X15Y2791D02*
X22Y2791D01*
X5688Y2791D02*
X5695Y2791D01*
X15Y2790D02*
X22Y2790D01*
X5688Y2790D02*
X5695Y2790D01*
X15Y2789D02*
X22Y2789D01*
X5688Y2789D02*
X5695Y2789D01*
X14Y2788D02*
X22Y2788D01*
X5688Y2788D02*
X5696Y2788D01*
X14Y2787D02*
X21Y2787D01*
X5689Y2787D02*
X5696Y2787D01*
X14Y2786D02*
X21Y2786D01*
X5689Y2786D02*
X5696Y2786D01*
X14Y2785D02*
X21Y2785D01*
X5689Y2785D02*
X5696Y2785D01*
X13Y2784D02*
X20Y2784D01*
X5690Y2784D02*
X5697Y2784D01*
X13Y2783D02*
X20Y2783D01*
X5690Y2783D02*
X5697Y2783D01*
X13Y2782D02*
X20Y2782D01*
X5690Y2782D02*
X5697Y2782D01*
X12Y2781D02*
X20Y2781D01*
X5690Y2781D02*
X5698Y2781D01*
X12Y2780D02*
X19Y2780D01*
X5691Y2780D02*
X5698Y2780D01*
X12Y2779D02*
X19Y2779D01*
X5691Y2779D02*
X5698Y2779D01*
X12Y2778D02*
X19Y2778D01*
X5691Y2778D02*
X5698Y2778D01*
X11Y2777D02*
X19Y2777D01*
X5691Y2777D02*
X5699Y2777D01*
X11Y2776D02*
X18Y2776D01*
X5692Y2776D02*
X5699Y2776D01*
X11Y2775D02*
X18Y2775D01*
X5692Y2775D02*
X5699Y2775D01*
X11Y2774D02*
X18Y2774D01*
X5692Y2774D02*
X5699Y2774D01*
X10Y2773D02*
X18Y2773D01*
X5692Y2773D02*
X5700Y2773D01*
X10Y2772D02*
X17Y2772D01*
X5693Y2772D02*
X5700Y2772D01*
X10Y2771D02*
X17Y2771D01*
X5693Y2771D02*
X5700Y2771D01*
X10Y2770D02*
X17Y2770D01*
X5693Y2770D02*
X5700Y2770D01*
X10Y2769D02*
X17Y2769D01*
X5693Y2769D02*
X5700Y2769D01*
X9Y2768D02*
X16Y2768D01*
X5694Y2768D02*
X5701Y2768D01*
X9Y2767D02*
X16Y2767D01*
X5694Y2767D02*
X5701Y2767D01*
X9Y2766D02*
X16Y2766D01*
X5694Y2766D02*
X5701Y2766D01*
X9Y2765D02*
X16Y2765D01*
X5694Y2765D02*
X5701Y2765D01*
X9Y2764D02*
X16Y2764D01*
X5694Y2764D02*
X5702Y2764D01*
X8Y2763D02*
X15Y2763D01*
X5695Y2763D02*
X5702Y2763D01*
X8Y2762D02*
X15Y2762D01*
X5695Y2762D02*
X5702Y2762D01*
X8Y2761D02*
X15Y2761D01*
X5695Y2761D02*
X5702Y2761D01*
X8Y2760D02*
X15Y2760D01*
X5695Y2760D02*
X5702Y2760D01*
X7Y2759D02*
X15Y2759D01*
X5695Y2759D02*
X5703Y2759D01*
X7Y2758D02*
X14Y2758D01*
X5696Y2758D02*
X5703Y2758D01*
X7Y2757D02*
X14Y2757D01*
X5696Y2757D02*
X5703Y2757D01*
X7Y2756D02*
X14Y2756D01*
X5696Y2756D02*
X5703Y2756D01*
X7Y2755D02*
X14Y2755D01*
X5696Y2755D02*
X5703Y2755D01*
X7Y2754D02*
X14Y2754D01*
X5696Y2754D02*
X5703Y2754D01*
X6Y2753D02*
X13Y2753D01*
X5697Y2753D02*
X5704Y2753D01*
X6Y2752D02*
X13Y2752D01*
X5697Y2752D02*
X5704Y2752D01*
X6Y2751D02*
X13Y2751D01*
X5697Y2751D02*
X5704Y2751D01*
X6Y2750D02*
X13Y2750D01*
X5697Y2750D02*
X5704Y2750D01*
X6Y2749D02*
X13Y2749D01*
X5697Y2749D02*
X5704Y2749D01*
X5Y2748D02*
X13Y2748D01*
X5697Y2748D02*
X5705Y2748D01*
X5Y2747D02*
X12Y2747D01*
X5698Y2747D02*
X5705Y2747D01*
X5Y2746D02*
X12Y2746D01*
X5698Y2746D02*
X5705Y2746D01*
X5Y2745D02*
X12Y2745D01*
X5698Y2745D02*
X5705Y2745D01*
X5Y2744D02*
X12Y2744D01*
X5698Y2744D02*
X5705Y2744D01*
X5Y2743D02*
X12Y2743D01*
X5698Y2743D02*
X5705Y2743D01*
X5Y2742D02*
X12Y2742D01*
X5698Y2742D02*
X5705Y2742D01*
X4Y2741D02*
X11Y2741D01*
X5699Y2741D02*
X5706Y2741D01*
X4Y2740D02*
X11Y2740D01*
X5699Y2740D02*
X5706Y2740D01*
X4Y2739D02*
X11Y2739D01*
X5699Y2739D02*
X5706Y2739D01*
X4Y2738D02*
X11Y2738D01*
X5699Y2738D02*
X5706Y2738D01*
X4Y2737D02*
X11Y2737D01*
X5699Y2737D02*
X5706Y2737D01*
X4Y2736D02*
X11Y2736D01*
X5699Y2736D02*
X5706Y2736D01*
X4Y2735D02*
X11Y2735D01*
X5699Y2735D02*
X5706Y2735D01*
X3Y2734D02*
X10Y2734D01*
X5700Y2734D02*
X5707Y2734D01*
X3Y2733D02*
X10Y2733D01*
X5700Y2733D02*
X5707Y2733D01*
X3Y2732D02*
X10Y2732D01*
X5700Y2732D02*
X5707Y2732D01*
X3Y2731D02*
X10Y2731D01*
X5700Y2731D02*
X5707Y2731D01*
X3Y2730D02*
X10Y2730D01*
X5700Y2730D02*
X5707Y2730D01*
X3Y2729D02*
X10Y2729D01*
X5700Y2729D02*
X5707Y2729D01*
X3Y2728D02*
X10Y2728D01*
X5700Y2728D02*
X5707Y2728D01*
X3Y2727D02*
X10Y2727D01*
X5700Y2727D02*
X5707Y2727D01*
X2Y2726D02*
X9Y2726D01*
X5701Y2726D02*
X5708Y2726D01*
X2Y2725D02*
X9Y2725D01*
X5701Y2725D02*
X5708Y2725D01*
X2Y2724D02*
X9Y2724D01*
X5701Y2724D02*
X5708Y2724D01*
X2Y2723D02*
X9Y2723D01*
X5701Y2723D02*
X5708Y2723D01*
X2Y2722D02*
X9Y2722D01*
X5701Y2722D02*
X5708Y2722D01*
X2Y2721D02*
X9Y2721D01*
X5701Y2721D02*
X5708Y2721D01*
X2Y2720D02*
X9Y2720D01*
X5701Y2720D02*
X5708Y2720D01*
X2Y2719D02*
X9Y2719D01*
X5701Y2719D02*
X5708Y2719D01*
X2Y2718D02*
X9Y2718D01*
X5701Y2718D02*
X5708Y2718D01*
X2Y2717D02*
X9Y2717D01*
X5701Y2717D02*
X5708Y2717D01*
X1Y2716D02*
X8Y2716D01*
X5702Y2716D02*
X5709Y2716D01*
X1Y2715D02*
X8Y2715D01*
X5702Y2715D02*
X5709Y2715D01*
X1Y2714D02*
X8Y2714D01*
X5702Y2714D02*
X5709Y2714D01*
X1Y2713D02*
X8Y2713D01*
X5702Y2713D02*
X5709Y2713D01*
X1Y2712D02*
X8Y2712D01*
X5702Y2712D02*
X5709Y2712D01*
X1Y2711D02*
X8Y2711D01*
X5702Y2711D02*
X5709Y2711D01*
X1Y2710D02*
X8Y2710D01*
X5702Y2710D02*
X5709Y2710D01*
X1Y2709D02*
X8Y2709D01*
X5702Y2709D02*
X5709Y2709D01*
X1Y2708D02*
X8Y2708D01*
X5702Y2708D02*
X5709Y2708D01*
X1Y2707D02*
X8Y2707D01*
X5702Y2707D02*
X5709Y2707D01*
X1Y2706D02*
X8Y2706D01*
X5702Y2706D02*
X5709Y2706D01*
X1Y2705D02*
X8Y2705D01*
X5702Y2705D02*
X5709Y2705D01*
X1Y2704D02*
X8Y2704D01*
X5702Y2704D02*
X5709Y2704D01*
X1Y2703D02*
X8Y2703D01*
X5702Y2703D02*
X5709Y2703D01*
X0Y2702D02*
X7Y2702D01*
X5703Y2702D02*
X5710Y2702D01*
X0Y2701D02*
X7Y2701D01*
X5703Y2701D02*
X5710Y2701D01*
X0Y2700D02*
X7Y2700D01*
X5703Y2700D02*
X5710Y2700D01*
X0Y2699D02*
X7Y2699D01*
X5703Y2699D02*
X5710Y2699D01*
X0Y2698D02*
X7Y2698D01*
X5703Y2698D02*
X5710Y2698D01*
X0Y2697D02*
X7Y2697D01*
X5703Y2697D02*
X5710Y2697D01*
X0Y2696D02*
X7Y2696D01*
X5703Y2696D02*
X5710Y2696D01*
X0Y2695D02*
X7Y2695D01*
X5703Y2695D02*
X5710Y2695D01*
X0Y2694D02*
X7Y2694D01*
X5703Y2694D02*
X5710Y2694D01*
X0Y2693D02*
X7Y2693D01*
X5703Y2693D02*
X5710Y2693D01*
X0Y2692D02*
X7Y2692D01*
X5703Y2692D02*
X5710Y2692D01*
X0Y2691D02*
X7Y2691D01*
X5703Y2691D02*
X5710Y2691D01*
X0Y2690D02*
X7Y2690D01*
X5703Y2690D02*
X5710Y2690D01*
X0Y2689D02*
X7Y2689D01*
X5703Y2689D02*
X5710Y2689D01*
X0Y2688D02*
X7Y2688D01*
X5703Y2688D02*
X5710Y2688D01*
X0Y2687D02*
X7Y2687D01*
X5703Y2687D02*
X5710Y2687D01*
X0Y2686D02*
X7Y2686D01*
X5703Y2686D02*
X5710Y2686D01*
X0Y2685D02*
X7Y2685D01*
X5703Y2685D02*
X5710Y2685D01*
X0Y2684D02*
X7Y2684D01*
X5703Y2684D02*
X5710Y2684D01*
X0Y2683D02*
X7Y2683D01*
X5703Y2683D02*
X5710Y2683D01*
X0Y2682D02*
X7Y2682D01*
X5703Y2682D02*
X5710Y2682D01*
X0Y2681D02*
X7Y2681D01*
X5703Y2681D02*
X5710Y2681D01*
X0Y2680D02*
X7Y2680D01*
X5703Y2680D02*
X5710Y2680D01*
X0Y2679D02*
X7Y2679D01*
X5703Y2679D02*
X5710Y2679D01*
X0Y2678D02*
X7Y2678D01*
X5703Y2678D02*
X5710Y2678D01*
X0Y2677D02*
X7Y2677D01*
X5703Y2677D02*
X5710Y2677D01*
X0Y2676D02*
X7Y2676D01*
X5703Y2676D02*
X5710Y2676D01*
X0Y2675D02*
X7Y2675D01*
X5703Y2675D02*
X5710Y2675D01*
X0Y2674D02*
X7Y2674D01*
X5703Y2674D02*
X5710Y2674D01*
X0Y2673D02*
X7Y2673D01*
X5703Y2673D02*
X5710Y2673D01*
X0Y2672D02*
X7Y2672D01*
X5703Y2672D02*
X5710Y2672D01*
X0Y2671D02*
X7Y2671D01*
X5703Y2671D02*
X5710Y2671D01*
X0Y2670D02*
X7Y2670D01*
X5703Y2670D02*
X5710Y2670D01*
X0Y2669D02*
X7Y2669D01*
X5703Y2669D02*
X5710Y2669D01*
X0Y2668D02*
X7Y2668D01*
X5703Y2668D02*
X5710Y2668D01*
X0Y2667D02*
X7Y2667D01*
X5703Y2667D02*
X5710Y2667D01*
X0Y2666D02*
X7Y2666D01*
X5703Y2666D02*
X5710Y2666D01*
X0Y2665D02*
X7Y2665D01*
X5703Y2665D02*
X5710Y2665D01*
X0Y2664D02*
X7Y2664D01*
X5703Y2664D02*
X5710Y2664D01*
X0Y2663D02*
X7Y2663D01*
X5703Y2663D02*
X5710Y2663D01*
X0Y2662D02*
X7Y2662D01*
X5703Y2662D02*
X5710Y2662D01*
X0Y2661D02*
X7Y2661D01*
X5703Y2661D02*
X5710Y2661D01*
X0Y2660D02*
X7Y2660D01*
X5703Y2660D02*
X5710Y2660D01*
X0Y2659D02*
X7Y2659D01*
X5703Y2659D02*
X5710Y2659D01*
X0Y2658D02*
X7Y2658D01*
X5703Y2658D02*
X5710Y2658D01*
X0Y2657D02*
X7Y2657D01*
X5703Y2657D02*
X5710Y2657D01*
X0Y2656D02*
X7Y2656D01*
X5703Y2656D02*
X5710Y2656D01*
X0Y2655D02*
X7Y2655D01*
X5703Y2655D02*
X5710Y2655D01*
X0Y2654D02*
X7Y2654D01*
X5703Y2654D02*
X5710Y2654D01*
X0Y2653D02*
X7Y2653D01*
X5703Y2653D02*
X5710Y2653D01*
X0Y2652D02*
X7Y2652D01*
X5703Y2652D02*
X5710Y2652D01*
X0Y2651D02*
X7Y2651D01*
X5703Y2651D02*
X5710Y2651D01*
X0Y2650D02*
X7Y2650D01*
X5703Y2650D02*
X5710Y2650D01*
X0Y2649D02*
X7Y2649D01*
X5703Y2649D02*
X5710Y2649D01*
X0Y2648D02*
X7Y2648D01*
X5703Y2648D02*
X5710Y2648D01*
X0Y2647D02*
X7Y2647D01*
X5703Y2647D02*
X5710Y2647D01*
X0Y2646D02*
X7Y2646D01*
X5703Y2646D02*
X5710Y2646D01*
X0Y2645D02*
X7Y2645D01*
X5703Y2645D02*
X5710Y2645D01*
X0Y2644D02*
X7Y2644D01*
X5703Y2644D02*
X5710Y2644D01*
X0Y2643D02*
X7Y2643D01*
X5703Y2643D02*
X5710Y2643D01*
X0Y2642D02*
X7Y2642D01*
X5703Y2642D02*
X5710Y2642D01*
X0Y2641D02*
X7Y2641D01*
X5703Y2641D02*
X5710Y2641D01*
X0Y2640D02*
X7Y2640D01*
X5703Y2640D02*
X5710Y2640D01*
X0Y2639D02*
X7Y2639D01*
X5703Y2639D02*
X5710Y2639D01*
X0Y2638D02*
X7Y2638D01*
X5703Y2638D02*
X5710Y2638D01*
X0Y2637D02*
X7Y2637D01*
X5703Y2637D02*
X5710Y2637D01*
X0Y2636D02*
X7Y2636D01*
X5703Y2636D02*
X5710Y2636D01*
X0Y2635D02*
X7Y2635D01*
X5703Y2635D02*
X5710Y2635D01*
X0Y2634D02*
X7Y2634D01*
X5703Y2634D02*
X5710Y2634D01*
X0Y2633D02*
X7Y2633D01*
X5703Y2633D02*
X5710Y2633D01*
X0Y2632D02*
X7Y2632D01*
X5703Y2632D02*
X5710Y2632D01*
X0Y2631D02*
X7Y2631D01*
X5703Y2631D02*
X5710Y2631D01*
X0Y2630D02*
X7Y2630D01*
X5703Y2630D02*
X5710Y2630D01*
X0Y2629D02*
X7Y2629D01*
X5703Y2629D02*
X5710Y2629D01*
X0Y2628D02*
X7Y2628D01*
X5703Y2628D02*
X5710Y2628D01*
X0Y2627D02*
X7Y2627D01*
X5703Y2627D02*
X5710Y2627D01*
X0Y2626D02*
X7Y2626D01*
X5703Y2626D02*
X5710Y2626D01*
X0Y2625D02*
X7Y2625D01*
X5703Y2625D02*
X5710Y2625D01*
X0Y2624D02*
X7Y2624D01*
X5703Y2624D02*
X5710Y2624D01*
X0Y2623D02*
X7Y2623D01*
X5703Y2623D02*
X5710Y2623D01*
X0Y2622D02*
X7Y2622D01*
X5703Y2622D02*
X5710Y2622D01*
X0Y2621D02*
X7Y2621D01*
X5703Y2621D02*
X5710Y2621D01*
X0Y2620D02*
X7Y2620D01*
X5703Y2620D02*
X5710Y2620D01*
X0Y2619D02*
X7Y2619D01*
X5703Y2619D02*
X5710Y2619D01*
X0Y2618D02*
X7Y2618D01*
X5703Y2618D02*
X5710Y2618D01*
X0Y2617D02*
X7Y2617D01*
X5703Y2617D02*
X5710Y2617D01*
X0Y2616D02*
X7Y2616D01*
X5703Y2616D02*
X5710Y2616D01*
X0Y2615D02*
X7Y2615D01*
X5703Y2615D02*
X5710Y2615D01*
X0Y2614D02*
X7Y2614D01*
X5703Y2614D02*
X5710Y2614D01*
X0Y2613D02*
X7Y2613D01*
X5703Y2613D02*
X5710Y2613D01*
X0Y2612D02*
X7Y2612D01*
X5703Y2612D02*
X5710Y2612D01*
X0Y2611D02*
X7Y2611D01*
X5703Y2611D02*
X5710Y2611D01*
X0Y2610D02*
X7Y2610D01*
X5703Y2610D02*
X5710Y2610D01*
X0Y2609D02*
X7Y2609D01*
X5703Y2609D02*
X5710Y2609D01*
X0Y2608D02*
X7Y2608D01*
X5703Y2608D02*
X5710Y2608D01*
X0Y2607D02*
X7Y2607D01*
X5703Y2607D02*
X5710Y2607D01*
X0Y2606D02*
X7Y2606D01*
X5703Y2606D02*
X5710Y2606D01*
X0Y2605D02*
X7Y2605D01*
X5703Y2605D02*
X5710Y2605D01*
X0Y2604D02*
X7Y2604D01*
X5703Y2604D02*
X5710Y2604D01*
X0Y2603D02*
X7Y2603D01*
X5703Y2603D02*
X5710Y2603D01*
X0Y2602D02*
X7Y2602D01*
X5703Y2602D02*
X5710Y2602D01*
X0Y2601D02*
X7Y2601D01*
X5703Y2601D02*
X5710Y2601D01*
X0Y2600D02*
X7Y2600D01*
X5703Y2600D02*
X5710Y2600D01*
X0Y2599D02*
X7Y2599D01*
X5703Y2599D02*
X5710Y2599D01*
X0Y2598D02*
X7Y2598D01*
X5703Y2598D02*
X5710Y2598D01*
X0Y2597D02*
X7Y2597D01*
X5703Y2597D02*
X5710Y2597D01*
X0Y2596D02*
X7Y2596D01*
X5703Y2596D02*
X5710Y2596D01*
X0Y2595D02*
X7Y2595D01*
X5703Y2595D02*
X5710Y2595D01*
X0Y2594D02*
X7Y2594D01*
X5703Y2594D02*
X5710Y2594D01*
X0Y2593D02*
X7Y2593D01*
X5703Y2593D02*
X5710Y2593D01*
X0Y2592D02*
X7Y2592D01*
X5703Y2592D02*
X5710Y2592D01*
X0Y2591D02*
X7Y2591D01*
X5703Y2591D02*
X5710Y2591D01*
X0Y2590D02*
X7Y2590D01*
X5703Y2590D02*
X5710Y2590D01*
X0Y2589D02*
X7Y2589D01*
X5703Y2589D02*
X5710Y2589D01*
X0Y2588D02*
X7Y2588D01*
X5703Y2588D02*
X5710Y2588D01*
X0Y2587D02*
X7Y2587D01*
X5703Y2587D02*
X5710Y2587D01*
X0Y2586D02*
X7Y2586D01*
X5703Y2586D02*
X5710Y2586D01*
X0Y2585D02*
X7Y2585D01*
X5703Y2585D02*
X5710Y2585D01*
X0Y2584D02*
X7Y2584D01*
X5703Y2584D02*
X5710Y2584D01*
X0Y2583D02*
X7Y2583D01*
X5703Y2583D02*
X5710Y2583D01*
X0Y2582D02*
X7Y2582D01*
X5703Y2582D02*
X5710Y2582D01*
X0Y2581D02*
X7Y2581D01*
X5703Y2581D02*
X5710Y2581D01*
X0Y2580D02*
X7Y2580D01*
X5703Y2580D02*
X5710Y2580D01*
X0Y2579D02*
X7Y2579D01*
X5703Y2579D02*
X5710Y2579D01*
X0Y2578D02*
X7Y2578D01*
X5703Y2578D02*
X5710Y2578D01*
X0Y2577D02*
X7Y2577D01*
X5703Y2577D02*
X5710Y2577D01*
X0Y2576D02*
X7Y2576D01*
X5703Y2576D02*
X5710Y2576D01*
X0Y2575D02*
X7Y2575D01*
X5703Y2575D02*
X5710Y2575D01*
X0Y2574D02*
X7Y2574D01*
X5703Y2574D02*
X5710Y2574D01*
X0Y2573D02*
X7Y2573D01*
X5703Y2573D02*
X5710Y2573D01*
X0Y2572D02*
X7Y2572D01*
X5703Y2572D02*
X5710Y2572D01*
X0Y2571D02*
X7Y2571D01*
X5703Y2571D02*
X5710Y2571D01*
X0Y2570D02*
X7Y2570D01*
X5703Y2570D02*
X5710Y2570D01*
X0Y2569D02*
X7Y2569D01*
X5703Y2569D02*
X5710Y2569D01*
X0Y2568D02*
X7Y2568D01*
X5703Y2568D02*
X5710Y2568D01*
X0Y2567D02*
X7Y2567D01*
X5703Y2567D02*
X5710Y2567D01*
X0Y2566D02*
X7Y2566D01*
X5703Y2566D02*
X5710Y2566D01*
X0Y2565D02*
X7Y2565D01*
X5703Y2565D02*
X5710Y2565D01*
X0Y2564D02*
X7Y2564D01*
X5703Y2564D02*
X5710Y2564D01*
X0Y2563D02*
X7Y2563D01*
X5703Y2563D02*
X5710Y2563D01*
X0Y2562D02*
X7Y2562D01*
X5703Y2562D02*
X5710Y2562D01*
X0Y2561D02*
X7Y2561D01*
X5703Y2561D02*
X5710Y2561D01*
X0Y2560D02*
X7Y2560D01*
X5703Y2560D02*
X5710Y2560D01*
X0Y2559D02*
X7Y2559D01*
X5703Y2559D02*
X5710Y2559D01*
X0Y2558D02*
X7Y2558D01*
X5703Y2558D02*
X5710Y2558D01*
X0Y2557D02*
X7Y2557D01*
X5703Y2557D02*
X5710Y2557D01*
X0Y2556D02*
X7Y2556D01*
X5703Y2556D02*
X5710Y2556D01*
X0Y2555D02*
X7Y2555D01*
X5703Y2555D02*
X5710Y2555D01*
X0Y2554D02*
X7Y2554D01*
X5703Y2554D02*
X5710Y2554D01*
X0Y2553D02*
X7Y2553D01*
X5703Y2553D02*
X5710Y2553D01*
X0Y2552D02*
X7Y2552D01*
X5703Y2552D02*
X5710Y2552D01*
X0Y2551D02*
X7Y2551D01*
X5703Y2551D02*
X5710Y2551D01*
X0Y2550D02*
X7Y2550D01*
X5703Y2550D02*
X5710Y2550D01*
X0Y2549D02*
X7Y2549D01*
X5703Y2549D02*
X5710Y2549D01*
X0Y2548D02*
X7Y2548D01*
X5703Y2548D02*
X5710Y2548D01*
X0Y2547D02*
X7Y2547D01*
X5703Y2547D02*
X5710Y2547D01*
X0Y2546D02*
X7Y2546D01*
X5703Y2546D02*
X5710Y2546D01*
X0Y2545D02*
X7Y2545D01*
X5703Y2545D02*
X5710Y2545D01*
X0Y2544D02*
X7Y2544D01*
X5703Y2544D02*
X5710Y2544D01*
X0Y2543D02*
X7Y2543D01*
X5703Y2543D02*
X5710Y2543D01*
X0Y2542D02*
X7Y2542D01*
X5703Y2542D02*
X5710Y2542D01*
X0Y2541D02*
X7Y2541D01*
X5703Y2541D02*
X5710Y2541D01*
X0Y2540D02*
X7Y2540D01*
X5703Y2540D02*
X5710Y2540D01*
X0Y2539D02*
X7Y2539D01*
X5703Y2539D02*
X5710Y2539D01*
X0Y2538D02*
X7Y2538D01*
X5703Y2538D02*
X5710Y2538D01*
X0Y2537D02*
X7Y2537D01*
X5703Y2537D02*
X5710Y2537D01*
X0Y2536D02*
X7Y2536D01*
X5703Y2536D02*
X5710Y2536D01*
X0Y2535D02*
X7Y2535D01*
X5703Y2535D02*
X5710Y2535D01*
X0Y2534D02*
X7Y2534D01*
X5703Y2534D02*
X5710Y2534D01*
X0Y2533D02*
X7Y2533D01*
X5703Y2533D02*
X5710Y2533D01*
X0Y2532D02*
X7Y2532D01*
X5703Y2532D02*
X5710Y2532D01*
X0Y2531D02*
X7Y2531D01*
X5703Y2531D02*
X5710Y2531D01*
X0Y2530D02*
X7Y2530D01*
X5703Y2530D02*
X5710Y2530D01*
X0Y2529D02*
X7Y2529D01*
X5703Y2529D02*
X5710Y2529D01*
X0Y2528D02*
X7Y2528D01*
X5703Y2528D02*
X5710Y2528D01*
X0Y2527D02*
X7Y2527D01*
X5703Y2527D02*
X5710Y2527D01*
X0Y2526D02*
X7Y2526D01*
X5703Y2526D02*
X5710Y2526D01*
X0Y2525D02*
X7Y2525D01*
X5703Y2525D02*
X5710Y2525D01*
X0Y2524D02*
X7Y2524D01*
X5703Y2524D02*
X5710Y2524D01*
X0Y2523D02*
X7Y2523D01*
X5703Y2523D02*
X5710Y2523D01*
X0Y2522D02*
X7Y2522D01*
X5703Y2522D02*
X5710Y2522D01*
X0Y2521D02*
X7Y2521D01*
X5703Y2521D02*
X5710Y2521D01*
X0Y2520D02*
X7Y2520D01*
X5703Y2520D02*
X5710Y2520D01*
X0Y2519D02*
X7Y2519D01*
X5703Y2519D02*
X5710Y2519D01*
X0Y2518D02*
X7Y2518D01*
X5703Y2518D02*
X5710Y2518D01*
X0Y2517D02*
X7Y2517D01*
X5703Y2517D02*
X5710Y2517D01*
X0Y2516D02*
X7Y2516D01*
X5703Y2516D02*
X5710Y2516D01*
X0Y2515D02*
X7Y2515D01*
X5703Y2515D02*
X5710Y2515D01*
X0Y2514D02*
X7Y2514D01*
X5703Y2514D02*
X5710Y2514D01*
X0Y2513D02*
X7Y2513D01*
X5703Y2513D02*
X5710Y2513D01*
X0Y2512D02*
X7Y2512D01*
X5703Y2512D02*
X5710Y2512D01*
X0Y2511D02*
X7Y2511D01*
X5703Y2511D02*
X5710Y2511D01*
X0Y2510D02*
X7Y2510D01*
X5703Y2510D02*
X5710Y2510D01*
X0Y2509D02*
X7Y2509D01*
X5703Y2509D02*
X5710Y2509D01*
X0Y2508D02*
X7Y2508D01*
X5703Y2508D02*
X5710Y2508D01*
X0Y2507D02*
X7Y2507D01*
X5703Y2507D02*
X5710Y2507D01*
X0Y2506D02*
X7Y2506D01*
X5703Y2506D02*
X5710Y2506D01*
X0Y2505D02*
X7Y2505D01*
X5703Y2505D02*
X5710Y2505D01*
X0Y2504D02*
X7Y2504D01*
X5703Y2504D02*
X5710Y2504D01*
X0Y2503D02*
X7Y2503D01*
X5703Y2503D02*
X5710Y2503D01*
X0Y2502D02*
X7Y2502D01*
X5703Y2502D02*
X5710Y2502D01*
X0Y2501D02*
X7Y2501D01*
X5703Y2501D02*
X5710Y2501D01*
X0Y2500D02*
X7Y2500D01*
X5703Y2500D02*
X5710Y2500D01*
X0Y2499D02*
X7Y2499D01*
X5703Y2499D02*
X5710Y2499D01*
X0Y2498D02*
X7Y2498D01*
X5703Y2498D02*
X5710Y2498D01*
X0Y2497D02*
X7Y2497D01*
X5703Y2497D02*
X5710Y2497D01*
X0Y2496D02*
X7Y2496D01*
X5703Y2496D02*
X5710Y2496D01*
X0Y2495D02*
X7Y2495D01*
X5703Y2495D02*
X5710Y2495D01*
X0Y2494D02*
X7Y2494D01*
X5703Y2494D02*
X5710Y2494D01*
X0Y2493D02*
X7Y2493D01*
X5703Y2493D02*
X5710Y2493D01*
X0Y2492D02*
X7Y2492D01*
X5703Y2492D02*
X5710Y2492D01*
X0Y2491D02*
X7Y2491D01*
X5703Y2491D02*
X5710Y2491D01*
X0Y2490D02*
X7Y2490D01*
X5703Y2490D02*
X5710Y2490D01*
X0Y2489D02*
X7Y2489D01*
X5703Y2489D02*
X5710Y2489D01*
X0Y2488D02*
X7Y2488D01*
X5703Y2488D02*
X5710Y2488D01*
X0Y2487D02*
X7Y2487D01*
X5703Y2487D02*
X5710Y2487D01*
X0Y2486D02*
X7Y2486D01*
X5703Y2486D02*
X5710Y2486D01*
X0Y2485D02*
X7Y2485D01*
X5703Y2485D02*
X5710Y2485D01*
X0Y2484D02*
X7Y2484D01*
X5703Y2484D02*
X5710Y2484D01*
X0Y2483D02*
X7Y2483D01*
X5703Y2483D02*
X5710Y2483D01*
X0Y2482D02*
X7Y2482D01*
X5703Y2482D02*
X5710Y2482D01*
X0Y2481D02*
X7Y2481D01*
X5703Y2481D02*
X5710Y2481D01*
X0Y2480D02*
X7Y2480D01*
X5703Y2480D02*
X5710Y2480D01*
X0Y2479D02*
X7Y2479D01*
X5703Y2479D02*
X5710Y2479D01*
X0Y2478D02*
X7Y2478D01*
X5703Y2478D02*
X5710Y2478D01*
X0Y2477D02*
X7Y2477D01*
X5703Y2477D02*
X5710Y2477D01*
X0Y2476D02*
X7Y2476D01*
X5703Y2476D02*
X5710Y2476D01*
X0Y2475D02*
X7Y2475D01*
X5703Y2475D02*
X5710Y2475D01*
X0Y2474D02*
X7Y2474D01*
X5703Y2474D02*
X5710Y2474D01*
X0Y2473D02*
X7Y2473D01*
X5703Y2473D02*
X5710Y2473D01*
X0Y2472D02*
X7Y2472D01*
X5703Y2472D02*
X5710Y2472D01*
X0Y2471D02*
X7Y2471D01*
X5703Y2471D02*
X5710Y2471D01*
X0Y2470D02*
X7Y2470D01*
X5703Y2470D02*
X5710Y2470D01*
X0Y2469D02*
X7Y2469D01*
X5703Y2469D02*
X5710Y2469D01*
X0Y2468D02*
X7Y2468D01*
X5703Y2468D02*
X5710Y2468D01*
X0Y2467D02*
X7Y2467D01*
X5703Y2467D02*
X5710Y2467D01*
X0Y2466D02*
X7Y2466D01*
X5703Y2466D02*
X5710Y2466D01*
X0Y2465D02*
X7Y2465D01*
X5703Y2465D02*
X5710Y2465D01*
X0Y2464D02*
X7Y2464D01*
X5703Y2464D02*
X5710Y2464D01*
X0Y2463D02*
X7Y2463D01*
X5703Y2463D02*
X5710Y2463D01*
X0Y2462D02*
X7Y2462D01*
X5703Y2462D02*
X5710Y2462D01*
X0Y2461D02*
X7Y2461D01*
X5703Y2461D02*
X5710Y2461D01*
X0Y2460D02*
X7Y2460D01*
X5703Y2460D02*
X5710Y2460D01*
X0Y2459D02*
X7Y2459D01*
X5703Y2459D02*
X5710Y2459D01*
X0Y2458D02*
X7Y2458D01*
X5703Y2458D02*
X5710Y2458D01*
X0Y2457D02*
X7Y2457D01*
X5703Y2457D02*
X5710Y2457D01*
X0Y2456D02*
X7Y2456D01*
X5703Y2456D02*
X5710Y2456D01*
X0Y2455D02*
X7Y2455D01*
X5703Y2455D02*
X5710Y2455D01*
X0Y2454D02*
X7Y2454D01*
X5703Y2454D02*
X5710Y2454D01*
X0Y2453D02*
X7Y2453D01*
X5703Y2453D02*
X5710Y2453D01*
X0Y2452D02*
X7Y2452D01*
X5703Y2452D02*
X5710Y2452D01*
X0Y2451D02*
X7Y2451D01*
X5703Y2451D02*
X5710Y2451D01*
X0Y2450D02*
X7Y2450D01*
X5703Y2450D02*
X5710Y2450D01*
X0Y2449D02*
X7Y2449D01*
X5703Y2449D02*
X5710Y2449D01*
X0Y2448D02*
X7Y2448D01*
X5703Y2448D02*
X5710Y2448D01*
X0Y2447D02*
X7Y2447D01*
X5703Y2447D02*
X5710Y2447D01*
X0Y2446D02*
X7Y2446D01*
X5703Y2446D02*
X5710Y2446D01*
X0Y2445D02*
X7Y2445D01*
X5703Y2445D02*
X5710Y2445D01*
X0Y2444D02*
X7Y2444D01*
X5703Y2444D02*
X5710Y2444D01*
X0Y2443D02*
X7Y2443D01*
X5703Y2443D02*
X5710Y2443D01*
X0Y2442D02*
X7Y2442D01*
X5703Y2442D02*
X5710Y2442D01*
X0Y2441D02*
X7Y2441D01*
X5703Y2441D02*
X5710Y2441D01*
X0Y2440D02*
X7Y2440D01*
X5703Y2440D02*
X5710Y2440D01*
X0Y2439D02*
X7Y2439D01*
X5703Y2439D02*
X5710Y2439D01*
X0Y2438D02*
X7Y2438D01*
X5703Y2438D02*
X5710Y2438D01*
X0Y2437D02*
X7Y2437D01*
X5703Y2437D02*
X5710Y2437D01*
X0Y2436D02*
X7Y2436D01*
X5703Y2436D02*
X5710Y2436D01*
X0Y2435D02*
X7Y2435D01*
X5703Y2435D02*
X5710Y2435D01*
X0Y2434D02*
X7Y2434D01*
X5703Y2434D02*
X5710Y2434D01*
X0Y2433D02*
X7Y2433D01*
X5703Y2433D02*
X5710Y2433D01*
X0Y2432D02*
X7Y2432D01*
X5703Y2432D02*
X5710Y2432D01*
X0Y2431D02*
X7Y2431D01*
X5703Y2431D02*
X5710Y2431D01*
X0Y2430D02*
X7Y2430D01*
X5703Y2430D02*
X5710Y2430D01*
X0Y2429D02*
X7Y2429D01*
X5703Y2429D02*
X5710Y2429D01*
X0Y2428D02*
X7Y2428D01*
X5703Y2428D02*
X5710Y2428D01*
X0Y2427D02*
X7Y2427D01*
X5703Y2427D02*
X5710Y2427D01*
X0Y2426D02*
X7Y2426D01*
X5703Y2426D02*
X5710Y2426D01*
X0Y2425D02*
X7Y2425D01*
X5703Y2425D02*
X5710Y2425D01*
X0Y2424D02*
X7Y2424D01*
X5703Y2424D02*
X5710Y2424D01*
X0Y2423D02*
X7Y2423D01*
X5703Y2423D02*
X5710Y2423D01*
X0Y2422D02*
X7Y2422D01*
X5703Y2422D02*
X5710Y2422D01*
X0Y2421D02*
X7Y2421D01*
X5703Y2421D02*
X5710Y2421D01*
X0Y2420D02*
X7Y2420D01*
X5703Y2420D02*
X5710Y2420D01*
X0Y2419D02*
X7Y2419D01*
X5703Y2419D02*
X5710Y2419D01*
X0Y2418D02*
X7Y2418D01*
X5703Y2418D02*
X5710Y2418D01*
X0Y2417D02*
X7Y2417D01*
X5703Y2417D02*
X5710Y2417D01*
X0Y2416D02*
X7Y2416D01*
X5703Y2416D02*
X5710Y2416D01*
X0Y2415D02*
X7Y2415D01*
X5703Y2415D02*
X5710Y2415D01*
X0Y2414D02*
X7Y2414D01*
X5703Y2414D02*
X5710Y2414D01*
X0Y2413D02*
X7Y2413D01*
X5703Y2413D02*
X5710Y2413D01*
X0Y2412D02*
X7Y2412D01*
X5703Y2412D02*
X5710Y2412D01*
X0Y2411D02*
X7Y2411D01*
X5703Y2411D02*
X5710Y2411D01*
X0Y2410D02*
X7Y2410D01*
X5703Y2410D02*
X5710Y2410D01*
X0Y2409D02*
X7Y2409D01*
X5703Y2409D02*
X5710Y2409D01*
X0Y2408D02*
X7Y2408D01*
X5703Y2408D02*
X5710Y2408D01*
X0Y2407D02*
X7Y2407D01*
X5703Y2407D02*
X5710Y2407D01*
X0Y2406D02*
X7Y2406D01*
X5703Y2406D02*
X5710Y2406D01*
X0Y2405D02*
X7Y2405D01*
X5703Y2405D02*
X5710Y2405D01*
X0Y2404D02*
X7Y2404D01*
X5703Y2404D02*
X5710Y2404D01*
X0Y2403D02*
X7Y2403D01*
X5703Y2403D02*
X5710Y2403D01*
X0Y2402D02*
X7Y2402D01*
X5703Y2402D02*
X5710Y2402D01*
X0Y2401D02*
X7Y2401D01*
X5703Y2401D02*
X5710Y2401D01*
X0Y2400D02*
X7Y2400D01*
X5703Y2400D02*
X5710Y2400D01*
X0Y2399D02*
X7Y2399D01*
X5703Y2399D02*
X5710Y2399D01*
X0Y2398D02*
X7Y2398D01*
X5703Y2398D02*
X5710Y2398D01*
X0Y2397D02*
X7Y2397D01*
X5703Y2397D02*
X5710Y2397D01*
X0Y2396D02*
X7Y2396D01*
X5703Y2396D02*
X5710Y2396D01*
X0Y2395D02*
X7Y2395D01*
X5703Y2395D02*
X5710Y2395D01*
X0Y2394D02*
X7Y2394D01*
X5703Y2394D02*
X5710Y2394D01*
X0Y2393D02*
X7Y2393D01*
X5703Y2393D02*
X5710Y2393D01*
X0Y2392D02*
X7Y2392D01*
X5703Y2392D02*
X5710Y2392D01*
X0Y2391D02*
X7Y2391D01*
X5703Y2391D02*
X5710Y2391D01*
X0Y2390D02*
X7Y2390D01*
X5703Y2390D02*
X5710Y2390D01*
X0Y2389D02*
X7Y2389D01*
X5703Y2389D02*
X5710Y2389D01*
X0Y2388D02*
X7Y2388D01*
X5703Y2388D02*
X5710Y2388D01*
X0Y2387D02*
X7Y2387D01*
X5703Y2387D02*
X5710Y2387D01*
X0Y2386D02*
X7Y2386D01*
X5703Y2386D02*
X5710Y2386D01*
X0Y2385D02*
X7Y2385D01*
X5703Y2385D02*
X5710Y2385D01*
X0Y2384D02*
X7Y2384D01*
X5703Y2384D02*
X5710Y2384D01*
X0Y2383D02*
X7Y2383D01*
X5703Y2383D02*
X5710Y2383D01*
X0Y2382D02*
X7Y2382D01*
X5703Y2382D02*
X5710Y2382D01*
X0Y2381D02*
X7Y2381D01*
X5703Y2381D02*
X5710Y2381D01*
X0Y2380D02*
X7Y2380D01*
X5703Y2380D02*
X5710Y2380D01*
X0Y2379D02*
X7Y2379D01*
X5703Y2379D02*
X5710Y2379D01*
X0Y2378D02*
X7Y2378D01*
X5703Y2378D02*
X5710Y2378D01*
X0Y2377D02*
X7Y2377D01*
X5703Y2377D02*
X5710Y2377D01*
X0Y2376D02*
X7Y2376D01*
X5703Y2376D02*
X5710Y2376D01*
X0Y2375D02*
X7Y2375D01*
X5703Y2375D02*
X5710Y2375D01*
X0Y2374D02*
X7Y2374D01*
X5703Y2374D02*
X5710Y2374D01*
X0Y2373D02*
X7Y2373D01*
X5703Y2373D02*
X5710Y2373D01*
X0Y2372D02*
X7Y2372D01*
X5703Y2372D02*
X5710Y2372D01*
X0Y2371D02*
X7Y2371D01*
X5703Y2371D02*
X5710Y2371D01*
X0Y2370D02*
X7Y2370D01*
X5703Y2370D02*
X5710Y2370D01*
X0Y2369D02*
X7Y2369D01*
X5703Y2369D02*
X5710Y2369D01*
X0Y2368D02*
X7Y2368D01*
X5703Y2368D02*
X5710Y2368D01*
X0Y2367D02*
X7Y2367D01*
X5703Y2367D02*
X5710Y2367D01*
X0Y2366D02*
X7Y2366D01*
X5703Y2366D02*
X5710Y2366D01*
X0Y2365D02*
X7Y2365D01*
X5703Y2365D02*
X5710Y2365D01*
X0Y2364D02*
X7Y2364D01*
X5703Y2364D02*
X5710Y2364D01*
X0Y2363D02*
X7Y2363D01*
X5703Y2363D02*
X5710Y2363D01*
X0Y2362D02*
X7Y2362D01*
X5703Y2362D02*
X5710Y2362D01*
X0Y2361D02*
X7Y2361D01*
X5703Y2361D02*
X5710Y2361D01*
X0Y2360D02*
X7Y2360D01*
X5703Y2360D02*
X5710Y2360D01*
X0Y2359D02*
X7Y2359D01*
X5703Y2359D02*
X5710Y2359D01*
X0Y2358D02*
X7Y2358D01*
X5703Y2358D02*
X5710Y2358D01*
X0Y2357D02*
X7Y2357D01*
X5703Y2357D02*
X5710Y2357D01*
X0Y2356D02*
X7Y2356D01*
X5703Y2356D02*
X5710Y2356D01*
X0Y2355D02*
X7Y2355D01*
X5703Y2355D02*
X5710Y2355D01*
X0Y2354D02*
X7Y2354D01*
X5703Y2354D02*
X5710Y2354D01*
X0Y2353D02*
X7Y2353D01*
X5703Y2353D02*
X5710Y2353D01*
X0Y2352D02*
X7Y2352D01*
X5703Y2352D02*
X5710Y2352D01*
X0Y2351D02*
X7Y2351D01*
X5703Y2351D02*
X5710Y2351D01*
X0Y2350D02*
X7Y2350D01*
X5703Y2350D02*
X5710Y2350D01*
X0Y2349D02*
X7Y2349D01*
X5703Y2349D02*
X5710Y2349D01*
X0Y2348D02*
X7Y2348D01*
X5703Y2348D02*
X5710Y2348D01*
X0Y2347D02*
X7Y2347D01*
X5703Y2347D02*
X5710Y2347D01*
X0Y2346D02*
X7Y2346D01*
X5703Y2346D02*
X5710Y2346D01*
X0Y2345D02*
X7Y2345D01*
X5703Y2345D02*
X5710Y2345D01*
X0Y2344D02*
X7Y2344D01*
X5703Y2344D02*
X5710Y2344D01*
X0Y2343D02*
X7Y2343D01*
X5703Y2343D02*
X5710Y2343D01*
X0Y2342D02*
X7Y2342D01*
X5703Y2342D02*
X5710Y2342D01*
X0Y2341D02*
X7Y2341D01*
X5703Y2341D02*
X5710Y2341D01*
X0Y2340D02*
X7Y2340D01*
X5703Y2340D02*
X5710Y2340D01*
X0Y2339D02*
X7Y2339D01*
X5703Y2339D02*
X5710Y2339D01*
X0Y2338D02*
X7Y2338D01*
X5703Y2338D02*
X5710Y2338D01*
X0Y2337D02*
X7Y2337D01*
X5703Y2337D02*
X5710Y2337D01*
X0Y2336D02*
X7Y2336D01*
X5703Y2336D02*
X5710Y2336D01*
X0Y2335D02*
X7Y2335D01*
X5703Y2335D02*
X5710Y2335D01*
X0Y2334D02*
X7Y2334D01*
X5703Y2334D02*
X5710Y2334D01*
X0Y2333D02*
X7Y2333D01*
X5703Y2333D02*
X5710Y2333D01*
X0Y2332D02*
X7Y2332D01*
X5703Y2332D02*
X5710Y2332D01*
X0Y2331D02*
X7Y2331D01*
X5703Y2331D02*
X5710Y2331D01*
X0Y2330D02*
X7Y2330D01*
X5703Y2330D02*
X5710Y2330D01*
X0Y2329D02*
X7Y2329D01*
X5703Y2329D02*
X5710Y2329D01*
X0Y2328D02*
X7Y2328D01*
X5703Y2328D02*
X5710Y2328D01*
X0Y2327D02*
X7Y2327D01*
X5703Y2327D02*
X5710Y2327D01*
X0Y2326D02*
X7Y2326D01*
X5703Y2326D02*
X5710Y2326D01*
X0Y2325D02*
X7Y2325D01*
X5703Y2325D02*
X5710Y2325D01*
X0Y2324D02*
X7Y2324D01*
X5703Y2324D02*
X5710Y2324D01*
X0Y2323D02*
X7Y2323D01*
X5703Y2323D02*
X5710Y2323D01*
X0Y2322D02*
X7Y2322D01*
X5703Y2322D02*
X5710Y2322D01*
X0Y2321D02*
X7Y2321D01*
X5703Y2321D02*
X5710Y2321D01*
X0Y2320D02*
X7Y2320D01*
X5703Y2320D02*
X5710Y2320D01*
X0Y2319D02*
X7Y2319D01*
X5703Y2319D02*
X5710Y2319D01*
X0Y2318D02*
X7Y2318D01*
X5703Y2318D02*
X5710Y2318D01*
X0Y2317D02*
X7Y2317D01*
X5703Y2317D02*
X5710Y2317D01*
X0Y2316D02*
X7Y2316D01*
X5703Y2316D02*
X5710Y2316D01*
X0Y2315D02*
X7Y2315D01*
X5703Y2315D02*
X5710Y2315D01*
X0Y2314D02*
X7Y2314D01*
X5703Y2314D02*
X5710Y2314D01*
X0Y2313D02*
X7Y2313D01*
X5703Y2313D02*
X5710Y2313D01*
X0Y2312D02*
X7Y2312D01*
X5703Y2312D02*
X5710Y2312D01*
X0Y2311D02*
X7Y2311D01*
X5703Y2311D02*
X5710Y2311D01*
X0Y2310D02*
X7Y2310D01*
X5703Y2310D02*
X5710Y2310D01*
X0Y2309D02*
X7Y2309D01*
X5703Y2309D02*
X5710Y2309D01*
X0Y2308D02*
X7Y2308D01*
X5703Y2308D02*
X5710Y2308D01*
X0Y2307D02*
X7Y2307D01*
X5703Y2307D02*
X5710Y2307D01*
X0Y2306D02*
X7Y2306D01*
X5703Y2306D02*
X5710Y2306D01*
X0Y2305D02*
X7Y2305D01*
X5703Y2305D02*
X5710Y2305D01*
X0Y2304D02*
X7Y2304D01*
X5703Y2304D02*
X5710Y2304D01*
X0Y2303D02*
X7Y2303D01*
X5703Y2303D02*
X5710Y2303D01*
X0Y2302D02*
X7Y2302D01*
X5703Y2302D02*
X5710Y2302D01*
X0Y2301D02*
X7Y2301D01*
X5703Y2301D02*
X5710Y2301D01*
X0Y2300D02*
X7Y2300D01*
X5703Y2300D02*
X5710Y2300D01*
X0Y2299D02*
X7Y2299D01*
X5703Y2299D02*
X5710Y2299D01*
X0Y2298D02*
X7Y2298D01*
X5703Y2298D02*
X5710Y2298D01*
X0Y2297D02*
X7Y2297D01*
X5703Y2297D02*
X5710Y2297D01*
X0Y2296D02*
X7Y2296D01*
X5703Y2296D02*
X5710Y2296D01*
X0Y2295D02*
X7Y2295D01*
X5703Y2295D02*
X5710Y2295D01*
X0Y2294D02*
X7Y2294D01*
X5703Y2294D02*
X5710Y2294D01*
X0Y2293D02*
X7Y2293D01*
X5703Y2293D02*
X5710Y2293D01*
X0Y2292D02*
X7Y2292D01*
X5703Y2292D02*
X5710Y2292D01*
X0Y2291D02*
X7Y2291D01*
X5703Y2291D02*
X5710Y2291D01*
X0Y2290D02*
X7Y2290D01*
X5703Y2290D02*
X5710Y2290D01*
X0Y2289D02*
X7Y2289D01*
X5703Y2289D02*
X5710Y2289D01*
X0Y2288D02*
X7Y2288D01*
X5703Y2288D02*
X5710Y2288D01*
X0Y2287D02*
X7Y2287D01*
X5703Y2287D02*
X5710Y2287D01*
X0Y2286D02*
X7Y2286D01*
X5703Y2286D02*
X5710Y2286D01*
X0Y2285D02*
X7Y2285D01*
X5703Y2285D02*
X5710Y2285D01*
X0Y2284D02*
X7Y2284D01*
X5703Y2284D02*
X5710Y2284D01*
X0Y2283D02*
X7Y2283D01*
X5703Y2283D02*
X5710Y2283D01*
X0Y2282D02*
X7Y2282D01*
X5703Y2282D02*
X5710Y2282D01*
X0Y2281D02*
X7Y2281D01*
X5703Y2281D02*
X5710Y2281D01*
X0Y2280D02*
X7Y2280D01*
X5703Y2280D02*
X5710Y2280D01*
X0Y2279D02*
X7Y2279D01*
X5703Y2279D02*
X5710Y2279D01*
X0Y2278D02*
X7Y2278D01*
X5703Y2278D02*
X5710Y2278D01*
X0Y2277D02*
X7Y2277D01*
X5703Y2277D02*
X5710Y2277D01*
X0Y2276D02*
X7Y2276D01*
X5703Y2276D02*
X5710Y2276D01*
X0Y2275D02*
X7Y2275D01*
X5703Y2275D02*
X5710Y2275D01*
X0Y2274D02*
X7Y2274D01*
X5703Y2274D02*
X5710Y2274D01*
X0Y2273D02*
X7Y2273D01*
X5703Y2273D02*
X5710Y2273D01*
X0Y2272D02*
X7Y2272D01*
X5703Y2272D02*
X5710Y2272D01*
X0Y2271D02*
X7Y2271D01*
X5703Y2271D02*
X5710Y2271D01*
X0Y2270D02*
X7Y2270D01*
X5703Y2270D02*
X5710Y2270D01*
X0Y2269D02*
X7Y2269D01*
X5703Y2269D02*
X5710Y2269D01*
X0Y2268D02*
X7Y2268D01*
X5703Y2268D02*
X5710Y2268D01*
X0Y2267D02*
X7Y2267D01*
X5703Y2267D02*
X5710Y2267D01*
X0Y2266D02*
X7Y2266D01*
X5703Y2266D02*
X5710Y2266D01*
X0Y2265D02*
X7Y2265D01*
X5703Y2265D02*
X5710Y2265D01*
X0Y2264D02*
X7Y2264D01*
X5703Y2264D02*
X5710Y2264D01*
X0Y2263D02*
X7Y2263D01*
X5703Y2263D02*
X5710Y2263D01*
X0Y2262D02*
X7Y2262D01*
X5703Y2262D02*
X5710Y2262D01*
X0Y2261D02*
X7Y2261D01*
X5703Y2261D02*
X5710Y2261D01*
X0Y2260D02*
X7Y2260D01*
X5703Y2260D02*
X5710Y2260D01*
X0Y2259D02*
X7Y2259D01*
X5703Y2259D02*
X5710Y2259D01*
X0Y2258D02*
X7Y2258D01*
X5703Y2258D02*
X5710Y2258D01*
X0Y2257D02*
X7Y2257D01*
X5703Y2257D02*
X5710Y2257D01*
X0Y2256D02*
X7Y2256D01*
X5703Y2256D02*
X5710Y2256D01*
X0Y2255D02*
X7Y2255D01*
X5703Y2255D02*
X5710Y2255D01*
X0Y2254D02*
X7Y2254D01*
X5703Y2254D02*
X5710Y2254D01*
X0Y2253D02*
X7Y2253D01*
X5703Y2253D02*
X5710Y2253D01*
X0Y2252D02*
X7Y2252D01*
X5703Y2252D02*
X5710Y2252D01*
X0Y2251D02*
X7Y2251D01*
X5703Y2251D02*
X5710Y2251D01*
X0Y2250D02*
X7Y2250D01*
X5703Y2250D02*
X5710Y2250D01*
X0Y2249D02*
X7Y2249D01*
X5703Y2249D02*
X5710Y2249D01*
X0Y2248D02*
X7Y2248D01*
X5703Y2248D02*
X5710Y2248D01*
X0Y2247D02*
X7Y2247D01*
X5703Y2247D02*
X5710Y2247D01*
X0Y2246D02*
X7Y2246D01*
X5703Y2246D02*
X5710Y2246D01*
X0Y2245D02*
X7Y2245D01*
X5703Y2245D02*
X5710Y2245D01*
X0Y2244D02*
X7Y2244D01*
X5703Y2244D02*
X5710Y2244D01*
X0Y2243D02*
X7Y2243D01*
X5703Y2243D02*
X5710Y2243D01*
X0Y2242D02*
X7Y2242D01*
X5703Y2242D02*
X5710Y2242D01*
X0Y2241D02*
X7Y2241D01*
X5703Y2241D02*
X5710Y2241D01*
X0Y2240D02*
X7Y2240D01*
X5703Y2240D02*
X5710Y2240D01*
X0Y2239D02*
X7Y2239D01*
X5703Y2239D02*
X5710Y2239D01*
X0Y2238D02*
X7Y2238D01*
X5703Y2238D02*
X5710Y2238D01*
X0Y2237D02*
X7Y2237D01*
X5703Y2237D02*
X5710Y2237D01*
X0Y2236D02*
X7Y2236D01*
X5703Y2236D02*
X5710Y2236D01*
X0Y2235D02*
X7Y2235D01*
X5703Y2235D02*
X5710Y2235D01*
X0Y2234D02*
X7Y2234D01*
X5703Y2234D02*
X5710Y2234D01*
X0Y2233D02*
X7Y2233D01*
X5703Y2233D02*
X5710Y2233D01*
X0Y2232D02*
X7Y2232D01*
X5703Y2232D02*
X5710Y2232D01*
X0Y2231D02*
X7Y2231D01*
X5703Y2231D02*
X5710Y2231D01*
X0Y2230D02*
X7Y2230D01*
X5703Y2230D02*
X5710Y2230D01*
X0Y2229D02*
X7Y2229D01*
X5703Y2229D02*
X5710Y2229D01*
X0Y2228D02*
X7Y2228D01*
X5703Y2228D02*
X5710Y2228D01*
X0Y2227D02*
X7Y2227D01*
X5703Y2227D02*
X5710Y2227D01*
X0Y2226D02*
X7Y2226D01*
X5703Y2226D02*
X5710Y2226D01*
X0Y2225D02*
X7Y2225D01*
X5703Y2225D02*
X5710Y2225D01*
X0Y2224D02*
X7Y2224D01*
X5703Y2224D02*
X5710Y2224D01*
X0Y2223D02*
X7Y2223D01*
X5703Y2223D02*
X5710Y2223D01*
X0Y2222D02*
X7Y2222D01*
X5703Y2222D02*
X5710Y2222D01*
X0Y2221D02*
X7Y2221D01*
X5703Y2221D02*
X5710Y2221D01*
X0Y2220D02*
X7Y2220D01*
X5703Y2220D02*
X5710Y2220D01*
X0Y2219D02*
X7Y2219D01*
X5703Y2219D02*
X5710Y2219D01*
X0Y2218D02*
X7Y2218D01*
X5703Y2218D02*
X5710Y2218D01*
X0Y2217D02*
X7Y2217D01*
X5703Y2217D02*
X5710Y2217D01*
X0Y2216D02*
X7Y2216D01*
X5703Y2216D02*
X5710Y2216D01*
X0Y2215D02*
X7Y2215D01*
X5703Y2215D02*
X5710Y2215D01*
X0Y2214D02*
X7Y2214D01*
X5703Y2214D02*
X5710Y2214D01*
X0Y2213D02*
X7Y2213D01*
X5703Y2213D02*
X5710Y2213D01*
X0Y2212D02*
X7Y2212D01*
X5703Y2212D02*
X5710Y2212D01*
X0Y2211D02*
X7Y2211D01*
X5703Y2211D02*
X5710Y2211D01*
X0Y2210D02*
X7Y2210D01*
X5703Y2210D02*
X5710Y2210D01*
X0Y2209D02*
X7Y2209D01*
X5703Y2209D02*
X5710Y2209D01*
X0Y2208D02*
X7Y2208D01*
X5703Y2208D02*
X5710Y2208D01*
X0Y2207D02*
X7Y2207D01*
X5703Y2207D02*
X5710Y2207D01*
X0Y2206D02*
X7Y2206D01*
X5703Y2206D02*
X5710Y2206D01*
X0Y2205D02*
X7Y2205D01*
X5703Y2205D02*
X5710Y2205D01*
X0Y2204D02*
X7Y2204D01*
X5703Y2204D02*
X5710Y2204D01*
X0Y2203D02*
X7Y2203D01*
X5703Y2203D02*
X5710Y2203D01*
X0Y2202D02*
X7Y2202D01*
X5703Y2202D02*
X5710Y2202D01*
X0Y2201D02*
X7Y2201D01*
X5703Y2201D02*
X5710Y2201D01*
X0Y2200D02*
X7Y2200D01*
X5703Y2200D02*
X5710Y2200D01*
X0Y2199D02*
X7Y2199D01*
X5703Y2199D02*
X5710Y2199D01*
X0Y2198D02*
X7Y2198D01*
X5703Y2198D02*
X5710Y2198D01*
X0Y2197D02*
X7Y2197D01*
X5703Y2197D02*
X5710Y2197D01*
X0Y2196D02*
X7Y2196D01*
X5703Y2196D02*
X5710Y2196D01*
X0Y2195D02*
X7Y2195D01*
X5703Y2195D02*
X5710Y2195D01*
X0Y2194D02*
X7Y2194D01*
X5703Y2194D02*
X5710Y2194D01*
X0Y2193D02*
X7Y2193D01*
X5703Y2193D02*
X5710Y2193D01*
X0Y2192D02*
X7Y2192D01*
X5703Y2192D02*
X5710Y2192D01*
X0Y2191D02*
X7Y2191D01*
X5703Y2191D02*
X5710Y2191D01*
X0Y2190D02*
X7Y2190D01*
X5703Y2190D02*
X5710Y2190D01*
X0Y2189D02*
X7Y2189D01*
X5703Y2189D02*
X5710Y2189D01*
X0Y2188D02*
X7Y2188D01*
X5703Y2188D02*
X5710Y2188D01*
X0Y2187D02*
X7Y2187D01*
X5703Y2187D02*
X5710Y2187D01*
X0Y2186D02*
X7Y2186D01*
X5703Y2186D02*
X5710Y2186D01*
X0Y2185D02*
X7Y2185D01*
X5703Y2185D02*
X5710Y2185D01*
X0Y2184D02*
X7Y2184D01*
X5703Y2184D02*
X5710Y2184D01*
X0Y2183D02*
X7Y2183D01*
X5703Y2183D02*
X5710Y2183D01*
X0Y2182D02*
X7Y2182D01*
X5703Y2182D02*
X5710Y2182D01*
X0Y2181D02*
X7Y2181D01*
X5703Y2181D02*
X5710Y2181D01*
X0Y2180D02*
X7Y2180D01*
X5703Y2180D02*
X5710Y2180D01*
X0Y2179D02*
X7Y2179D01*
X5703Y2179D02*
X5710Y2179D01*
X0Y2178D02*
X7Y2178D01*
X5703Y2178D02*
X5710Y2178D01*
X0Y2177D02*
X7Y2177D01*
X5703Y2177D02*
X5710Y2177D01*
X0Y2176D02*
X7Y2176D01*
X5703Y2176D02*
X5710Y2176D01*
X0Y2175D02*
X7Y2175D01*
X5703Y2175D02*
X5710Y2175D01*
X0Y2174D02*
X7Y2174D01*
X5703Y2174D02*
X5710Y2174D01*
X0Y2173D02*
X7Y2173D01*
X5703Y2173D02*
X5710Y2173D01*
X0Y2172D02*
X7Y2172D01*
X5703Y2172D02*
X5710Y2172D01*
X0Y2171D02*
X7Y2171D01*
X5703Y2171D02*
X5710Y2171D01*
X0Y2170D02*
X7Y2170D01*
X5703Y2170D02*
X5710Y2170D01*
X0Y2169D02*
X7Y2169D01*
X5703Y2169D02*
X5710Y2169D01*
X0Y2168D02*
X7Y2168D01*
X5703Y2168D02*
X5710Y2168D01*
X0Y2167D02*
X7Y2167D01*
X5703Y2167D02*
X5710Y2167D01*
X0Y2166D02*
X7Y2166D01*
X5703Y2166D02*
X5710Y2166D01*
X0Y2165D02*
X7Y2165D01*
X5703Y2165D02*
X5710Y2165D01*
X0Y2164D02*
X7Y2164D01*
X5703Y2164D02*
X5710Y2164D01*
X0Y2163D02*
X7Y2163D01*
X5703Y2163D02*
X5710Y2163D01*
X0Y2162D02*
X7Y2162D01*
X5703Y2162D02*
X5710Y2162D01*
X0Y2161D02*
X7Y2161D01*
X5703Y2161D02*
X5710Y2161D01*
X0Y2160D02*
X7Y2160D01*
X5703Y2160D02*
X5710Y2160D01*
X0Y2159D02*
X7Y2159D01*
X5703Y2159D02*
X5710Y2159D01*
X0Y2158D02*
X7Y2158D01*
X5703Y2158D02*
X5710Y2158D01*
X0Y2157D02*
X7Y2157D01*
X5703Y2157D02*
X5710Y2157D01*
X0Y2156D02*
X7Y2156D01*
X5703Y2156D02*
X5710Y2156D01*
X0Y2155D02*
X7Y2155D01*
X5703Y2155D02*
X5710Y2155D01*
X0Y2154D02*
X7Y2154D01*
X5703Y2154D02*
X5710Y2154D01*
X0Y2153D02*
X7Y2153D01*
X5703Y2153D02*
X5710Y2153D01*
X0Y2152D02*
X7Y2152D01*
X5703Y2152D02*
X5710Y2152D01*
X0Y2151D02*
X7Y2151D01*
X5703Y2151D02*
X5710Y2151D01*
X0Y2150D02*
X7Y2150D01*
X5703Y2150D02*
X5710Y2150D01*
X0Y2149D02*
X7Y2149D01*
X5703Y2149D02*
X5710Y2149D01*
X0Y2148D02*
X7Y2148D01*
X5703Y2148D02*
X5710Y2148D01*
X0Y2147D02*
X7Y2147D01*
X5703Y2147D02*
X5710Y2147D01*
X0Y2146D02*
X7Y2146D01*
X5703Y2146D02*
X5710Y2146D01*
X0Y2145D02*
X7Y2145D01*
X5703Y2145D02*
X5710Y2145D01*
X0Y2144D02*
X7Y2144D01*
X5703Y2144D02*
X5710Y2144D01*
X0Y2143D02*
X7Y2143D01*
X5703Y2143D02*
X5710Y2143D01*
X0Y2142D02*
X7Y2142D01*
X5703Y2142D02*
X5710Y2142D01*
X0Y2141D02*
X7Y2141D01*
X5703Y2141D02*
X5710Y2141D01*
X0Y2140D02*
X7Y2140D01*
X5703Y2140D02*
X5710Y2140D01*
X0Y2139D02*
X7Y2139D01*
X5703Y2139D02*
X5710Y2139D01*
X0Y2138D02*
X7Y2138D01*
X5703Y2138D02*
X5710Y2138D01*
X0Y2137D02*
X7Y2137D01*
X5703Y2137D02*
X5710Y2137D01*
X0Y2136D02*
X7Y2136D01*
X5703Y2136D02*
X5710Y2136D01*
X0Y2135D02*
X7Y2135D01*
X5703Y2135D02*
X5710Y2135D01*
X0Y2134D02*
X7Y2134D01*
X5703Y2134D02*
X5710Y2134D01*
X0Y2133D02*
X7Y2133D01*
X5703Y2133D02*
X5710Y2133D01*
X0Y2132D02*
X7Y2132D01*
X5703Y2132D02*
X5710Y2132D01*
X0Y2131D02*
X7Y2131D01*
X5703Y2131D02*
X5710Y2131D01*
X0Y2130D02*
X7Y2130D01*
X5703Y2130D02*
X5710Y2130D01*
X0Y2129D02*
X7Y2129D01*
X5703Y2129D02*
X5710Y2129D01*
X0Y2128D02*
X7Y2128D01*
X5703Y2128D02*
X5710Y2128D01*
X0Y2127D02*
X7Y2127D01*
X5703Y2127D02*
X5710Y2127D01*
X0Y2126D02*
X7Y2126D01*
X5703Y2126D02*
X5710Y2126D01*
X0Y2125D02*
X7Y2125D01*
X5703Y2125D02*
X5710Y2125D01*
X0Y2124D02*
X7Y2124D01*
X5703Y2124D02*
X5710Y2124D01*
X0Y2123D02*
X7Y2123D01*
X5703Y2123D02*
X5710Y2123D01*
X0Y2122D02*
X7Y2122D01*
X5703Y2122D02*
X5710Y2122D01*
X0Y2121D02*
X7Y2121D01*
X5703Y2121D02*
X5710Y2121D01*
X0Y2120D02*
X7Y2120D01*
X5703Y2120D02*
X5710Y2120D01*
X0Y2119D02*
X7Y2119D01*
X5703Y2119D02*
X5710Y2119D01*
X0Y2118D02*
X7Y2118D01*
X5703Y2118D02*
X5710Y2118D01*
X0Y2117D02*
X7Y2117D01*
X5703Y2117D02*
X5710Y2117D01*
X0Y2116D02*
X7Y2116D01*
X5703Y2116D02*
X5710Y2116D01*
X0Y2115D02*
X7Y2115D01*
X5703Y2115D02*
X5710Y2115D01*
X0Y2114D02*
X7Y2114D01*
X5703Y2114D02*
X5710Y2114D01*
X0Y2113D02*
X7Y2113D01*
X5703Y2113D02*
X5710Y2113D01*
X0Y2112D02*
X7Y2112D01*
X5703Y2112D02*
X5710Y2112D01*
X0Y2111D02*
X7Y2111D01*
X5703Y2111D02*
X5710Y2111D01*
X0Y2110D02*
X7Y2110D01*
X5703Y2110D02*
X5710Y2110D01*
X0Y2109D02*
X7Y2109D01*
X5703Y2109D02*
X5710Y2109D01*
X0Y2108D02*
X7Y2108D01*
X5703Y2108D02*
X5710Y2108D01*
X0Y2107D02*
X7Y2107D01*
X5703Y2107D02*
X5710Y2107D01*
X0Y2106D02*
X7Y2106D01*
X5703Y2106D02*
X5710Y2106D01*
X0Y2105D02*
X7Y2105D01*
X5703Y2105D02*
X5710Y2105D01*
X0Y2104D02*
X7Y2104D01*
X5703Y2104D02*
X5710Y2104D01*
X0Y2103D02*
X7Y2103D01*
X5703Y2103D02*
X5710Y2103D01*
X0Y2102D02*
X7Y2102D01*
X5703Y2102D02*
X5710Y2102D01*
X0Y2101D02*
X7Y2101D01*
X5703Y2101D02*
X5710Y2101D01*
X0Y2100D02*
X7Y2100D01*
X5703Y2100D02*
X5710Y2100D01*
X0Y2099D02*
X7Y2099D01*
X5703Y2099D02*
X5710Y2099D01*
X0Y2098D02*
X7Y2098D01*
X5703Y2098D02*
X5710Y2098D01*
X0Y2097D02*
X7Y2097D01*
X5703Y2097D02*
X5710Y2097D01*
X0Y2096D02*
X7Y2096D01*
X5703Y2096D02*
X5710Y2096D01*
X0Y2095D02*
X7Y2095D01*
X5703Y2095D02*
X5710Y2095D01*
X0Y2094D02*
X7Y2094D01*
X5703Y2094D02*
X5710Y2094D01*
X0Y2093D02*
X7Y2093D01*
X5703Y2093D02*
X5710Y2093D01*
X0Y2092D02*
X7Y2092D01*
X5703Y2092D02*
X5710Y2092D01*
X0Y2091D02*
X7Y2091D01*
X5703Y2091D02*
X5710Y2091D01*
X0Y2090D02*
X7Y2090D01*
X5703Y2090D02*
X5710Y2090D01*
X0Y2089D02*
X7Y2089D01*
X5703Y2089D02*
X5710Y2089D01*
X0Y2088D02*
X7Y2088D01*
X5703Y2088D02*
X5710Y2088D01*
X0Y2087D02*
X7Y2087D01*
X5703Y2087D02*
X5710Y2087D01*
X0Y2086D02*
X7Y2086D01*
X5703Y2086D02*
X5710Y2086D01*
X0Y2085D02*
X7Y2085D01*
X5703Y2085D02*
X5710Y2085D01*
X0Y2084D02*
X7Y2084D01*
X5703Y2084D02*
X5710Y2084D01*
X0Y2083D02*
X7Y2083D01*
X5703Y2083D02*
X5710Y2083D01*
X0Y2082D02*
X7Y2082D01*
X5703Y2082D02*
X5710Y2082D01*
X0Y2081D02*
X7Y2081D01*
X5703Y2081D02*
X5710Y2081D01*
X0Y2080D02*
X7Y2080D01*
X5703Y2080D02*
X5710Y2080D01*
X0Y2079D02*
X7Y2079D01*
X5703Y2079D02*
X5710Y2079D01*
X0Y2078D02*
X7Y2078D01*
X5703Y2078D02*
X5710Y2078D01*
X0Y2077D02*
X7Y2077D01*
X5703Y2077D02*
X5710Y2077D01*
X0Y2076D02*
X7Y2076D01*
X5703Y2076D02*
X5710Y2076D01*
X0Y2075D02*
X7Y2075D01*
X5703Y2075D02*
X5710Y2075D01*
X0Y2074D02*
X7Y2074D01*
X5703Y2074D02*
X5710Y2074D01*
X0Y2073D02*
X7Y2073D01*
X5703Y2073D02*
X5710Y2073D01*
X0Y2072D02*
X7Y2072D01*
X5703Y2072D02*
X5710Y2072D01*
X0Y2071D02*
X7Y2071D01*
X5703Y2071D02*
X5710Y2071D01*
X0Y2070D02*
X7Y2070D01*
X5703Y2070D02*
X5710Y2070D01*
X0Y2069D02*
X7Y2069D01*
X5703Y2069D02*
X5710Y2069D01*
X0Y2068D02*
X7Y2068D01*
X5703Y2068D02*
X5710Y2068D01*
X0Y2067D02*
X7Y2067D01*
X5703Y2067D02*
X5710Y2067D01*
X0Y2066D02*
X7Y2066D01*
X5703Y2066D02*
X5710Y2066D01*
X0Y2065D02*
X7Y2065D01*
X5703Y2065D02*
X5710Y2065D01*
X0Y2064D02*
X7Y2064D01*
X5703Y2064D02*
X5710Y2064D01*
X0Y2063D02*
X7Y2063D01*
X5703Y2063D02*
X5710Y2063D01*
X0Y2062D02*
X7Y2062D01*
X5703Y2062D02*
X5710Y2062D01*
X0Y2061D02*
X7Y2061D01*
X5703Y2061D02*
X5710Y2061D01*
X0Y2060D02*
X7Y2060D01*
X5703Y2060D02*
X5710Y2060D01*
X0Y2059D02*
X7Y2059D01*
X5703Y2059D02*
X5710Y2059D01*
X0Y2058D02*
X7Y2058D01*
X5703Y2058D02*
X5710Y2058D01*
X0Y2057D02*
X7Y2057D01*
X5703Y2057D02*
X5710Y2057D01*
X0Y2056D02*
X7Y2056D01*
X5703Y2056D02*
X5710Y2056D01*
X0Y2055D02*
X7Y2055D01*
X5703Y2055D02*
X5710Y2055D01*
X0Y2054D02*
X7Y2054D01*
X5703Y2054D02*
X5710Y2054D01*
X0Y2053D02*
X7Y2053D01*
X5703Y2053D02*
X5710Y2053D01*
X0Y2052D02*
X7Y2052D01*
X5703Y2052D02*
X5710Y2052D01*
X0Y2051D02*
X7Y2051D01*
X5703Y2051D02*
X5710Y2051D01*
X0Y2050D02*
X7Y2050D01*
X5703Y2050D02*
X5710Y2050D01*
X0Y2049D02*
X7Y2049D01*
X5703Y2049D02*
X5710Y2049D01*
X0Y2048D02*
X7Y2048D01*
X5703Y2048D02*
X5710Y2048D01*
X0Y2047D02*
X7Y2047D01*
X5703Y2047D02*
X5710Y2047D01*
X0Y2046D02*
X7Y2046D01*
X5703Y2046D02*
X5710Y2046D01*
X0Y2045D02*
X7Y2045D01*
X5703Y2045D02*
X5710Y2045D01*
X0Y2044D02*
X7Y2044D01*
X5703Y2044D02*
X5710Y2044D01*
X0Y2043D02*
X7Y2043D01*
X5703Y2043D02*
X5710Y2043D01*
X0Y2042D02*
X7Y2042D01*
X5703Y2042D02*
X5710Y2042D01*
X0Y2041D02*
X7Y2041D01*
X5703Y2041D02*
X5710Y2041D01*
X0Y2040D02*
X7Y2040D01*
X5703Y2040D02*
X5710Y2040D01*
X0Y2039D02*
X7Y2039D01*
X5703Y2039D02*
X5710Y2039D01*
X0Y2038D02*
X7Y2038D01*
X5703Y2038D02*
X5710Y2038D01*
X0Y2037D02*
X7Y2037D01*
X5703Y2037D02*
X5710Y2037D01*
X0Y2036D02*
X7Y2036D01*
X5703Y2036D02*
X5710Y2036D01*
X0Y2035D02*
X7Y2035D01*
X5703Y2035D02*
X5710Y2035D01*
X0Y2034D02*
X7Y2034D01*
X5703Y2034D02*
X5710Y2034D01*
X0Y2033D02*
X7Y2033D01*
X5703Y2033D02*
X5710Y2033D01*
X0Y2032D02*
X7Y2032D01*
X5703Y2032D02*
X5710Y2032D01*
X0Y2031D02*
X7Y2031D01*
X5703Y2031D02*
X5710Y2031D01*
X0Y2030D02*
X7Y2030D01*
X5703Y2030D02*
X5710Y2030D01*
X0Y2029D02*
X7Y2029D01*
X5703Y2029D02*
X5710Y2029D01*
X0Y2028D02*
X7Y2028D01*
X5703Y2028D02*
X5710Y2028D01*
X0Y2027D02*
X7Y2027D01*
X5703Y2027D02*
X5710Y2027D01*
X0Y2026D02*
X7Y2026D01*
X5703Y2026D02*
X5710Y2026D01*
X0Y2025D02*
X7Y2025D01*
X5703Y2025D02*
X5710Y2025D01*
X0Y2024D02*
X7Y2024D01*
X5703Y2024D02*
X5710Y2024D01*
X0Y2023D02*
X7Y2023D01*
X5703Y2023D02*
X5710Y2023D01*
X0Y2022D02*
X7Y2022D01*
X5703Y2022D02*
X5710Y2022D01*
X0Y2021D02*
X7Y2021D01*
X5703Y2021D02*
X5710Y2021D01*
X0Y2020D02*
X7Y2020D01*
X5703Y2020D02*
X5710Y2020D01*
X0Y2019D02*
X7Y2019D01*
X5703Y2019D02*
X5710Y2019D01*
X0Y2018D02*
X7Y2018D01*
X5703Y2018D02*
X5710Y2018D01*
X0Y2017D02*
X7Y2017D01*
X5703Y2017D02*
X5710Y2017D01*
X0Y2016D02*
X7Y2016D01*
X5703Y2016D02*
X5710Y2016D01*
X0Y2015D02*
X7Y2015D01*
X5703Y2015D02*
X5710Y2015D01*
X0Y2014D02*
X7Y2014D01*
X5703Y2014D02*
X5710Y2014D01*
X0Y2013D02*
X7Y2013D01*
X5703Y2013D02*
X5710Y2013D01*
X0Y2012D02*
X7Y2012D01*
X5703Y2012D02*
X5710Y2012D01*
X0Y2011D02*
X7Y2011D01*
X5703Y2011D02*
X5710Y2011D01*
X0Y2010D02*
X7Y2010D01*
X5703Y2010D02*
X5710Y2010D01*
X0Y2009D02*
X7Y2009D01*
X5703Y2009D02*
X5710Y2009D01*
X0Y2008D02*
X7Y2008D01*
X5703Y2008D02*
X5710Y2008D01*
X0Y2007D02*
X7Y2007D01*
X5703Y2007D02*
X5710Y2007D01*
X0Y2006D02*
X7Y2006D01*
X5703Y2006D02*
X5710Y2006D01*
X0Y2005D02*
X7Y2005D01*
X5703Y2005D02*
X5710Y2005D01*
X0Y2004D02*
X7Y2004D01*
X5703Y2004D02*
X5710Y2004D01*
X0Y2003D02*
X7Y2003D01*
X5703Y2003D02*
X5710Y2003D01*
X0Y2002D02*
X7Y2002D01*
X5703Y2002D02*
X5710Y2002D01*
X0Y2001D02*
X7Y2001D01*
X5703Y2001D02*
X5710Y2001D01*
X0Y2000D02*
X7Y2000D01*
X5703Y2000D02*
X5710Y2000D01*
X0Y1999D02*
X7Y1999D01*
X5703Y1999D02*
X5710Y1999D01*
X0Y1998D02*
X7Y1998D01*
X5703Y1998D02*
X5710Y1998D01*
X0Y1997D02*
X7Y1997D01*
X5703Y1997D02*
X5710Y1997D01*
X0Y1996D02*
X7Y1996D01*
X5703Y1996D02*
X5710Y1996D01*
X0Y1995D02*
X7Y1995D01*
X5703Y1995D02*
X5710Y1995D01*
X0Y1994D02*
X7Y1994D01*
X5703Y1994D02*
X5710Y1994D01*
X0Y1993D02*
X7Y1993D01*
X5703Y1993D02*
X5710Y1993D01*
X0Y1992D02*
X7Y1992D01*
X5703Y1992D02*
X5710Y1992D01*
X0Y1991D02*
X7Y1991D01*
X5703Y1991D02*
X5710Y1991D01*
X0Y1990D02*
X7Y1990D01*
X5703Y1990D02*
X5710Y1990D01*
X0Y1989D02*
X7Y1989D01*
X5703Y1989D02*
X5710Y1989D01*
X0Y1988D02*
X7Y1988D01*
X5703Y1988D02*
X5710Y1988D01*
X0Y1987D02*
X7Y1987D01*
X5703Y1987D02*
X5710Y1987D01*
X0Y1986D02*
X7Y1986D01*
X5703Y1986D02*
X5710Y1986D01*
X0Y1985D02*
X7Y1985D01*
X5703Y1985D02*
X5710Y1985D01*
X0Y1984D02*
X7Y1984D01*
X5703Y1984D02*
X5710Y1984D01*
X0Y1983D02*
X7Y1983D01*
X5703Y1983D02*
X5710Y1983D01*
X0Y1982D02*
X7Y1982D01*
X5703Y1982D02*
X5710Y1982D01*
X0Y1981D02*
X7Y1981D01*
X5703Y1981D02*
X5710Y1981D01*
X0Y1980D02*
X7Y1980D01*
X5703Y1980D02*
X5710Y1980D01*
X0Y1979D02*
X7Y1979D01*
X5703Y1979D02*
X5710Y1979D01*
X0Y1978D02*
X7Y1978D01*
X5703Y1978D02*
X5710Y1978D01*
X0Y1977D02*
X7Y1977D01*
X5703Y1977D02*
X5710Y1977D01*
X0Y1976D02*
X7Y1976D01*
X5703Y1976D02*
X5710Y1976D01*
X0Y1975D02*
X7Y1975D01*
X5703Y1975D02*
X5710Y1975D01*
X0Y1974D02*
X7Y1974D01*
X5703Y1974D02*
X5710Y1974D01*
X0Y1973D02*
X7Y1973D01*
X5703Y1973D02*
X5710Y1973D01*
X0Y1972D02*
X7Y1972D01*
X5703Y1972D02*
X5710Y1972D01*
X0Y1971D02*
X7Y1971D01*
X5703Y1971D02*
X5710Y1971D01*
X0Y1970D02*
X7Y1970D01*
X5703Y1970D02*
X5710Y1970D01*
X0Y1969D02*
X7Y1969D01*
X5703Y1969D02*
X5710Y1969D01*
X0Y1968D02*
X7Y1968D01*
X5703Y1968D02*
X5710Y1968D01*
X0Y1967D02*
X7Y1967D01*
X5703Y1967D02*
X5710Y1967D01*
X0Y1966D02*
X7Y1966D01*
X5703Y1966D02*
X5710Y1966D01*
X0Y1965D02*
X7Y1965D01*
X5703Y1965D02*
X5710Y1965D01*
X0Y1964D02*
X7Y1964D01*
X5703Y1964D02*
X5710Y1964D01*
X0Y1963D02*
X7Y1963D01*
X5703Y1963D02*
X5710Y1963D01*
X0Y1962D02*
X7Y1962D01*
X5703Y1962D02*
X5710Y1962D01*
X0Y1961D02*
X7Y1961D01*
X5703Y1961D02*
X5710Y1961D01*
X0Y1960D02*
X7Y1960D01*
X5703Y1960D02*
X5710Y1960D01*
X0Y1959D02*
X7Y1959D01*
X5703Y1959D02*
X5710Y1959D01*
X0Y1958D02*
X7Y1958D01*
X5703Y1958D02*
X5710Y1958D01*
X0Y1957D02*
X7Y1957D01*
X5703Y1957D02*
X5710Y1957D01*
X0Y1956D02*
X7Y1956D01*
X5703Y1956D02*
X5710Y1956D01*
X0Y1955D02*
X7Y1955D01*
X5703Y1955D02*
X5710Y1955D01*
X0Y1954D02*
X7Y1954D01*
X5703Y1954D02*
X5710Y1954D01*
X0Y1953D02*
X7Y1953D01*
X5703Y1953D02*
X5710Y1953D01*
X0Y1952D02*
X7Y1952D01*
X5703Y1952D02*
X5710Y1952D01*
X0Y1951D02*
X7Y1951D01*
X5703Y1951D02*
X5710Y1951D01*
X0Y1950D02*
X7Y1950D01*
X5703Y1950D02*
X5710Y1950D01*
X0Y1949D02*
X7Y1949D01*
X5703Y1949D02*
X5710Y1949D01*
X0Y1948D02*
X7Y1948D01*
X5703Y1948D02*
X5710Y1948D01*
X0Y1947D02*
X7Y1947D01*
X5703Y1947D02*
X5710Y1947D01*
X0Y1946D02*
X7Y1946D01*
X5703Y1946D02*
X5710Y1946D01*
X0Y1945D02*
X7Y1945D01*
X5703Y1945D02*
X5710Y1945D01*
X0Y1944D02*
X7Y1944D01*
X5703Y1944D02*
X5710Y1944D01*
X0Y1943D02*
X7Y1943D01*
X5703Y1943D02*
X5710Y1943D01*
X0Y1942D02*
X7Y1942D01*
X5703Y1942D02*
X5710Y1942D01*
X0Y1941D02*
X7Y1941D01*
X5703Y1941D02*
X5710Y1941D01*
X0Y1940D02*
X7Y1940D01*
X5703Y1940D02*
X5710Y1940D01*
X0Y1939D02*
X7Y1939D01*
X5703Y1939D02*
X5710Y1939D01*
X0Y1938D02*
X7Y1938D01*
X5703Y1938D02*
X5710Y1938D01*
X0Y1937D02*
X7Y1937D01*
X5703Y1937D02*
X5710Y1937D01*
X0Y1936D02*
X7Y1936D01*
X5703Y1936D02*
X5710Y1936D01*
X0Y1935D02*
X7Y1935D01*
X5703Y1935D02*
X5710Y1935D01*
X0Y1934D02*
X7Y1934D01*
X5703Y1934D02*
X5710Y1934D01*
X0Y1933D02*
X7Y1933D01*
X5703Y1933D02*
X5710Y1933D01*
X0Y1932D02*
X7Y1932D01*
X5703Y1932D02*
X5710Y1932D01*
X0Y1931D02*
X7Y1931D01*
X5703Y1931D02*
X5710Y1931D01*
X0Y1930D02*
X7Y1930D01*
X5703Y1930D02*
X5710Y1930D01*
X0Y1929D02*
X7Y1929D01*
X5703Y1929D02*
X5710Y1929D01*
X0Y1928D02*
X7Y1928D01*
X5703Y1928D02*
X5710Y1928D01*
X0Y1927D02*
X7Y1927D01*
X5703Y1927D02*
X5710Y1927D01*
X0Y1926D02*
X7Y1926D01*
X5703Y1926D02*
X5710Y1926D01*
X0Y1925D02*
X7Y1925D01*
X5703Y1925D02*
X5710Y1925D01*
X0Y1924D02*
X7Y1924D01*
X5703Y1924D02*
X5710Y1924D01*
X0Y1923D02*
X7Y1923D01*
X5703Y1923D02*
X5710Y1923D01*
X0Y1922D02*
X7Y1922D01*
X5703Y1922D02*
X5710Y1922D01*
X0Y1921D02*
X7Y1921D01*
X5703Y1921D02*
X5710Y1921D01*
X0Y1920D02*
X7Y1920D01*
X5703Y1920D02*
X5710Y1920D01*
X0Y1919D02*
X7Y1919D01*
X5703Y1919D02*
X5710Y1919D01*
X0Y1918D02*
X7Y1918D01*
X5703Y1918D02*
X5710Y1918D01*
X0Y1917D02*
X7Y1917D01*
X5703Y1917D02*
X5710Y1917D01*
X0Y1916D02*
X7Y1916D01*
X5703Y1916D02*
X5710Y1916D01*
X0Y1915D02*
X7Y1915D01*
X5703Y1915D02*
X5710Y1915D01*
X0Y1914D02*
X7Y1914D01*
X5703Y1914D02*
X5710Y1914D01*
X0Y1913D02*
X7Y1913D01*
X5703Y1913D02*
X5710Y1913D01*
X0Y1912D02*
X7Y1912D01*
X5703Y1912D02*
X5710Y1912D01*
X0Y1911D02*
X7Y1911D01*
X5703Y1911D02*
X5710Y1911D01*
X0Y1910D02*
X7Y1910D01*
X5703Y1910D02*
X5710Y1910D01*
X0Y1909D02*
X7Y1909D01*
X5703Y1909D02*
X5710Y1909D01*
X0Y1908D02*
X7Y1908D01*
X5703Y1908D02*
X5710Y1908D01*
X0Y1907D02*
X7Y1907D01*
X5703Y1907D02*
X5710Y1907D01*
X0Y1906D02*
X7Y1906D01*
X5703Y1906D02*
X5710Y1906D01*
X0Y1905D02*
X7Y1905D01*
X5703Y1905D02*
X5710Y1905D01*
X0Y1904D02*
X7Y1904D01*
X5703Y1904D02*
X5710Y1904D01*
X0Y1903D02*
X7Y1903D01*
X5703Y1903D02*
X5710Y1903D01*
X0Y1902D02*
X7Y1902D01*
X5703Y1902D02*
X5710Y1902D01*
X0Y1901D02*
X7Y1901D01*
X5703Y1901D02*
X5710Y1901D01*
X0Y1900D02*
X7Y1900D01*
X5703Y1900D02*
X5710Y1900D01*
X0Y1899D02*
X7Y1899D01*
X5703Y1899D02*
X5710Y1899D01*
X0Y1898D02*
X7Y1898D01*
X5703Y1898D02*
X5710Y1898D01*
X0Y1897D02*
X7Y1897D01*
X5703Y1897D02*
X5710Y1897D01*
X0Y1896D02*
X7Y1896D01*
X5703Y1896D02*
X5710Y1896D01*
X0Y1895D02*
X7Y1895D01*
X5703Y1895D02*
X5710Y1895D01*
X0Y1894D02*
X7Y1894D01*
X5703Y1894D02*
X5710Y1894D01*
X0Y1893D02*
X7Y1893D01*
X5703Y1893D02*
X5710Y1893D01*
X0Y1892D02*
X7Y1892D01*
X5703Y1892D02*
X5710Y1892D01*
X0Y1891D02*
X7Y1891D01*
X5703Y1891D02*
X5710Y1891D01*
X0Y1890D02*
X7Y1890D01*
X5703Y1890D02*
X5710Y1890D01*
X0Y1889D02*
X7Y1889D01*
X5703Y1889D02*
X5710Y1889D01*
X0Y1888D02*
X7Y1888D01*
X5703Y1888D02*
X5710Y1888D01*
X0Y1887D02*
X7Y1887D01*
X5703Y1887D02*
X5710Y1887D01*
X0Y1886D02*
X7Y1886D01*
X5703Y1886D02*
X5710Y1886D01*
X0Y1885D02*
X7Y1885D01*
X5703Y1885D02*
X5710Y1885D01*
X0Y1884D02*
X7Y1884D01*
X5703Y1884D02*
X5710Y1884D01*
X0Y1883D02*
X7Y1883D01*
X5703Y1883D02*
X5710Y1883D01*
X0Y1882D02*
X7Y1882D01*
X5703Y1882D02*
X5710Y1882D01*
X0Y1881D02*
X7Y1881D01*
X5703Y1881D02*
X5710Y1881D01*
X0Y1880D02*
X7Y1880D01*
X5703Y1880D02*
X5710Y1880D01*
X0Y1879D02*
X7Y1879D01*
X5703Y1879D02*
X5710Y1879D01*
X0Y1878D02*
X7Y1878D01*
X5703Y1878D02*
X5710Y1878D01*
X0Y1877D02*
X7Y1877D01*
X5703Y1877D02*
X5710Y1877D01*
X0Y1876D02*
X7Y1876D01*
X5703Y1876D02*
X5710Y1876D01*
X0Y1875D02*
X7Y1875D01*
X5703Y1875D02*
X5710Y1875D01*
X0Y1874D02*
X7Y1874D01*
X5703Y1874D02*
X5710Y1874D01*
X0Y1873D02*
X7Y1873D01*
X5703Y1873D02*
X5710Y1873D01*
X0Y1872D02*
X7Y1872D01*
X5703Y1872D02*
X5710Y1872D01*
X0Y1871D02*
X7Y1871D01*
X5703Y1871D02*
X5710Y1871D01*
X0Y1870D02*
X7Y1870D01*
X5703Y1870D02*
X5710Y1870D01*
X0Y1869D02*
X7Y1869D01*
X5703Y1869D02*
X5710Y1869D01*
X0Y1868D02*
X7Y1868D01*
X5703Y1868D02*
X5710Y1868D01*
X0Y1867D02*
X7Y1867D01*
X5703Y1867D02*
X5710Y1867D01*
X0Y1866D02*
X7Y1866D01*
X5703Y1866D02*
X5710Y1866D01*
X0Y1865D02*
X7Y1865D01*
X5703Y1865D02*
X5710Y1865D01*
X0Y1864D02*
X7Y1864D01*
X5703Y1864D02*
X5710Y1864D01*
X0Y1863D02*
X7Y1863D01*
X5703Y1863D02*
X5710Y1863D01*
X0Y1862D02*
X7Y1862D01*
X5703Y1862D02*
X5710Y1862D01*
X0Y1861D02*
X7Y1861D01*
X5703Y1861D02*
X5710Y1861D01*
X0Y1860D02*
X7Y1860D01*
X5703Y1860D02*
X5710Y1860D01*
X0Y1859D02*
X7Y1859D01*
X5703Y1859D02*
X5710Y1859D01*
X0Y1858D02*
X7Y1858D01*
X5703Y1858D02*
X5710Y1858D01*
X0Y1857D02*
X7Y1857D01*
X5703Y1857D02*
X5710Y1857D01*
X0Y1856D02*
X7Y1856D01*
X5703Y1856D02*
X5710Y1856D01*
X0Y1855D02*
X7Y1855D01*
X5703Y1855D02*
X5710Y1855D01*
X0Y1854D02*
X7Y1854D01*
X5703Y1854D02*
X5710Y1854D01*
X0Y1853D02*
X7Y1853D01*
X5703Y1853D02*
X5710Y1853D01*
X0Y1852D02*
X7Y1852D01*
X5703Y1852D02*
X5710Y1852D01*
X0Y1851D02*
X7Y1851D01*
X5703Y1851D02*
X5710Y1851D01*
X0Y1850D02*
X7Y1850D01*
X5703Y1850D02*
X5710Y1850D01*
X0Y1849D02*
X7Y1849D01*
X5703Y1849D02*
X5710Y1849D01*
X0Y1848D02*
X7Y1848D01*
X5703Y1848D02*
X5710Y1848D01*
X0Y1847D02*
X7Y1847D01*
X5703Y1847D02*
X5710Y1847D01*
X0Y1846D02*
X7Y1846D01*
X5703Y1846D02*
X5710Y1846D01*
X0Y1845D02*
X7Y1845D01*
X5703Y1845D02*
X5710Y1845D01*
X0Y1844D02*
X7Y1844D01*
X5703Y1844D02*
X5710Y1844D01*
X0Y1843D02*
X7Y1843D01*
X5703Y1843D02*
X5710Y1843D01*
X0Y1842D02*
X7Y1842D01*
X5703Y1842D02*
X5710Y1842D01*
X0Y1841D02*
X7Y1841D01*
X5703Y1841D02*
X5710Y1841D01*
X0Y1840D02*
X7Y1840D01*
X5703Y1840D02*
X5710Y1840D01*
X0Y1839D02*
X7Y1839D01*
X5703Y1839D02*
X5710Y1839D01*
X0Y1838D02*
X7Y1838D01*
X5703Y1838D02*
X5710Y1838D01*
X0Y1837D02*
X7Y1837D01*
X5703Y1837D02*
X5710Y1837D01*
X0Y1836D02*
X7Y1836D01*
X5703Y1836D02*
X5710Y1836D01*
X0Y1835D02*
X7Y1835D01*
X5703Y1835D02*
X5710Y1835D01*
X0Y1834D02*
X7Y1834D01*
X5703Y1834D02*
X5710Y1834D01*
X0Y1833D02*
X7Y1833D01*
X5703Y1833D02*
X5710Y1833D01*
X0Y1832D02*
X7Y1832D01*
X5703Y1832D02*
X5710Y1832D01*
X0Y1831D02*
X7Y1831D01*
X5703Y1831D02*
X5710Y1831D01*
X0Y1830D02*
X7Y1830D01*
X5703Y1830D02*
X5710Y1830D01*
X0Y1829D02*
X7Y1829D01*
X5703Y1829D02*
X5710Y1829D01*
X0Y1828D02*
X7Y1828D01*
X5703Y1828D02*
X5710Y1828D01*
X0Y1827D02*
X7Y1827D01*
X5703Y1827D02*
X5710Y1827D01*
X0Y1826D02*
X7Y1826D01*
X5703Y1826D02*
X5710Y1826D01*
X0Y1825D02*
X7Y1825D01*
X5703Y1825D02*
X5710Y1825D01*
X0Y1824D02*
X7Y1824D01*
X5703Y1824D02*
X5710Y1824D01*
X0Y1823D02*
X7Y1823D01*
X5703Y1823D02*
X5710Y1823D01*
X0Y1822D02*
X7Y1822D01*
X5703Y1822D02*
X5710Y1822D01*
X0Y1821D02*
X7Y1821D01*
X5703Y1821D02*
X5710Y1821D01*
X0Y1820D02*
X7Y1820D01*
X5703Y1820D02*
X5710Y1820D01*
X0Y1819D02*
X7Y1819D01*
X5703Y1819D02*
X5710Y1819D01*
X0Y1818D02*
X7Y1818D01*
X5703Y1818D02*
X5710Y1818D01*
X0Y1817D02*
X7Y1817D01*
X5703Y1817D02*
X5710Y1817D01*
X0Y1816D02*
X7Y1816D01*
X5703Y1816D02*
X5710Y1816D01*
X0Y1815D02*
X7Y1815D01*
X5703Y1815D02*
X5710Y1815D01*
X0Y1814D02*
X7Y1814D01*
X5703Y1814D02*
X5710Y1814D01*
X0Y1813D02*
X7Y1813D01*
X5703Y1813D02*
X5710Y1813D01*
X0Y1812D02*
X7Y1812D01*
X5703Y1812D02*
X5710Y1812D01*
X0Y1811D02*
X7Y1811D01*
X5703Y1811D02*
X5710Y1811D01*
X0Y1810D02*
X7Y1810D01*
X5703Y1810D02*
X5710Y1810D01*
X0Y1809D02*
X7Y1809D01*
X5703Y1809D02*
X5710Y1809D01*
X0Y1808D02*
X7Y1808D01*
X5703Y1808D02*
X5710Y1808D01*
X0Y1807D02*
X7Y1807D01*
X5703Y1807D02*
X5710Y1807D01*
X0Y1806D02*
X7Y1806D01*
X5703Y1806D02*
X5710Y1806D01*
X0Y1805D02*
X7Y1805D01*
X5703Y1805D02*
X5710Y1805D01*
X0Y1804D02*
X7Y1804D01*
X5703Y1804D02*
X5710Y1804D01*
X0Y1803D02*
X7Y1803D01*
X5703Y1803D02*
X5710Y1803D01*
X0Y1802D02*
X7Y1802D01*
X5703Y1802D02*
X5710Y1802D01*
X0Y1801D02*
X7Y1801D01*
X5703Y1801D02*
X5710Y1801D01*
X0Y1800D02*
X7Y1800D01*
X5703Y1800D02*
X5710Y1800D01*
X0Y1799D02*
X7Y1799D01*
X5703Y1799D02*
X5710Y1799D01*
X0Y1798D02*
X7Y1798D01*
X5703Y1798D02*
X5710Y1798D01*
X0Y1797D02*
X7Y1797D01*
X5703Y1797D02*
X5710Y1797D01*
X0Y1796D02*
X7Y1796D01*
X5703Y1796D02*
X5710Y1796D01*
X0Y1795D02*
X7Y1795D01*
X5703Y1795D02*
X5710Y1795D01*
X0Y1794D02*
X7Y1794D01*
X5703Y1794D02*
X5710Y1794D01*
X0Y1793D02*
X7Y1793D01*
X5703Y1793D02*
X5710Y1793D01*
X0Y1792D02*
X7Y1792D01*
X5703Y1792D02*
X5710Y1792D01*
X0Y1791D02*
X7Y1791D01*
X5703Y1791D02*
X5710Y1791D01*
X0Y1790D02*
X7Y1790D01*
X5703Y1790D02*
X5710Y1790D01*
X0Y1789D02*
X7Y1789D01*
X5703Y1789D02*
X5710Y1789D01*
X0Y1788D02*
X7Y1788D01*
X5703Y1788D02*
X5710Y1788D01*
X0Y1787D02*
X7Y1787D01*
X5703Y1787D02*
X5710Y1787D01*
X0Y1786D02*
X7Y1786D01*
X5703Y1786D02*
X5710Y1786D01*
X0Y1785D02*
X7Y1785D01*
X5703Y1785D02*
X5710Y1785D01*
X0Y1784D02*
X7Y1784D01*
X5703Y1784D02*
X5710Y1784D01*
X0Y1783D02*
X7Y1783D01*
X5703Y1783D02*
X5710Y1783D01*
X0Y1782D02*
X7Y1782D01*
X5703Y1782D02*
X5710Y1782D01*
X0Y1781D02*
X7Y1781D01*
X5703Y1781D02*
X5710Y1781D01*
X0Y1780D02*
X7Y1780D01*
X5703Y1780D02*
X5710Y1780D01*
X0Y1779D02*
X7Y1779D01*
X5703Y1779D02*
X5710Y1779D01*
X0Y1778D02*
X7Y1778D01*
X5703Y1778D02*
X5710Y1778D01*
X0Y1777D02*
X7Y1777D01*
X5703Y1777D02*
X5710Y1777D01*
X0Y1776D02*
X7Y1776D01*
X5703Y1776D02*
X5710Y1776D01*
X0Y1775D02*
X7Y1775D01*
X5703Y1775D02*
X5710Y1775D01*
X0Y1774D02*
X7Y1774D01*
X5703Y1774D02*
X5710Y1774D01*
X0Y1773D02*
X7Y1773D01*
X5703Y1773D02*
X5710Y1773D01*
X0Y1772D02*
X7Y1772D01*
X5703Y1772D02*
X5710Y1772D01*
X0Y1771D02*
X7Y1771D01*
X5703Y1771D02*
X5710Y1771D01*
X0Y1770D02*
X7Y1770D01*
X5703Y1770D02*
X5710Y1770D01*
X0Y1769D02*
X7Y1769D01*
X5703Y1769D02*
X5710Y1769D01*
X0Y1768D02*
X7Y1768D01*
X5703Y1768D02*
X5710Y1768D01*
X0Y1767D02*
X7Y1767D01*
X5703Y1767D02*
X5710Y1767D01*
X0Y1766D02*
X7Y1766D01*
X5703Y1766D02*
X5710Y1766D01*
X0Y1765D02*
X7Y1765D01*
X5703Y1765D02*
X5710Y1765D01*
X0Y1764D02*
X7Y1764D01*
X5703Y1764D02*
X5710Y1764D01*
X0Y1763D02*
X7Y1763D01*
X5703Y1763D02*
X5710Y1763D01*
X0Y1762D02*
X7Y1762D01*
X5703Y1762D02*
X5710Y1762D01*
X0Y1761D02*
X7Y1761D01*
X5703Y1761D02*
X5710Y1761D01*
X0Y1760D02*
X7Y1760D01*
X5703Y1760D02*
X5710Y1760D01*
X0Y1759D02*
X7Y1759D01*
X5703Y1759D02*
X5710Y1759D01*
X0Y1758D02*
X7Y1758D01*
X5703Y1758D02*
X5710Y1758D01*
X0Y1757D02*
X7Y1757D01*
X5703Y1757D02*
X5710Y1757D01*
X0Y1756D02*
X7Y1756D01*
X5703Y1756D02*
X5710Y1756D01*
X0Y1755D02*
X7Y1755D01*
X5703Y1755D02*
X5710Y1755D01*
X0Y1754D02*
X7Y1754D01*
X5703Y1754D02*
X5710Y1754D01*
X0Y1753D02*
X7Y1753D01*
X5703Y1753D02*
X5710Y1753D01*
X0Y1752D02*
X7Y1752D01*
X5703Y1752D02*
X5710Y1752D01*
X0Y1751D02*
X7Y1751D01*
X5703Y1751D02*
X5710Y1751D01*
X0Y1750D02*
X7Y1750D01*
X5703Y1750D02*
X5710Y1750D01*
X0Y1749D02*
X7Y1749D01*
X5703Y1749D02*
X5710Y1749D01*
X0Y1748D02*
X7Y1748D01*
X5703Y1748D02*
X5710Y1748D01*
X0Y1747D02*
X7Y1747D01*
X5703Y1747D02*
X5710Y1747D01*
X0Y1746D02*
X7Y1746D01*
X5703Y1746D02*
X5710Y1746D01*
X0Y1745D02*
X7Y1745D01*
X5703Y1745D02*
X5710Y1745D01*
X0Y1744D02*
X7Y1744D01*
X5703Y1744D02*
X5710Y1744D01*
X0Y1743D02*
X7Y1743D01*
X5703Y1743D02*
X5710Y1743D01*
X0Y1742D02*
X7Y1742D01*
X5703Y1742D02*
X5710Y1742D01*
X0Y1741D02*
X7Y1741D01*
X5703Y1741D02*
X5710Y1741D01*
X0Y1740D02*
X7Y1740D01*
X5703Y1740D02*
X5710Y1740D01*
X0Y1739D02*
X7Y1739D01*
X5703Y1739D02*
X5710Y1739D01*
X0Y1738D02*
X7Y1738D01*
X5703Y1738D02*
X5710Y1738D01*
X0Y1737D02*
X7Y1737D01*
X5703Y1737D02*
X5710Y1737D01*
X0Y1736D02*
X7Y1736D01*
X5703Y1736D02*
X5710Y1736D01*
X0Y1735D02*
X7Y1735D01*
X5703Y1735D02*
X5710Y1735D01*
X0Y1734D02*
X7Y1734D01*
X5703Y1734D02*
X5710Y1734D01*
X0Y1733D02*
X7Y1733D01*
X5703Y1733D02*
X5710Y1733D01*
X0Y1732D02*
X7Y1732D01*
X5703Y1732D02*
X5710Y1732D01*
X0Y1731D02*
X7Y1731D01*
X5703Y1731D02*
X5710Y1731D01*
X0Y1730D02*
X7Y1730D01*
X5703Y1730D02*
X5710Y1730D01*
X0Y1729D02*
X7Y1729D01*
X5703Y1729D02*
X5710Y1729D01*
X0Y1728D02*
X7Y1728D01*
X5703Y1728D02*
X5710Y1728D01*
X0Y1727D02*
X7Y1727D01*
X5703Y1727D02*
X5710Y1727D01*
X0Y1726D02*
X7Y1726D01*
X5703Y1726D02*
X5710Y1726D01*
X0Y1725D02*
X7Y1725D01*
X5703Y1725D02*
X5710Y1725D01*
X0Y1724D02*
X7Y1724D01*
X5703Y1724D02*
X5710Y1724D01*
X0Y1723D02*
X7Y1723D01*
X5703Y1723D02*
X5710Y1723D01*
X0Y1722D02*
X7Y1722D01*
X5703Y1722D02*
X5710Y1722D01*
X0Y1721D02*
X7Y1721D01*
X5703Y1721D02*
X5710Y1721D01*
X0Y1720D02*
X7Y1720D01*
X5703Y1720D02*
X5710Y1720D01*
X0Y1719D02*
X7Y1719D01*
X5703Y1719D02*
X5710Y1719D01*
X0Y1718D02*
X7Y1718D01*
X5703Y1718D02*
X5710Y1718D01*
X0Y1717D02*
X7Y1717D01*
X5703Y1717D02*
X5710Y1717D01*
X0Y1716D02*
X7Y1716D01*
X5703Y1716D02*
X5710Y1716D01*
X0Y1715D02*
X7Y1715D01*
X5703Y1715D02*
X5710Y1715D01*
X0Y1714D02*
X7Y1714D01*
X5703Y1714D02*
X5710Y1714D01*
X0Y1713D02*
X7Y1713D01*
X5703Y1713D02*
X5710Y1713D01*
X0Y1712D02*
X7Y1712D01*
X5703Y1712D02*
X5710Y1712D01*
X0Y1711D02*
X7Y1711D01*
X5703Y1711D02*
X5710Y1711D01*
X0Y1710D02*
X7Y1710D01*
X5703Y1710D02*
X5710Y1710D01*
X0Y1709D02*
X7Y1709D01*
X5703Y1709D02*
X5710Y1709D01*
X0Y1708D02*
X7Y1708D01*
X5703Y1708D02*
X5710Y1708D01*
X0Y1707D02*
X7Y1707D01*
X5703Y1707D02*
X5710Y1707D01*
X0Y1706D02*
X7Y1706D01*
X5703Y1706D02*
X5710Y1706D01*
X0Y1705D02*
X7Y1705D01*
X5703Y1705D02*
X5710Y1705D01*
X0Y1704D02*
X7Y1704D01*
X5703Y1704D02*
X5710Y1704D01*
X0Y1703D02*
X7Y1703D01*
X5703Y1703D02*
X5710Y1703D01*
X0Y1702D02*
X7Y1702D01*
X5703Y1702D02*
X5710Y1702D01*
X0Y1701D02*
X7Y1701D01*
X5703Y1701D02*
X5710Y1701D01*
X0Y1700D02*
X7Y1700D01*
X5703Y1700D02*
X5710Y1700D01*
X0Y1699D02*
X7Y1699D01*
X5703Y1699D02*
X5710Y1699D01*
X0Y1698D02*
X7Y1698D01*
X5703Y1698D02*
X5710Y1698D01*
X0Y1697D02*
X7Y1697D01*
X5703Y1697D02*
X5710Y1697D01*
X0Y1696D02*
X7Y1696D01*
X5703Y1696D02*
X5710Y1696D01*
X0Y1695D02*
X7Y1695D01*
X5703Y1695D02*
X5710Y1695D01*
X0Y1694D02*
X7Y1694D01*
X5703Y1694D02*
X5710Y1694D01*
X0Y1693D02*
X7Y1693D01*
X5703Y1693D02*
X5710Y1693D01*
X0Y1692D02*
X7Y1692D01*
X5703Y1692D02*
X5710Y1692D01*
X0Y1691D02*
X7Y1691D01*
X5703Y1691D02*
X5710Y1691D01*
X0Y1690D02*
X7Y1690D01*
X5703Y1690D02*
X5710Y1690D01*
X0Y1689D02*
X7Y1689D01*
X5703Y1689D02*
X5710Y1689D01*
X0Y1688D02*
X7Y1688D01*
X5703Y1688D02*
X5710Y1688D01*
X0Y1687D02*
X7Y1687D01*
X5703Y1687D02*
X5710Y1687D01*
X0Y1686D02*
X7Y1686D01*
X5703Y1686D02*
X5710Y1686D01*
X0Y1685D02*
X7Y1685D01*
X5703Y1685D02*
X5710Y1685D01*
X0Y1684D02*
X7Y1684D01*
X5703Y1684D02*
X5710Y1684D01*
X0Y1683D02*
X7Y1683D01*
X5703Y1683D02*
X5710Y1683D01*
X0Y1682D02*
X7Y1682D01*
X5703Y1682D02*
X5710Y1682D01*
X0Y1681D02*
X7Y1681D01*
X5703Y1681D02*
X5710Y1681D01*
X0Y1680D02*
X7Y1680D01*
X5703Y1680D02*
X5710Y1680D01*
X0Y1679D02*
X7Y1679D01*
X5703Y1679D02*
X5710Y1679D01*
X0Y1678D02*
X7Y1678D01*
X5703Y1678D02*
X5710Y1678D01*
X0Y1677D02*
X7Y1677D01*
X5703Y1677D02*
X5710Y1677D01*
X0Y1676D02*
X7Y1676D01*
X5703Y1676D02*
X5710Y1676D01*
X0Y1675D02*
X7Y1675D01*
X5703Y1675D02*
X5710Y1675D01*
X0Y1674D02*
X7Y1674D01*
X5703Y1674D02*
X5710Y1674D01*
X0Y1673D02*
X7Y1673D01*
X5703Y1673D02*
X5710Y1673D01*
X0Y1672D02*
X7Y1672D01*
X5703Y1672D02*
X5710Y1672D01*
X0Y1671D02*
X7Y1671D01*
X5703Y1671D02*
X5710Y1671D01*
X0Y1670D02*
X7Y1670D01*
X5703Y1670D02*
X5710Y1670D01*
X0Y1669D02*
X7Y1669D01*
X5703Y1669D02*
X5710Y1669D01*
X0Y1668D02*
X7Y1668D01*
X5703Y1668D02*
X5710Y1668D01*
X0Y1667D02*
X7Y1667D01*
X5703Y1667D02*
X5710Y1667D01*
X0Y1666D02*
X7Y1666D01*
X5703Y1666D02*
X5710Y1666D01*
X0Y1665D02*
X7Y1665D01*
X5703Y1665D02*
X5710Y1665D01*
X0Y1664D02*
X7Y1664D01*
X5703Y1664D02*
X5710Y1664D01*
X0Y1663D02*
X7Y1663D01*
X5703Y1663D02*
X5710Y1663D01*
X0Y1662D02*
X7Y1662D01*
X5703Y1662D02*
X5710Y1662D01*
X0Y1661D02*
X7Y1661D01*
X5703Y1661D02*
X5710Y1661D01*
X0Y1660D02*
X7Y1660D01*
X5703Y1660D02*
X5710Y1660D01*
X0Y1659D02*
X7Y1659D01*
X5703Y1659D02*
X5710Y1659D01*
X0Y1658D02*
X7Y1658D01*
X5703Y1658D02*
X5710Y1658D01*
X0Y1657D02*
X7Y1657D01*
X5703Y1657D02*
X5710Y1657D01*
X0Y1656D02*
X7Y1656D01*
X5703Y1656D02*
X5710Y1656D01*
X0Y1655D02*
X7Y1655D01*
X5703Y1655D02*
X5710Y1655D01*
X0Y1654D02*
X7Y1654D01*
X5703Y1654D02*
X5710Y1654D01*
X0Y1653D02*
X7Y1653D01*
X5703Y1653D02*
X5710Y1653D01*
X0Y1652D02*
X7Y1652D01*
X5703Y1652D02*
X5710Y1652D01*
X0Y1651D02*
X7Y1651D01*
X5703Y1651D02*
X5710Y1651D01*
X0Y1650D02*
X7Y1650D01*
X5703Y1650D02*
X5710Y1650D01*
X0Y1649D02*
X7Y1649D01*
X5703Y1649D02*
X5710Y1649D01*
X0Y1648D02*
X7Y1648D01*
X5703Y1648D02*
X5710Y1648D01*
X0Y1647D02*
X7Y1647D01*
X5703Y1647D02*
X5710Y1647D01*
X0Y1646D02*
X7Y1646D01*
X5703Y1646D02*
X5710Y1646D01*
X0Y1645D02*
X7Y1645D01*
X5703Y1645D02*
X5710Y1645D01*
X0Y1644D02*
X7Y1644D01*
X5703Y1644D02*
X5710Y1644D01*
X0Y1643D02*
X7Y1643D01*
X5703Y1643D02*
X5710Y1643D01*
X0Y1642D02*
X7Y1642D01*
X5703Y1642D02*
X5710Y1642D01*
X0Y1641D02*
X7Y1641D01*
X5703Y1641D02*
X5710Y1641D01*
X0Y1640D02*
X7Y1640D01*
X5703Y1640D02*
X5710Y1640D01*
X0Y1639D02*
X7Y1639D01*
X5703Y1639D02*
X5710Y1639D01*
X0Y1638D02*
X7Y1638D01*
X5703Y1638D02*
X5710Y1638D01*
X0Y1637D02*
X7Y1637D01*
X5703Y1637D02*
X5710Y1637D01*
X0Y1636D02*
X7Y1636D01*
X5703Y1636D02*
X5710Y1636D01*
X0Y1635D02*
X7Y1635D01*
X5703Y1635D02*
X5710Y1635D01*
X0Y1634D02*
X7Y1634D01*
X5703Y1634D02*
X5710Y1634D01*
X0Y1633D02*
X7Y1633D01*
X5703Y1633D02*
X5710Y1633D01*
X0Y1632D02*
X7Y1632D01*
X5703Y1632D02*
X5710Y1632D01*
X0Y1631D02*
X7Y1631D01*
X5703Y1631D02*
X5710Y1631D01*
X0Y1630D02*
X7Y1630D01*
X5703Y1630D02*
X5710Y1630D01*
X0Y1629D02*
X7Y1629D01*
X5703Y1629D02*
X5710Y1629D01*
X0Y1628D02*
X7Y1628D01*
X5703Y1628D02*
X5710Y1628D01*
X0Y1627D02*
X7Y1627D01*
X5703Y1627D02*
X5710Y1627D01*
X0Y1626D02*
X7Y1626D01*
X5703Y1626D02*
X5710Y1626D01*
X0Y1625D02*
X7Y1625D01*
X5703Y1625D02*
X5710Y1625D01*
X0Y1624D02*
X7Y1624D01*
X5703Y1624D02*
X5710Y1624D01*
X0Y1623D02*
X7Y1623D01*
X5703Y1623D02*
X5710Y1623D01*
X0Y1622D02*
X7Y1622D01*
X5703Y1622D02*
X5710Y1622D01*
X0Y1621D02*
X7Y1621D01*
X5703Y1621D02*
X5710Y1621D01*
X0Y1620D02*
X7Y1620D01*
X5703Y1620D02*
X5710Y1620D01*
X0Y1619D02*
X7Y1619D01*
X5703Y1619D02*
X5710Y1619D01*
X0Y1618D02*
X7Y1618D01*
X5703Y1618D02*
X5710Y1618D01*
X0Y1617D02*
X7Y1617D01*
X5703Y1617D02*
X5710Y1617D01*
X0Y1616D02*
X7Y1616D01*
X5703Y1616D02*
X5710Y1616D01*
X0Y1615D02*
X7Y1615D01*
X5703Y1615D02*
X5710Y1615D01*
X0Y1614D02*
X7Y1614D01*
X5703Y1614D02*
X5710Y1614D01*
X0Y1613D02*
X7Y1613D01*
X5703Y1613D02*
X5710Y1613D01*
X0Y1612D02*
X7Y1612D01*
X5703Y1612D02*
X5710Y1612D01*
X0Y1611D02*
X7Y1611D01*
X5703Y1611D02*
X5710Y1611D01*
X0Y1610D02*
X7Y1610D01*
X5703Y1610D02*
X5710Y1610D01*
X0Y1609D02*
X7Y1609D01*
X5703Y1609D02*
X5710Y1609D01*
X0Y1608D02*
X7Y1608D01*
X5703Y1608D02*
X5710Y1608D01*
X0Y1607D02*
X7Y1607D01*
X5703Y1607D02*
X5710Y1607D01*
X0Y1606D02*
X7Y1606D01*
X5703Y1606D02*
X5710Y1606D01*
X0Y1605D02*
X7Y1605D01*
X5703Y1605D02*
X5710Y1605D01*
X0Y1604D02*
X7Y1604D01*
X5703Y1604D02*
X5710Y1604D01*
X0Y1603D02*
X7Y1603D01*
X5703Y1603D02*
X5710Y1603D01*
X0Y1602D02*
X7Y1602D01*
X5703Y1602D02*
X5710Y1602D01*
X0Y1601D02*
X7Y1601D01*
X5703Y1601D02*
X5710Y1601D01*
X0Y1600D02*
X7Y1600D01*
X5703Y1600D02*
X5710Y1600D01*
X0Y1599D02*
X7Y1599D01*
X5703Y1599D02*
X5710Y1599D01*
X0Y1598D02*
X7Y1598D01*
X5703Y1598D02*
X5710Y1598D01*
X0Y1597D02*
X7Y1597D01*
X5703Y1597D02*
X5710Y1597D01*
X0Y1596D02*
X7Y1596D01*
X5703Y1596D02*
X5710Y1596D01*
X0Y1595D02*
X7Y1595D01*
X5703Y1595D02*
X5710Y1595D01*
X0Y1594D02*
X7Y1594D01*
X5703Y1594D02*
X5710Y1594D01*
X0Y1593D02*
X7Y1593D01*
X5703Y1593D02*
X5710Y1593D01*
X0Y1592D02*
X7Y1592D01*
X5703Y1592D02*
X5710Y1592D01*
X0Y1591D02*
X7Y1591D01*
X5703Y1591D02*
X5710Y1591D01*
X0Y1590D02*
X7Y1590D01*
X5703Y1590D02*
X5710Y1590D01*
X0Y1589D02*
X7Y1589D01*
X5703Y1589D02*
X5710Y1589D01*
X0Y1588D02*
X7Y1588D01*
X5703Y1588D02*
X5710Y1588D01*
X0Y1587D02*
X7Y1587D01*
X5703Y1587D02*
X5710Y1587D01*
X0Y1586D02*
X7Y1586D01*
X5703Y1586D02*
X5710Y1586D01*
X0Y1585D02*
X7Y1585D01*
X5703Y1585D02*
X5710Y1585D01*
X0Y1584D02*
X7Y1584D01*
X5703Y1584D02*
X5710Y1584D01*
X0Y1583D02*
X7Y1583D01*
X5703Y1583D02*
X5710Y1583D01*
X0Y1582D02*
X7Y1582D01*
X5703Y1582D02*
X5710Y1582D01*
X0Y1581D02*
X7Y1581D01*
X5703Y1581D02*
X5710Y1581D01*
X0Y1580D02*
X7Y1580D01*
X5703Y1580D02*
X5710Y1580D01*
X0Y1579D02*
X7Y1579D01*
X5703Y1579D02*
X5710Y1579D01*
X0Y1578D02*
X7Y1578D01*
X5703Y1578D02*
X5710Y1578D01*
X0Y1577D02*
X7Y1577D01*
X5703Y1577D02*
X5710Y1577D01*
X0Y1576D02*
X7Y1576D01*
X5703Y1576D02*
X5710Y1576D01*
X0Y1575D02*
X7Y1575D01*
X5703Y1575D02*
X5710Y1575D01*
X0Y1574D02*
X7Y1574D01*
X5703Y1574D02*
X5710Y1574D01*
X0Y1573D02*
X7Y1573D01*
X5703Y1573D02*
X5710Y1573D01*
X0Y1572D02*
X7Y1572D01*
X5703Y1572D02*
X5710Y1572D01*
X0Y1571D02*
X7Y1571D01*
X5703Y1571D02*
X5710Y1571D01*
X0Y1570D02*
X7Y1570D01*
X5703Y1570D02*
X5710Y1570D01*
X0Y1569D02*
X7Y1569D01*
X5703Y1569D02*
X5710Y1569D01*
X0Y1568D02*
X7Y1568D01*
X5703Y1568D02*
X5710Y1568D01*
X0Y1567D02*
X7Y1567D01*
X5703Y1567D02*
X5710Y1567D01*
X0Y1566D02*
X7Y1566D01*
X5703Y1566D02*
X5710Y1566D01*
X0Y1565D02*
X7Y1565D01*
X5703Y1565D02*
X5710Y1565D01*
X0Y1564D02*
X7Y1564D01*
X5703Y1564D02*
X5710Y1564D01*
X0Y1563D02*
X7Y1563D01*
X5703Y1563D02*
X5710Y1563D01*
X0Y1562D02*
X7Y1562D01*
X5703Y1562D02*
X5710Y1562D01*
X0Y1561D02*
X7Y1561D01*
X5703Y1561D02*
X5710Y1561D01*
X0Y1560D02*
X7Y1560D01*
X5703Y1560D02*
X5710Y1560D01*
X0Y1559D02*
X7Y1559D01*
X5703Y1559D02*
X5710Y1559D01*
X0Y1558D02*
X7Y1558D01*
X5703Y1558D02*
X5710Y1558D01*
X0Y1557D02*
X7Y1557D01*
X5703Y1557D02*
X5710Y1557D01*
X0Y1556D02*
X7Y1556D01*
X5703Y1556D02*
X5710Y1556D01*
X0Y1555D02*
X7Y1555D01*
X5703Y1555D02*
X5710Y1555D01*
X0Y1554D02*
X7Y1554D01*
X5703Y1554D02*
X5710Y1554D01*
X0Y1553D02*
X7Y1553D01*
X5703Y1553D02*
X5710Y1553D01*
X0Y1552D02*
X7Y1552D01*
X5703Y1552D02*
X5710Y1552D01*
X0Y1551D02*
X7Y1551D01*
X5703Y1551D02*
X5710Y1551D01*
X0Y1550D02*
X7Y1550D01*
X5703Y1550D02*
X5710Y1550D01*
X0Y1549D02*
X7Y1549D01*
X5703Y1549D02*
X5710Y1549D01*
X0Y1548D02*
X7Y1548D01*
X5703Y1548D02*
X5710Y1548D01*
X0Y1547D02*
X7Y1547D01*
X5703Y1547D02*
X5710Y1547D01*
X0Y1546D02*
X7Y1546D01*
X5703Y1546D02*
X5710Y1546D01*
X0Y1545D02*
X7Y1545D01*
X5703Y1545D02*
X5710Y1545D01*
X0Y1544D02*
X7Y1544D01*
X5703Y1544D02*
X5710Y1544D01*
X0Y1543D02*
X7Y1543D01*
X5703Y1543D02*
X5710Y1543D01*
X0Y1542D02*
X7Y1542D01*
X5703Y1542D02*
X5710Y1542D01*
X0Y1541D02*
X7Y1541D01*
X5703Y1541D02*
X5710Y1541D01*
X0Y1540D02*
X7Y1540D01*
X5703Y1540D02*
X5710Y1540D01*
X0Y1539D02*
X7Y1539D01*
X5703Y1539D02*
X5710Y1539D01*
X0Y1538D02*
X7Y1538D01*
X5703Y1538D02*
X5710Y1538D01*
X0Y1537D02*
X7Y1537D01*
X5703Y1537D02*
X5710Y1537D01*
X0Y1536D02*
X7Y1536D01*
X5703Y1536D02*
X5710Y1536D01*
X0Y1535D02*
X7Y1535D01*
X5703Y1535D02*
X5710Y1535D01*
X0Y1534D02*
X7Y1534D01*
X5703Y1534D02*
X5710Y1534D01*
X0Y1533D02*
X7Y1533D01*
X5703Y1533D02*
X5710Y1533D01*
X0Y1532D02*
X7Y1532D01*
X5703Y1532D02*
X5710Y1532D01*
X0Y1531D02*
X7Y1531D01*
X5703Y1531D02*
X5710Y1531D01*
X0Y1530D02*
X7Y1530D01*
X5703Y1530D02*
X5710Y1530D01*
X0Y1529D02*
X7Y1529D01*
X5703Y1529D02*
X5710Y1529D01*
X0Y1528D02*
X7Y1528D01*
X5703Y1528D02*
X5710Y1528D01*
X0Y1527D02*
X7Y1527D01*
X5703Y1527D02*
X5710Y1527D01*
X0Y1526D02*
X7Y1526D01*
X5703Y1526D02*
X5710Y1526D01*
X0Y1525D02*
X7Y1525D01*
X5703Y1525D02*
X5710Y1525D01*
X0Y1524D02*
X7Y1524D01*
X5703Y1524D02*
X5710Y1524D01*
X0Y1523D02*
X7Y1523D01*
X5703Y1523D02*
X5710Y1523D01*
X0Y1522D02*
X7Y1522D01*
X5703Y1522D02*
X5710Y1522D01*
X0Y1521D02*
X7Y1521D01*
X5703Y1521D02*
X5710Y1521D01*
X0Y1520D02*
X7Y1520D01*
X5703Y1520D02*
X5710Y1520D01*
X0Y1519D02*
X7Y1519D01*
X5703Y1519D02*
X5710Y1519D01*
X0Y1518D02*
X7Y1518D01*
X5703Y1518D02*
X5710Y1518D01*
X0Y1517D02*
X7Y1517D01*
X5703Y1517D02*
X5710Y1517D01*
X0Y1516D02*
X7Y1516D01*
X5703Y1516D02*
X5710Y1516D01*
X0Y1515D02*
X7Y1515D01*
X5703Y1515D02*
X5710Y1515D01*
X0Y1514D02*
X7Y1514D01*
X5703Y1514D02*
X5710Y1514D01*
X0Y1513D02*
X7Y1513D01*
X5703Y1513D02*
X5710Y1513D01*
X0Y1512D02*
X7Y1512D01*
X5703Y1512D02*
X5710Y1512D01*
X0Y1511D02*
X7Y1511D01*
X5703Y1511D02*
X5710Y1511D01*
X0Y1510D02*
X7Y1510D01*
X5703Y1510D02*
X5710Y1510D01*
X0Y1509D02*
X7Y1509D01*
X5703Y1509D02*
X5710Y1509D01*
X0Y1508D02*
X7Y1508D01*
X5703Y1508D02*
X5710Y1508D01*
X0Y1507D02*
X7Y1507D01*
X5703Y1507D02*
X5710Y1507D01*
X0Y1506D02*
X7Y1506D01*
X5703Y1506D02*
X5710Y1506D01*
X0Y1505D02*
X7Y1505D01*
X5703Y1505D02*
X5710Y1505D01*
X0Y1504D02*
X7Y1504D01*
X5703Y1504D02*
X5710Y1504D01*
X0Y1503D02*
X7Y1503D01*
X5703Y1503D02*
X5710Y1503D01*
X0Y1502D02*
X7Y1502D01*
X5703Y1502D02*
X5710Y1502D01*
X0Y1501D02*
X7Y1501D01*
X5703Y1501D02*
X5710Y1501D01*
X0Y1500D02*
X7Y1500D01*
X5703Y1500D02*
X5710Y1500D01*
X0Y1499D02*
X7Y1499D01*
X5703Y1499D02*
X5710Y1499D01*
X0Y1498D02*
X7Y1498D01*
X5703Y1498D02*
X5710Y1498D01*
X0Y1497D02*
X7Y1497D01*
X5703Y1497D02*
X5710Y1497D01*
X0Y1496D02*
X7Y1496D01*
X5703Y1496D02*
X5710Y1496D01*
X0Y1495D02*
X7Y1495D01*
X5703Y1495D02*
X5710Y1495D01*
X0Y1494D02*
X7Y1494D01*
X5703Y1494D02*
X5710Y1494D01*
X0Y1493D02*
X7Y1493D01*
X5703Y1493D02*
X5710Y1493D01*
X0Y1492D02*
X7Y1492D01*
X5703Y1492D02*
X5710Y1492D01*
X0Y1491D02*
X7Y1491D01*
X5703Y1491D02*
X5710Y1491D01*
X0Y1490D02*
X7Y1490D01*
X5703Y1490D02*
X5710Y1490D01*
X0Y1489D02*
X7Y1489D01*
X5703Y1489D02*
X5710Y1489D01*
X0Y1488D02*
X7Y1488D01*
X5703Y1488D02*
X5710Y1488D01*
X0Y1487D02*
X7Y1487D01*
X5703Y1487D02*
X5710Y1487D01*
X0Y1486D02*
X7Y1486D01*
X5703Y1486D02*
X5710Y1486D01*
X0Y1485D02*
X7Y1485D01*
X5703Y1485D02*
X5710Y1485D01*
X0Y1484D02*
X7Y1484D01*
X5703Y1484D02*
X5710Y1484D01*
X0Y1483D02*
X7Y1483D01*
X5703Y1483D02*
X5710Y1483D01*
X0Y1482D02*
X7Y1482D01*
X5703Y1482D02*
X5710Y1482D01*
X0Y1481D02*
X7Y1481D01*
X5703Y1481D02*
X5710Y1481D01*
X0Y1480D02*
X7Y1480D01*
X5703Y1480D02*
X5710Y1480D01*
X0Y1479D02*
X7Y1479D01*
X5703Y1479D02*
X5710Y1479D01*
X0Y1478D02*
X7Y1478D01*
X5703Y1478D02*
X5710Y1478D01*
X0Y1477D02*
X7Y1477D01*
X5703Y1477D02*
X5710Y1477D01*
X0Y1476D02*
X7Y1476D01*
X5703Y1476D02*
X5710Y1476D01*
X0Y1475D02*
X7Y1475D01*
X5703Y1475D02*
X5710Y1475D01*
X0Y1474D02*
X7Y1474D01*
X5703Y1474D02*
X5710Y1474D01*
X0Y1473D02*
X7Y1473D01*
X5703Y1473D02*
X5710Y1473D01*
X0Y1472D02*
X7Y1472D01*
X5703Y1472D02*
X5710Y1472D01*
X0Y1471D02*
X7Y1471D01*
X5703Y1471D02*
X5710Y1471D01*
X0Y1470D02*
X7Y1470D01*
X5703Y1470D02*
X5710Y1470D01*
X0Y1469D02*
X7Y1469D01*
X5703Y1469D02*
X5710Y1469D01*
X0Y1468D02*
X7Y1468D01*
X5703Y1468D02*
X5710Y1468D01*
X0Y1467D02*
X7Y1467D01*
X5703Y1467D02*
X5710Y1467D01*
X0Y1466D02*
X7Y1466D01*
X5703Y1466D02*
X5710Y1466D01*
X0Y1465D02*
X7Y1465D01*
X5703Y1465D02*
X5710Y1465D01*
X0Y1464D02*
X7Y1464D01*
X5703Y1464D02*
X5710Y1464D01*
X0Y1463D02*
X7Y1463D01*
X5703Y1463D02*
X5710Y1463D01*
X0Y1462D02*
X7Y1462D01*
X5703Y1462D02*
X5710Y1462D01*
X0Y1461D02*
X7Y1461D01*
X5703Y1461D02*
X5710Y1461D01*
X0Y1460D02*
X7Y1460D01*
X5703Y1460D02*
X5710Y1460D01*
X0Y1459D02*
X7Y1459D01*
X5703Y1459D02*
X5710Y1459D01*
X0Y1458D02*
X7Y1458D01*
X5703Y1458D02*
X5710Y1458D01*
X0Y1457D02*
X7Y1457D01*
X5703Y1457D02*
X5710Y1457D01*
X0Y1456D02*
X7Y1456D01*
X5703Y1456D02*
X5710Y1456D01*
X0Y1455D02*
X7Y1455D01*
X5703Y1455D02*
X5710Y1455D01*
X0Y1454D02*
X7Y1454D01*
X5703Y1454D02*
X5710Y1454D01*
X0Y1453D02*
X7Y1453D01*
X5703Y1453D02*
X5710Y1453D01*
X0Y1452D02*
X7Y1452D01*
X5703Y1452D02*
X5710Y1452D01*
X0Y1451D02*
X7Y1451D01*
X5703Y1451D02*
X5710Y1451D01*
X0Y1450D02*
X7Y1450D01*
X5703Y1450D02*
X5710Y1450D01*
X0Y1449D02*
X7Y1449D01*
X5703Y1449D02*
X5710Y1449D01*
X0Y1448D02*
X7Y1448D01*
X5703Y1448D02*
X5710Y1448D01*
X0Y1447D02*
X7Y1447D01*
X5703Y1447D02*
X5710Y1447D01*
X0Y1446D02*
X7Y1446D01*
X5703Y1446D02*
X5710Y1446D01*
X0Y1445D02*
X7Y1445D01*
X5703Y1445D02*
X5710Y1445D01*
X0Y1444D02*
X7Y1444D01*
X5703Y1444D02*
X5710Y1444D01*
X0Y1443D02*
X7Y1443D01*
X5703Y1443D02*
X5710Y1443D01*
X0Y1442D02*
X7Y1442D01*
X5703Y1442D02*
X5710Y1442D01*
X0Y1441D02*
X7Y1441D01*
X5703Y1441D02*
X5710Y1441D01*
X0Y1440D02*
X7Y1440D01*
X5703Y1440D02*
X5710Y1440D01*
X0Y1439D02*
X7Y1439D01*
X5703Y1439D02*
X5710Y1439D01*
X0Y1438D02*
X7Y1438D01*
X5703Y1438D02*
X5710Y1438D01*
X0Y1437D02*
X7Y1437D01*
X5703Y1437D02*
X5710Y1437D01*
X0Y1436D02*
X7Y1436D01*
X5703Y1436D02*
X5710Y1436D01*
X0Y1435D02*
X7Y1435D01*
X5703Y1435D02*
X5710Y1435D01*
X0Y1434D02*
X7Y1434D01*
X5703Y1434D02*
X5710Y1434D01*
X0Y1433D02*
X7Y1433D01*
X5703Y1433D02*
X5710Y1433D01*
X0Y1432D02*
X7Y1432D01*
X5703Y1432D02*
X5710Y1432D01*
X0Y1431D02*
X7Y1431D01*
X5703Y1431D02*
X5710Y1431D01*
X0Y1430D02*
X7Y1430D01*
X5703Y1430D02*
X5710Y1430D01*
X0Y1429D02*
X7Y1429D01*
X5703Y1429D02*
X5710Y1429D01*
X0Y1428D02*
X7Y1428D01*
X5703Y1428D02*
X5710Y1428D01*
X0Y1427D02*
X7Y1427D01*
X5703Y1427D02*
X5710Y1427D01*
X0Y1426D02*
X7Y1426D01*
X5703Y1426D02*
X5710Y1426D01*
X0Y1425D02*
X7Y1425D01*
X5703Y1425D02*
X5710Y1425D01*
X0Y1424D02*
X7Y1424D01*
X5703Y1424D02*
X5710Y1424D01*
X0Y1423D02*
X7Y1423D01*
X5703Y1423D02*
X5710Y1423D01*
X0Y1422D02*
X7Y1422D01*
X5703Y1422D02*
X5710Y1422D01*
X0Y1421D02*
X7Y1421D01*
X5703Y1421D02*
X5710Y1421D01*
X0Y1420D02*
X7Y1420D01*
X5703Y1420D02*
X5710Y1420D01*
X0Y1419D02*
X7Y1419D01*
X5703Y1419D02*
X5710Y1419D01*
X0Y1418D02*
X7Y1418D01*
X5703Y1418D02*
X5710Y1418D01*
X0Y1417D02*
X7Y1417D01*
X5703Y1417D02*
X5710Y1417D01*
X0Y1416D02*
X7Y1416D01*
X5703Y1416D02*
X5710Y1416D01*
X0Y1415D02*
X7Y1415D01*
X5703Y1415D02*
X5710Y1415D01*
X0Y1414D02*
X7Y1414D01*
X5703Y1414D02*
X5710Y1414D01*
X0Y1413D02*
X7Y1413D01*
X5703Y1413D02*
X5710Y1413D01*
X0Y1412D02*
X7Y1412D01*
X5703Y1412D02*
X5710Y1412D01*
X0Y1411D02*
X7Y1411D01*
X5703Y1411D02*
X5710Y1411D01*
X0Y1410D02*
X7Y1410D01*
X5703Y1410D02*
X5710Y1410D01*
X0Y1409D02*
X7Y1409D01*
X5703Y1409D02*
X5710Y1409D01*
X0Y1408D02*
X7Y1408D01*
X5703Y1408D02*
X5710Y1408D01*
X0Y1407D02*
X7Y1407D01*
X5703Y1407D02*
X5710Y1407D01*
X0Y1406D02*
X7Y1406D01*
X5703Y1406D02*
X5710Y1406D01*
X0Y1405D02*
X7Y1405D01*
X5703Y1405D02*
X5710Y1405D01*
X0Y1404D02*
X7Y1404D01*
X5703Y1404D02*
X5710Y1404D01*
X0Y1403D02*
X7Y1403D01*
X5703Y1403D02*
X5710Y1403D01*
X0Y1402D02*
X7Y1402D01*
X5703Y1402D02*
X5710Y1402D01*
X0Y1401D02*
X7Y1401D01*
X5703Y1401D02*
X5710Y1401D01*
X0Y1400D02*
X7Y1400D01*
X5703Y1400D02*
X5710Y1400D01*
X0Y1399D02*
X7Y1399D01*
X5703Y1399D02*
X5710Y1399D01*
X0Y1398D02*
X7Y1398D01*
X5703Y1398D02*
X5710Y1398D01*
X0Y1397D02*
X7Y1397D01*
X5703Y1397D02*
X5710Y1397D01*
X0Y1396D02*
X7Y1396D01*
X5703Y1396D02*
X5710Y1396D01*
X0Y1395D02*
X7Y1395D01*
X5703Y1395D02*
X5710Y1395D01*
X0Y1394D02*
X7Y1394D01*
X5703Y1394D02*
X5710Y1394D01*
X0Y1393D02*
X7Y1393D01*
X5703Y1393D02*
X5710Y1393D01*
X0Y1392D02*
X7Y1392D01*
X5703Y1392D02*
X5710Y1392D01*
X0Y1391D02*
X7Y1391D01*
X5703Y1391D02*
X5710Y1391D01*
X0Y1390D02*
X7Y1390D01*
X5703Y1390D02*
X5710Y1390D01*
X0Y1389D02*
X7Y1389D01*
X5703Y1389D02*
X5710Y1389D01*
X0Y1388D02*
X7Y1388D01*
X5703Y1388D02*
X5710Y1388D01*
X0Y1387D02*
X7Y1387D01*
X5703Y1387D02*
X5710Y1387D01*
X0Y1386D02*
X7Y1386D01*
X5703Y1386D02*
X5710Y1386D01*
X0Y1385D02*
X7Y1385D01*
X5703Y1385D02*
X5710Y1385D01*
X0Y1384D02*
X7Y1384D01*
X5703Y1384D02*
X5710Y1384D01*
X0Y1383D02*
X7Y1383D01*
X5703Y1383D02*
X5710Y1383D01*
X0Y1382D02*
X7Y1382D01*
X5703Y1382D02*
X5710Y1382D01*
X0Y1381D02*
X7Y1381D01*
X5703Y1381D02*
X5710Y1381D01*
X0Y1380D02*
X7Y1380D01*
X5703Y1380D02*
X5710Y1380D01*
X0Y1379D02*
X7Y1379D01*
X5703Y1379D02*
X5710Y1379D01*
X0Y1378D02*
X7Y1378D01*
X5703Y1378D02*
X5710Y1378D01*
X0Y1377D02*
X7Y1377D01*
X5703Y1377D02*
X5710Y1377D01*
X0Y1376D02*
X7Y1376D01*
X5703Y1376D02*
X5710Y1376D01*
X0Y1375D02*
X7Y1375D01*
X5703Y1375D02*
X5710Y1375D01*
X0Y1374D02*
X7Y1374D01*
X5703Y1374D02*
X5710Y1374D01*
X0Y1373D02*
X7Y1373D01*
X5703Y1373D02*
X5710Y1373D01*
X0Y1372D02*
X7Y1372D01*
X5703Y1372D02*
X5710Y1372D01*
X0Y1371D02*
X7Y1371D01*
X5703Y1371D02*
X5710Y1371D01*
X0Y1370D02*
X7Y1370D01*
X5703Y1370D02*
X5710Y1370D01*
X0Y1369D02*
X7Y1369D01*
X5703Y1369D02*
X5710Y1369D01*
X0Y1368D02*
X7Y1368D01*
X5703Y1368D02*
X5710Y1368D01*
X0Y1367D02*
X7Y1367D01*
X5703Y1367D02*
X5710Y1367D01*
X0Y1366D02*
X7Y1366D01*
X5703Y1366D02*
X5710Y1366D01*
X0Y1365D02*
X7Y1365D01*
X5703Y1365D02*
X5710Y1365D01*
X0Y1364D02*
X7Y1364D01*
X5703Y1364D02*
X5710Y1364D01*
X0Y1363D02*
X7Y1363D01*
X5703Y1363D02*
X5710Y1363D01*
X0Y1362D02*
X7Y1362D01*
X5703Y1362D02*
X5710Y1362D01*
X0Y1361D02*
X7Y1361D01*
X5703Y1361D02*
X5710Y1361D01*
X0Y1360D02*
X7Y1360D01*
X5703Y1360D02*
X5710Y1360D01*
X0Y1359D02*
X7Y1359D01*
X5703Y1359D02*
X5710Y1359D01*
X0Y1358D02*
X7Y1358D01*
X5703Y1358D02*
X5710Y1358D01*
X0Y1357D02*
X7Y1357D01*
X5703Y1357D02*
X5710Y1357D01*
X0Y1356D02*
X7Y1356D01*
X5703Y1356D02*
X5710Y1356D01*
X0Y1355D02*
X7Y1355D01*
X5703Y1355D02*
X5710Y1355D01*
X0Y1354D02*
X7Y1354D01*
X5703Y1354D02*
X5710Y1354D01*
X0Y1353D02*
X7Y1353D01*
X5703Y1353D02*
X5710Y1353D01*
X0Y1352D02*
X7Y1352D01*
X5703Y1352D02*
X5710Y1352D01*
X0Y1351D02*
X7Y1351D01*
X5703Y1351D02*
X5710Y1351D01*
X0Y1350D02*
X7Y1350D01*
X5703Y1350D02*
X5710Y1350D01*
X0Y1349D02*
X7Y1349D01*
X5703Y1349D02*
X5710Y1349D01*
X0Y1348D02*
X7Y1348D01*
X5703Y1348D02*
X5710Y1348D01*
X0Y1347D02*
X7Y1347D01*
X5703Y1347D02*
X5710Y1347D01*
X0Y1346D02*
X7Y1346D01*
X5703Y1346D02*
X5710Y1346D01*
X0Y1345D02*
X7Y1345D01*
X5703Y1345D02*
X5710Y1345D01*
X0Y1344D02*
X7Y1344D01*
X5703Y1344D02*
X5710Y1344D01*
X0Y1343D02*
X7Y1343D01*
X5703Y1343D02*
X5710Y1343D01*
X0Y1342D02*
X7Y1342D01*
X5703Y1342D02*
X5710Y1342D01*
X0Y1341D02*
X7Y1341D01*
X5703Y1341D02*
X5710Y1341D01*
X0Y1340D02*
X7Y1340D01*
X5703Y1340D02*
X5710Y1340D01*
X0Y1339D02*
X7Y1339D01*
X5703Y1339D02*
X5710Y1339D01*
X0Y1338D02*
X7Y1338D01*
X5703Y1338D02*
X5710Y1338D01*
X0Y1337D02*
X7Y1337D01*
X5703Y1337D02*
X5710Y1337D01*
X0Y1336D02*
X7Y1336D01*
X5703Y1336D02*
X5710Y1336D01*
X0Y1335D02*
X7Y1335D01*
X5703Y1335D02*
X5710Y1335D01*
X0Y1334D02*
X7Y1334D01*
X5703Y1334D02*
X5710Y1334D01*
X0Y1333D02*
X7Y1333D01*
X5703Y1333D02*
X5710Y1333D01*
X0Y1332D02*
X7Y1332D01*
X5703Y1332D02*
X5710Y1332D01*
X0Y1331D02*
X7Y1331D01*
X5703Y1331D02*
X5710Y1331D01*
X0Y1330D02*
X7Y1330D01*
X5703Y1330D02*
X5710Y1330D01*
X0Y1329D02*
X7Y1329D01*
X5703Y1329D02*
X5710Y1329D01*
X0Y1328D02*
X7Y1328D01*
X5703Y1328D02*
X5710Y1328D01*
X0Y1327D02*
X7Y1327D01*
X5703Y1327D02*
X5710Y1327D01*
X0Y1326D02*
X7Y1326D01*
X5703Y1326D02*
X5710Y1326D01*
X0Y1325D02*
X7Y1325D01*
X5703Y1325D02*
X5710Y1325D01*
X0Y1324D02*
X7Y1324D01*
X5703Y1324D02*
X5710Y1324D01*
X0Y1323D02*
X7Y1323D01*
X5703Y1323D02*
X5710Y1323D01*
X0Y1322D02*
X7Y1322D01*
X5703Y1322D02*
X5710Y1322D01*
X0Y1321D02*
X7Y1321D01*
X5703Y1321D02*
X5710Y1321D01*
X0Y1320D02*
X7Y1320D01*
X5703Y1320D02*
X5710Y1320D01*
X0Y1319D02*
X7Y1319D01*
X5703Y1319D02*
X5710Y1319D01*
X0Y1318D02*
X7Y1318D01*
X5703Y1318D02*
X5710Y1318D01*
X0Y1317D02*
X7Y1317D01*
X5703Y1317D02*
X5710Y1317D01*
X0Y1316D02*
X7Y1316D01*
X5703Y1316D02*
X5710Y1316D01*
X0Y1315D02*
X7Y1315D01*
X5703Y1315D02*
X5710Y1315D01*
X0Y1314D02*
X7Y1314D01*
X5703Y1314D02*
X5710Y1314D01*
X0Y1313D02*
X7Y1313D01*
X5703Y1313D02*
X5710Y1313D01*
X0Y1312D02*
X7Y1312D01*
X5703Y1312D02*
X5710Y1312D01*
X0Y1311D02*
X7Y1311D01*
X5703Y1311D02*
X5710Y1311D01*
X0Y1310D02*
X7Y1310D01*
X5703Y1310D02*
X5710Y1310D01*
X0Y1309D02*
X7Y1309D01*
X5703Y1309D02*
X5710Y1309D01*
X0Y1308D02*
X7Y1308D01*
X5703Y1308D02*
X5710Y1308D01*
X0Y1307D02*
X7Y1307D01*
X5703Y1307D02*
X5710Y1307D01*
X0Y1306D02*
X7Y1306D01*
X5703Y1306D02*
X5710Y1306D01*
X0Y1305D02*
X7Y1305D01*
X5703Y1305D02*
X5710Y1305D01*
X0Y1304D02*
X7Y1304D01*
X5703Y1304D02*
X5710Y1304D01*
X0Y1303D02*
X7Y1303D01*
X5703Y1303D02*
X5710Y1303D01*
X0Y1302D02*
X7Y1302D01*
X5703Y1302D02*
X5710Y1302D01*
X0Y1301D02*
X7Y1301D01*
X5703Y1301D02*
X5710Y1301D01*
X0Y1300D02*
X7Y1300D01*
X5703Y1300D02*
X5710Y1300D01*
X0Y1299D02*
X7Y1299D01*
X5703Y1299D02*
X5710Y1299D01*
X0Y1298D02*
X7Y1298D01*
X5703Y1298D02*
X5710Y1298D01*
X0Y1297D02*
X7Y1297D01*
X5703Y1297D02*
X5710Y1297D01*
X0Y1296D02*
X7Y1296D01*
X5703Y1296D02*
X5710Y1296D01*
X0Y1295D02*
X7Y1295D01*
X5703Y1295D02*
X5710Y1295D01*
X0Y1294D02*
X7Y1294D01*
X5703Y1294D02*
X5710Y1294D01*
X0Y1293D02*
X7Y1293D01*
X5703Y1293D02*
X5710Y1293D01*
X0Y1292D02*
X7Y1292D01*
X5703Y1292D02*
X5710Y1292D01*
X0Y1291D02*
X7Y1291D01*
X5703Y1291D02*
X5710Y1291D01*
X0Y1290D02*
X7Y1290D01*
X5703Y1290D02*
X5710Y1290D01*
X0Y1289D02*
X7Y1289D01*
X5703Y1289D02*
X5710Y1289D01*
X0Y1288D02*
X7Y1288D01*
X5703Y1288D02*
X5710Y1288D01*
X0Y1287D02*
X7Y1287D01*
X5703Y1287D02*
X5710Y1287D01*
X0Y1286D02*
X7Y1286D01*
X5703Y1286D02*
X5710Y1286D01*
X0Y1285D02*
X7Y1285D01*
X5703Y1285D02*
X5710Y1285D01*
X0Y1284D02*
X7Y1284D01*
X5703Y1284D02*
X5710Y1284D01*
X0Y1283D02*
X7Y1283D01*
X5703Y1283D02*
X5710Y1283D01*
X0Y1282D02*
X7Y1282D01*
X5703Y1282D02*
X5710Y1282D01*
X0Y1281D02*
X7Y1281D01*
X5703Y1281D02*
X5710Y1281D01*
X0Y1280D02*
X7Y1280D01*
X5703Y1280D02*
X5710Y1280D01*
X0Y1279D02*
X7Y1279D01*
X5703Y1279D02*
X5710Y1279D01*
X0Y1278D02*
X7Y1278D01*
X5703Y1278D02*
X5710Y1278D01*
X0Y1277D02*
X7Y1277D01*
X5703Y1277D02*
X5710Y1277D01*
X0Y1276D02*
X7Y1276D01*
X5703Y1276D02*
X5710Y1276D01*
X0Y1275D02*
X7Y1275D01*
X5703Y1275D02*
X5710Y1275D01*
X0Y1274D02*
X7Y1274D01*
X5703Y1274D02*
X5710Y1274D01*
X0Y1273D02*
X7Y1273D01*
X5703Y1273D02*
X5710Y1273D01*
X0Y1272D02*
X7Y1272D01*
X5703Y1272D02*
X5710Y1272D01*
X0Y1271D02*
X7Y1271D01*
X5703Y1271D02*
X5710Y1271D01*
X0Y1270D02*
X7Y1270D01*
X5703Y1270D02*
X5710Y1270D01*
X0Y1269D02*
X7Y1269D01*
X5703Y1269D02*
X5710Y1269D01*
X0Y1268D02*
X7Y1268D01*
X5703Y1268D02*
X5710Y1268D01*
X0Y1267D02*
X7Y1267D01*
X5703Y1267D02*
X5710Y1267D01*
X0Y1266D02*
X7Y1266D01*
X5703Y1266D02*
X5710Y1266D01*
X0Y1265D02*
X7Y1265D01*
X5703Y1265D02*
X5710Y1265D01*
X0Y1264D02*
X7Y1264D01*
X5703Y1264D02*
X5710Y1264D01*
X0Y1263D02*
X7Y1263D01*
X5703Y1263D02*
X5710Y1263D01*
X0Y1262D02*
X7Y1262D01*
X5703Y1262D02*
X5710Y1262D01*
X0Y1261D02*
X7Y1261D01*
X5703Y1261D02*
X5710Y1261D01*
X0Y1260D02*
X7Y1260D01*
X5703Y1260D02*
X5710Y1260D01*
X0Y1259D02*
X7Y1259D01*
X5703Y1259D02*
X5710Y1259D01*
X0Y1258D02*
X7Y1258D01*
X5703Y1258D02*
X5710Y1258D01*
X0Y1257D02*
X7Y1257D01*
X5703Y1257D02*
X5710Y1257D01*
X0Y1256D02*
X7Y1256D01*
X5703Y1256D02*
X5710Y1256D01*
X0Y1255D02*
X7Y1255D01*
X5703Y1255D02*
X5710Y1255D01*
X0Y1254D02*
X7Y1254D01*
X5703Y1254D02*
X5710Y1254D01*
X0Y1253D02*
X7Y1253D01*
X5703Y1253D02*
X5710Y1253D01*
X0Y1252D02*
X7Y1252D01*
X5703Y1252D02*
X5710Y1252D01*
X0Y1251D02*
X7Y1251D01*
X5703Y1251D02*
X5710Y1251D01*
X0Y1250D02*
X7Y1250D01*
X5703Y1250D02*
X5710Y1250D01*
X0Y1249D02*
X7Y1249D01*
X5703Y1249D02*
X5710Y1249D01*
X0Y1248D02*
X7Y1248D01*
X5703Y1248D02*
X5710Y1248D01*
X0Y1247D02*
X7Y1247D01*
X5703Y1247D02*
X5710Y1247D01*
X0Y1246D02*
X7Y1246D01*
X5703Y1246D02*
X5710Y1246D01*
X0Y1245D02*
X7Y1245D01*
X5703Y1245D02*
X5710Y1245D01*
X0Y1244D02*
X7Y1244D01*
X5703Y1244D02*
X5710Y1244D01*
X0Y1243D02*
X7Y1243D01*
X5703Y1243D02*
X5710Y1243D01*
X0Y1242D02*
X7Y1242D01*
X5703Y1242D02*
X5710Y1242D01*
X0Y1241D02*
X7Y1241D01*
X5703Y1241D02*
X5710Y1241D01*
X0Y1240D02*
X7Y1240D01*
X5703Y1240D02*
X5710Y1240D01*
X0Y1239D02*
X7Y1239D01*
X5703Y1239D02*
X5710Y1239D01*
X0Y1238D02*
X7Y1238D01*
X5703Y1238D02*
X5710Y1238D01*
X0Y1237D02*
X7Y1237D01*
X5703Y1237D02*
X5710Y1237D01*
X0Y1236D02*
X7Y1236D01*
X5703Y1236D02*
X5710Y1236D01*
X0Y1235D02*
X7Y1235D01*
X5703Y1235D02*
X5710Y1235D01*
X0Y1234D02*
X7Y1234D01*
X5703Y1234D02*
X5710Y1234D01*
X0Y1233D02*
X7Y1233D01*
X5703Y1233D02*
X5710Y1233D01*
X0Y1232D02*
X7Y1232D01*
X5703Y1232D02*
X5710Y1232D01*
X0Y1231D02*
X7Y1231D01*
X5703Y1231D02*
X5710Y1231D01*
X0Y1230D02*
X7Y1230D01*
X5703Y1230D02*
X5710Y1230D01*
X0Y1229D02*
X7Y1229D01*
X5703Y1229D02*
X5710Y1229D01*
X0Y1228D02*
X7Y1228D01*
X5703Y1228D02*
X5710Y1228D01*
X0Y1227D02*
X7Y1227D01*
X5703Y1227D02*
X5710Y1227D01*
X0Y1226D02*
X7Y1226D01*
X5703Y1226D02*
X5710Y1226D01*
X0Y1225D02*
X7Y1225D01*
X5703Y1225D02*
X5710Y1225D01*
X0Y1224D02*
X7Y1224D01*
X5703Y1224D02*
X5710Y1224D01*
X0Y1223D02*
X7Y1223D01*
X5703Y1223D02*
X5710Y1223D01*
X0Y1222D02*
X7Y1222D01*
X5703Y1222D02*
X5710Y1222D01*
X0Y1221D02*
X7Y1221D01*
X5703Y1221D02*
X5710Y1221D01*
X0Y1220D02*
X7Y1220D01*
X5703Y1220D02*
X5710Y1220D01*
X0Y1219D02*
X7Y1219D01*
X5703Y1219D02*
X5710Y1219D01*
X0Y1218D02*
X7Y1218D01*
X5703Y1218D02*
X5710Y1218D01*
X0Y1217D02*
X7Y1217D01*
X5703Y1217D02*
X5710Y1217D01*
X0Y1216D02*
X7Y1216D01*
X5703Y1216D02*
X5710Y1216D01*
X0Y1215D02*
X7Y1215D01*
X5703Y1215D02*
X5710Y1215D01*
X0Y1214D02*
X7Y1214D01*
X5703Y1214D02*
X5710Y1214D01*
X0Y1213D02*
X7Y1213D01*
X5703Y1213D02*
X5710Y1213D01*
X0Y1212D02*
X7Y1212D01*
X5703Y1212D02*
X5710Y1212D01*
X0Y1211D02*
X7Y1211D01*
X5703Y1211D02*
X5710Y1211D01*
X0Y1210D02*
X7Y1210D01*
X5703Y1210D02*
X5710Y1210D01*
X0Y1209D02*
X7Y1209D01*
X5703Y1209D02*
X5710Y1209D01*
X0Y1208D02*
X7Y1208D01*
X5703Y1208D02*
X5710Y1208D01*
X0Y1207D02*
X7Y1207D01*
X5703Y1207D02*
X5710Y1207D01*
X0Y1206D02*
X7Y1206D01*
X5703Y1206D02*
X5710Y1206D01*
X0Y1205D02*
X7Y1205D01*
X5703Y1205D02*
X5710Y1205D01*
X0Y1204D02*
X7Y1204D01*
X5703Y1204D02*
X5710Y1204D01*
X0Y1203D02*
X7Y1203D01*
X5703Y1203D02*
X5710Y1203D01*
X0Y1202D02*
X7Y1202D01*
X5703Y1202D02*
X5710Y1202D01*
X0Y1201D02*
X7Y1201D01*
X5703Y1201D02*
X5710Y1201D01*
X0Y1200D02*
X7Y1200D01*
X5703Y1200D02*
X5710Y1200D01*
X0Y1199D02*
X7Y1199D01*
X5703Y1199D02*
X5710Y1199D01*
X0Y1198D02*
X7Y1198D01*
X5703Y1198D02*
X5710Y1198D01*
X0Y1197D02*
X7Y1197D01*
X5703Y1197D02*
X5710Y1197D01*
X0Y1196D02*
X7Y1196D01*
X5703Y1196D02*
X5710Y1196D01*
X0Y1195D02*
X7Y1195D01*
X5703Y1195D02*
X5710Y1195D01*
X0Y1194D02*
X7Y1194D01*
X5703Y1194D02*
X5710Y1194D01*
X0Y1193D02*
X7Y1193D01*
X5703Y1193D02*
X5710Y1193D01*
X0Y1192D02*
X7Y1192D01*
X5703Y1192D02*
X5710Y1192D01*
X0Y1191D02*
X7Y1191D01*
X5703Y1191D02*
X5710Y1191D01*
X0Y1190D02*
X7Y1190D01*
X5703Y1190D02*
X5710Y1190D01*
X0Y1189D02*
X7Y1189D01*
X5703Y1189D02*
X5710Y1189D01*
X0Y1188D02*
X7Y1188D01*
X5703Y1188D02*
X5710Y1188D01*
X0Y1187D02*
X7Y1187D01*
X5703Y1187D02*
X5710Y1187D01*
X0Y1186D02*
X7Y1186D01*
X5703Y1186D02*
X5710Y1186D01*
X0Y1185D02*
X7Y1185D01*
X5703Y1185D02*
X5710Y1185D01*
X0Y1184D02*
X7Y1184D01*
X5703Y1184D02*
X5710Y1184D01*
X0Y1183D02*
X7Y1183D01*
X5703Y1183D02*
X5710Y1183D01*
X0Y1182D02*
X7Y1182D01*
X5703Y1182D02*
X5710Y1182D01*
X0Y1181D02*
X7Y1181D01*
X5703Y1181D02*
X5710Y1181D01*
X0Y1180D02*
X7Y1180D01*
X5703Y1180D02*
X5710Y1180D01*
X0Y1179D02*
X7Y1179D01*
X5703Y1179D02*
X5710Y1179D01*
X0Y1178D02*
X7Y1178D01*
X5703Y1178D02*
X5710Y1178D01*
X0Y1177D02*
X7Y1177D01*
X5703Y1177D02*
X5710Y1177D01*
X0Y1176D02*
X7Y1176D01*
X5703Y1176D02*
X5710Y1176D01*
X0Y1175D02*
X7Y1175D01*
X5703Y1175D02*
X5710Y1175D01*
X0Y1174D02*
X7Y1174D01*
X5703Y1174D02*
X5710Y1174D01*
X0Y1173D02*
X7Y1173D01*
X5703Y1173D02*
X5710Y1173D01*
X0Y1172D02*
X7Y1172D01*
X5703Y1172D02*
X5710Y1172D01*
X0Y1171D02*
X7Y1171D01*
X5703Y1171D02*
X5710Y1171D01*
X0Y1170D02*
X7Y1170D01*
X5703Y1170D02*
X5710Y1170D01*
X0Y1169D02*
X7Y1169D01*
X5703Y1169D02*
X5710Y1169D01*
X0Y1168D02*
X7Y1168D01*
X5703Y1168D02*
X5710Y1168D01*
X0Y1167D02*
X7Y1167D01*
X5703Y1167D02*
X5710Y1167D01*
X0Y1166D02*
X7Y1166D01*
X5703Y1166D02*
X5710Y1166D01*
X0Y1165D02*
X7Y1165D01*
X5703Y1165D02*
X5710Y1165D01*
X0Y1164D02*
X7Y1164D01*
X5703Y1164D02*
X5710Y1164D01*
X0Y1163D02*
X7Y1163D01*
X5703Y1163D02*
X5710Y1163D01*
X0Y1162D02*
X7Y1162D01*
X5703Y1162D02*
X5710Y1162D01*
X0Y1161D02*
X7Y1161D01*
X5703Y1161D02*
X5710Y1161D01*
X0Y1160D02*
X7Y1160D01*
X5703Y1160D02*
X5710Y1160D01*
X0Y1159D02*
X7Y1159D01*
X5703Y1159D02*
X5710Y1159D01*
X0Y1158D02*
X7Y1158D01*
X5703Y1158D02*
X5710Y1158D01*
X0Y1157D02*
X7Y1157D01*
X5703Y1157D02*
X5710Y1157D01*
X0Y1156D02*
X7Y1156D01*
X5703Y1156D02*
X5710Y1156D01*
X0Y1155D02*
X7Y1155D01*
X5703Y1155D02*
X5710Y1155D01*
X0Y1154D02*
X7Y1154D01*
X5703Y1154D02*
X5710Y1154D01*
X0Y1153D02*
X7Y1153D01*
X5703Y1153D02*
X5710Y1153D01*
X0Y1152D02*
X7Y1152D01*
X5703Y1152D02*
X5710Y1152D01*
X0Y1151D02*
X7Y1151D01*
X5703Y1151D02*
X5710Y1151D01*
X0Y1150D02*
X7Y1150D01*
X5703Y1150D02*
X5710Y1150D01*
X0Y1149D02*
X7Y1149D01*
X5703Y1149D02*
X5710Y1149D01*
X0Y1148D02*
X7Y1148D01*
X5703Y1148D02*
X5710Y1148D01*
X0Y1147D02*
X7Y1147D01*
X5703Y1147D02*
X5710Y1147D01*
X0Y1146D02*
X7Y1146D01*
X5703Y1146D02*
X5710Y1146D01*
X0Y1145D02*
X7Y1145D01*
X5703Y1145D02*
X5710Y1145D01*
X0Y1144D02*
X7Y1144D01*
X5703Y1144D02*
X5710Y1144D01*
X0Y1143D02*
X7Y1143D01*
X5703Y1143D02*
X5710Y1143D01*
X0Y1142D02*
X7Y1142D01*
X5703Y1142D02*
X5710Y1142D01*
X0Y1141D02*
X7Y1141D01*
X5703Y1141D02*
X5710Y1141D01*
X0Y1140D02*
X7Y1140D01*
X5703Y1140D02*
X5710Y1140D01*
X0Y1139D02*
X7Y1139D01*
X5703Y1139D02*
X5710Y1139D01*
X0Y1138D02*
X7Y1138D01*
X5703Y1138D02*
X5710Y1138D01*
X0Y1137D02*
X7Y1137D01*
X5703Y1137D02*
X5710Y1137D01*
X0Y1136D02*
X7Y1136D01*
X5703Y1136D02*
X5710Y1136D01*
X0Y1135D02*
X7Y1135D01*
X5703Y1135D02*
X5710Y1135D01*
X0Y1134D02*
X7Y1134D01*
X5703Y1134D02*
X5710Y1134D01*
X0Y1133D02*
X7Y1133D01*
X5703Y1133D02*
X5710Y1133D01*
X0Y1132D02*
X7Y1132D01*
X5703Y1132D02*
X5710Y1132D01*
X0Y1131D02*
X7Y1131D01*
X5703Y1131D02*
X5710Y1131D01*
X0Y1130D02*
X7Y1130D01*
X5703Y1130D02*
X5710Y1130D01*
X0Y1129D02*
X7Y1129D01*
X5703Y1129D02*
X5710Y1129D01*
X0Y1128D02*
X7Y1128D01*
X5703Y1128D02*
X5710Y1128D01*
X0Y1127D02*
X7Y1127D01*
X5703Y1127D02*
X5710Y1127D01*
X0Y1126D02*
X7Y1126D01*
X5703Y1126D02*
X5710Y1126D01*
X0Y1125D02*
X7Y1125D01*
X5703Y1125D02*
X5710Y1125D01*
X0Y1124D02*
X7Y1124D01*
X5703Y1124D02*
X5710Y1124D01*
X0Y1123D02*
X7Y1123D01*
X5703Y1123D02*
X5710Y1123D01*
X0Y1122D02*
X7Y1122D01*
X5703Y1122D02*
X5710Y1122D01*
X0Y1121D02*
X7Y1121D01*
X5703Y1121D02*
X5710Y1121D01*
X0Y1120D02*
X7Y1120D01*
X5703Y1120D02*
X5710Y1120D01*
X0Y1119D02*
X7Y1119D01*
X5703Y1119D02*
X5710Y1119D01*
X0Y1118D02*
X7Y1118D01*
X5703Y1118D02*
X5710Y1118D01*
X0Y1117D02*
X7Y1117D01*
X5703Y1117D02*
X5710Y1117D01*
X0Y1116D02*
X7Y1116D01*
X5703Y1116D02*
X5710Y1116D01*
X0Y1115D02*
X7Y1115D01*
X5703Y1115D02*
X5710Y1115D01*
X0Y1114D02*
X7Y1114D01*
X5703Y1114D02*
X5710Y1114D01*
X0Y1113D02*
X7Y1113D01*
X5703Y1113D02*
X5710Y1113D01*
X0Y1112D02*
X7Y1112D01*
X5703Y1112D02*
X5710Y1112D01*
X0Y1111D02*
X7Y1111D01*
X5703Y1111D02*
X5710Y1111D01*
X0Y1110D02*
X7Y1110D01*
X5703Y1110D02*
X5710Y1110D01*
X0Y1109D02*
X7Y1109D01*
X5703Y1109D02*
X5710Y1109D01*
X0Y1108D02*
X7Y1108D01*
X5703Y1108D02*
X5710Y1108D01*
X0Y1107D02*
X7Y1107D01*
X5703Y1107D02*
X5710Y1107D01*
X0Y1106D02*
X7Y1106D01*
X5703Y1106D02*
X5710Y1106D01*
X0Y1105D02*
X7Y1105D01*
X5703Y1105D02*
X5710Y1105D01*
X0Y1104D02*
X7Y1104D01*
X5703Y1104D02*
X5710Y1104D01*
X0Y1103D02*
X7Y1103D01*
X5703Y1103D02*
X5710Y1103D01*
X0Y1102D02*
X7Y1102D01*
X5703Y1102D02*
X5710Y1102D01*
X0Y1101D02*
X7Y1101D01*
X5703Y1101D02*
X5710Y1101D01*
X0Y1100D02*
X7Y1100D01*
X5703Y1100D02*
X5710Y1100D01*
X0Y1099D02*
X7Y1099D01*
X5703Y1099D02*
X5710Y1099D01*
X0Y1098D02*
X7Y1098D01*
X5703Y1098D02*
X5710Y1098D01*
X0Y1097D02*
X7Y1097D01*
X5703Y1097D02*
X5710Y1097D01*
X0Y1096D02*
X7Y1096D01*
X5703Y1096D02*
X5710Y1096D01*
X0Y1095D02*
X7Y1095D01*
X5703Y1095D02*
X5710Y1095D01*
X0Y1094D02*
X7Y1094D01*
X5703Y1094D02*
X5710Y1094D01*
X0Y1093D02*
X7Y1093D01*
X5703Y1093D02*
X5710Y1093D01*
X0Y1092D02*
X7Y1092D01*
X5703Y1092D02*
X5710Y1092D01*
X0Y1091D02*
X7Y1091D01*
X5703Y1091D02*
X5710Y1091D01*
X0Y1090D02*
X7Y1090D01*
X5703Y1090D02*
X5710Y1090D01*
X0Y1089D02*
X7Y1089D01*
X5703Y1089D02*
X5710Y1089D01*
X0Y1088D02*
X7Y1088D01*
X5703Y1088D02*
X5710Y1088D01*
X0Y1087D02*
X7Y1087D01*
X5703Y1087D02*
X5710Y1087D01*
X0Y1086D02*
X7Y1086D01*
X5703Y1086D02*
X5710Y1086D01*
X0Y1085D02*
X7Y1085D01*
X5703Y1085D02*
X5710Y1085D01*
X0Y1084D02*
X7Y1084D01*
X5703Y1084D02*
X5710Y1084D01*
X0Y1083D02*
X7Y1083D01*
X5703Y1083D02*
X5710Y1083D01*
X0Y1082D02*
X7Y1082D01*
X5703Y1082D02*
X5710Y1082D01*
X0Y1081D02*
X7Y1081D01*
X5703Y1081D02*
X5710Y1081D01*
X0Y1080D02*
X7Y1080D01*
X5703Y1080D02*
X5710Y1080D01*
X0Y1079D02*
X7Y1079D01*
X5703Y1079D02*
X5710Y1079D01*
X0Y1078D02*
X7Y1078D01*
X5703Y1078D02*
X5710Y1078D01*
X0Y1077D02*
X7Y1077D01*
X5703Y1077D02*
X5710Y1077D01*
X0Y1076D02*
X7Y1076D01*
X5703Y1076D02*
X5710Y1076D01*
X0Y1075D02*
X7Y1075D01*
X5703Y1075D02*
X5710Y1075D01*
X0Y1074D02*
X7Y1074D01*
X5703Y1074D02*
X5710Y1074D01*
X0Y1073D02*
X7Y1073D01*
X5703Y1073D02*
X5710Y1073D01*
X0Y1072D02*
X7Y1072D01*
X5703Y1072D02*
X5710Y1072D01*
X0Y1071D02*
X7Y1071D01*
X5703Y1071D02*
X5710Y1071D01*
X0Y1070D02*
X7Y1070D01*
X5703Y1070D02*
X5710Y1070D01*
X0Y1069D02*
X7Y1069D01*
X5703Y1069D02*
X5710Y1069D01*
X0Y1068D02*
X7Y1068D01*
X5703Y1068D02*
X5710Y1068D01*
X0Y1067D02*
X7Y1067D01*
X5703Y1067D02*
X5710Y1067D01*
X0Y1066D02*
X7Y1066D01*
X5703Y1066D02*
X5710Y1066D01*
X0Y1065D02*
X7Y1065D01*
X5703Y1065D02*
X5710Y1065D01*
X0Y1064D02*
X7Y1064D01*
X5703Y1064D02*
X5710Y1064D01*
X0Y1063D02*
X7Y1063D01*
X5703Y1063D02*
X5710Y1063D01*
X0Y1062D02*
X7Y1062D01*
X5703Y1062D02*
X5710Y1062D01*
X0Y1061D02*
X7Y1061D01*
X5703Y1061D02*
X5710Y1061D01*
X0Y1060D02*
X7Y1060D01*
X5703Y1060D02*
X5710Y1060D01*
X0Y1059D02*
X7Y1059D01*
X5703Y1059D02*
X5710Y1059D01*
X0Y1058D02*
X7Y1058D01*
X5703Y1058D02*
X5710Y1058D01*
X0Y1057D02*
X7Y1057D01*
X5703Y1057D02*
X5710Y1057D01*
X0Y1056D02*
X7Y1056D01*
X5703Y1056D02*
X5710Y1056D01*
X0Y1055D02*
X7Y1055D01*
X5703Y1055D02*
X5710Y1055D01*
X0Y1054D02*
X7Y1054D01*
X5703Y1054D02*
X5710Y1054D01*
X0Y1053D02*
X7Y1053D01*
X5703Y1053D02*
X5710Y1053D01*
X0Y1052D02*
X7Y1052D01*
X5703Y1052D02*
X5710Y1052D01*
X0Y1051D02*
X7Y1051D01*
X5703Y1051D02*
X5710Y1051D01*
X0Y1050D02*
X7Y1050D01*
X5703Y1050D02*
X5710Y1050D01*
X0Y1049D02*
X7Y1049D01*
X5703Y1049D02*
X5710Y1049D01*
X0Y1048D02*
X7Y1048D01*
X5703Y1048D02*
X5710Y1048D01*
X0Y1047D02*
X7Y1047D01*
X5703Y1047D02*
X5710Y1047D01*
X0Y1046D02*
X7Y1046D01*
X5703Y1046D02*
X5710Y1046D01*
X0Y1045D02*
X7Y1045D01*
X5703Y1045D02*
X5710Y1045D01*
X0Y1044D02*
X7Y1044D01*
X5703Y1044D02*
X5710Y1044D01*
X0Y1043D02*
X7Y1043D01*
X5703Y1043D02*
X5710Y1043D01*
X0Y1042D02*
X7Y1042D01*
X5703Y1042D02*
X5710Y1042D01*
X0Y1041D02*
X7Y1041D01*
X5703Y1041D02*
X5710Y1041D01*
X0Y1040D02*
X7Y1040D01*
X5703Y1040D02*
X5710Y1040D01*
X0Y1039D02*
X7Y1039D01*
X5703Y1039D02*
X5710Y1039D01*
X0Y1038D02*
X7Y1038D01*
X5703Y1038D02*
X5710Y1038D01*
X0Y1037D02*
X7Y1037D01*
X5703Y1037D02*
X5710Y1037D01*
X0Y1036D02*
X7Y1036D01*
X5703Y1036D02*
X5710Y1036D01*
X0Y1035D02*
X7Y1035D01*
X5703Y1035D02*
X5710Y1035D01*
X0Y1034D02*
X7Y1034D01*
X5703Y1034D02*
X5710Y1034D01*
X0Y1033D02*
X7Y1033D01*
X5703Y1033D02*
X5710Y1033D01*
X0Y1032D02*
X7Y1032D01*
X5703Y1032D02*
X5710Y1032D01*
X0Y1031D02*
X7Y1031D01*
X5703Y1031D02*
X5710Y1031D01*
X0Y1030D02*
X7Y1030D01*
X5703Y1030D02*
X5710Y1030D01*
X0Y1029D02*
X7Y1029D01*
X5703Y1029D02*
X5710Y1029D01*
X0Y1028D02*
X7Y1028D01*
X5703Y1028D02*
X5710Y1028D01*
X0Y1027D02*
X7Y1027D01*
X5703Y1027D02*
X5710Y1027D01*
X0Y1026D02*
X7Y1026D01*
X5703Y1026D02*
X5710Y1026D01*
X0Y1025D02*
X7Y1025D01*
X5703Y1025D02*
X5710Y1025D01*
X0Y1024D02*
X7Y1024D01*
X5703Y1024D02*
X5710Y1024D01*
X0Y1023D02*
X7Y1023D01*
X5703Y1023D02*
X5710Y1023D01*
X0Y1022D02*
X7Y1022D01*
X5703Y1022D02*
X5710Y1022D01*
X0Y1021D02*
X7Y1021D01*
X5703Y1021D02*
X5710Y1021D01*
X0Y1020D02*
X7Y1020D01*
X5703Y1020D02*
X5710Y1020D01*
X0Y1019D02*
X7Y1019D01*
X5703Y1019D02*
X5710Y1019D01*
X0Y1018D02*
X7Y1018D01*
X5703Y1018D02*
X5710Y1018D01*
X0Y1017D02*
X7Y1017D01*
X5703Y1017D02*
X5710Y1017D01*
X0Y1016D02*
X7Y1016D01*
X5703Y1016D02*
X5710Y1016D01*
X0Y1015D02*
X7Y1015D01*
X5703Y1015D02*
X5710Y1015D01*
X0Y1014D02*
X7Y1014D01*
X5703Y1014D02*
X5710Y1014D01*
X0Y1013D02*
X7Y1013D01*
X5703Y1013D02*
X5710Y1013D01*
X0Y1012D02*
X7Y1012D01*
X5703Y1012D02*
X5710Y1012D01*
X0Y1011D02*
X7Y1011D01*
X5703Y1011D02*
X5710Y1011D01*
X0Y1010D02*
X7Y1010D01*
X5703Y1010D02*
X5710Y1010D01*
X0Y1009D02*
X7Y1009D01*
X5703Y1009D02*
X5710Y1009D01*
X0Y1008D02*
X7Y1008D01*
X5703Y1008D02*
X5710Y1008D01*
X0Y1007D02*
X7Y1007D01*
X5703Y1007D02*
X5710Y1007D01*
X0Y1006D02*
X7Y1006D01*
X5703Y1006D02*
X5710Y1006D01*
X0Y1005D02*
X7Y1005D01*
X5703Y1005D02*
X5710Y1005D01*
X0Y1004D02*
X7Y1004D01*
X5703Y1004D02*
X5710Y1004D01*
X0Y1003D02*
X7Y1003D01*
X5703Y1003D02*
X5710Y1003D01*
X0Y1002D02*
X7Y1002D01*
X5703Y1002D02*
X5710Y1002D01*
X0Y1001D02*
X7Y1001D01*
X5703Y1001D02*
X5710Y1001D01*
X0Y1000D02*
X7Y1000D01*
X5703Y1000D02*
X5710Y1000D01*
X0Y999D02*
X7Y999D01*
X5703Y999D02*
X5710Y999D01*
X0Y998D02*
X7Y998D01*
X5703Y998D02*
X5710Y998D01*
X0Y997D02*
X7Y997D01*
X5703Y997D02*
X5710Y997D01*
X0Y996D02*
X7Y996D01*
X5703Y996D02*
X5710Y996D01*
X0Y995D02*
X7Y995D01*
X5703Y995D02*
X5710Y995D01*
X0Y994D02*
X7Y994D01*
X5703Y994D02*
X5710Y994D01*
X0Y993D02*
X7Y993D01*
X5703Y993D02*
X5710Y993D01*
X0Y992D02*
X7Y992D01*
X5703Y992D02*
X5710Y992D01*
X0Y991D02*
X7Y991D01*
X5703Y991D02*
X5710Y991D01*
X0Y990D02*
X7Y990D01*
X5703Y990D02*
X5710Y990D01*
X0Y989D02*
X7Y989D01*
X5703Y989D02*
X5710Y989D01*
X0Y988D02*
X7Y988D01*
X5703Y988D02*
X5710Y988D01*
X0Y987D02*
X7Y987D01*
X5703Y987D02*
X5710Y987D01*
X0Y986D02*
X7Y986D01*
X5703Y986D02*
X5710Y986D01*
X0Y985D02*
X7Y985D01*
X5703Y985D02*
X5710Y985D01*
X0Y984D02*
X7Y984D01*
X5703Y984D02*
X5710Y984D01*
X0Y983D02*
X7Y983D01*
X5703Y983D02*
X5710Y983D01*
X0Y982D02*
X7Y982D01*
X5703Y982D02*
X5710Y982D01*
X0Y981D02*
X7Y981D01*
X5703Y981D02*
X5710Y981D01*
X0Y980D02*
X7Y980D01*
X5703Y980D02*
X5710Y980D01*
X0Y979D02*
X7Y979D01*
X5703Y979D02*
X5710Y979D01*
X0Y978D02*
X7Y978D01*
X5703Y978D02*
X5710Y978D01*
X0Y977D02*
X7Y977D01*
X5703Y977D02*
X5710Y977D01*
X0Y976D02*
X7Y976D01*
X5703Y976D02*
X5710Y976D01*
X0Y975D02*
X7Y975D01*
X5703Y975D02*
X5710Y975D01*
X0Y974D02*
X7Y974D01*
X5703Y974D02*
X5710Y974D01*
X0Y973D02*
X7Y973D01*
X5703Y973D02*
X5710Y973D01*
X0Y972D02*
X7Y972D01*
X5703Y972D02*
X5710Y972D01*
X0Y971D02*
X7Y971D01*
X5703Y971D02*
X5710Y971D01*
X0Y970D02*
X7Y970D01*
X5703Y970D02*
X5710Y970D01*
X0Y969D02*
X7Y969D01*
X5703Y969D02*
X5710Y969D01*
X0Y968D02*
X7Y968D01*
X5703Y968D02*
X5710Y968D01*
X0Y967D02*
X7Y967D01*
X5703Y967D02*
X5710Y967D01*
X0Y966D02*
X7Y966D01*
X5703Y966D02*
X5710Y966D01*
X0Y965D02*
X7Y965D01*
X5703Y965D02*
X5710Y965D01*
X0Y964D02*
X7Y964D01*
X5703Y964D02*
X5710Y964D01*
X0Y963D02*
X7Y963D01*
X5703Y963D02*
X5710Y963D01*
X0Y962D02*
X7Y962D01*
X5703Y962D02*
X5710Y962D01*
X0Y961D02*
X7Y961D01*
X5703Y961D02*
X5710Y961D01*
X0Y960D02*
X7Y960D01*
X5703Y960D02*
X5710Y960D01*
X0Y959D02*
X7Y959D01*
X5703Y959D02*
X5710Y959D01*
X0Y958D02*
X7Y958D01*
X5703Y958D02*
X5710Y958D01*
X0Y957D02*
X7Y957D01*
X5703Y957D02*
X5710Y957D01*
X0Y956D02*
X7Y956D01*
X5703Y956D02*
X5710Y956D01*
X0Y955D02*
X7Y955D01*
X5703Y955D02*
X5710Y955D01*
X0Y954D02*
X7Y954D01*
X5703Y954D02*
X5710Y954D01*
X0Y953D02*
X7Y953D01*
X5703Y953D02*
X5710Y953D01*
X0Y952D02*
X7Y952D01*
X5703Y952D02*
X5710Y952D01*
X0Y951D02*
X7Y951D01*
X5703Y951D02*
X5710Y951D01*
X0Y950D02*
X7Y950D01*
X5703Y950D02*
X5710Y950D01*
X0Y949D02*
X7Y949D01*
X5703Y949D02*
X5710Y949D01*
X0Y948D02*
X7Y948D01*
X5703Y948D02*
X5710Y948D01*
X0Y947D02*
X7Y947D01*
X5703Y947D02*
X5710Y947D01*
X0Y946D02*
X7Y946D01*
X5703Y946D02*
X5710Y946D01*
X0Y945D02*
X7Y945D01*
X5703Y945D02*
X5710Y945D01*
X0Y944D02*
X7Y944D01*
X5703Y944D02*
X5710Y944D01*
X0Y943D02*
X7Y943D01*
X5703Y943D02*
X5710Y943D01*
X0Y942D02*
X7Y942D01*
X5703Y942D02*
X5710Y942D01*
X0Y941D02*
X7Y941D01*
X5703Y941D02*
X5710Y941D01*
X0Y940D02*
X7Y940D01*
X5703Y940D02*
X5710Y940D01*
X0Y939D02*
X7Y939D01*
X5703Y939D02*
X5710Y939D01*
X0Y938D02*
X7Y938D01*
X5703Y938D02*
X5710Y938D01*
X0Y937D02*
X7Y937D01*
X5703Y937D02*
X5710Y937D01*
X0Y936D02*
X7Y936D01*
X5703Y936D02*
X5710Y936D01*
X0Y935D02*
X7Y935D01*
X5703Y935D02*
X5710Y935D01*
X0Y934D02*
X7Y934D01*
X5703Y934D02*
X5710Y934D01*
X0Y933D02*
X7Y933D01*
X5703Y933D02*
X5710Y933D01*
X0Y932D02*
X7Y932D01*
X5703Y932D02*
X5710Y932D01*
X0Y931D02*
X7Y931D01*
X5703Y931D02*
X5710Y931D01*
X0Y930D02*
X7Y930D01*
X5703Y930D02*
X5710Y930D01*
X0Y929D02*
X7Y929D01*
X5703Y929D02*
X5710Y929D01*
X0Y928D02*
X7Y928D01*
X5703Y928D02*
X5710Y928D01*
X0Y927D02*
X7Y927D01*
X5703Y927D02*
X5710Y927D01*
X0Y926D02*
X7Y926D01*
X5703Y926D02*
X5710Y926D01*
X0Y925D02*
X7Y925D01*
X5703Y925D02*
X5710Y925D01*
X0Y924D02*
X7Y924D01*
X5703Y924D02*
X5710Y924D01*
X0Y923D02*
X7Y923D01*
X5703Y923D02*
X5710Y923D01*
X0Y922D02*
X7Y922D01*
X5703Y922D02*
X5710Y922D01*
X0Y921D02*
X7Y921D01*
X5703Y921D02*
X5710Y921D01*
X0Y920D02*
X7Y920D01*
X5703Y920D02*
X5710Y920D01*
X0Y919D02*
X7Y919D01*
X5703Y919D02*
X5710Y919D01*
X0Y918D02*
X7Y918D01*
X5703Y918D02*
X5710Y918D01*
X0Y917D02*
X7Y917D01*
X5703Y917D02*
X5710Y917D01*
X0Y916D02*
X7Y916D01*
X5703Y916D02*
X5710Y916D01*
X0Y915D02*
X7Y915D01*
X5703Y915D02*
X5710Y915D01*
X0Y914D02*
X7Y914D01*
X5703Y914D02*
X5710Y914D01*
X0Y913D02*
X7Y913D01*
X5703Y913D02*
X5710Y913D01*
X0Y912D02*
X7Y912D01*
X5703Y912D02*
X5710Y912D01*
X0Y911D02*
X7Y911D01*
X5703Y911D02*
X5710Y911D01*
X0Y910D02*
X7Y910D01*
X5703Y910D02*
X5710Y910D01*
X0Y909D02*
X7Y909D01*
X5703Y909D02*
X5710Y909D01*
X0Y908D02*
X7Y908D01*
X5703Y908D02*
X5710Y908D01*
X0Y907D02*
X7Y907D01*
X5703Y907D02*
X5710Y907D01*
X0Y906D02*
X7Y906D01*
X5703Y906D02*
X5710Y906D01*
X0Y905D02*
X7Y905D01*
X5703Y905D02*
X5710Y905D01*
X0Y904D02*
X7Y904D01*
X5703Y904D02*
X5710Y904D01*
X0Y903D02*
X7Y903D01*
X5703Y903D02*
X5710Y903D01*
X0Y902D02*
X7Y902D01*
X5703Y902D02*
X5710Y902D01*
X0Y901D02*
X7Y901D01*
X5703Y901D02*
X5710Y901D01*
X0Y900D02*
X7Y900D01*
X5703Y900D02*
X5710Y900D01*
X0Y899D02*
X7Y899D01*
X5703Y899D02*
X5710Y899D01*
X0Y898D02*
X7Y898D01*
X5703Y898D02*
X5710Y898D01*
X0Y897D02*
X7Y897D01*
X5703Y897D02*
X5710Y897D01*
X0Y896D02*
X7Y896D01*
X5703Y896D02*
X5710Y896D01*
X0Y895D02*
X7Y895D01*
X5703Y895D02*
X5710Y895D01*
X0Y894D02*
X7Y894D01*
X5703Y894D02*
X5710Y894D01*
X0Y893D02*
X7Y893D01*
X5703Y893D02*
X5710Y893D01*
X0Y892D02*
X7Y892D01*
X5703Y892D02*
X5710Y892D01*
X0Y891D02*
X7Y891D01*
X5703Y891D02*
X5710Y891D01*
X0Y890D02*
X7Y890D01*
X5703Y890D02*
X5710Y890D01*
X0Y889D02*
X7Y889D01*
X5703Y889D02*
X5710Y889D01*
X0Y888D02*
X7Y888D01*
X5703Y888D02*
X5710Y888D01*
X0Y887D02*
X7Y887D01*
X5703Y887D02*
X5710Y887D01*
X0Y886D02*
X7Y886D01*
X5703Y886D02*
X5710Y886D01*
X0Y885D02*
X7Y885D01*
X5703Y885D02*
X5710Y885D01*
X0Y884D02*
X7Y884D01*
X5703Y884D02*
X5710Y884D01*
X0Y883D02*
X7Y883D01*
X5703Y883D02*
X5710Y883D01*
X0Y882D02*
X7Y882D01*
X5703Y882D02*
X5710Y882D01*
X0Y881D02*
X7Y881D01*
X5703Y881D02*
X5710Y881D01*
X0Y880D02*
X7Y880D01*
X5703Y880D02*
X5710Y880D01*
X0Y879D02*
X7Y879D01*
X5703Y879D02*
X5710Y879D01*
X0Y878D02*
X7Y878D01*
X5703Y878D02*
X5710Y878D01*
X0Y877D02*
X7Y877D01*
X5703Y877D02*
X5710Y877D01*
X0Y876D02*
X7Y876D01*
X5703Y876D02*
X5710Y876D01*
X0Y875D02*
X7Y875D01*
X5703Y875D02*
X5710Y875D01*
X0Y874D02*
X7Y874D01*
X5703Y874D02*
X5710Y874D01*
X0Y873D02*
X7Y873D01*
X5703Y873D02*
X5710Y873D01*
X0Y872D02*
X7Y872D01*
X5703Y872D02*
X5710Y872D01*
X0Y871D02*
X7Y871D01*
X5703Y871D02*
X5710Y871D01*
X0Y870D02*
X7Y870D01*
X5703Y870D02*
X5710Y870D01*
X0Y869D02*
X7Y869D01*
X5703Y869D02*
X5710Y869D01*
X0Y868D02*
X7Y868D01*
X5703Y868D02*
X5710Y868D01*
X0Y867D02*
X7Y867D01*
X5703Y867D02*
X5710Y867D01*
X0Y866D02*
X7Y866D01*
X5703Y866D02*
X5710Y866D01*
X0Y865D02*
X7Y865D01*
X5703Y865D02*
X5710Y865D01*
X0Y864D02*
X7Y864D01*
X5703Y864D02*
X5710Y864D01*
X0Y863D02*
X7Y863D01*
X5703Y863D02*
X5710Y863D01*
X0Y862D02*
X7Y862D01*
X5703Y862D02*
X5710Y862D01*
X0Y861D02*
X7Y861D01*
X5703Y861D02*
X5710Y861D01*
X0Y860D02*
X7Y860D01*
X5703Y860D02*
X5710Y860D01*
X0Y859D02*
X7Y859D01*
X5703Y859D02*
X5710Y859D01*
X0Y858D02*
X7Y858D01*
X5703Y858D02*
X5710Y858D01*
X0Y857D02*
X7Y857D01*
X5703Y857D02*
X5710Y857D01*
X0Y856D02*
X7Y856D01*
X5703Y856D02*
X5710Y856D01*
X0Y855D02*
X7Y855D01*
X5703Y855D02*
X5710Y855D01*
X0Y854D02*
X7Y854D01*
X5703Y854D02*
X5710Y854D01*
X0Y853D02*
X7Y853D01*
X5703Y853D02*
X5710Y853D01*
X0Y852D02*
X7Y852D01*
X5703Y852D02*
X5710Y852D01*
X0Y851D02*
X7Y851D01*
X5703Y851D02*
X5710Y851D01*
X0Y850D02*
X7Y850D01*
X5703Y850D02*
X5710Y850D01*
X0Y849D02*
X7Y849D01*
X5703Y849D02*
X5710Y849D01*
X0Y848D02*
X7Y848D01*
X5703Y848D02*
X5710Y848D01*
X0Y847D02*
X7Y847D01*
X5703Y847D02*
X5710Y847D01*
X0Y846D02*
X7Y846D01*
X5703Y846D02*
X5710Y846D01*
X0Y845D02*
X7Y845D01*
X5703Y845D02*
X5710Y845D01*
X0Y844D02*
X7Y844D01*
X5703Y844D02*
X5710Y844D01*
X0Y843D02*
X7Y843D01*
X5703Y843D02*
X5710Y843D01*
X0Y842D02*
X7Y842D01*
X5703Y842D02*
X5710Y842D01*
X0Y841D02*
X7Y841D01*
X5703Y841D02*
X5710Y841D01*
X0Y840D02*
X7Y840D01*
X5703Y840D02*
X5710Y840D01*
X0Y839D02*
X7Y839D01*
X5703Y839D02*
X5710Y839D01*
X0Y838D02*
X7Y838D01*
X5703Y838D02*
X5710Y838D01*
X0Y837D02*
X7Y837D01*
X5703Y837D02*
X5710Y837D01*
X0Y836D02*
X7Y836D01*
X5703Y836D02*
X5710Y836D01*
X0Y835D02*
X7Y835D01*
X5703Y835D02*
X5710Y835D01*
X0Y834D02*
X7Y834D01*
X5703Y834D02*
X5710Y834D01*
X0Y833D02*
X7Y833D01*
X5703Y833D02*
X5710Y833D01*
X0Y832D02*
X7Y832D01*
X5703Y832D02*
X5710Y832D01*
X0Y831D02*
X7Y831D01*
X5703Y831D02*
X5710Y831D01*
X0Y830D02*
X7Y830D01*
X5703Y830D02*
X5710Y830D01*
X0Y829D02*
X7Y829D01*
X5703Y829D02*
X5710Y829D01*
X0Y828D02*
X7Y828D01*
X5703Y828D02*
X5710Y828D01*
X0Y827D02*
X7Y827D01*
X5703Y827D02*
X5710Y827D01*
X0Y826D02*
X7Y826D01*
X5703Y826D02*
X5710Y826D01*
X0Y825D02*
X7Y825D01*
X5703Y825D02*
X5710Y825D01*
X0Y824D02*
X7Y824D01*
X5703Y824D02*
X5710Y824D01*
X0Y823D02*
X7Y823D01*
X5703Y823D02*
X5710Y823D01*
X0Y822D02*
X7Y822D01*
X5703Y822D02*
X5710Y822D01*
X0Y821D02*
X7Y821D01*
X5703Y821D02*
X5710Y821D01*
X0Y820D02*
X7Y820D01*
X5703Y820D02*
X5710Y820D01*
X0Y819D02*
X7Y819D01*
X5703Y819D02*
X5710Y819D01*
X0Y818D02*
X7Y818D01*
X5703Y818D02*
X5710Y818D01*
X0Y817D02*
X7Y817D01*
X5703Y817D02*
X5710Y817D01*
X0Y816D02*
X7Y816D01*
X5703Y816D02*
X5710Y816D01*
X0Y815D02*
X7Y815D01*
X5703Y815D02*
X5710Y815D01*
X0Y814D02*
X7Y814D01*
X5703Y814D02*
X5710Y814D01*
X0Y813D02*
X7Y813D01*
X5703Y813D02*
X5710Y813D01*
X0Y812D02*
X7Y812D01*
X5703Y812D02*
X5710Y812D01*
X0Y811D02*
X7Y811D01*
X5703Y811D02*
X5710Y811D01*
X0Y810D02*
X7Y810D01*
X5703Y810D02*
X5710Y810D01*
X0Y809D02*
X7Y809D01*
X5703Y809D02*
X5710Y809D01*
X0Y808D02*
X7Y808D01*
X5703Y808D02*
X5710Y808D01*
X0Y807D02*
X7Y807D01*
X5703Y807D02*
X5710Y807D01*
X0Y806D02*
X7Y806D01*
X5703Y806D02*
X5710Y806D01*
X0Y805D02*
X7Y805D01*
X5703Y805D02*
X5710Y805D01*
X0Y804D02*
X7Y804D01*
X5703Y804D02*
X5710Y804D01*
X0Y803D02*
X7Y803D01*
X5703Y803D02*
X5710Y803D01*
X0Y802D02*
X7Y802D01*
X5703Y802D02*
X5710Y802D01*
X0Y801D02*
X7Y801D01*
X5703Y801D02*
X5710Y801D01*
X0Y800D02*
X7Y800D01*
X5703Y800D02*
X5710Y800D01*
X0Y799D02*
X7Y799D01*
X5703Y799D02*
X5710Y799D01*
X0Y798D02*
X7Y798D01*
X5703Y798D02*
X5710Y798D01*
X0Y797D02*
X7Y797D01*
X5703Y797D02*
X5710Y797D01*
X0Y796D02*
X7Y796D01*
X5703Y796D02*
X5710Y796D01*
X0Y795D02*
X7Y795D01*
X5703Y795D02*
X5710Y795D01*
X0Y794D02*
X7Y794D01*
X5703Y794D02*
X5710Y794D01*
X0Y793D02*
X7Y793D01*
X5703Y793D02*
X5710Y793D01*
X0Y792D02*
X7Y792D01*
X5703Y792D02*
X5710Y792D01*
X0Y791D02*
X7Y791D01*
X5703Y791D02*
X5710Y791D01*
X0Y790D02*
X7Y790D01*
X5703Y790D02*
X5710Y790D01*
X0Y789D02*
X7Y789D01*
X5703Y789D02*
X5710Y789D01*
X0Y788D02*
X7Y788D01*
X5703Y788D02*
X5710Y788D01*
X0Y787D02*
X7Y787D01*
X5703Y787D02*
X5710Y787D01*
X0Y786D02*
X7Y786D01*
X5703Y786D02*
X5710Y786D01*
X0Y785D02*
X7Y785D01*
X5703Y785D02*
X5710Y785D01*
X0Y784D02*
X7Y784D01*
X5703Y784D02*
X5710Y784D01*
X0Y783D02*
X7Y783D01*
X5703Y783D02*
X5710Y783D01*
X0Y782D02*
X7Y782D01*
X5703Y782D02*
X5710Y782D01*
X0Y781D02*
X7Y781D01*
X5703Y781D02*
X5710Y781D01*
X0Y780D02*
X7Y780D01*
X5703Y780D02*
X5710Y780D01*
X0Y779D02*
X7Y779D01*
X5703Y779D02*
X5710Y779D01*
X0Y778D02*
X7Y778D01*
X5703Y778D02*
X5710Y778D01*
X0Y777D02*
X7Y777D01*
X5703Y777D02*
X5710Y777D01*
X0Y776D02*
X7Y776D01*
X5703Y776D02*
X5710Y776D01*
X0Y775D02*
X7Y775D01*
X5703Y775D02*
X5710Y775D01*
X0Y774D02*
X7Y774D01*
X5703Y774D02*
X5710Y774D01*
X0Y773D02*
X7Y773D01*
X5703Y773D02*
X5710Y773D01*
X0Y772D02*
X7Y772D01*
X5703Y772D02*
X5710Y772D01*
X0Y771D02*
X7Y771D01*
X5703Y771D02*
X5710Y771D01*
X0Y770D02*
X7Y770D01*
X5703Y770D02*
X5710Y770D01*
X0Y769D02*
X7Y769D01*
X5703Y769D02*
X5710Y769D01*
X0Y768D02*
X7Y768D01*
X5703Y768D02*
X5710Y768D01*
X0Y767D02*
X7Y767D01*
X5703Y767D02*
X5710Y767D01*
X0Y766D02*
X7Y766D01*
X5703Y766D02*
X5710Y766D01*
X0Y765D02*
X7Y765D01*
X5703Y765D02*
X5710Y765D01*
X0Y764D02*
X7Y764D01*
X5703Y764D02*
X5710Y764D01*
X0Y763D02*
X7Y763D01*
X5703Y763D02*
X5710Y763D01*
X0Y762D02*
X7Y762D01*
X5703Y762D02*
X5710Y762D01*
X0Y761D02*
X7Y761D01*
X5703Y761D02*
X5710Y761D01*
X0Y760D02*
X7Y760D01*
X5703Y760D02*
X5710Y760D01*
X0Y759D02*
X7Y759D01*
X5703Y759D02*
X5710Y759D01*
X0Y758D02*
X7Y758D01*
X5703Y758D02*
X5710Y758D01*
X0Y757D02*
X7Y757D01*
X5703Y757D02*
X5710Y757D01*
X0Y756D02*
X7Y756D01*
X5703Y756D02*
X5710Y756D01*
X0Y755D02*
X7Y755D01*
X5703Y755D02*
X5710Y755D01*
X0Y754D02*
X7Y754D01*
X5703Y754D02*
X5710Y754D01*
X0Y753D02*
X7Y753D01*
X5703Y753D02*
X5710Y753D01*
X0Y752D02*
X7Y752D01*
X5703Y752D02*
X5710Y752D01*
X0Y751D02*
X7Y751D01*
X5703Y751D02*
X5710Y751D01*
X0Y750D02*
X7Y750D01*
X5703Y750D02*
X5710Y750D01*
X0Y749D02*
X7Y749D01*
X5703Y749D02*
X5710Y749D01*
X0Y748D02*
X7Y748D01*
X5703Y748D02*
X5710Y748D01*
X0Y747D02*
X7Y747D01*
X5703Y747D02*
X5710Y747D01*
X0Y746D02*
X7Y746D01*
X5703Y746D02*
X5710Y746D01*
X0Y745D02*
X7Y745D01*
X5703Y745D02*
X5710Y745D01*
X0Y744D02*
X7Y744D01*
X5703Y744D02*
X5710Y744D01*
X0Y743D02*
X7Y743D01*
X5703Y743D02*
X5710Y743D01*
X0Y742D02*
X7Y742D01*
X5703Y742D02*
X5710Y742D01*
X0Y741D02*
X7Y741D01*
X5703Y741D02*
X5710Y741D01*
X0Y740D02*
X7Y740D01*
X5703Y740D02*
X5710Y740D01*
X0Y739D02*
X7Y739D01*
X5703Y739D02*
X5710Y739D01*
X0Y738D02*
X7Y738D01*
X5703Y738D02*
X5710Y738D01*
X0Y737D02*
X7Y737D01*
X5703Y737D02*
X5710Y737D01*
X0Y736D02*
X7Y736D01*
X5703Y736D02*
X5710Y736D01*
X0Y735D02*
X7Y735D01*
X5703Y735D02*
X5710Y735D01*
X0Y734D02*
X7Y734D01*
X5703Y734D02*
X5710Y734D01*
X0Y733D02*
X7Y733D01*
X5703Y733D02*
X5710Y733D01*
X0Y732D02*
X7Y732D01*
X5703Y732D02*
X5710Y732D01*
X0Y731D02*
X7Y731D01*
X5703Y731D02*
X5710Y731D01*
X0Y730D02*
X7Y730D01*
X5703Y730D02*
X5710Y730D01*
X0Y729D02*
X7Y729D01*
X5703Y729D02*
X5710Y729D01*
X0Y728D02*
X7Y728D01*
X5703Y728D02*
X5710Y728D01*
X0Y727D02*
X7Y727D01*
X5703Y727D02*
X5710Y727D01*
X0Y726D02*
X7Y726D01*
X5703Y726D02*
X5710Y726D01*
X0Y725D02*
X7Y725D01*
X5703Y725D02*
X5710Y725D01*
X0Y724D02*
X7Y724D01*
X5703Y724D02*
X5710Y724D01*
X0Y723D02*
X7Y723D01*
X5703Y723D02*
X5710Y723D01*
X0Y722D02*
X7Y722D01*
X5703Y722D02*
X5710Y722D01*
X0Y721D02*
X7Y721D01*
X5703Y721D02*
X5710Y721D01*
X0Y720D02*
X7Y720D01*
X5703Y720D02*
X5710Y720D01*
X0Y719D02*
X7Y719D01*
X5703Y719D02*
X5710Y719D01*
X0Y718D02*
X7Y718D01*
X5703Y718D02*
X5710Y718D01*
X0Y717D02*
X7Y717D01*
X5703Y717D02*
X5710Y717D01*
X0Y716D02*
X7Y716D01*
X5703Y716D02*
X5710Y716D01*
X0Y715D02*
X7Y715D01*
X5703Y715D02*
X5710Y715D01*
X0Y714D02*
X7Y714D01*
X5703Y714D02*
X5710Y714D01*
X0Y713D02*
X7Y713D01*
X5703Y713D02*
X5710Y713D01*
X0Y712D02*
X7Y712D01*
X5703Y712D02*
X5710Y712D01*
X0Y711D02*
X7Y711D01*
X5703Y711D02*
X5710Y711D01*
X0Y710D02*
X7Y710D01*
X5703Y710D02*
X5710Y710D01*
X0Y709D02*
X7Y709D01*
X5703Y709D02*
X5710Y709D01*
X0Y708D02*
X7Y708D01*
X5703Y708D02*
X5710Y708D01*
X0Y707D02*
X7Y707D01*
X5703Y707D02*
X5710Y707D01*
X0Y706D02*
X7Y706D01*
X5703Y706D02*
X5710Y706D01*
X0Y705D02*
X7Y705D01*
X5703Y705D02*
X5710Y705D01*
X0Y704D02*
X7Y704D01*
X5703Y704D02*
X5710Y704D01*
X0Y703D02*
X7Y703D01*
X5703Y703D02*
X5710Y703D01*
X0Y702D02*
X7Y702D01*
X5703Y702D02*
X5710Y702D01*
X0Y701D02*
X7Y701D01*
X5703Y701D02*
X5710Y701D01*
X0Y700D02*
X7Y700D01*
X5703Y700D02*
X5710Y700D01*
X0Y699D02*
X7Y699D01*
X5703Y699D02*
X5710Y699D01*
X0Y698D02*
X7Y698D01*
X5703Y698D02*
X5710Y698D01*
X0Y697D02*
X7Y697D01*
X5703Y697D02*
X5710Y697D01*
X0Y696D02*
X7Y696D01*
X5703Y696D02*
X5710Y696D01*
X0Y695D02*
X7Y695D01*
X5703Y695D02*
X5710Y695D01*
X0Y694D02*
X7Y694D01*
X5703Y694D02*
X5710Y694D01*
X0Y693D02*
X7Y693D01*
X5703Y693D02*
X5710Y693D01*
X0Y692D02*
X7Y692D01*
X5703Y692D02*
X5710Y692D01*
X0Y691D02*
X7Y691D01*
X5703Y691D02*
X5710Y691D01*
X0Y690D02*
X7Y690D01*
X5703Y690D02*
X5710Y690D01*
X0Y689D02*
X7Y689D01*
X5703Y689D02*
X5710Y689D01*
X0Y688D02*
X7Y688D01*
X5703Y688D02*
X5710Y688D01*
X0Y687D02*
X7Y687D01*
X5703Y687D02*
X5710Y687D01*
X0Y686D02*
X7Y686D01*
X5703Y686D02*
X5710Y686D01*
X0Y685D02*
X7Y685D01*
X5703Y685D02*
X5710Y685D01*
X0Y684D02*
X7Y684D01*
X5703Y684D02*
X5710Y684D01*
X0Y683D02*
X7Y683D01*
X5703Y683D02*
X5710Y683D01*
X0Y682D02*
X7Y682D01*
X5703Y682D02*
X5710Y682D01*
X0Y681D02*
X7Y681D01*
X5703Y681D02*
X5710Y681D01*
X0Y680D02*
X7Y680D01*
X5703Y680D02*
X5710Y680D01*
X0Y679D02*
X7Y679D01*
X5703Y679D02*
X5710Y679D01*
X0Y678D02*
X7Y678D01*
X5703Y678D02*
X5710Y678D01*
X0Y677D02*
X7Y677D01*
X5703Y677D02*
X5710Y677D01*
X0Y676D02*
X7Y676D01*
X5703Y676D02*
X5710Y676D01*
X0Y675D02*
X7Y675D01*
X5703Y675D02*
X5710Y675D01*
X0Y674D02*
X7Y674D01*
X5703Y674D02*
X5710Y674D01*
X0Y673D02*
X7Y673D01*
X5703Y673D02*
X5710Y673D01*
X0Y672D02*
X7Y672D01*
X5703Y672D02*
X5710Y672D01*
X0Y671D02*
X7Y671D01*
X5703Y671D02*
X5710Y671D01*
X0Y670D02*
X7Y670D01*
X5703Y670D02*
X5710Y670D01*
X0Y669D02*
X7Y669D01*
X5703Y669D02*
X5710Y669D01*
X0Y668D02*
X7Y668D01*
X5703Y668D02*
X5710Y668D01*
X0Y667D02*
X7Y667D01*
X5703Y667D02*
X5710Y667D01*
X0Y666D02*
X7Y666D01*
X5703Y666D02*
X5710Y666D01*
X0Y665D02*
X7Y665D01*
X5703Y665D02*
X5710Y665D01*
X0Y664D02*
X7Y664D01*
X5703Y664D02*
X5710Y664D01*
X0Y663D02*
X7Y663D01*
X5703Y663D02*
X5710Y663D01*
X0Y662D02*
X7Y662D01*
X5703Y662D02*
X5710Y662D01*
X0Y661D02*
X7Y661D01*
X5703Y661D02*
X5710Y661D01*
X0Y660D02*
X7Y660D01*
X5703Y660D02*
X5710Y660D01*
X0Y659D02*
X7Y659D01*
X5703Y659D02*
X5710Y659D01*
X0Y658D02*
X7Y658D01*
X5703Y658D02*
X5710Y658D01*
X0Y657D02*
X7Y657D01*
X5703Y657D02*
X5710Y657D01*
X0Y656D02*
X7Y656D01*
X5703Y656D02*
X5710Y656D01*
X0Y655D02*
X7Y655D01*
X5703Y655D02*
X5710Y655D01*
X0Y654D02*
X7Y654D01*
X5703Y654D02*
X5710Y654D01*
X0Y653D02*
X7Y653D01*
X5703Y653D02*
X5710Y653D01*
X0Y652D02*
X7Y652D01*
X5703Y652D02*
X5710Y652D01*
X0Y651D02*
X7Y651D01*
X5703Y651D02*
X5710Y651D01*
X0Y650D02*
X7Y650D01*
X5703Y650D02*
X5710Y650D01*
X0Y649D02*
X7Y649D01*
X5703Y649D02*
X5710Y649D01*
X0Y648D02*
X7Y648D01*
X5703Y648D02*
X5710Y648D01*
X0Y647D02*
X7Y647D01*
X5703Y647D02*
X5710Y647D01*
X0Y646D02*
X7Y646D01*
X5703Y646D02*
X5710Y646D01*
X0Y645D02*
X7Y645D01*
X5703Y645D02*
X5710Y645D01*
X0Y644D02*
X7Y644D01*
X5703Y644D02*
X5710Y644D01*
X0Y643D02*
X7Y643D01*
X5703Y643D02*
X5710Y643D01*
X0Y642D02*
X7Y642D01*
X5703Y642D02*
X5710Y642D01*
X0Y641D02*
X7Y641D01*
X5703Y641D02*
X5710Y641D01*
X0Y640D02*
X7Y640D01*
X5703Y640D02*
X5710Y640D01*
X0Y639D02*
X7Y639D01*
X5703Y639D02*
X5710Y639D01*
X0Y638D02*
X7Y638D01*
X5703Y638D02*
X5710Y638D01*
X0Y637D02*
X7Y637D01*
X5703Y637D02*
X5710Y637D01*
X0Y636D02*
X7Y636D01*
X5703Y636D02*
X5710Y636D01*
X0Y635D02*
X7Y635D01*
X5703Y635D02*
X5710Y635D01*
X0Y634D02*
X7Y634D01*
X5703Y634D02*
X5710Y634D01*
X0Y633D02*
X7Y633D01*
X5703Y633D02*
X5710Y633D01*
X0Y632D02*
X7Y632D01*
X5703Y632D02*
X5710Y632D01*
X0Y631D02*
X7Y631D01*
X5703Y631D02*
X5710Y631D01*
X0Y630D02*
X7Y630D01*
X5703Y630D02*
X5710Y630D01*
X0Y629D02*
X7Y629D01*
X5703Y629D02*
X5710Y629D01*
X0Y628D02*
X7Y628D01*
X5703Y628D02*
X5710Y628D01*
X0Y627D02*
X7Y627D01*
X5703Y627D02*
X5710Y627D01*
X0Y626D02*
X7Y626D01*
X5703Y626D02*
X5710Y626D01*
X0Y625D02*
X7Y625D01*
X5703Y625D02*
X5710Y625D01*
X0Y624D02*
X7Y624D01*
X5703Y624D02*
X5710Y624D01*
X0Y623D02*
X7Y623D01*
X5703Y623D02*
X5710Y623D01*
X0Y622D02*
X7Y622D01*
X5703Y622D02*
X5710Y622D01*
X0Y621D02*
X7Y621D01*
X5703Y621D02*
X5710Y621D01*
X0Y620D02*
X7Y620D01*
X5703Y620D02*
X5710Y620D01*
X0Y619D02*
X7Y619D01*
X5703Y619D02*
X5710Y619D01*
X0Y618D02*
X7Y618D01*
X5703Y618D02*
X5710Y618D01*
X0Y617D02*
X7Y617D01*
X5703Y617D02*
X5710Y617D01*
X0Y616D02*
X7Y616D01*
X5703Y616D02*
X5710Y616D01*
X0Y615D02*
X7Y615D01*
X5703Y615D02*
X5710Y615D01*
X0Y614D02*
X7Y614D01*
X5703Y614D02*
X5710Y614D01*
X0Y613D02*
X7Y613D01*
X5703Y613D02*
X5710Y613D01*
X0Y612D02*
X7Y612D01*
X5703Y612D02*
X5710Y612D01*
X0Y611D02*
X7Y611D01*
X5703Y611D02*
X5710Y611D01*
X0Y610D02*
X7Y610D01*
X5703Y610D02*
X5710Y610D01*
X0Y609D02*
X7Y609D01*
X5703Y609D02*
X5710Y609D01*
X0Y608D02*
X7Y608D01*
X5703Y608D02*
X5710Y608D01*
X0Y607D02*
X7Y607D01*
X5703Y607D02*
X5710Y607D01*
X0Y606D02*
X7Y606D01*
X5703Y606D02*
X5710Y606D01*
X0Y605D02*
X7Y605D01*
X5703Y605D02*
X5710Y605D01*
X0Y604D02*
X7Y604D01*
X5703Y604D02*
X5710Y604D01*
X0Y603D02*
X7Y603D01*
X5703Y603D02*
X5710Y603D01*
X0Y602D02*
X7Y602D01*
X5703Y602D02*
X5710Y602D01*
X0Y601D02*
X7Y601D01*
X5703Y601D02*
X5710Y601D01*
X0Y600D02*
X7Y600D01*
X5703Y600D02*
X5710Y600D01*
X0Y599D02*
X7Y599D01*
X5703Y599D02*
X5710Y599D01*
X0Y598D02*
X7Y598D01*
X5703Y598D02*
X5710Y598D01*
X0Y597D02*
X7Y597D01*
X5703Y597D02*
X5710Y597D01*
X0Y596D02*
X7Y596D01*
X5703Y596D02*
X5710Y596D01*
X0Y595D02*
X7Y595D01*
X5703Y595D02*
X5710Y595D01*
X0Y594D02*
X7Y594D01*
X5703Y594D02*
X5710Y594D01*
X0Y593D02*
X7Y593D01*
X5703Y593D02*
X5710Y593D01*
X0Y592D02*
X7Y592D01*
X5703Y592D02*
X5710Y592D01*
X0Y591D02*
X7Y591D01*
X5703Y591D02*
X5710Y591D01*
X0Y590D02*
X7Y590D01*
X5703Y590D02*
X5710Y590D01*
X0Y589D02*
X7Y589D01*
X5703Y589D02*
X5710Y589D01*
X0Y588D02*
X7Y588D01*
X5703Y588D02*
X5710Y588D01*
X0Y587D02*
X7Y587D01*
X5703Y587D02*
X5710Y587D01*
X0Y586D02*
X7Y586D01*
X5703Y586D02*
X5710Y586D01*
X0Y585D02*
X7Y585D01*
X5703Y585D02*
X5710Y585D01*
X0Y584D02*
X7Y584D01*
X5703Y584D02*
X5710Y584D01*
X0Y583D02*
X7Y583D01*
X5703Y583D02*
X5710Y583D01*
X0Y582D02*
X7Y582D01*
X5703Y582D02*
X5710Y582D01*
X0Y581D02*
X7Y581D01*
X5703Y581D02*
X5710Y581D01*
X0Y580D02*
X7Y580D01*
X5703Y580D02*
X5710Y580D01*
X0Y579D02*
X7Y579D01*
X5703Y579D02*
X5710Y579D01*
X0Y578D02*
X7Y578D01*
X5703Y578D02*
X5710Y578D01*
X0Y577D02*
X7Y577D01*
X5703Y577D02*
X5710Y577D01*
X0Y576D02*
X7Y576D01*
X5703Y576D02*
X5710Y576D01*
X0Y575D02*
X7Y575D01*
X5703Y575D02*
X5710Y575D01*
X0Y574D02*
X7Y574D01*
X5703Y574D02*
X5710Y574D01*
X0Y573D02*
X7Y573D01*
X5703Y573D02*
X5710Y573D01*
X0Y572D02*
X7Y572D01*
X5703Y572D02*
X5710Y572D01*
X0Y571D02*
X7Y571D01*
X5703Y571D02*
X5710Y571D01*
X0Y570D02*
X7Y570D01*
X5703Y570D02*
X5710Y570D01*
X0Y569D02*
X7Y569D01*
X5703Y569D02*
X5710Y569D01*
X0Y568D02*
X7Y568D01*
X5703Y568D02*
X5710Y568D01*
X0Y567D02*
X7Y567D01*
X5703Y567D02*
X5710Y567D01*
X0Y566D02*
X7Y566D01*
X5703Y566D02*
X5710Y566D01*
X0Y565D02*
X7Y565D01*
X5703Y565D02*
X5710Y565D01*
X0Y564D02*
X7Y564D01*
X5703Y564D02*
X5710Y564D01*
X0Y563D02*
X7Y563D01*
X5703Y563D02*
X5710Y563D01*
X0Y562D02*
X7Y562D01*
X5703Y562D02*
X5710Y562D01*
X0Y561D02*
X7Y561D01*
X5703Y561D02*
X5710Y561D01*
X0Y560D02*
X7Y560D01*
X5703Y560D02*
X5710Y560D01*
X0Y559D02*
X7Y559D01*
X5703Y559D02*
X5710Y559D01*
X0Y558D02*
X7Y558D01*
X5703Y558D02*
X5710Y558D01*
X0Y557D02*
X7Y557D01*
X5703Y557D02*
X5710Y557D01*
X0Y556D02*
X7Y556D01*
X5703Y556D02*
X5710Y556D01*
X0Y555D02*
X7Y555D01*
X5703Y555D02*
X5710Y555D01*
X0Y554D02*
X7Y554D01*
X5703Y554D02*
X5710Y554D01*
X0Y553D02*
X7Y553D01*
X5703Y553D02*
X5710Y553D01*
X0Y552D02*
X7Y552D01*
X5703Y552D02*
X5710Y552D01*
X0Y551D02*
X7Y551D01*
X5703Y551D02*
X5710Y551D01*
X0Y550D02*
X7Y550D01*
X5703Y550D02*
X5710Y550D01*
X0Y549D02*
X7Y549D01*
X5703Y549D02*
X5710Y549D01*
X0Y548D02*
X7Y548D01*
X5703Y548D02*
X5710Y548D01*
X0Y547D02*
X7Y547D01*
X5703Y547D02*
X5710Y547D01*
X0Y546D02*
X7Y546D01*
X5703Y546D02*
X5710Y546D01*
X0Y545D02*
X7Y545D01*
X5703Y545D02*
X5710Y545D01*
X0Y544D02*
X7Y544D01*
X5703Y544D02*
X5710Y544D01*
X0Y543D02*
X7Y543D01*
X5703Y543D02*
X5710Y543D01*
X0Y542D02*
X7Y542D01*
X5703Y542D02*
X5710Y542D01*
X0Y541D02*
X7Y541D01*
X5703Y541D02*
X5710Y541D01*
X0Y540D02*
X7Y540D01*
X5703Y540D02*
X5710Y540D01*
X0Y539D02*
X7Y539D01*
X5703Y539D02*
X5710Y539D01*
X0Y538D02*
X7Y538D01*
X5703Y538D02*
X5710Y538D01*
X0Y537D02*
X7Y537D01*
X5703Y537D02*
X5710Y537D01*
X0Y536D02*
X7Y536D01*
X5703Y536D02*
X5710Y536D01*
X0Y535D02*
X7Y535D01*
X5703Y535D02*
X5710Y535D01*
X0Y534D02*
X7Y534D01*
X5703Y534D02*
X5710Y534D01*
X0Y533D02*
X7Y533D01*
X5703Y533D02*
X5710Y533D01*
X0Y532D02*
X7Y532D01*
X5703Y532D02*
X5710Y532D01*
X0Y531D02*
X7Y531D01*
X5703Y531D02*
X5710Y531D01*
X0Y530D02*
X7Y530D01*
X5703Y530D02*
X5710Y530D01*
X0Y529D02*
X7Y529D01*
X5703Y529D02*
X5710Y529D01*
X0Y528D02*
X7Y528D01*
X5703Y528D02*
X5710Y528D01*
X0Y527D02*
X7Y527D01*
X5703Y527D02*
X5710Y527D01*
X0Y526D02*
X7Y526D01*
X5703Y526D02*
X5710Y526D01*
X0Y525D02*
X7Y525D01*
X5703Y525D02*
X5710Y525D01*
X0Y524D02*
X7Y524D01*
X5703Y524D02*
X5710Y524D01*
X0Y523D02*
X7Y523D01*
X5703Y523D02*
X5710Y523D01*
X0Y522D02*
X7Y522D01*
X5703Y522D02*
X5710Y522D01*
X0Y521D02*
X7Y521D01*
X5703Y521D02*
X5710Y521D01*
X0Y520D02*
X7Y520D01*
X5703Y520D02*
X5710Y520D01*
X0Y519D02*
X7Y519D01*
X5703Y519D02*
X5710Y519D01*
X0Y518D02*
X7Y518D01*
X5703Y518D02*
X5710Y518D01*
X0Y517D02*
X7Y517D01*
X5703Y517D02*
X5710Y517D01*
X0Y516D02*
X7Y516D01*
X5703Y516D02*
X5710Y516D01*
X0Y515D02*
X7Y515D01*
X5703Y515D02*
X5710Y515D01*
X0Y514D02*
X7Y514D01*
X5703Y514D02*
X5710Y514D01*
X0Y513D02*
X7Y513D01*
X5703Y513D02*
X5710Y513D01*
X0Y512D02*
X7Y512D01*
X5703Y512D02*
X5710Y512D01*
X0Y511D02*
X7Y511D01*
X5703Y511D02*
X5710Y511D01*
X0Y510D02*
X7Y510D01*
X5703Y510D02*
X5710Y510D01*
X0Y509D02*
X7Y509D01*
X5703Y509D02*
X5710Y509D01*
X0Y508D02*
X7Y508D01*
X5703Y508D02*
X5710Y508D01*
X0Y507D02*
X7Y507D01*
X5703Y507D02*
X5710Y507D01*
X0Y506D02*
X7Y506D01*
X5703Y506D02*
X5710Y506D01*
X0Y505D02*
X7Y505D01*
X5703Y505D02*
X5710Y505D01*
X0Y504D02*
X7Y504D01*
X5703Y504D02*
X5710Y504D01*
X0Y503D02*
X7Y503D01*
X5703Y503D02*
X5710Y503D01*
X0Y502D02*
X7Y502D01*
X5703Y502D02*
X5710Y502D01*
X0Y501D02*
X7Y501D01*
X5703Y501D02*
X5710Y501D01*
X0Y500D02*
X7Y500D01*
X5703Y500D02*
X5710Y500D01*
X0Y499D02*
X7Y499D01*
X5703Y499D02*
X5710Y499D01*
X0Y498D02*
X7Y498D01*
X5703Y498D02*
X5710Y498D01*
X0Y497D02*
X7Y497D01*
X5703Y497D02*
X5710Y497D01*
X0Y496D02*
X7Y496D01*
X5703Y496D02*
X5710Y496D01*
X0Y495D02*
X7Y495D01*
X5703Y495D02*
X5710Y495D01*
X0Y494D02*
X7Y494D01*
X5703Y494D02*
X5710Y494D01*
X0Y493D02*
X7Y493D01*
X5703Y493D02*
X5710Y493D01*
X0Y492D02*
X7Y492D01*
X5703Y492D02*
X5710Y492D01*
X0Y491D02*
X7Y491D01*
X5703Y491D02*
X5710Y491D01*
X0Y490D02*
X7Y490D01*
X5703Y490D02*
X5710Y490D01*
X0Y489D02*
X7Y489D01*
X5703Y489D02*
X5710Y489D01*
X0Y488D02*
X7Y488D01*
X5703Y488D02*
X5710Y488D01*
X0Y487D02*
X7Y487D01*
X5703Y487D02*
X5710Y487D01*
X0Y486D02*
X7Y486D01*
X5703Y486D02*
X5710Y486D01*
X0Y485D02*
X7Y485D01*
X5703Y485D02*
X5710Y485D01*
X0Y484D02*
X7Y484D01*
X5703Y484D02*
X5710Y484D01*
X0Y483D02*
X7Y483D01*
X5703Y483D02*
X5710Y483D01*
X0Y482D02*
X7Y482D01*
X5703Y482D02*
X5710Y482D01*
X0Y481D02*
X7Y481D01*
X5703Y481D02*
X5710Y481D01*
X0Y480D02*
X7Y480D01*
X5703Y480D02*
X5710Y480D01*
X0Y479D02*
X7Y479D01*
X5703Y479D02*
X5710Y479D01*
X0Y478D02*
X7Y478D01*
X5703Y478D02*
X5710Y478D01*
X0Y477D02*
X7Y477D01*
X5703Y477D02*
X5710Y477D01*
X0Y476D02*
X7Y476D01*
X5703Y476D02*
X5710Y476D01*
X0Y475D02*
X7Y475D01*
X5703Y475D02*
X5710Y475D01*
X0Y474D02*
X7Y474D01*
X5703Y474D02*
X5710Y474D01*
X0Y473D02*
X7Y473D01*
X5703Y473D02*
X5710Y473D01*
X0Y472D02*
X7Y472D01*
X5703Y472D02*
X5710Y472D01*
X0Y471D02*
X7Y471D01*
X5703Y471D02*
X5710Y471D01*
X0Y470D02*
X7Y470D01*
X5703Y470D02*
X5710Y470D01*
X0Y469D02*
X7Y469D01*
X5703Y469D02*
X5710Y469D01*
X0Y468D02*
X7Y468D01*
X5703Y468D02*
X5710Y468D01*
X0Y467D02*
X7Y467D01*
X5703Y467D02*
X5710Y467D01*
X0Y466D02*
X7Y466D01*
X5703Y466D02*
X5710Y466D01*
X0Y465D02*
X7Y465D01*
X5703Y465D02*
X5710Y465D01*
X0Y464D02*
X7Y464D01*
X5703Y464D02*
X5710Y464D01*
X0Y463D02*
X7Y463D01*
X5703Y463D02*
X5710Y463D01*
X0Y462D02*
X7Y462D01*
X5703Y462D02*
X5710Y462D01*
X0Y461D02*
X7Y461D01*
X5703Y461D02*
X5710Y461D01*
X0Y460D02*
X7Y460D01*
X5703Y460D02*
X5710Y460D01*
X0Y459D02*
X7Y459D01*
X5703Y459D02*
X5710Y459D01*
X0Y458D02*
X7Y458D01*
X5703Y458D02*
X5710Y458D01*
X0Y457D02*
X7Y457D01*
X5703Y457D02*
X5710Y457D01*
X0Y456D02*
X7Y456D01*
X5703Y456D02*
X5710Y456D01*
X0Y455D02*
X7Y455D01*
X5703Y455D02*
X5710Y455D01*
X0Y454D02*
X7Y454D01*
X5703Y454D02*
X5710Y454D01*
X0Y453D02*
X7Y453D01*
X5703Y453D02*
X5710Y453D01*
X0Y452D02*
X7Y452D01*
X5703Y452D02*
X5710Y452D01*
X0Y451D02*
X7Y451D01*
X5703Y451D02*
X5710Y451D01*
X0Y450D02*
X7Y450D01*
X5703Y450D02*
X5710Y450D01*
X0Y449D02*
X7Y449D01*
X5703Y449D02*
X5710Y449D01*
X0Y448D02*
X7Y448D01*
X5703Y448D02*
X5710Y448D01*
X0Y447D02*
X7Y447D01*
X5703Y447D02*
X5710Y447D01*
X0Y446D02*
X7Y446D01*
X5703Y446D02*
X5710Y446D01*
X0Y445D02*
X7Y445D01*
X5703Y445D02*
X5710Y445D01*
X0Y444D02*
X7Y444D01*
X5703Y444D02*
X5710Y444D01*
X0Y443D02*
X7Y443D01*
X5703Y443D02*
X5710Y443D01*
X0Y442D02*
X7Y442D01*
X5703Y442D02*
X5710Y442D01*
X0Y441D02*
X7Y441D01*
X5703Y441D02*
X5710Y441D01*
X0Y440D02*
X7Y440D01*
X5703Y440D02*
X5710Y440D01*
X0Y439D02*
X7Y439D01*
X5703Y439D02*
X5710Y439D01*
X0Y438D02*
X7Y438D01*
X5703Y438D02*
X5710Y438D01*
X0Y437D02*
X7Y437D01*
X5703Y437D02*
X5710Y437D01*
X0Y436D02*
X7Y436D01*
X5703Y436D02*
X5710Y436D01*
X0Y435D02*
X7Y435D01*
X5703Y435D02*
X5710Y435D01*
X0Y434D02*
X7Y434D01*
X5703Y434D02*
X5710Y434D01*
X0Y433D02*
X7Y433D01*
X5703Y433D02*
X5710Y433D01*
X0Y432D02*
X7Y432D01*
X5703Y432D02*
X5710Y432D01*
X0Y431D02*
X7Y431D01*
X5703Y431D02*
X5710Y431D01*
X0Y430D02*
X7Y430D01*
X5703Y430D02*
X5710Y430D01*
X0Y429D02*
X7Y429D01*
X5703Y429D02*
X5710Y429D01*
X0Y428D02*
X7Y428D01*
X5703Y428D02*
X5710Y428D01*
X0Y427D02*
X7Y427D01*
X5703Y427D02*
X5710Y427D01*
X0Y426D02*
X7Y426D01*
X5703Y426D02*
X5710Y426D01*
X0Y425D02*
X7Y425D01*
X5703Y425D02*
X5710Y425D01*
X0Y424D02*
X7Y424D01*
X5703Y424D02*
X5710Y424D01*
X0Y423D02*
X7Y423D01*
X5703Y423D02*
X5710Y423D01*
X0Y422D02*
X7Y422D01*
X5703Y422D02*
X5710Y422D01*
X0Y421D02*
X7Y421D01*
X5703Y421D02*
X5710Y421D01*
X0Y420D02*
X7Y420D01*
X5703Y420D02*
X5710Y420D01*
X0Y419D02*
X7Y419D01*
X5703Y419D02*
X5710Y419D01*
X0Y418D02*
X7Y418D01*
X5703Y418D02*
X5710Y418D01*
X0Y417D02*
X7Y417D01*
X5703Y417D02*
X5710Y417D01*
X0Y416D02*
X7Y416D01*
X5703Y416D02*
X5710Y416D01*
X0Y415D02*
X7Y415D01*
X5703Y415D02*
X5710Y415D01*
X0Y414D02*
X7Y414D01*
X5703Y414D02*
X5710Y414D01*
X0Y413D02*
X7Y413D01*
X5703Y413D02*
X5710Y413D01*
X0Y412D02*
X7Y412D01*
X5703Y412D02*
X5710Y412D01*
X0Y411D02*
X7Y411D01*
X5703Y411D02*
X5710Y411D01*
X0Y410D02*
X7Y410D01*
X5703Y410D02*
X5710Y410D01*
X0Y409D02*
X7Y409D01*
X5703Y409D02*
X5710Y409D01*
X0Y408D02*
X7Y408D01*
X5703Y408D02*
X5710Y408D01*
X0Y407D02*
X7Y407D01*
X5703Y407D02*
X5710Y407D01*
X0Y406D02*
X7Y406D01*
X5703Y406D02*
X5710Y406D01*
X0Y405D02*
X7Y405D01*
X5703Y405D02*
X5710Y405D01*
X0Y404D02*
X7Y404D01*
X5703Y404D02*
X5710Y404D01*
X0Y403D02*
X7Y403D01*
X5703Y403D02*
X5710Y403D01*
X0Y402D02*
X7Y402D01*
X5703Y402D02*
X5710Y402D01*
X0Y401D02*
X7Y401D01*
X5703Y401D02*
X5710Y401D01*
X0Y400D02*
X7Y400D01*
X5703Y400D02*
X5710Y400D01*
X0Y399D02*
X7Y399D01*
X5703Y399D02*
X5710Y399D01*
X0Y398D02*
X7Y398D01*
X5703Y398D02*
X5710Y398D01*
X0Y397D02*
X7Y397D01*
X5703Y397D02*
X5710Y397D01*
X0Y396D02*
X7Y396D01*
X5703Y396D02*
X5710Y396D01*
X0Y395D02*
X7Y395D01*
X5703Y395D02*
X5710Y395D01*
X0Y394D02*
X7Y394D01*
X5703Y394D02*
X5710Y394D01*
X0Y393D02*
X7Y393D01*
X5703Y393D02*
X5710Y393D01*
X0Y392D02*
X7Y392D01*
X5703Y392D02*
X5710Y392D01*
X0Y391D02*
X7Y391D01*
X5703Y391D02*
X5710Y391D01*
X0Y390D02*
X7Y390D01*
X5703Y390D02*
X5710Y390D01*
X0Y389D02*
X7Y389D01*
X5703Y389D02*
X5710Y389D01*
X0Y388D02*
X7Y388D01*
X5703Y388D02*
X5710Y388D01*
X0Y387D02*
X7Y387D01*
X5703Y387D02*
X5710Y387D01*
X0Y386D02*
X7Y386D01*
X5703Y386D02*
X5710Y386D01*
X0Y385D02*
X7Y385D01*
X5703Y385D02*
X5710Y385D01*
X0Y384D02*
X7Y384D01*
X5703Y384D02*
X5710Y384D01*
X0Y383D02*
X7Y383D01*
X5703Y383D02*
X5710Y383D01*
X0Y382D02*
X7Y382D01*
X5703Y382D02*
X5710Y382D01*
X0Y381D02*
X7Y381D01*
X5703Y381D02*
X5710Y381D01*
X0Y380D02*
X7Y380D01*
X5703Y380D02*
X5710Y380D01*
X0Y379D02*
X7Y379D01*
X5703Y379D02*
X5710Y379D01*
X0Y378D02*
X7Y378D01*
X5703Y378D02*
X5710Y378D01*
X0Y377D02*
X7Y377D01*
X5703Y377D02*
X5710Y377D01*
X0Y376D02*
X7Y376D01*
X5703Y376D02*
X5710Y376D01*
X0Y375D02*
X7Y375D01*
X5703Y375D02*
X5710Y375D01*
X0Y374D02*
X7Y374D01*
X5703Y374D02*
X5710Y374D01*
X0Y373D02*
X7Y373D01*
X5703Y373D02*
X5710Y373D01*
X0Y372D02*
X7Y372D01*
X5703Y372D02*
X5710Y372D01*
X0Y371D02*
X7Y371D01*
X5703Y371D02*
X5710Y371D01*
X0Y370D02*
X7Y370D01*
X5703Y370D02*
X5710Y370D01*
X0Y369D02*
X7Y369D01*
X5703Y369D02*
X5710Y369D01*
X0Y368D02*
X7Y368D01*
X5703Y368D02*
X5710Y368D01*
X1Y367D02*
X8Y367D01*
X5702Y367D02*
X5709Y367D01*
X1Y366D02*
X8Y366D01*
X5702Y366D02*
X5709Y366D01*
X1Y365D02*
X8Y365D01*
X5702Y365D02*
X5709Y365D01*
X1Y364D02*
X8Y364D01*
X5702Y364D02*
X5709Y364D01*
X1Y363D02*
X8Y363D01*
X5702Y363D02*
X5709Y363D01*
X1Y362D02*
X8Y362D01*
X5702Y362D02*
X5709Y362D01*
X1Y361D02*
X8Y361D01*
X5702Y361D02*
X5709Y361D01*
X1Y360D02*
X8Y360D01*
X5702Y360D02*
X5709Y360D01*
X1Y359D02*
X8Y359D01*
X5702Y359D02*
X5709Y359D01*
X1Y358D02*
X8Y358D01*
X5702Y358D02*
X5709Y358D01*
X1Y357D02*
X8Y357D01*
X5702Y357D02*
X5709Y357D01*
X1Y356D02*
X8Y356D01*
X5702Y356D02*
X5709Y356D01*
X1Y355D02*
X8Y355D01*
X5702Y355D02*
X5709Y355D01*
X1Y354D02*
X8Y354D01*
X5702Y354D02*
X5709Y354D01*
X2Y353D02*
X9Y353D01*
X5701Y353D02*
X5708Y353D01*
X2Y352D02*
X9Y352D01*
X5701Y352D02*
X5708Y352D01*
X2Y351D02*
X9Y351D01*
X5701Y351D02*
X5708Y351D01*
X2Y350D02*
X9Y350D01*
X5701Y350D02*
X5708Y350D01*
X2Y349D02*
X9Y349D01*
X5701Y349D02*
X5708Y349D01*
X2Y348D02*
X9Y348D01*
X5701Y348D02*
X5708Y348D01*
X2Y347D02*
X9Y347D01*
X5701Y347D02*
X5708Y347D01*
X2Y346D02*
X9Y346D01*
X5701Y346D02*
X5708Y346D01*
X2Y345D02*
X9Y345D01*
X5701Y345D02*
X5708Y345D01*
X2Y344D02*
X9Y344D01*
X5701Y344D02*
X5708Y344D01*
X3Y343D02*
X10Y343D01*
X5700Y343D02*
X5707Y343D01*
X3Y342D02*
X10Y342D01*
X5700Y342D02*
X5707Y342D01*
X3Y341D02*
X10Y341D01*
X5700Y341D02*
X5707Y341D01*
X3Y340D02*
X10Y340D01*
X5700Y340D02*
X5707Y340D01*
X3Y339D02*
X10Y339D01*
X5700Y339D02*
X5707Y339D01*
X3Y338D02*
X10Y338D01*
X5700Y338D02*
X5707Y338D01*
X3Y337D02*
X10Y337D01*
X5700Y337D02*
X5707Y337D01*
X3Y336D02*
X10Y336D01*
X5700Y336D02*
X5707Y336D01*
X4Y335D02*
X11Y335D01*
X5699Y335D02*
X5706Y335D01*
X4Y334D02*
X11Y334D01*
X5699Y334D02*
X5706Y334D01*
X4Y333D02*
X11Y333D01*
X5699Y333D02*
X5706Y333D01*
X4Y332D02*
X11Y332D01*
X5699Y332D02*
X5706Y332D01*
X4Y331D02*
X11Y331D01*
X5699Y331D02*
X5706Y331D01*
X4Y330D02*
X11Y330D01*
X5699Y330D02*
X5706Y330D01*
X4Y329D02*
X11Y329D01*
X5699Y329D02*
X5706Y329D01*
X5Y328D02*
X12Y328D01*
X5698Y328D02*
X5705Y328D01*
X5Y327D02*
X12Y327D01*
X5698Y327D02*
X5705Y327D01*
X5Y326D02*
X12Y326D01*
X5698Y326D02*
X5705Y326D01*
X5Y325D02*
X12Y325D01*
X5698Y325D02*
X5705Y325D01*
X5Y324D02*
X12Y324D01*
X5698Y324D02*
X5705Y324D01*
X5Y323D02*
X12Y323D01*
X5698Y323D02*
X5705Y323D01*
X5Y322D02*
X13Y322D01*
X5697Y322D02*
X5705Y322D01*
X6Y321D02*
X13Y321D01*
X5697Y321D02*
X5704Y321D01*
X6Y320D02*
X13Y320D01*
X5697Y320D02*
X5704Y320D01*
X6Y319D02*
X13Y319D01*
X5697Y319D02*
X5704Y319D01*
X6Y318D02*
X13Y318D01*
X5697Y318D02*
X5704Y318D01*
X6Y317D02*
X13Y317D01*
X5697Y317D02*
X5704Y317D01*
X7Y316D02*
X14Y316D01*
X5696Y316D02*
X5703Y316D01*
X7Y315D02*
X14Y315D01*
X5696Y315D02*
X5703Y315D01*
X7Y314D02*
X14Y314D01*
X5696Y314D02*
X5703Y314D01*
X7Y313D02*
X14Y313D01*
X5696Y313D02*
X5703Y313D01*
X7Y312D02*
X14Y312D01*
X5696Y312D02*
X5703Y312D01*
X7Y311D02*
X15Y311D01*
X5695Y311D02*
X5703Y311D01*
X8Y310D02*
X15Y310D01*
X5695Y310D02*
X5702Y310D01*
X8Y309D02*
X15Y309D01*
X5695Y309D02*
X5702Y309D01*
X8Y308D02*
X15Y308D01*
X5695Y308D02*
X5702Y308D01*
X8Y307D02*
X15Y307D01*
X5695Y307D02*
X5702Y307D01*
X9Y306D02*
X16Y306D01*
X5694Y306D02*
X5702Y306D01*
X9Y305D02*
X16Y305D01*
X5694Y305D02*
X5701Y305D01*
X9Y304D02*
X16Y304D01*
X5694Y304D02*
X5701Y304D01*
X9Y303D02*
X16Y303D01*
X5694Y303D02*
X5701Y303D01*
X9Y302D02*
X16Y302D01*
X5694Y302D02*
X5701Y302D01*
X10Y301D02*
X17Y301D01*
X5693Y301D02*
X5700Y301D01*
X10Y300D02*
X17Y300D01*
X5693Y300D02*
X5700Y300D01*
X10Y299D02*
X17Y299D01*
X5693Y299D02*
X5700Y299D01*
X10Y298D02*
X17Y298D01*
X5693Y298D02*
X5700Y298D01*
X10Y297D02*
X18Y297D01*
X5692Y297D02*
X5700Y297D01*
X11Y296D02*
X18Y296D01*
X5692Y296D02*
X5699Y296D01*
X11Y295D02*
X18Y295D01*
X5692Y295D02*
X5699Y295D01*
X11Y294D02*
X18Y294D01*
X5692Y294D02*
X5699Y294D01*
X11Y293D02*
X19Y293D01*
X5691Y293D02*
X5699Y293D01*
X12Y292D02*
X19Y292D01*
X5691Y292D02*
X5698Y292D01*
X12Y291D02*
X19Y291D01*
X5691Y291D02*
X5698Y291D01*
X12Y290D02*
X19Y290D01*
X5691Y290D02*
X5698Y290D01*
X12Y289D02*
X20Y289D01*
X5690Y289D02*
X5698Y289D01*
X13Y288D02*
X20Y288D01*
X5690Y288D02*
X5697Y288D01*
X13Y287D02*
X20Y287D01*
X5690Y287D02*
X5697Y287D01*
X13Y286D02*
X20Y286D01*
X5690Y286D02*
X5697Y286D01*
X14Y285D02*
X21Y285D01*
X5689Y285D02*
X5696Y285D01*
X14Y284D02*
X21Y284D01*
X5689Y284D02*
X5696Y284D01*
X14Y283D02*
X21Y283D01*
X5689Y283D02*
X5696Y283D01*
X14Y282D02*
X22Y282D01*
X5688Y282D02*
X5696Y282D01*
X15Y281D02*
X22Y281D01*
X5688Y281D02*
X5695Y281D01*
X15Y280D02*
X22Y280D01*
X5688Y280D02*
X5695Y280D01*
X15Y279D02*
X22Y279D01*
X5688Y279D02*
X5695Y279D01*
X16Y278D02*
X23Y278D01*
X5687Y278D02*
X5694Y278D01*
X16Y277D02*
X23Y277D01*
X5687Y277D02*
X5694Y277D01*
X16Y276D02*
X23Y276D01*
X5687Y276D02*
X5694Y276D01*
X16Y275D02*
X24Y275D01*
X5686Y275D02*
X5694Y275D01*
X17Y274D02*
X24Y274D01*
X5686Y274D02*
X5693Y274D01*
X17Y273D02*
X24Y273D01*
X5686Y273D02*
X5693Y273D01*
X17Y272D02*
X25Y272D01*
X5685Y272D02*
X5693Y272D01*
X18Y271D02*
X25Y271D01*
X5685Y271D02*
X5692Y271D01*
X18Y270D02*
X25Y270D01*
X5685Y270D02*
X5692Y270D01*
X18Y269D02*
X25Y269D01*
X5685Y269D02*
X5692Y269D01*
X19Y268D02*
X26Y268D01*
X5684Y268D02*
X5691Y268D01*
X19Y267D02*
X26Y267D01*
X5684Y267D02*
X5691Y267D01*
X19Y266D02*
X26Y266D01*
X5684Y266D02*
X5691Y266D01*
X20Y265D02*
X27Y265D01*
X5683Y265D02*
X5690Y265D01*
X20Y264D02*
X27Y264D01*
X5683Y264D02*
X5690Y264D01*
X20Y263D02*
X27Y263D01*
X5683Y263D02*
X5690Y263D01*
X21Y262D02*
X28Y262D01*
X5682Y262D02*
X5689Y262D01*
X21Y261D02*
X28Y261D01*
X5682Y261D02*
X5689Y261D01*
X21Y260D02*
X28Y260D01*
X5682Y260D02*
X5689Y260D01*
X21Y259D02*
X29Y259D01*
X5681Y259D02*
X5689Y259D01*
X22Y258D02*
X29Y258D01*
X5681Y258D02*
X5688Y258D01*
X22Y257D02*
X29Y257D01*
X5681Y257D02*
X5688Y257D01*
X22Y256D02*
X30Y256D01*
X5680Y256D02*
X5688Y256D01*
X23Y255D02*
X30Y255D01*
X5680Y255D02*
X5687Y255D01*
X23Y254D02*
X31Y254D01*
X5679Y254D02*
X5687Y254D01*
X24Y253D02*
X31Y253D01*
X5679Y253D02*
X5686Y253D01*
X24Y252D02*
X31Y252D01*
X5679Y252D02*
X5686Y252D01*
X24Y251D02*
X32Y251D01*
X5678Y251D02*
X5686Y251D01*
X25Y250D02*
X32Y250D01*
X5678Y250D02*
X5685Y250D01*
X25Y249D02*
X33Y249D01*
X5677Y249D02*
X5685Y249D01*
X25Y248D02*
X33Y248D01*
X5677Y248D02*
X5685Y248D01*
X26Y247D02*
X33Y247D01*
X5677Y247D02*
X5684Y247D01*
X26Y246D02*
X34Y246D01*
X5676Y246D02*
X5684Y246D01*
X27Y245D02*
X34Y245D01*
X5676Y245D02*
X5683Y245D01*
X27Y244D02*
X34Y244D01*
X5676Y244D02*
X5683Y244D01*
X27Y243D02*
X35Y243D01*
X5675Y243D02*
X5683Y243D01*
X28Y242D02*
X35Y242D01*
X5675Y242D02*
X5682Y242D01*
X28Y241D02*
X36Y241D01*
X5674Y241D02*
X5682Y241D01*
X29Y240D02*
X36Y240D01*
X5674Y240D02*
X5681Y240D01*
X29Y239D02*
X36Y239D01*
X5674Y239D02*
X5681Y239D01*
X29Y238D02*
X37Y238D01*
X5673Y238D02*
X5681Y238D01*
X30Y237D02*
X37Y237D01*
X5673Y237D02*
X5680Y237D01*
X30Y236D02*
X38Y236D01*
X5672Y236D02*
X5680Y236D01*
X31Y235D02*
X38Y235D01*
X5672Y235D02*
X5679Y235D01*
X31Y234D02*
X39Y234D01*
X5671Y234D02*
X5679Y234D01*
X31Y233D02*
X39Y233D01*
X5671Y233D02*
X5679Y233D01*
X32Y232D02*
X39Y232D01*
X5670Y232D02*
X5678Y232D01*
X32Y231D02*
X40Y231D01*
X5670Y231D02*
X5678Y231D01*
X33Y230D02*
X40Y230D01*
X5670Y230D02*
X5677Y230D01*
X33Y229D02*
X41Y229D01*
X5669Y229D02*
X5677Y229D01*
X34Y228D02*
X41Y228D01*
X5669Y228D02*
X5676Y228D01*
X34Y227D02*
X42Y227D01*
X5668Y227D02*
X5676Y227D01*
X35Y226D02*
X42Y226D01*
X5668Y226D02*
X5675Y226D01*
X35Y225D02*
X43Y225D01*
X5667Y225D02*
X5675Y225D01*
X35Y224D02*
X43Y224D01*
X5667Y224D02*
X5675Y224D01*
X36Y223D02*
X43Y223D01*
X5667Y223D02*
X5674Y223D01*
X36Y222D02*
X44Y222D01*
X5666Y222D02*
X5674Y222D01*
X37Y221D02*
X44Y221D01*
X5666Y221D02*
X5673Y221D01*
X37Y220D02*
X45Y220D01*
X5665Y220D02*
X5673Y220D01*
X38Y219D02*
X45Y219D01*
X5665Y219D02*
X5672Y219D01*
X38Y218D02*
X46Y218D01*
X5664Y218D02*
X5672Y218D01*
X39Y217D02*
X46Y217D01*
X5664Y217D02*
X5671Y217D01*
X39Y216D02*
X47Y216D01*
X5663Y216D02*
X5671Y216D01*
X40Y215D02*
X47Y215D01*
X5663Y215D02*
X5670Y215D01*
X40Y214D02*
X48Y214D01*
X5662Y214D02*
X5670Y214D01*
X41Y213D02*
X48Y213D01*
X5662Y213D02*
X5669Y213D01*
X41Y212D02*
X49Y212D01*
X5661Y212D02*
X5669Y212D01*
X42Y211D02*
X49Y211D01*
X5661Y211D02*
X5668Y211D01*
X42Y210D02*
X50Y210D01*
X5660Y210D02*
X5668Y210D01*
X43Y209D02*
X50Y209D01*
X5660Y209D02*
X5667Y209D01*
X43Y208D02*
X51Y208D01*
X5659Y208D02*
X5667Y208D01*
X44Y207D02*
X51Y207D01*
X5659Y207D02*
X5666Y207D01*
X44Y206D02*
X52Y206D01*
X5658Y206D02*
X5666Y206D01*
X45Y205D02*
X53Y205D01*
X5657Y205D02*
X5665Y205D01*
X45Y204D02*
X53Y204D01*
X5657Y204D02*
X5665Y204D01*
X46Y203D02*
X54Y203D01*
X5656Y203D02*
X5664Y203D01*
X46Y202D02*
X54Y202D01*
X5656Y202D02*
X5664Y202D01*
X47Y201D02*
X55Y201D01*
X5655Y201D02*
X5663Y201D01*
X47Y200D02*
X55Y200D01*
X5655Y200D02*
X5663Y200D01*
X48Y199D02*
X56Y199D01*
X5654Y199D02*
X5662Y199D01*
X48Y198D02*
X56Y198D01*
X5654Y198D02*
X5662Y198D01*
X49Y197D02*
X57Y197D01*
X5653Y197D02*
X5661Y197D01*
X50Y196D02*
X58Y196D01*
X5652Y196D02*
X5660Y196D01*
X50Y195D02*
X58Y195D01*
X5652Y195D02*
X5660Y195D01*
X51Y194D02*
X59Y194D01*
X5651Y194D02*
X5659Y194D01*
X51Y193D02*
X59Y193D01*
X5651Y193D02*
X5659Y193D01*
X52Y192D02*
X60Y192D01*
X5650Y192D02*
X5658Y192D01*
X52Y191D02*
X60Y191D01*
X5650Y191D02*
X5658Y191D01*
X53Y190D02*
X61Y190D01*
X5649Y190D02*
X5657Y190D01*
X53Y189D02*
X62Y189D01*
X5648Y189D02*
X5657Y189D01*
X54Y188D02*
X62Y188D01*
X5648Y188D02*
X5656Y188D01*
X55Y187D02*
X63Y187D01*
X5647Y187D02*
X5655Y187D01*
X55Y186D02*
X64Y186D01*
X5646Y186D02*
X5655Y186D01*
X56Y185D02*
X64Y185D01*
X5646Y185D02*
X5654Y185D01*
X56Y184D02*
X65Y184D01*
X5645Y184D02*
X5654Y184D01*
X57Y183D02*
X65Y183D01*
X5645Y183D02*
X5653Y183D01*
X58Y182D02*
X66Y182D01*
X5644Y182D02*
X5652Y182D01*
X58Y181D02*
X67Y181D01*
X5643Y181D02*
X5652Y181D01*
X59Y180D02*
X67Y180D01*
X5643Y180D02*
X5651Y180D01*
X60Y179D02*
X68Y179D01*
X5642Y179D02*
X5650Y179D01*
X60Y178D02*
X69Y178D01*
X5641Y178D02*
X5650Y178D01*
X61Y177D02*
X69Y177D01*
X5641Y177D02*
X5649Y177D01*
X61Y176D02*
X70Y176D01*
X5640Y176D02*
X5649Y176D01*
X62Y175D02*
X70Y175D01*
X5640Y175D02*
X5648Y175D01*
X63Y174D02*
X71Y174D01*
X5639Y174D02*
X5647Y174D01*
X63Y173D02*
X72Y173D01*
X5638Y173D02*
X5647Y173D01*
X64Y172D02*
X73Y172D01*
X5637Y172D02*
X5646Y172D01*
X65Y171D02*
X73Y171D01*
X5637Y171D02*
X5645Y171D01*
X65Y170D02*
X74Y170D01*
X5636Y170D02*
X5645Y170D01*
X66Y169D02*
X75Y169D01*
X5635Y169D02*
X5644Y169D01*
X67Y168D02*
X75Y168D01*
X5635Y168D02*
X5643Y168D01*
X67Y167D02*
X76Y167D01*
X5634Y167D02*
X5643Y167D01*
X68Y166D02*
X77Y166D01*
X5633Y166D02*
X5642Y166D01*
X69Y165D02*
X77Y165D01*
X5633Y165D02*
X5641Y165D01*
X69Y164D02*
X78Y164D01*
X5632Y164D02*
X5641Y164D01*
X70Y163D02*
X79Y163D01*
X5631Y163D02*
X5640Y163D01*
X71Y162D02*
X79Y162D01*
X5631Y162D02*
X5639Y162D01*
X72Y161D02*
X80Y161D01*
X5630Y161D02*
X5639Y161D01*
X72Y160D02*
X81Y160D01*
X5629Y160D02*
X5638Y160D01*
X73Y159D02*
X82Y159D01*
X5628Y159D02*
X5637Y159D01*
X74Y158D02*
X82Y158D01*
X5628Y158D02*
X5636Y158D01*
X74Y157D02*
X83Y157D01*
X5627Y157D02*
X5636Y157D01*
X75Y156D02*
X84Y156D01*
X5626Y156D02*
X5635Y156D01*
X76Y155D02*
X85Y155D01*
X5625Y155D02*
X5634Y155D01*
X77Y154D02*
X86Y154D01*
X5624Y154D02*
X5633Y154D01*
X77Y153D02*
X86Y153D01*
X5624Y153D02*
X5633Y153D01*
X78Y152D02*
X87Y152D01*
X5623Y152D02*
X5632Y152D01*
X79Y151D02*
X88Y151D01*
X5622Y151D02*
X5631Y151D01*
X80Y150D02*
X89Y150D01*
X5621Y150D02*
X5630Y150D01*
X80Y149D02*
X89Y149D01*
X5621Y149D02*
X5630Y149D01*
X81Y148D02*
X90Y148D01*
X5620Y148D02*
X5629Y148D01*
X82Y147D02*
X91Y147D01*
X5619Y147D02*
X5628Y147D01*
X83Y146D02*
X92Y146D01*
X5618Y146D02*
X5627Y146D01*
X83Y145D02*
X93Y145D01*
X5617Y145D02*
X5627Y145D01*
X84Y144D02*
X93Y144D01*
X5617Y144D02*
X5626Y144D01*
X85Y143D02*
X94Y143D01*
X5616Y143D02*
X5625Y143D01*
X86Y142D02*
X95Y142D01*
X5615Y142D02*
X5624Y142D01*
X86Y141D02*
X96Y141D01*
X5614Y141D02*
X5624Y141D01*
X87Y140D02*
X97Y140D01*
X5613Y140D02*
X5623Y140D01*
X88Y139D02*
X98Y139D01*
X5612Y139D02*
X5622Y139D01*
X89Y138D02*
X98Y138D01*
X5612Y138D02*
X5621Y138D01*
X90Y137D02*
X99Y137D01*
X5611Y137D02*
X5620Y137D01*
X91Y136D02*
X100Y136D01*
X5610Y136D02*
X5619Y136D01*
X92Y135D02*
X101Y135D01*
X5609Y135D02*
X5618Y135D01*
X92Y134D02*
X102Y134D01*
X5608Y134D02*
X5618Y134D01*
X93Y133D02*
X103Y133D01*
X5607Y133D02*
X5617Y133D01*
X94Y132D02*
X104Y132D01*
X5606Y132D02*
X5616Y132D01*
X95Y131D02*
X105Y131D01*
X5605Y131D02*
X5615Y131D01*
X96Y130D02*
X105Y130D01*
X5605Y130D02*
X5614Y130D01*
X97Y129D02*
X106Y129D01*
X5604Y129D02*
X5613Y129D01*
X97Y128D02*
X107Y128D01*
X5603Y128D02*
X5613Y128D01*
X98Y127D02*
X108Y127D01*
X5602Y127D02*
X5612Y127D01*
X99Y126D02*
X109Y126D01*
X5601Y126D02*
X5611Y126D01*
X100Y125D02*
X110Y125D01*
X5600Y125D02*
X5610Y125D01*
X101Y124D02*
X111Y124D01*
X5599Y124D02*
X5609Y124D01*
X102Y123D02*
X112Y123D01*
X5598Y123D02*
X5608Y123D01*
X103Y122D02*
X113Y122D01*
X5597Y122D02*
X5607Y122D01*
X104Y121D02*
X114Y121D01*
X5596Y121D02*
X5606Y121D01*
X105Y120D02*
X115Y120D01*
X5595Y120D02*
X5605Y120D01*
X106Y119D02*
X116Y119D01*
X5594Y119D02*
X5604Y119D01*
X107Y118D02*
X117Y118D01*
X5593Y118D02*
X5603Y118D01*
X108Y117D02*
X118Y117D01*
X5592Y117D02*
X5602Y117D01*
X108Y116D02*
X119Y116D01*
X5591Y116D02*
X5602Y116D01*
X109Y115D02*
X120Y115D01*
X5590Y115D02*
X5601Y115D01*
X110Y114D02*
X121Y114D01*
X5589Y114D02*
X5600Y114D01*
X111Y113D02*
X122Y113D01*
X5588Y113D02*
X5599Y113D01*
X112Y112D02*
X123Y112D01*
X5587Y112D02*
X5598Y112D01*
X113Y111D02*
X124Y111D01*
X5586Y111D02*
X5597Y111D01*
X114Y110D02*
X125Y110D01*
X5585Y110D02*
X5596Y110D01*
X116Y109D02*
X126Y109D01*
X5584Y109D02*
X5595Y109D01*
X117Y108D02*
X127Y108D01*
X5583Y108D02*
X5593Y108D01*
X118Y107D02*
X128Y107D01*
X5582Y107D02*
X5592Y107D01*
X119Y106D02*
X129Y106D01*
X5581Y106D02*
X5591Y106D01*
X120Y105D02*
X130Y105D01*
X5580Y105D02*
X5590Y105D01*
X121Y104D02*
X131Y104D01*
X5579Y104D02*
X5589Y104D01*
X122Y103D02*
X132Y103D01*
X5578Y103D02*
X5588Y103D01*
X123Y102D02*
X134Y102D01*
X5576Y102D02*
X5587Y102D01*
X124Y101D02*
X135Y101D01*
X5575Y101D02*
X5586Y101D01*
X125Y100D02*
X136Y100D01*
X5574Y100D02*
X5585Y100D01*
X126Y99D02*
X137Y99D01*
X5573Y99D02*
X5584Y99D01*
X127Y98D02*
X138Y98D01*
X5572Y98D02*
X5583Y98D01*
X128Y97D02*
X139Y97D01*
X5571Y97D02*
X5582Y97D01*
X129Y96D02*
X140Y96D01*
X5570Y96D02*
X5581Y96D01*
X130Y95D02*
X142Y95D01*
X5568Y95D02*
X5580Y95D01*
X132Y94D02*
X143Y94D01*
X5567Y94D02*
X5578Y94D01*
X133Y93D02*
X144Y93D01*
X5566Y93D02*
X5577Y93D01*
X134Y92D02*
X145Y92D01*
X5565Y92D02*
X5576Y92D01*
X135Y91D02*
X146Y91D01*
X5564Y91D02*
X5575Y91D01*
X136Y90D02*
X148Y90D01*
X5562Y90D02*
X5574Y90D01*
X137Y89D02*
X149Y89D01*
X5561Y89D02*
X5573Y89D01*
X139Y88D02*
X150Y88D01*
X5560Y88D02*
X5571Y88D01*
X140Y87D02*
X151Y87D01*
X5559Y87D02*
X5570Y87D01*
X141Y86D02*
X153Y86D01*
X5557Y86D02*
X5569Y86D01*
X142Y85D02*
X154Y85D01*
X5556Y85D02*
X5568Y85D01*
X143Y84D02*
X155Y84D01*
X5555Y84D02*
X5567Y84D01*
X145Y83D02*
X157Y83D01*
X5553Y83D02*
X5565Y83D01*
X146Y82D02*
X158Y82D01*
X5552Y82D02*
X5564Y82D01*
X147Y81D02*
X159Y81D01*
X5551Y81D02*
X5563Y81D01*
X148Y80D02*
X161Y80D01*
X5549Y80D02*
X5562Y80D01*
X150Y79D02*
X162Y79D01*
X5548Y79D02*
X5560Y79D01*
X151Y78D02*
X163Y78D01*
X5547Y78D02*
X5559Y78D01*
X152Y77D02*
X165Y77D01*
X5545Y77D02*
X5558Y77D01*
X154Y76D02*
X166Y76D01*
X5544Y76D02*
X5556Y76D01*
X155Y75D02*
X167Y75D01*
X5543Y75D02*
X5555Y75D01*
X156Y74D02*
X169Y74D01*
X5541Y74D02*
X5554Y74D01*
X158Y73D02*
X170Y73D01*
X5540Y73D02*
X5552Y73D01*
X159Y72D02*
X172Y72D01*
X5538Y72D02*
X5551Y72D01*
X160Y71D02*
X173Y71D01*
X5537Y71D02*
X5550Y71D01*
X162Y70D02*
X175Y70D01*
X5535Y70D02*
X5548Y70D01*
X163Y69D02*
X176Y69D01*
X5534Y69D02*
X5547Y69D01*
X165Y68D02*
X178Y68D01*
X5532Y68D02*
X5545Y68D01*
X166Y67D02*
X179Y67D01*
X5531Y67D02*
X5544Y67D01*
X168Y66D02*
X181Y66D01*
X5529Y66D02*
X5542Y66D01*
X169Y65D02*
X182Y65D01*
X5528Y65D02*
X5541Y65D01*
X171Y64D02*
X184Y64D01*
X5526Y64D02*
X5539Y64D01*
X172Y63D02*
X186Y63D01*
X5524Y63D02*
X5538Y63D01*
X174Y62D02*
X187Y62D01*
X5523Y62D02*
X5536Y62D01*
X175Y61D02*
X189Y61D01*
X5521Y61D02*
X5535Y61D01*
X177Y60D02*
X191Y60D01*
X5519Y60D02*
X5533Y60D01*
X178Y59D02*
X192Y59D01*
X5518Y59D02*
X5532Y59D01*
X180Y58D02*
X194Y58D01*
X5516Y58D02*
X5530Y58D01*
X181Y57D02*
X196Y57D01*
X5514Y57D02*
X5529Y57D01*
X183Y56D02*
X197Y56D01*
X5513Y56D02*
X5527Y56D01*
X185Y55D02*
X199Y55D01*
X5511Y55D02*
X5525Y55D01*
X186Y54D02*
X201Y54D01*
X5509Y54D02*
X5524Y54D01*
X188Y53D02*
X203Y53D01*
X5507Y53D02*
X5522Y53D01*
X190Y52D02*
X205Y52D01*
X5505Y52D02*
X5520Y52D01*
X191Y51D02*
X207Y51D01*
X5503Y51D02*
X5519Y51D01*
X193Y50D02*
X209Y50D01*
X5501Y50D02*
X5517Y50D01*
X195Y49D02*
X210Y49D01*
X5500Y49D02*
X5515Y49D01*
X196Y48D02*
X212Y48D01*
X5498Y48D02*
X5514Y48D01*
X198Y47D02*
X214Y47D01*
X5496Y47D02*
X5512Y47D01*
X200Y46D02*
X216Y46D01*
X5494Y46D02*
X5510Y46D01*
X202Y45D02*
X218Y45D01*
X5492Y45D02*
X5508Y45D01*
X204Y44D02*
X221Y44D01*
X5489Y44D02*
X5506Y44D01*
X206Y43D02*
X223Y43D01*
X5487Y43D02*
X5504Y43D01*
X208Y42D02*
X225Y42D01*
X5485Y42D02*
X5502Y42D01*
X210Y41D02*
X227Y41D01*
X5483Y41D02*
X5500Y41D01*
X212Y40D02*
X229Y40D01*
X5481Y40D02*
X5498Y40D01*
X214Y39D02*
X231Y39D01*
X5479Y39D02*
X5496Y39D01*
X216Y38D02*
X234Y38D01*
X5476Y38D02*
X5494Y38D01*
X218Y37D02*
X236Y37D01*
X5474Y37D02*
X5492Y37D01*
X220Y36D02*
X239Y36D01*
X5471Y36D02*
X5490Y36D01*
X222Y35D02*
X241Y35D01*
X5469Y35D02*
X5488Y35D01*
X224Y34D02*
X244Y34D01*
X5466Y34D02*
X5486Y34D01*
X227Y33D02*
X246Y33D01*
X5464Y33D02*
X5483Y33D01*
X229Y32D02*
X249Y32D01*
X5461Y32D02*
X5481Y32D01*
X231Y31D02*
X252Y31D01*
X5458Y31D02*
X5479Y31D01*
X234Y30D02*
X254Y30D01*
X5456Y30D02*
X5476Y30D01*
X236Y29D02*
X257Y29D01*
X5453Y29D02*
X5474Y29D01*
X239Y28D02*
X260Y28D01*
X5450Y28D02*
X5471Y28D01*
X241Y27D02*
X263Y27D01*
X5447Y27D02*
X5469Y27D01*
X243Y26D02*
X266Y26D01*
X5444Y26D02*
X5467Y26D01*
X246Y25D02*
X270Y25D01*
X5440Y25D02*
X5464Y25D01*
X249Y24D02*
X273Y24D01*
X5437Y24D02*
X5461Y24D01*
X252Y23D02*
X276Y23D01*
X5434Y23D02*
X5458Y23D01*
X255Y22D02*
X280Y22D01*
X5430Y22D02*
X5455Y22D01*
X257Y21D02*
X283Y21D01*
X5427Y21D02*
X5453Y21D01*
X260Y20D02*
X287Y20D01*
X5423Y20D02*
X5450Y20D01*
X263Y19D02*
X291Y19D01*
X5419Y19D02*
X5447Y19D01*
X266Y18D02*
X296Y18D01*
X5414Y18D02*
X5444Y18D01*
X270Y17D02*
X301Y17D01*
X5409Y17D02*
X5440Y17D01*
X273Y16D02*
X306Y16D01*
X5404Y16D02*
X5437Y16D01*
X277Y15D02*
X311Y15D01*
X5399Y15D02*
X5433Y15D01*
X280Y14D02*
X317Y14D01*
X5393Y14D02*
X5430Y14D01*
X284Y13D02*
X324Y13D01*
X5386Y13D02*
X5426Y13D01*
X288Y12D02*
X331Y12D01*
X5379Y12D02*
X5422Y12D01*
X292Y11D02*
X341Y11D01*
X5369Y11D02*
X5418Y11D01*
X297Y10D02*
X355Y10D01*
X5355Y10D02*
X5413Y10D01*
X301Y9D02*
X5409Y9D01*
X306Y8D02*
X5404Y8D01*
X312Y7D02*
X5398Y7D01*
X317Y6D02*
X5393Y6D01*
X324Y5D02*
X5386Y5D01*
X332Y4D02*
X5378Y4D01*
X342Y3D02*
X5368Y3D01*
X355Y2D02*
X5355Y2D01*
D02*
G04 End of Silk0*
M02*