G04 MADE WITH FRITZING*
G04 WWW.FRITZING.ORG*
G04 DOUBLE SIDED*
G04 HOLES PLATED*
G04 CONTOUR ON CENTER OF CONTOUR VECTOR*
%ASAXBY*%
%FSLAX23Y23*%
%MOIN*%
%OFA0B0*%
%SFA1.0B1.0*%
%ADD10C,0.008*%
%LNCONTOUR*%
G90*
G70*
G54D10*
X355Y3068D02*
X356Y3068D01*
X357Y3068D01*
X358Y3068D01*
X359Y3068D01*
X360Y3068D01*
X361Y3068D01*
X362Y3068D01*
X363Y3068D01*
X364Y3068D01*
X365Y3068D01*
X366Y3068D01*
X367Y3068D01*
X368Y3068D01*
X369Y3068D01*
X370Y3068D01*
X371Y3068D01*
X372Y3068D01*
X373Y3068D01*
X374Y3068D01*
X375Y3068D01*
X376Y3068D01*
X377Y3068D01*
X378Y3068D01*
X379Y3068D01*
X380Y3068D01*
X381Y3068D01*
X382Y3068D01*
X383Y3068D01*
X384Y3068D01*
X385Y3068D01*
X386Y3068D01*
X387Y3068D01*
X388Y3068D01*
X389Y3068D01*
X390Y3068D01*
X391Y3068D01*
X392Y3068D01*
X393Y3068D01*
X394Y3068D01*
X395Y3068D01*
X396Y3068D01*
X397Y3068D01*
X398Y3068D01*
X399Y3068D01*
X400Y3068D01*
X401Y3068D01*
X402Y3068D01*
X403Y3068D01*
X404Y3068D01*
X405Y3068D01*
X406Y3068D01*
X407Y3068D01*
X408Y3068D01*
X409Y3068D01*
X410Y3068D01*
X411Y3068D01*
X412Y3068D01*
X413Y3068D01*
X414Y3068D01*
X415Y3068D01*
X416Y3068D01*
X417Y3068D01*
X418Y3068D01*
X419Y3068D01*
X420Y3068D01*
X421Y3068D01*
X422Y3068D01*
X423Y3068D01*
X424Y3068D01*
X425Y3068D01*
X426Y3068D01*
X427Y3068D01*
X428Y3068D01*
X429Y3068D01*
X430Y3068D01*
X431Y3068D01*
X432Y3068D01*
X433Y3068D01*
X434Y3068D01*
X435Y3068D01*
X436Y3068D01*
X437Y3068D01*
X438Y3068D01*
X439Y3068D01*
X440Y3068D01*
X441Y3068D01*
X442Y3068D01*
X443Y3068D01*
X444Y3068D01*
X445Y3068D01*
X446Y3068D01*
X447Y3068D01*
X448Y3068D01*
X449Y3068D01*
X450Y3068D01*
X451Y3068D01*
X452Y3068D01*
X453Y3068D01*
X454Y3068D01*
X455Y3068D01*
X456Y3068D01*
X457Y3068D01*
X458Y3068D01*
X459Y3068D01*
X460Y3068D01*
X461Y3068D01*
X462Y3068D01*
X463Y3068D01*
X464Y3068D01*
X465Y3068D01*
X466Y3068D01*
X467Y3068D01*
X468Y3068D01*
X469Y3068D01*
X470Y3068D01*
X471Y3068D01*
X472Y3068D01*
X473Y3068D01*
X474Y3068D01*
X475Y3068D01*
X476Y3068D01*
X477Y3068D01*
X478Y3068D01*
X479Y3068D01*
X480Y3068D01*
X481Y3068D01*
X482Y3068D01*
X483Y3068D01*
X484Y3068D01*
X485Y3068D01*
X486Y3068D01*
X487Y3068D01*
X488Y3068D01*
X489Y3068D01*
X490Y3068D01*
X491Y3068D01*
X492Y3068D01*
X493Y3068D01*
X494Y3068D01*
X495Y3068D01*
X496Y3068D01*
X497Y3068D01*
X498Y3068D01*
X499Y3068D01*
X500Y3068D01*
X501Y3068D01*
X502Y3068D01*
X503Y3068D01*
X504Y3068D01*
X505Y3068D01*
X506Y3068D01*
X507Y3068D01*
X508Y3068D01*
X509Y3068D01*
X510Y3068D01*
X511Y3068D01*
X512Y3068D01*
X513Y3068D01*
X514Y3068D01*
X515Y3068D01*
X516Y3068D01*
X517Y3068D01*
X518Y3068D01*
X519Y3068D01*
X520Y3068D01*
X521Y3068D01*
X522Y3068D01*
X523Y3068D01*
X524Y3068D01*
X525Y3068D01*
X526Y3068D01*
X527Y3068D01*
X528Y3068D01*
X529Y3068D01*
X530Y3068D01*
X531Y3068D01*
X532Y3068D01*
X533Y3068D01*
X534Y3068D01*
X535Y3068D01*
X536Y3068D01*
X537Y3068D01*
X538Y3068D01*
X539Y3068D01*
X540Y3068D01*
X541Y3068D01*
X542Y3068D01*
X543Y3068D01*
X544Y3068D01*
X545Y3068D01*
X546Y3068D01*
X547Y3068D01*
X548Y3068D01*
X549Y3068D01*
X550Y3068D01*
X551Y3068D01*
X552Y3068D01*
X553Y3068D01*
X554Y3068D01*
X555Y3068D01*
X556Y3068D01*
X557Y3068D01*
X558Y3068D01*
X559Y3068D01*
X560Y3068D01*
X561Y3068D01*
X562Y3068D01*
X563Y3068D01*
X564Y3068D01*
X565Y3068D01*
X566Y3068D01*
X567Y3068D01*
X568Y3068D01*
X569Y3068D01*
X570Y3068D01*
X571Y3068D01*
X572Y3068D01*
X573Y3068D01*
X574Y3068D01*
X575Y3068D01*
X576Y3068D01*
X577Y3068D01*
X578Y3068D01*
X579Y3068D01*
X580Y3068D01*
X581Y3068D01*
X582Y3068D01*
X583Y3068D01*
X584Y3068D01*
X585Y3068D01*
X586Y3068D01*
X587Y3068D01*
X588Y3068D01*
X589Y3068D01*
X590Y3068D01*
X591Y3068D01*
X592Y3068D01*
X593Y3068D01*
X594Y3068D01*
X595Y3068D01*
X596Y3068D01*
X597Y3068D01*
X598Y3068D01*
X599Y3068D01*
X600Y3068D01*
X601Y3068D01*
X602Y3068D01*
X603Y3068D01*
X604Y3068D01*
X605Y3068D01*
X606Y3068D01*
X607Y3068D01*
X608Y3068D01*
X609Y3068D01*
X610Y3068D01*
X611Y3068D01*
X612Y3068D01*
X613Y3068D01*
X614Y3068D01*
X615Y3068D01*
X616Y3068D01*
X617Y3068D01*
X618Y3068D01*
X619Y3068D01*
X620Y3068D01*
X621Y3068D01*
X622Y3068D01*
X623Y3068D01*
X624Y3068D01*
X625Y3068D01*
X626Y3068D01*
X627Y3068D01*
X628Y3068D01*
X629Y3068D01*
X630Y3068D01*
X631Y3068D01*
X632Y3068D01*
X633Y3068D01*
X634Y3068D01*
X635Y3068D01*
X636Y3068D01*
X637Y3068D01*
X638Y3068D01*
X639Y3068D01*
X640Y3068D01*
X641Y3068D01*
X642Y3068D01*
X643Y3068D01*
X644Y3068D01*
X645Y3068D01*
X646Y3068D01*
X647Y3068D01*
X648Y3068D01*
X649Y3068D01*
X650Y3068D01*
X651Y3068D01*
X652Y3068D01*
X653Y3068D01*
X654Y3068D01*
X655Y3068D01*
X656Y3068D01*
X657Y3068D01*
X658Y3068D01*
X659Y3068D01*
X660Y3068D01*
X661Y3068D01*
X662Y3068D01*
X663Y3068D01*
X664Y3068D01*
X665Y3068D01*
X666Y3068D01*
X667Y3068D01*
X668Y3068D01*
X669Y3068D01*
X670Y3068D01*
X671Y3068D01*
X672Y3068D01*
X673Y3068D01*
X674Y3068D01*
X675Y3068D01*
X676Y3068D01*
X677Y3068D01*
X678Y3068D01*
X679Y3068D01*
X680Y3068D01*
X681Y3068D01*
X682Y3068D01*
X683Y3068D01*
X684Y3068D01*
X685Y3068D01*
X686Y3068D01*
X687Y3068D01*
X688Y3068D01*
X689Y3068D01*
X690Y3068D01*
X691Y3068D01*
X692Y3068D01*
X693Y3068D01*
X694Y3068D01*
X695Y3068D01*
X696Y3068D01*
X697Y3068D01*
X698Y3068D01*
X699Y3068D01*
X700Y3068D01*
X701Y3068D01*
X702Y3068D01*
X703Y3068D01*
X704Y3068D01*
X705Y3068D01*
X706Y3068D01*
X707Y3068D01*
X708Y3068D01*
X709Y3068D01*
X710Y3068D01*
X711Y3068D01*
X712Y3068D01*
X713Y3068D01*
X714Y3068D01*
X715Y3068D01*
X716Y3068D01*
X717Y3068D01*
X718Y3068D01*
X719Y3068D01*
X720Y3068D01*
X721Y3068D01*
X722Y3068D01*
X723Y3068D01*
X724Y3068D01*
X725Y3068D01*
X726Y3068D01*
X727Y3068D01*
X728Y3068D01*
X729Y3068D01*
X730Y3068D01*
X731Y3068D01*
X732Y3068D01*
X733Y3068D01*
X734Y3068D01*
X735Y3068D01*
X736Y3068D01*
X737Y3068D01*
X738Y3068D01*
X739Y3068D01*
X740Y3068D01*
X741Y3068D01*
X742Y3068D01*
X743Y3068D01*
X744Y3068D01*
X745Y3068D01*
X746Y3068D01*
X747Y3068D01*
X748Y3068D01*
X749Y3068D01*
X750Y3068D01*
X751Y3068D01*
X752Y3068D01*
X753Y3068D01*
X754Y3068D01*
X755Y3068D01*
X756Y3068D01*
X757Y3068D01*
X758Y3068D01*
X759Y3068D01*
X760Y3068D01*
X761Y3068D01*
X762Y3068D01*
X763Y3068D01*
X764Y3068D01*
X765Y3068D01*
X766Y3068D01*
X767Y3068D01*
X768Y3068D01*
X769Y3068D01*
X770Y3068D01*
X771Y3068D01*
X772Y3068D01*
X773Y3068D01*
X774Y3068D01*
X775Y3068D01*
X776Y3068D01*
X777Y3068D01*
X778Y3068D01*
X779Y3068D01*
X780Y3068D01*
X781Y3068D01*
X782Y3068D01*
X783Y3068D01*
X784Y3068D01*
X785Y3068D01*
X786Y3068D01*
X787Y3068D01*
X788Y3068D01*
X789Y3068D01*
X790Y3068D01*
X791Y3068D01*
X792Y3068D01*
X793Y3068D01*
X794Y3068D01*
X795Y3068D01*
X796Y3068D01*
X797Y3068D01*
X798Y3068D01*
X799Y3068D01*
X800Y3068D01*
X801Y3068D01*
X802Y3068D01*
X803Y3068D01*
X804Y3068D01*
X805Y3068D01*
X806Y3068D01*
X807Y3068D01*
X808Y3068D01*
X809Y3068D01*
X810Y3068D01*
X811Y3068D01*
X812Y3068D01*
X813Y3068D01*
X814Y3068D01*
X815Y3068D01*
X816Y3068D01*
X817Y3068D01*
X818Y3068D01*
X819Y3068D01*
X820Y3068D01*
X821Y3068D01*
X822Y3068D01*
X823Y3068D01*
X824Y3068D01*
X825Y3068D01*
X826Y3068D01*
X827Y3068D01*
X828Y3068D01*
X829Y3068D01*
X830Y3068D01*
X831Y3068D01*
X832Y3068D01*
X833Y3068D01*
X834Y3068D01*
X835Y3068D01*
X836Y3068D01*
X837Y3068D01*
X838Y3068D01*
X839Y3068D01*
X840Y3068D01*
X841Y3068D01*
X842Y3068D01*
X843Y3068D01*
X844Y3068D01*
X845Y3068D01*
X846Y3068D01*
X847Y3068D01*
X848Y3068D01*
X849Y3068D01*
X850Y3068D01*
X851Y3068D01*
X852Y3068D01*
X853Y3068D01*
X854Y3068D01*
X855Y3068D01*
X856Y3068D01*
X857Y3068D01*
X858Y3068D01*
X859Y3068D01*
X860Y3068D01*
X861Y3068D01*
X862Y3068D01*
X863Y3068D01*
X864Y3068D01*
X865Y3068D01*
X866Y3068D01*
X867Y3068D01*
X868Y3068D01*
X869Y3068D01*
X870Y3068D01*
X871Y3068D01*
X872Y3068D01*
X873Y3068D01*
X874Y3068D01*
X875Y3068D01*
X876Y3068D01*
X877Y3068D01*
X878Y3068D01*
X879Y3068D01*
X880Y3068D01*
X881Y3068D01*
X882Y3068D01*
X883Y3068D01*
X884Y3068D01*
X885Y3068D01*
X886Y3068D01*
X887Y3068D01*
X888Y3068D01*
X889Y3068D01*
X890Y3068D01*
X891Y3068D01*
X892Y3068D01*
X893Y3068D01*
X894Y3068D01*
X895Y3068D01*
X896Y3068D01*
X897Y3068D01*
X898Y3068D01*
X899Y3068D01*
X900Y3068D01*
X901Y3068D01*
X902Y3068D01*
X903Y3068D01*
X904Y3068D01*
X905Y3068D01*
X906Y3068D01*
X907Y3068D01*
X908Y3068D01*
X909Y3068D01*
X910Y3068D01*
X911Y3068D01*
X912Y3068D01*
X913Y3068D01*
X914Y3068D01*
X915Y3068D01*
X916Y3068D01*
X917Y3068D01*
X918Y3068D01*
X919Y3068D01*
X920Y3068D01*
X921Y3068D01*
X922Y3068D01*
X923Y3068D01*
X924Y3068D01*
X925Y3068D01*
X926Y3068D01*
X927Y3068D01*
X928Y3068D01*
X929Y3068D01*
X930Y3068D01*
X931Y3068D01*
X932Y3068D01*
X933Y3068D01*
X934Y3068D01*
X935Y3068D01*
X936Y3068D01*
X937Y3068D01*
X938Y3068D01*
X939Y3068D01*
X940Y3068D01*
X941Y3068D01*
X942Y3068D01*
X943Y3068D01*
X944Y3068D01*
X945Y3068D01*
X946Y3068D01*
X947Y3068D01*
X948Y3068D01*
X949Y3068D01*
X950Y3068D01*
X951Y3068D01*
X952Y3068D01*
X953Y3068D01*
X954Y3068D01*
X955Y3068D01*
X956Y3068D01*
X957Y3068D01*
X958Y3068D01*
X959Y3068D01*
X960Y3068D01*
X961Y3068D01*
X962Y3068D01*
X963Y3068D01*
X964Y3068D01*
X965Y3068D01*
X966Y3068D01*
X967Y3068D01*
X968Y3068D01*
X969Y3068D01*
X970Y3068D01*
X971Y3068D01*
X972Y3068D01*
X973Y3068D01*
X974Y3068D01*
X975Y3068D01*
X976Y3068D01*
X977Y3068D01*
X978Y3068D01*
X979Y3068D01*
X980Y3068D01*
X981Y3068D01*
X982Y3068D01*
X983Y3068D01*
X984Y3068D01*
X985Y3068D01*
X986Y3068D01*
X987Y3068D01*
X988Y3068D01*
X989Y3068D01*
X990Y3068D01*
X991Y3068D01*
X992Y3068D01*
X993Y3068D01*
X994Y3068D01*
X995Y3068D01*
X996Y3068D01*
X997Y3068D01*
X998Y3068D01*
X999Y3068D01*
X1000Y3068D01*
X1001Y3068D01*
X1002Y3068D01*
X1003Y3068D01*
X1004Y3068D01*
X1005Y3068D01*
X1006Y3068D01*
X1007Y3068D01*
X1008Y3068D01*
X1009Y3068D01*
X1010Y3068D01*
X1011Y3068D01*
X1012Y3068D01*
X1013Y3068D01*
X1014Y3068D01*
X1015Y3068D01*
X1016Y3068D01*
X1017Y3068D01*
X1018Y3068D01*
X1019Y3068D01*
X1020Y3068D01*
X1021Y3068D01*
X1022Y3068D01*
X1023Y3068D01*
X1024Y3068D01*
X1025Y3068D01*
X1026Y3068D01*
X1027Y3068D01*
X1028Y3068D01*
X1029Y3068D01*
X1030Y3068D01*
X1031Y3068D01*
X1032Y3068D01*
X1033Y3068D01*
X1034Y3068D01*
X1035Y3068D01*
X1036Y3068D01*
X1037Y3068D01*
X1038Y3068D01*
X1039Y3068D01*
X1040Y3068D01*
X1041Y3068D01*
X1042Y3068D01*
X1043Y3068D01*
X1044Y3068D01*
X1045Y3068D01*
X1046Y3068D01*
X1047Y3068D01*
X1048Y3068D01*
X1049Y3068D01*
X1050Y3068D01*
X1051Y3068D01*
X1052Y3068D01*
X1053Y3068D01*
X1054Y3068D01*
X1055Y3068D01*
X1056Y3068D01*
X1057Y3068D01*
X1058Y3068D01*
X1059Y3068D01*
X1060Y3068D01*
X1061Y3068D01*
X1062Y3068D01*
X1063Y3068D01*
X1064Y3068D01*
X1065Y3068D01*
X1066Y3068D01*
X1067Y3068D01*
X1068Y3068D01*
X1069Y3068D01*
X1070Y3068D01*
X1071Y3068D01*
X1072Y3068D01*
X1073Y3068D01*
X1074Y3068D01*
X1075Y3068D01*
X1076Y3068D01*
X1077Y3068D01*
X1078Y3068D01*
X1079Y3068D01*
X1080Y3068D01*
X1081Y3068D01*
X1082Y3068D01*
X1083Y3068D01*
X1084Y3068D01*
X1085Y3068D01*
X1086Y3068D01*
X1087Y3068D01*
X1088Y3068D01*
X1089Y3068D01*
X1090Y3068D01*
X1091Y3068D01*
X1092Y3068D01*
X1093Y3068D01*
X1094Y3068D01*
X1095Y3068D01*
X1096Y3068D01*
X1097Y3068D01*
X1098Y3068D01*
X1099Y3068D01*
X1100Y3068D01*
X1101Y3068D01*
X1102Y3068D01*
X1103Y3068D01*
X1104Y3068D01*
X1105Y3068D01*
X1106Y3068D01*
X1107Y3068D01*
X1108Y3068D01*
X1109Y3068D01*
X1110Y3068D01*
X1111Y3068D01*
X1112Y3068D01*
X1113Y3068D01*
X1114Y3068D01*
X1115Y3068D01*
X1116Y3068D01*
X1117Y3068D01*
X1118Y3068D01*
X1119Y3068D01*
X1120Y3068D01*
X1121Y3068D01*
X1122Y3068D01*
X1123Y3068D01*
X1124Y3068D01*
X1125Y3068D01*
X1126Y3068D01*
X1127Y3068D01*
X1128Y3068D01*
X1129Y3068D01*
X1130Y3068D01*
X1131Y3068D01*
X1132Y3068D01*
X1133Y3068D01*
X1134Y3068D01*
X1135Y3068D01*
X1136Y3068D01*
X1137Y3068D01*
X1138Y3068D01*
X1139Y3068D01*
X1140Y3068D01*
X1141Y3068D01*
X1142Y3068D01*
X1143Y3068D01*
X1144Y3068D01*
X1145Y3068D01*
X1146Y3068D01*
X1147Y3068D01*
X1148Y3068D01*
X1149Y3068D01*
X1150Y3068D01*
X1151Y3068D01*
X1152Y3068D01*
X1153Y3068D01*
X1154Y3068D01*
X1155Y3068D01*
X1156Y3068D01*
X1157Y3068D01*
X1158Y3068D01*
X1159Y3068D01*
X1160Y3068D01*
X1161Y3068D01*
X1162Y3068D01*
X1163Y3068D01*
X1164Y3068D01*
X1165Y3068D01*
X1166Y3068D01*
X1167Y3068D01*
X1168Y3068D01*
X1169Y3068D01*
X1170Y3068D01*
X1171Y3068D01*
X1172Y3068D01*
X1173Y3068D01*
X1174Y3068D01*
X1175Y3068D01*
X1176Y3068D01*
X1177Y3068D01*
X1178Y3068D01*
X1179Y3068D01*
X1180Y3068D01*
X1181Y3068D01*
X1182Y3068D01*
X1183Y3068D01*
X1184Y3068D01*
X1185Y3068D01*
X1186Y3068D01*
X1187Y3068D01*
X1188Y3068D01*
X1189Y3068D01*
X1190Y3068D01*
X1191Y3068D01*
X1192Y3068D01*
X1193Y3068D01*
X1194Y3068D01*
X1195Y3068D01*
X1196Y3068D01*
X1197Y3068D01*
X1198Y3068D01*
X1199Y3068D01*
X1200Y3068D01*
X1201Y3068D01*
X1202Y3068D01*
X1203Y3068D01*
X1204Y3068D01*
X1205Y3068D01*
X1206Y3068D01*
X1207Y3068D01*
X1208Y3068D01*
X1209Y3068D01*
X1210Y3068D01*
X1211Y3068D01*
X1212Y3068D01*
X1213Y3068D01*
X1214Y3068D01*
X1215Y3068D01*
X1216Y3068D01*
X1217Y3068D01*
X1218Y3068D01*
X1219Y3068D01*
X1220Y3068D01*
X1221Y3068D01*
X1222Y3068D01*
X1223Y3068D01*
X1224Y3068D01*
X1225Y3068D01*
X1226Y3068D01*
X1227Y3068D01*
X1228Y3068D01*
X1229Y3068D01*
X1230Y3068D01*
X1231Y3068D01*
X1232Y3068D01*
X1233Y3068D01*
X1234Y3068D01*
X1235Y3068D01*
X1236Y3068D01*
X1237Y3068D01*
X1238Y3068D01*
X1239Y3068D01*
X1240Y3068D01*
X1241Y3068D01*
X1242Y3068D01*
X1243Y3068D01*
X1244Y3068D01*
X1245Y3068D01*
X1246Y3068D01*
X1247Y3068D01*
X1248Y3068D01*
X1249Y3068D01*
X1250Y3068D01*
X1251Y3068D01*
X1252Y3068D01*
X1253Y3068D01*
X1254Y3068D01*
X1255Y3068D01*
X1256Y3068D01*
X1257Y3068D01*
X1258Y3068D01*
X1259Y3068D01*
X1260Y3068D01*
X1261Y3068D01*
X1262Y3068D01*
X1263Y3068D01*
X1264Y3068D01*
X1265Y3068D01*
X1266Y3068D01*
X1267Y3068D01*
X1268Y3068D01*
X1269Y3068D01*
X1270Y3068D01*
X1271Y3068D01*
X1272Y3068D01*
X1273Y3068D01*
X1274Y3068D01*
X1275Y3068D01*
X1276Y3068D01*
X1277Y3068D01*
X1278Y3068D01*
X1279Y3068D01*
X1280Y3068D01*
X1281Y3068D01*
X1282Y3068D01*
X1283Y3068D01*
X1284Y3068D01*
X1285Y3068D01*
X1286Y3068D01*
X1287Y3068D01*
X1288Y3068D01*
X1289Y3068D01*
X1290Y3068D01*
X1291Y3068D01*
X1292Y3068D01*
X1293Y3068D01*
X1294Y3068D01*
X1295Y3068D01*
X1296Y3068D01*
X1297Y3068D01*
X1298Y3068D01*
X1299Y3068D01*
X1300Y3068D01*
X1301Y3068D01*
X1302Y3068D01*
X1303Y3068D01*
X1304Y3068D01*
X1305Y3068D01*
X1306Y3068D01*
X1307Y3068D01*
X1308Y3068D01*
X1309Y3068D01*
X1310Y3068D01*
X1311Y3068D01*
X1312Y3068D01*
X1313Y3068D01*
X1314Y3068D01*
X1315Y3068D01*
X1316Y3068D01*
X1317Y3068D01*
X1318Y3068D01*
X1319Y3068D01*
X1320Y3068D01*
X1321Y3068D01*
X1322Y3068D01*
X1323Y3068D01*
X1324Y3068D01*
X1325Y3068D01*
X1326Y3068D01*
X1327Y3068D01*
X1328Y3068D01*
X1329Y3068D01*
X1330Y3068D01*
X1331Y3068D01*
X1332Y3068D01*
X1333Y3068D01*
X1334Y3068D01*
X1335Y3068D01*
X1336Y3068D01*
X1337Y3068D01*
X1338Y3068D01*
X1339Y3068D01*
X1340Y3068D01*
X1341Y3068D01*
X1342Y3068D01*
X1343Y3068D01*
X1344Y3068D01*
X1345Y3068D01*
X1346Y3068D01*
X1347Y3068D01*
X1348Y3068D01*
X1349Y3068D01*
X1350Y3068D01*
X1351Y3068D01*
X1352Y3068D01*
X1353Y3068D01*
X1354Y3068D01*
X1355Y3068D01*
X1356Y3068D01*
X1357Y3068D01*
X1358Y3068D01*
X1359Y3068D01*
X1360Y3068D01*
X1361Y3068D01*
X1362Y3068D01*
X1363Y3068D01*
X1364Y3068D01*
X1365Y3068D01*
X1366Y3068D01*
X1367Y3068D01*
X1368Y3068D01*
X1369Y3068D01*
X1370Y3068D01*
X1371Y3068D01*
X1372Y3068D01*
X1373Y3068D01*
X1374Y3068D01*
X1375Y3068D01*
X1376Y3068D01*
X1377Y3068D01*
X1378Y3068D01*
X1379Y3068D01*
X1380Y3068D01*
X1381Y3068D01*
X1382Y3068D01*
X1383Y3068D01*
X1384Y3068D01*
X1385Y3068D01*
X1386Y3068D01*
X1387Y3068D01*
X1388Y3068D01*
X1389Y3068D01*
X1390Y3068D01*
X1391Y3068D01*
X1392Y3068D01*
X1393Y3068D01*
X1394Y3068D01*
X1395Y3068D01*
X1396Y3068D01*
X1397Y3068D01*
X1398Y3068D01*
X1399Y3068D01*
X1400Y3068D01*
X1401Y3068D01*
X1402Y3068D01*
X1403Y3068D01*
X1404Y3068D01*
X1405Y3068D01*
X1406Y3068D01*
X1407Y3068D01*
X1408Y3068D01*
X1409Y3068D01*
X1410Y3068D01*
X1411Y3068D01*
X1412Y3068D01*
X1413Y3068D01*
X1414Y3068D01*
X1415Y3068D01*
X1416Y3068D01*
X1417Y3068D01*
X1418Y3068D01*
X1419Y3068D01*
X1420Y3068D01*
X1421Y3068D01*
X1422Y3068D01*
X1423Y3068D01*
X1424Y3068D01*
X1425Y3068D01*
X1426Y3068D01*
X1427Y3068D01*
X1428Y3068D01*
X1429Y3068D01*
X1430Y3068D01*
X1431Y3068D01*
X1432Y3068D01*
X1433Y3068D01*
X1434Y3068D01*
X1435Y3068D01*
X1436Y3068D01*
X1437Y3068D01*
X1438Y3068D01*
X1439Y3068D01*
X1440Y3068D01*
X1441Y3068D01*
X1442Y3068D01*
X1443Y3068D01*
X1444Y3068D01*
X1445Y3068D01*
X1446Y3068D01*
X1447Y3068D01*
X1448Y3068D01*
X1449Y3068D01*
X1450Y3068D01*
X1451Y3068D01*
X1452Y3068D01*
X1453Y3068D01*
X1454Y3068D01*
X1455Y3068D01*
X1456Y3068D01*
X1457Y3068D01*
X1458Y3068D01*
X1459Y3068D01*
X1460Y3068D01*
X1461Y3068D01*
X1462Y3068D01*
X1463Y3068D01*
X1464Y3068D01*
X1465Y3068D01*
X1466Y3068D01*
X1467Y3068D01*
X1468Y3068D01*
X1469Y3068D01*
X1470Y3068D01*
X1471Y3068D01*
X1472Y3068D01*
X1473Y3068D01*
X1474Y3068D01*
X1475Y3068D01*
X1476Y3068D01*
X1477Y3068D01*
X1478Y3068D01*
X1479Y3068D01*
X1480Y3068D01*
X1481Y3068D01*
X1482Y3068D01*
X1483Y3068D01*
X1484Y3068D01*
X1485Y3068D01*
X1486Y3068D01*
X1487Y3068D01*
X1488Y3068D01*
X1489Y3068D01*
X1490Y3068D01*
X1491Y3068D01*
X1492Y3068D01*
X1493Y3068D01*
X1494Y3068D01*
X1495Y3068D01*
X1496Y3068D01*
X1497Y3068D01*
X1498Y3068D01*
X1499Y3068D01*
X1500Y3068D01*
X1501Y3068D01*
X1502Y3068D01*
X1503Y3068D01*
X1504Y3068D01*
X1505Y3068D01*
X1506Y3068D01*
X1507Y3068D01*
X1508Y3068D01*
X1509Y3068D01*
X1510Y3068D01*
X1511Y3068D01*
X1512Y3068D01*
X1513Y3068D01*
X1514Y3068D01*
X1515Y3068D01*
X1516Y3068D01*
X1517Y3068D01*
X1518Y3068D01*
X1519Y3068D01*
X1520Y3068D01*
X1521Y3068D01*
X1522Y3068D01*
X1523Y3068D01*
X1524Y3068D01*
X1525Y3068D01*
X1526Y3068D01*
X1527Y3068D01*
X1528Y3068D01*
X1529Y3068D01*
X1530Y3068D01*
X1531Y3068D01*
X1532Y3068D01*
X1533Y3068D01*
X1534Y3068D01*
X1535Y3068D01*
X1536Y3068D01*
X1537Y3068D01*
X1538Y3068D01*
X1539Y3068D01*
X1540Y3068D01*
X1541Y3068D01*
X1542Y3068D01*
X1543Y3068D01*
X1544Y3068D01*
X1545Y3068D01*
X1546Y3068D01*
X1547Y3068D01*
X1548Y3068D01*
X1549Y3068D01*
X1550Y3068D01*
X1551Y3068D01*
X1552Y3068D01*
X1553Y3068D01*
X1554Y3068D01*
X1555Y3068D01*
X1556Y3068D01*
X1557Y3068D01*
X1558Y3068D01*
X1559Y3068D01*
X1560Y3068D01*
X1561Y3068D01*
X1562Y3068D01*
X1563Y3068D01*
X1564Y3068D01*
X1565Y3068D01*
X1566Y3068D01*
X1567Y3068D01*
X1568Y3068D01*
X1569Y3068D01*
X1570Y3068D01*
X1571Y3068D01*
X1572Y3068D01*
X1573Y3068D01*
X1574Y3068D01*
X1575Y3068D01*
X1576Y3068D01*
X1577Y3068D01*
X1578Y3068D01*
X1579Y3068D01*
X1580Y3068D01*
X1581Y3068D01*
X1582Y3068D01*
X1583Y3068D01*
X1584Y3068D01*
X1585Y3068D01*
X1586Y3068D01*
X1587Y3068D01*
X1588Y3068D01*
X1589Y3068D01*
X1590Y3068D01*
X1591Y3068D01*
X1592Y3068D01*
X1593Y3068D01*
X1594Y3068D01*
X1595Y3068D01*
X1596Y3068D01*
X1597Y3068D01*
X1598Y3068D01*
X1599Y3068D01*
X1600Y3068D01*
X1601Y3068D01*
X1602Y3068D01*
X1603Y3068D01*
X1604Y3068D01*
X1605Y3068D01*
X1606Y3068D01*
X1607Y3068D01*
X1608Y3068D01*
X1609Y3068D01*
X1610Y3068D01*
X1611Y3068D01*
X1612Y3068D01*
X1613Y3068D01*
X1614Y3068D01*
X1615Y3068D01*
X1616Y3068D01*
X1617Y3068D01*
X1618Y3068D01*
X1619Y3068D01*
X1620Y3068D01*
X1621Y3068D01*
X1622Y3068D01*
X1623Y3068D01*
X1624Y3068D01*
X1625Y3068D01*
X1626Y3068D01*
X1627Y3068D01*
X1628Y3068D01*
X1629Y3068D01*
X1630Y3068D01*
X1631Y3068D01*
X1632Y3068D01*
X1633Y3068D01*
X1634Y3068D01*
X1635Y3068D01*
X1636Y3068D01*
X1637Y3068D01*
X1638Y3068D01*
X1639Y3068D01*
X1640Y3068D01*
X1641Y3068D01*
X1642Y3068D01*
X1643Y3068D01*
X1644Y3068D01*
X1645Y3068D01*
X1646Y3068D01*
X1647Y3068D01*
X1648Y3068D01*
X1649Y3068D01*
X1650Y3068D01*
X1651Y3068D01*
X1652Y3068D01*
X1653Y3068D01*
X1654Y3068D01*
X1655Y3068D01*
X1656Y3068D01*
X1657Y3068D01*
X1658Y3068D01*
X1659Y3068D01*
X1660Y3068D01*
X1661Y3068D01*
X1662Y3068D01*
X1663Y3068D01*
X1664Y3068D01*
X1665Y3068D01*
X1666Y3068D01*
X1667Y3068D01*
X1668Y3068D01*
X1669Y3068D01*
X1670Y3068D01*
X1671Y3068D01*
X1672Y3068D01*
X1673Y3068D01*
X1674Y3068D01*
X1675Y3068D01*
X1676Y3068D01*
X1677Y3068D01*
X1678Y3068D01*
X1679Y3068D01*
X1680Y3068D01*
X1681Y3068D01*
X1682Y3068D01*
X1683Y3068D01*
X1684Y3068D01*
X1685Y3068D01*
X1686Y3068D01*
X1687Y3068D01*
X1688Y3068D01*
X1689Y3068D01*
X1690Y3068D01*
X1691Y3068D01*
X1692Y3068D01*
X1693Y3068D01*
X1694Y3068D01*
X1695Y3068D01*
X1696Y3068D01*
X1697Y3068D01*
X1698Y3068D01*
X1699Y3068D01*
X1700Y3068D01*
X1701Y3068D01*
X1702Y3068D01*
X1703Y3068D01*
X1704Y3068D01*
X1705Y3068D01*
X1706Y3068D01*
X1707Y3068D01*
X1708Y3068D01*
X1709Y3068D01*
X1710Y3068D01*
X1711Y3068D01*
X1712Y3068D01*
X1713Y3068D01*
X1714Y3068D01*
X1715Y3068D01*
X1716Y3068D01*
X1717Y3068D01*
X1718Y3068D01*
X1719Y3068D01*
X1720Y3068D01*
X1721Y3068D01*
X1722Y3068D01*
X1723Y3068D01*
X1724Y3068D01*
X1725Y3068D01*
X1726Y3068D01*
X1727Y3068D01*
X1728Y3068D01*
X1729Y3068D01*
X1730Y3068D01*
X1731Y3068D01*
X1732Y3068D01*
X1733Y3068D01*
X1734Y3068D01*
X1735Y3068D01*
X1736Y3068D01*
X1737Y3068D01*
X1738Y3068D01*
X1739Y3068D01*
X1740Y3068D01*
X1741Y3068D01*
X1742Y3068D01*
X1743Y3068D01*
X1744Y3068D01*
X1745Y3068D01*
X1746Y3068D01*
X1747Y3068D01*
X1748Y3068D01*
X1749Y3068D01*
X1750Y3068D01*
X1751Y3068D01*
X1752Y3068D01*
X1753Y3068D01*
X1754Y3068D01*
X1755Y3068D01*
X1756Y3068D01*
X1757Y3068D01*
X1758Y3068D01*
X1759Y3068D01*
X1760Y3068D01*
X1761Y3068D01*
X1762Y3068D01*
X1763Y3068D01*
X1764Y3068D01*
X1765Y3068D01*
X1766Y3068D01*
X1767Y3068D01*
X1768Y3068D01*
X1769Y3068D01*
X1770Y3068D01*
X1771Y3068D01*
X1772Y3068D01*
X1773Y3068D01*
X1774Y3068D01*
X1775Y3068D01*
X1776Y3068D01*
X1777Y3068D01*
X1778Y3068D01*
X1779Y3068D01*
X1780Y3068D01*
X1781Y3068D01*
X1782Y3068D01*
X1783Y3068D01*
X1784Y3068D01*
X1785Y3068D01*
X1786Y3068D01*
X1787Y3068D01*
X1788Y3068D01*
X1789Y3068D01*
X1790Y3068D01*
X1791Y3068D01*
X1792Y3068D01*
X1793Y3068D01*
X1794Y3068D01*
X1795Y3068D01*
X1796Y3068D01*
X1797Y3068D01*
X1798Y3068D01*
X1799Y3068D01*
X1800Y3068D01*
X1801Y3068D01*
X1802Y3068D01*
X1803Y3068D01*
X1804Y3068D01*
X1805Y3068D01*
X1806Y3068D01*
X1807Y3068D01*
X1808Y3068D01*
X1809Y3068D01*
X1810Y3068D01*
X1811Y3068D01*
X1812Y3068D01*
X1813Y3068D01*
X1814Y3068D01*
X1815Y3068D01*
X1816Y3068D01*
X1817Y3068D01*
X1818Y3068D01*
X1819Y3068D01*
X1820Y3068D01*
X1821Y3068D01*
X1822Y3068D01*
X1823Y3068D01*
X1824Y3068D01*
X1825Y3068D01*
X1826Y3068D01*
X1827Y3068D01*
X1828Y3068D01*
X1829Y3068D01*
X1830Y3068D01*
X1831Y3068D01*
X1832Y3068D01*
X1833Y3068D01*
X1834Y3068D01*
X1835Y3068D01*
X1836Y3068D01*
X1837Y3068D01*
X1838Y3068D01*
X1839Y3068D01*
X1840Y3068D01*
X1841Y3068D01*
X1842Y3068D01*
X1843Y3068D01*
X1844Y3068D01*
X1845Y3068D01*
X1846Y3068D01*
X1847Y3068D01*
X1848Y3068D01*
X1849Y3068D01*
X1850Y3068D01*
X1851Y3068D01*
X1852Y3068D01*
X1853Y3068D01*
X1854Y3068D01*
X1855Y3068D01*
X1856Y3068D01*
X1857Y3068D01*
X1858Y3068D01*
X1859Y3068D01*
X1860Y3068D01*
X1861Y3068D01*
X1862Y3068D01*
X1863Y3068D01*
X1864Y3068D01*
X1865Y3068D01*
X1866Y3068D01*
X1867Y3068D01*
X1868Y3068D01*
X1869Y3068D01*
X1870Y3068D01*
X1871Y3068D01*
X1872Y3068D01*
X1873Y3068D01*
X1874Y3068D01*
X1875Y3068D01*
X1876Y3068D01*
X1877Y3068D01*
X1878Y3068D01*
X1879Y3068D01*
X1880Y3068D01*
X1881Y3068D01*
X1882Y3068D01*
X1883Y3068D01*
X1884Y3068D01*
X1885Y3068D01*
X1886Y3068D01*
X1887Y3068D01*
X1888Y3068D01*
X1889Y3068D01*
X1890Y3068D01*
X1891Y3068D01*
X1892Y3068D01*
X1893Y3068D01*
X1894Y3068D01*
X1895Y3068D01*
X1896Y3068D01*
X1897Y3068D01*
X1898Y3068D01*
X1899Y3068D01*
X1900Y3068D01*
X1901Y3068D01*
X1902Y3068D01*
X1903Y3068D01*
X1904Y3068D01*
X1905Y3068D01*
X1906Y3068D01*
X1907Y3068D01*
X1908Y3068D01*
X1909Y3068D01*
X1910Y3068D01*
X1911Y3068D01*
X1912Y3068D01*
X1913Y3068D01*
X1914Y3068D01*
X1915Y3068D01*
X1916Y3068D01*
X1917Y3068D01*
X1918Y3068D01*
X1919Y3068D01*
X1920Y3068D01*
X1921Y3068D01*
X1922Y3068D01*
X1923Y3068D01*
X1924Y3068D01*
X1925Y3068D01*
X1926Y3068D01*
X1927Y3068D01*
X1928Y3068D01*
X1929Y3068D01*
X1930Y3068D01*
X1931Y3068D01*
X1932Y3068D01*
X1933Y3068D01*
X1934Y3068D01*
X1935Y3068D01*
X1936Y3068D01*
X1937Y3068D01*
X1938Y3068D01*
X1939Y3068D01*
X1940Y3068D01*
X1941Y3068D01*
X1942Y3068D01*
X1943Y3068D01*
X1944Y3068D01*
X1945Y3068D01*
X1946Y3068D01*
X1947Y3068D01*
X1948Y3068D01*
X1949Y3068D01*
X1950Y3068D01*
X1951Y3068D01*
X1952Y3068D01*
X1953Y3068D01*
X1954Y3068D01*
X1955Y3068D01*
X1956Y3068D01*
X1957Y3068D01*
X1958Y3068D01*
X1959Y3068D01*
X1960Y3068D01*
X1961Y3068D01*
X1962Y3068D01*
X1963Y3068D01*
X1964Y3068D01*
X1965Y3068D01*
X1966Y3068D01*
X1967Y3068D01*
X1968Y3068D01*
X1969Y3068D01*
X1970Y3068D01*
X1971Y3068D01*
X1972Y3068D01*
X1973Y3068D01*
X1974Y3068D01*
X1975Y3068D01*
X1976Y3068D01*
X1977Y3068D01*
X1978Y3068D01*
X1979Y3068D01*
X1980Y3068D01*
X1981Y3068D01*
X1982Y3068D01*
X1983Y3068D01*
X1984Y3068D01*
X1985Y3068D01*
X1986Y3068D01*
X1987Y3068D01*
X1988Y3068D01*
X1989Y3068D01*
X1990Y3068D01*
X1991Y3068D01*
X1992Y3068D01*
X1993Y3068D01*
X1994Y3068D01*
X1995Y3068D01*
X1996Y3068D01*
X1997Y3068D01*
X1998Y3068D01*
X1999Y3068D01*
X2000Y3068D01*
X2001Y3068D01*
X2002Y3068D01*
X2003Y3068D01*
X2004Y3068D01*
X2005Y3068D01*
X2006Y3068D01*
X2007Y3068D01*
X2008Y3068D01*
X2009Y3068D01*
X2010Y3068D01*
X2011Y3068D01*
X2012Y3068D01*
X2013Y3068D01*
X2014Y3068D01*
X2015Y3068D01*
X2016Y3068D01*
X2017Y3068D01*
X2018Y3068D01*
X2019Y3068D01*
X2020Y3068D01*
X2021Y3068D01*
X2022Y3068D01*
X2023Y3068D01*
X2024Y3068D01*
X2025Y3068D01*
X2026Y3068D01*
X2027Y3068D01*
X2028Y3068D01*
X2029Y3068D01*
X2030Y3068D01*
X2031Y3068D01*
X2032Y3068D01*
X2033Y3068D01*
X2034Y3068D01*
X2035Y3068D01*
X2036Y3068D01*
X2037Y3068D01*
X2038Y3068D01*
X2039Y3068D01*
X2040Y3068D01*
X2041Y3068D01*
X2042Y3068D01*
X2043Y3068D01*
X2044Y3068D01*
X2045Y3068D01*
X2046Y3068D01*
X2047Y3068D01*
X2048Y3068D01*
X2049Y3068D01*
X2050Y3068D01*
X2051Y3068D01*
X2052Y3068D01*
X2053Y3068D01*
X2054Y3068D01*
X2055Y3068D01*
X2056Y3068D01*
X2057Y3068D01*
X2058Y3068D01*
X2059Y3068D01*
X2060Y3068D01*
X2061Y3068D01*
X2062Y3068D01*
X2063Y3068D01*
X2064Y3068D01*
X2065Y3068D01*
X2066Y3068D01*
X2067Y3068D01*
X2068Y3068D01*
X2069Y3068D01*
X2070Y3068D01*
X2071Y3068D01*
X2072Y3068D01*
X2073Y3068D01*
X2074Y3068D01*
X2075Y3068D01*
X2076Y3068D01*
X2077Y3068D01*
X2078Y3068D01*
X2079Y3068D01*
X2080Y3068D01*
X2081Y3068D01*
X2082Y3068D01*
X2083Y3068D01*
X2084Y3068D01*
X2085Y3068D01*
X2086Y3068D01*
X2087Y3068D01*
X2088Y3068D01*
X2089Y3068D01*
X2090Y3068D01*
X2091Y3068D01*
X2092Y3068D01*
X2093Y3068D01*
X2094Y3068D01*
X2095Y3068D01*
X2096Y3068D01*
X2097Y3068D01*
X2098Y3068D01*
X2099Y3068D01*
X2100Y3068D01*
X2101Y3068D01*
X2102Y3068D01*
X2103Y3068D01*
X2104Y3068D01*
X2105Y3068D01*
X2106Y3068D01*
X2107Y3068D01*
X2108Y3068D01*
X2109Y3068D01*
X2110Y3068D01*
X2111Y3068D01*
X2112Y3068D01*
X2113Y3068D01*
X2114Y3068D01*
X2115Y3068D01*
X2116Y3068D01*
X2117Y3068D01*
X2118Y3068D01*
X2119Y3068D01*
X2120Y3068D01*
X2121Y3068D01*
X2122Y3068D01*
X2123Y3068D01*
X2124Y3068D01*
X2125Y3068D01*
X2126Y3068D01*
X2127Y3068D01*
X2128Y3068D01*
X2129Y3068D01*
X2130Y3068D01*
X2131Y3068D01*
X2132Y3068D01*
X2133Y3068D01*
X2134Y3068D01*
X2135Y3068D01*
X2136Y3068D01*
X2137Y3068D01*
X2138Y3068D01*
X2139Y3068D01*
X2140Y3068D01*
X2141Y3068D01*
X2142Y3068D01*
X2143Y3068D01*
X2144Y3068D01*
X2145Y3068D01*
X2146Y3068D01*
X2147Y3068D01*
X2148Y3068D01*
X2149Y3068D01*
X2150Y3068D01*
X2151Y3068D01*
X2152Y3068D01*
X2153Y3068D01*
X2154Y3068D01*
X2155Y3068D01*
X2156Y3068D01*
X2157Y3068D01*
X2158Y3068D01*
X2159Y3068D01*
X2160Y3068D01*
X2161Y3068D01*
X2162Y3068D01*
X2163Y3068D01*
X2164Y3068D01*
X2165Y3068D01*
X2166Y3068D01*
X2167Y3068D01*
X2168Y3068D01*
X2169Y3068D01*
X2170Y3068D01*
X2171Y3068D01*
X2172Y3068D01*
X2173Y3068D01*
X2174Y3068D01*
X2175Y3068D01*
X2176Y3068D01*
X2177Y3068D01*
X2178Y3068D01*
X2179Y3068D01*
X2180Y3068D01*
X2181Y3068D01*
X2182Y3068D01*
X2183Y3068D01*
X2184Y3068D01*
X2185Y3068D01*
X2186Y3068D01*
X2187Y3068D01*
X2188Y3068D01*
X2189Y3068D01*
X2190Y3068D01*
X2191Y3068D01*
X2192Y3068D01*
X2193Y3068D01*
X2194Y3068D01*
X2195Y3068D01*
X2196Y3068D01*
X2197Y3068D01*
X2198Y3068D01*
X2199Y3068D01*
X2200Y3068D01*
X2201Y3068D01*
X2202Y3068D01*
X2203Y3068D01*
X2204Y3068D01*
X2205Y3068D01*
X2206Y3068D01*
X2207Y3068D01*
X2208Y3068D01*
X2209Y3068D01*
X2210Y3068D01*
X2211Y3068D01*
X2212Y3068D01*
X2213Y3068D01*
X2214Y3068D01*
X2215Y3068D01*
X2216Y3068D01*
X2217Y3068D01*
X2218Y3068D01*
X2219Y3068D01*
X2220Y3068D01*
X2221Y3068D01*
X2222Y3068D01*
X2223Y3068D01*
X2224Y3068D01*
X2225Y3068D01*
X2226Y3068D01*
X2227Y3068D01*
X2228Y3068D01*
X2229Y3068D01*
X2230Y3068D01*
X2231Y3068D01*
X2232Y3068D01*
X2233Y3068D01*
X2234Y3068D01*
X2235Y3068D01*
X2236Y3068D01*
X2237Y3068D01*
X2238Y3068D01*
X2239Y3068D01*
X2240Y3068D01*
X2241Y3068D01*
X2242Y3068D01*
X2243Y3068D01*
X2244Y3068D01*
X2245Y3068D01*
X2246Y3068D01*
X2247Y3068D01*
X2248Y3068D01*
X2249Y3068D01*
X2250Y3068D01*
X2251Y3068D01*
X2252Y3068D01*
X2253Y3068D01*
X2254Y3068D01*
X2255Y3068D01*
X2256Y3068D01*
X2257Y3068D01*
X2258Y3068D01*
X2259Y3068D01*
X2260Y3068D01*
X2261Y3068D01*
X2262Y3068D01*
X2263Y3068D01*
X2264Y3068D01*
X2265Y3068D01*
X2266Y3068D01*
X2267Y3068D01*
X2268Y3068D01*
X2269Y3068D01*
X2270Y3068D01*
X2271Y3068D01*
X2272Y3068D01*
X2273Y3068D01*
X2274Y3068D01*
X2275Y3068D01*
X2276Y3068D01*
X2277Y3068D01*
X2278Y3068D01*
X2279Y3068D01*
X2280Y3068D01*
X2281Y3068D01*
X2282Y3068D01*
X2283Y3068D01*
X2284Y3068D01*
X2285Y3068D01*
X2286Y3068D01*
X2287Y3068D01*
X2288Y3068D01*
X2289Y3068D01*
X2290Y3068D01*
X2291Y3068D01*
X2292Y3068D01*
X2293Y3068D01*
X2294Y3068D01*
X2295Y3068D01*
X2296Y3068D01*
X2297Y3068D01*
X2298Y3068D01*
X2299Y3068D01*
X2300Y3068D01*
X2301Y3068D01*
X2302Y3068D01*
X2303Y3068D01*
X2304Y3068D01*
X2305Y3068D01*
X2306Y3068D01*
X2307Y3068D01*
X2308Y3068D01*
X2309Y3068D01*
X2310Y3068D01*
X2311Y3068D01*
X2312Y3068D01*
X2313Y3068D01*
X2314Y3068D01*
X2315Y3068D01*
X2316Y3068D01*
X2317Y3068D01*
X2318Y3068D01*
X2319Y3068D01*
X2320Y3068D01*
X2321Y3068D01*
X2322Y3068D01*
X2323Y3068D01*
X2324Y3068D01*
X2325Y3068D01*
X2326Y3068D01*
X2327Y3068D01*
X2328Y3068D01*
X2329Y3068D01*
X2330Y3068D01*
X2331Y3068D01*
X2332Y3068D01*
X2333Y3068D01*
X2334Y3068D01*
X2335Y3068D01*
X2336Y3068D01*
X2337Y3068D01*
X2338Y3068D01*
X2339Y3068D01*
X2340Y3068D01*
X2341Y3068D01*
X2342Y3068D01*
X2343Y3068D01*
X2344Y3068D01*
X2345Y3068D01*
X2346Y3068D01*
X2347Y3068D01*
X2348Y3068D01*
X2349Y3068D01*
X2350Y3068D01*
X2351Y3068D01*
X2352Y3068D01*
X2353Y3068D01*
X2354Y3068D01*
X2355Y3068D01*
X2356Y3068D01*
X2357Y3068D01*
X2358Y3068D01*
X2359Y3068D01*
X2360Y3068D01*
X2361Y3068D01*
X2362Y3068D01*
X2363Y3068D01*
X2364Y3068D01*
X2365Y3068D01*
X2366Y3068D01*
X2367Y3068D01*
X2368Y3068D01*
X2369Y3068D01*
X2370Y3068D01*
X2371Y3068D01*
X2372Y3068D01*
X2373Y3068D01*
X2374Y3068D01*
X2375Y3068D01*
X2376Y3068D01*
X2377Y3068D01*
X2378Y3068D01*
X2379Y3068D01*
X2380Y3068D01*
X2381Y3068D01*
X2382Y3068D01*
X2383Y3068D01*
X2384Y3068D01*
X2385Y3068D01*
X2386Y3068D01*
X2387Y3068D01*
X2388Y3068D01*
X2389Y3068D01*
X2390Y3068D01*
X2391Y3068D01*
X2392Y3068D01*
X2393Y3068D01*
X2394Y3068D01*
X2395Y3068D01*
X2396Y3068D01*
X2397Y3068D01*
X2398Y3068D01*
X2399Y3068D01*
X2400Y3068D01*
X2401Y3068D01*
X2402Y3068D01*
X2403Y3068D01*
X2404Y3068D01*
X2405Y3068D01*
X2406Y3068D01*
X2407Y3068D01*
X2408Y3068D01*
X2409Y3068D01*
X2410Y3068D01*
X2411Y3068D01*
X2412Y3068D01*
X2413Y3068D01*
X2414Y3068D01*
X2415Y3068D01*
X2416Y3068D01*
X2417Y3068D01*
X2418Y3068D01*
X2419Y3068D01*
X2420Y3068D01*
X2421Y3068D01*
X2422Y3068D01*
X2423Y3068D01*
X2424Y3068D01*
X2425Y3068D01*
X2426Y3068D01*
X2427Y3068D01*
X2428Y3068D01*
X2429Y3068D01*
X2430Y3068D01*
X2431Y3068D01*
X2432Y3068D01*
X2433Y3068D01*
X2434Y3068D01*
X2435Y3068D01*
X2436Y3068D01*
X2437Y3068D01*
X2438Y3068D01*
X2439Y3068D01*
X2440Y3068D01*
X2441Y3068D01*
X2442Y3068D01*
X2443Y3068D01*
X2444Y3068D01*
X2445Y3068D01*
X2446Y3068D01*
X2447Y3068D01*
X2448Y3068D01*
X2449Y3068D01*
X2450Y3068D01*
X2451Y3068D01*
X2452Y3068D01*
X2453Y3068D01*
X2454Y3068D01*
X2455Y3068D01*
X2456Y3068D01*
X2457Y3068D01*
X2458Y3068D01*
X2459Y3068D01*
X2460Y3068D01*
X2461Y3068D01*
X2462Y3068D01*
X2463Y3068D01*
X2464Y3068D01*
X2465Y3068D01*
X2466Y3068D01*
X2467Y3068D01*
X2468Y3068D01*
X2469Y3068D01*
X2470Y3068D01*
X2471Y3068D01*
X2472Y3068D01*
X2473Y3068D01*
X2474Y3068D01*
X2475Y3068D01*
X2476Y3068D01*
X2477Y3068D01*
X2478Y3068D01*
X2479Y3068D01*
X2480Y3068D01*
X2481Y3068D01*
X2482Y3068D01*
X2483Y3068D01*
X2484Y3068D01*
X2485Y3068D01*
X2486Y3068D01*
X2487Y3068D01*
X2488Y3068D01*
X2489Y3068D01*
X2490Y3068D01*
X2491Y3068D01*
X2492Y3068D01*
X2493Y3068D01*
X2494Y3068D01*
X2495Y3068D01*
X2496Y3068D01*
X2497Y3068D01*
X2498Y3068D01*
X2499Y3068D01*
X2500Y3068D01*
X2501Y3068D01*
X2502Y3068D01*
X2503Y3068D01*
X2504Y3068D01*
X2505Y3068D01*
X2506Y3068D01*
X2507Y3068D01*
X2508Y3068D01*
X2509Y3068D01*
X2510Y3068D01*
X2511Y3068D01*
X2512Y3068D01*
X2513Y3068D01*
X2514Y3068D01*
X2515Y3068D01*
X2516Y3068D01*
X2517Y3068D01*
X2518Y3068D01*
X2519Y3068D01*
X2520Y3068D01*
X2521Y3068D01*
X2522Y3068D01*
X2523Y3068D01*
X2524Y3068D01*
X2525Y3068D01*
X2526Y3068D01*
X2527Y3068D01*
X2528Y3068D01*
X2529Y3068D01*
X2530Y3068D01*
X2531Y3068D01*
X2532Y3068D01*
X2533Y3068D01*
X2534Y3068D01*
X2535Y3068D01*
X2536Y3068D01*
X2537Y3068D01*
X2538Y3068D01*
X2539Y3068D01*
X2540Y3068D01*
X2541Y3068D01*
X2542Y3068D01*
X2543Y3068D01*
X2544Y3068D01*
X2545Y3068D01*
X2546Y3068D01*
X2547Y3068D01*
X2548Y3068D01*
X2549Y3068D01*
X2550Y3068D01*
X2551Y3068D01*
X2552Y3068D01*
X2553Y3068D01*
X2554Y3068D01*
X2555Y3068D01*
X2556Y3068D01*
X2557Y3068D01*
X2558Y3068D01*
X2559Y3068D01*
X2560Y3068D01*
X2561Y3068D01*
X2562Y3068D01*
X2563Y3068D01*
X2564Y3068D01*
X2565Y3068D01*
X2566Y3068D01*
X2567Y3068D01*
X2568Y3068D01*
X2569Y3068D01*
X2570Y3068D01*
X2571Y3068D01*
X2572Y3068D01*
X2573Y3068D01*
X2574Y3068D01*
X2575Y3068D01*
X2576Y3068D01*
X2577Y3068D01*
X2578Y3068D01*
X2579Y3068D01*
X2580Y3068D01*
X2581Y3068D01*
X2582Y3068D01*
X2583Y3068D01*
X2584Y3068D01*
X2585Y3068D01*
X2586Y3068D01*
X2587Y3068D01*
X2588Y3068D01*
X2589Y3068D01*
X2590Y3068D01*
X2591Y3068D01*
X2592Y3068D01*
X2593Y3068D01*
X2594Y3068D01*
X2595Y3068D01*
X2596Y3068D01*
X2597Y3068D01*
X2598Y3068D01*
X2599Y3068D01*
X2600Y3068D01*
X2601Y3068D01*
X2602Y3068D01*
X2603Y3068D01*
X2604Y3068D01*
X2605Y3068D01*
X2606Y3068D01*
X2607Y3068D01*
X2608Y3068D01*
X2609Y3068D01*
X2610Y3068D01*
X2611Y3068D01*
X2612Y3068D01*
X2613Y3068D01*
X2614Y3068D01*
X2615Y3068D01*
X2616Y3068D01*
X2617Y3068D01*
X2618Y3068D01*
X2619Y3068D01*
X2620Y3068D01*
X2621Y3068D01*
X2622Y3068D01*
X2623Y3068D01*
X2624Y3068D01*
X2625Y3068D01*
X2626Y3068D01*
X2627Y3068D01*
X2628Y3068D01*
X2629Y3068D01*
X2630Y3068D01*
X2631Y3068D01*
X2632Y3068D01*
X2633Y3068D01*
X2634Y3068D01*
X2635Y3068D01*
X2636Y3068D01*
X2637Y3068D01*
X2638Y3068D01*
X2639Y3068D01*
X2640Y3068D01*
X2641Y3068D01*
X2642Y3068D01*
X2643Y3068D01*
X2644Y3068D01*
X2645Y3068D01*
X2646Y3068D01*
X2647Y3068D01*
X2648Y3068D01*
X2649Y3068D01*
X2650Y3068D01*
X2651Y3068D01*
X2652Y3068D01*
X2653Y3068D01*
X2654Y3068D01*
X2655Y3068D01*
X2656Y3068D01*
X2657Y3068D01*
X2658Y3068D01*
X2659Y3068D01*
X2660Y3068D01*
X2661Y3068D01*
X2662Y3068D01*
X2663Y3068D01*
X2664Y3068D01*
X2665Y3068D01*
X2666Y3068D01*
X2667Y3068D01*
X2668Y3068D01*
X2669Y3068D01*
X2670Y3068D01*
X2671Y3068D01*
X2672Y3068D01*
X2673Y3068D01*
X2674Y3068D01*
X2675Y3068D01*
X2676Y3068D01*
X2677Y3068D01*
X2678Y3068D01*
X2679Y3068D01*
X2680Y3068D01*
X2681Y3068D01*
X2682Y3068D01*
X2683Y3068D01*
X2684Y3068D01*
X2685Y3068D01*
X2686Y3068D01*
X2687Y3068D01*
X2688Y3068D01*
X2689Y3068D01*
X2690Y3068D01*
X2691Y3068D01*
X2692Y3068D01*
X2693Y3068D01*
X2694Y3068D01*
X2695Y3068D01*
X2696Y3068D01*
X2697Y3068D01*
X2698Y3068D01*
X2699Y3068D01*
X2700Y3068D01*
X2701Y3068D01*
X2702Y3068D01*
X2703Y3068D01*
X2704Y3068D01*
X2705Y3068D01*
X2706Y3068D01*
X2707Y3068D01*
X2708Y3068D01*
X2709Y3068D01*
X2710Y3068D01*
X2711Y3068D01*
X2712Y3068D01*
X2713Y3068D01*
X2714Y3068D01*
X2715Y3068D01*
X2716Y3068D01*
X2717Y3068D01*
X2718Y3068D01*
X2719Y3068D01*
X2720Y3068D01*
X2721Y3068D01*
X2722Y3068D01*
X2723Y3068D01*
X2724Y3068D01*
X2725Y3068D01*
X2726Y3068D01*
X2727Y3068D01*
X2728Y3068D01*
X2729Y3068D01*
X2730Y3068D01*
X2731Y3068D01*
X2732Y3068D01*
X2733Y3068D01*
X2734Y3068D01*
X2735Y3068D01*
X2736Y3068D01*
X2737Y3068D01*
X2738Y3068D01*
X2739Y3068D01*
X2740Y3068D01*
X2741Y3068D01*
X2742Y3068D01*
X2743Y3068D01*
X2744Y3068D01*
X2745Y3068D01*
X2746Y3068D01*
X2747Y3068D01*
X2748Y3068D01*
X2749Y3068D01*
X2750Y3068D01*
X2751Y3068D01*
X2752Y3068D01*
X2753Y3068D01*
X2754Y3068D01*
X2755Y3068D01*
X2756Y3068D01*
X2757Y3068D01*
X2758Y3068D01*
X2759Y3068D01*
X2760Y3068D01*
X2761Y3068D01*
X2762Y3068D01*
X2763Y3068D01*
X2764Y3068D01*
X2765Y3068D01*
X2766Y3068D01*
X2767Y3068D01*
X2768Y3068D01*
X2769Y3068D01*
X2770Y3068D01*
X2771Y3068D01*
X2772Y3068D01*
X2773Y3068D01*
X2774Y3068D01*
X2775Y3068D01*
X2776Y3068D01*
X2777Y3068D01*
X2778Y3068D01*
X2779Y3068D01*
X2780Y3068D01*
X2781Y3068D01*
X2782Y3068D01*
X2783Y3068D01*
X2784Y3068D01*
X2785Y3068D01*
X2786Y3068D01*
X2787Y3068D01*
X2788Y3068D01*
X2789Y3068D01*
X2790Y3068D01*
X2791Y3068D01*
X2792Y3068D01*
X2793Y3068D01*
X2794Y3068D01*
X2795Y3068D01*
X2796Y3068D01*
X2797Y3068D01*
X2798Y3068D01*
X2799Y3068D01*
X2800Y3068D01*
X2801Y3068D01*
X2802Y3068D01*
X2803Y3068D01*
X2804Y3068D01*
X2805Y3068D01*
X2806Y3068D01*
X2807Y3068D01*
X2808Y3068D01*
X2809Y3068D01*
X2810Y3068D01*
X2811Y3068D01*
X2812Y3068D01*
X2813Y3068D01*
X2814Y3068D01*
X2815Y3068D01*
X2816Y3068D01*
X2817Y3068D01*
X2818Y3068D01*
X2819Y3068D01*
X2820Y3068D01*
X2821Y3068D01*
X2822Y3068D01*
X2823Y3068D01*
X2824Y3068D01*
X2825Y3068D01*
X2826Y3068D01*
X2827Y3068D01*
X2828Y3068D01*
X2829Y3068D01*
X2830Y3068D01*
X2831Y3068D01*
X2832Y3068D01*
X2833Y3068D01*
X2834Y3068D01*
X2835Y3068D01*
X2836Y3068D01*
X2837Y3068D01*
X2838Y3068D01*
X2839Y3068D01*
X2840Y3068D01*
X2841Y3068D01*
X2842Y3068D01*
X2843Y3068D01*
X2844Y3068D01*
X2845Y3068D01*
X2846Y3068D01*
X2847Y3068D01*
X2848Y3068D01*
X2849Y3068D01*
X2850Y3068D01*
X2851Y3068D01*
X2852Y3068D01*
X2853Y3068D01*
X2854Y3068D01*
X2855Y3068D01*
X2856Y3068D01*
X2857Y3068D01*
X2858Y3068D01*
X2859Y3068D01*
X2860Y3068D01*
X2861Y3068D01*
X2862Y3068D01*
X2863Y3068D01*
X2864Y3068D01*
X2865Y3068D01*
X2866Y3068D01*
X2867Y3068D01*
X2868Y3068D01*
X2869Y3068D01*
X2870Y3068D01*
X2871Y3068D01*
X2872Y3068D01*
X2873Y3068D01*
X2874Y3068D01*
X2875Y3068D01*
X2876Y3068D01*
X2877Y3068D01*
X2878Y3068D01*
X2879Y3068D01*
X2880Y3068D01*
X2881Y3068D01*
X2882Y3068D01*
X2883Y3068D01*
X2884Y3068D01*
X2885Y3068D01*
X2886Y3068D01*
X2887Y3068D01*
X2888Y3068D01*
X2889Y3068D01*
X2890Y3068D01*
X2891Y3068D01*
X2892Y3068D01*
X2893Y3068D01*
X2894Y3068D01*
X2895Y3068D01*
X2896Y3068D01*
X2897Y3068D01*
X2898Y3068D01*
X2899Y3068D01*
X2900Y3068D01*
X2901Y3068D01*
X2902Y3068D01*
X2903Y3068D01*
X2904Y3068D01*
X2905Y3068D01*
X2906Y3068D01*
X2907Y3068D01*
X2908Y3068D01*
X2909Y3068D01*
X2910Y3068D01*
X2911Y3068D01*
X2912Y3068D01*
X2913Y3068D01*
X2914Y3068D01*
X2915Y3068D01*
X2916Y3068D01*
X2917Y3068D01*
X2918Y3068D01*
X2919Y3068D01*
X2920Y3068D01*
X2921Y3068D01*
X2922Y3068D01*
X2923Y3068D01*
X2924Y3068D01*
X2925Y3068D01*
X2926Y3068D01*
X2927Y3068D01*
X2928Y3068D01*
X2929Y3068D01*
X2930Y3068D01*
X2931Y3068D01*
X2932Y3068D01*
X2933Y3068D01*
X2934Y3068D01*
X2935Y3068D01*
X2936Y3068D01*
X2937Y3068D01*
X2938Y3068D01*
X2939Y3068D01*
X2940Y3068D01*
X2941Y3068D01*
X2942Y3068D01*
X2943Y3068D01*
X2944Y3068D01*
X2945Y3068D01*
X2946Y3068D01*
X2947Y3068D01*
X2948Y3068D01*
X2949Y3068D01*
X2950Y3068D01*
X2951Y3068D01*
X2952Y3068D01*
X2953Y3068D01*
X2954Y3068D01*
X2955Y3068D01*
X2956Y3068D01*
X2957Y3068D01*
X2958Y3068D01*
X2959Y3068D01*
X2960Y3068D01*
X2961Y3068D01*
X2962Y3068D01*
X2963Y3068D01*
X2964Y3068D01*
X2965Y3068D01*
X2966Y3068D01*
X2967Y3068D01*
X2968Y3068D01*
X2969Y3068D01*
X2970Y3068D01*
X2971Y3068D01*
X2972Y3068D01*
X2973Y3068D01*
X2974Y3068D01*
X2975Y3068D01*
X2976Y3068D01*
X2977Y3068D01*
X2978Y3068D01*
X2979Y3068D01*
X2980Y3068D01*
X2981Y3068D01*
X2982Y3068D01*
X2983Y3068D01*
X2984Y3068D01*
X2985Y3068D01*
X2986Y3068D01*
X2987Y3068D01*
X2988Y3068D01*
X2989Y3068D01*
X2990Y3068D01*
X2991Y3068D01*
X2992Y3068D01*
X2993Y3068D01*
X2994Y3068D01*
X2995Y3068D01*
X2996Y3068D01*
X2997Y3068D01*
X2998Y3068D01*
X2999Y3068D01*
X3000Y3068D01*
X3001Y3068D01*
X3002Y3068D01*
X3003Y3068D01*
X3004Y3068D01*
X3005Y3068D01*
X3006Y3068D01*
X3007Y3068D01*
X3008Y3068D01*
X3009Y3068D01*
X3010Y3068D01*
X3011Y3068D01*
X3012Y3068D01*
X3013Y3068D01*
X3014Y3068D01*
X3015Y3068D01*
X3016Y3068D01*
X3017Y3068D01*
X3018Y3068D01*
X3019Y3068D01*
X3020Y3068D01*
X3021Y3068D01*
X3022Y3068D01*
X3023Y3068D01*
X3024Y3068D01*
X3025Y3068D01*
X3026Y3068D01*
X3027Y3068D01*
X3028Y3068D01*
X3029Y3068D01*
X3030Y3068D01*
X3031Y3068D01*
X3032Y3068D01*
X3033Y3068D01*
X3034Y3068D01*
X3035Y3068D01*
X3036Y3068D01*
X3037Y3068D01*
X3038Y3068D01*
X3039Y3068D01*
X3040Y3068D01*
X3041Y3068D01*
X3042Y3068D01*
X3043Y3068D01*
X3044Y3068D01*
X3045Y3068D01*
X3046Y3068D01*
X3047Y3068D01*
X3048Y3068D01*
X3049Y3068D01*
X3050Y3068D01*
X3051Y3068D01*
X3052Y3068D01*
X3053Y3068D01*
X3054Y3068D01*
X3055Y3068D01*
X3056Y3068D01*
X3057Y3068D01*
X3058Y3068D01*
X3059Y3068D01*
X3060Y3068D01*
X3061Y3068D01*
X3062Y3068D01*
X3063Y3068D01*
X3064Y3068D01*
X3065Y3068D01*
X3066Y3068D01*
X3067Y3068D01*
X3068Y3068D01*
X3069Y3068D01*
X3070Y3068D01*
X3071Y3068D01*
X3072Y3068D01*
X3073Y3068D01*
X3074Y3068D01*
X3075Y3068D01*
X3076Y3068D01*
X3077Y3068D01*
X3078Y3068D01*
X3079Y3068D01*
X3080Y3068D01*
X3081Y3068D01*
X3082Y3068D01*
X3083Y3068D01*
X3084Y3068D01*
X3085Y3068D01*
X3086Y3068D01*
X3087Y3068D01*
X3088Y3068D01*
X3089Y3068D01*
X3090Y3068D01*
X3091Y3068D01*
X3092Y3068D01*
X3093Y3068D01*
X3094Y3068D01*
X3095Y3068D01*
X3096Y3068D01*
X3097Y3068D01*
X3098Y3068D01*
X3099Y3068D01*
X3100Y3068D01*
X3101Y3068D01*
X3102Y3068D01*
X3103Y3068D01*
X3104Y3068D01*
X3105Y3068D01*
X3106Y3068D01*
X3107Y3068D01*
X3108Y3068D01*
X3109Y3068D01*
X3110Y3068D01*
X3111Y3068D01*
X3112Y3068D01*
X3113Y3068D01*
X3114Y3068D01*
X3115Y3068D01*
X3116Y3068D01*
X3117Y3068D01*
X3118Y3068D01*
X3119Y3068D01*
X3120Y3068D01*
X3121Y3068D01*
X3122Y3068D01*
X3123Y3068D01*
X3124Y3068D01*
X3125Y3068D01*
X3126Y3068D01*
X3127Y3068D01*
X3128Y3068D01*
X3129Y3068D01*
X3130Y3068D01*
X3131Y3068D01*
X3132Y3068D01*
X3133Y3068D01*
X3134Y3068D01*
X3135Y3068D01*
X3136Y3068D01*
X3137Y3068D01*
X3138Y3068D01*
X3139Y3068D01*
X3140Y3068D01*
X3141Y3068D01*
X3142Y3068D01*
X3143Y3068D01*
X3144Y3068D01*
X3145Y3068D01*
X3146Y3068D01*
X3147Y3068D01*
X3148Y3068D01*
X3149Y3068D01*
X3150Y3068D01*
X3151Y3068D01*
X3152Y3068D01*
X3153Y3068D01*
X3154Y3068D01*
X3155Y3068D01*
X3156Y3068D01*
X3157Y3068D01*
X3158Y3068D01*
X3159Y3068D01*
X3160Y3068D01*
X3161Y3068D01*
X3162Y3068D01*
X3163Y3068D01*
X3164Y3068D01*
X3165Y3068D01*
X3166Y3068D01*
X3167Y3068D01*
X3168Y3068D01*
X3169Y3068D01*
X3170Y3068D01*
X3171Y3068D01*
X3172Y3068D01*
X3173Y3068D01*
X3174Y3068D01*
X3175Y3068D01*
X3176Y3068D01*
X3177Y3068D01*
X3178Y3068D01*
X3179Y3068D01*
X3180Y3068D01*
X3181Y3068D01*
X3182Y3068D01*
X3183Y3068D01*
X3184Y3068D01*
X3185Y3068D01*
X3186Y3068D01*
X3187Y3068D01*
X3188Y3068D01*
X3189Y3068D01*
X3190Y3068D01*
X3191Y3068D01*
X3192Y3068D01*
X3193Y3068D01*
X3194Y3068D01*
X3195Y3068D01*
X3196Y3068D01*
X3197Y3068D01*
X3198Y3068D01*
X3199Y3068D01*
X3200Y3068D01*
X3201Y3068D01*
X3202Y3068D01*
X3203Y3068D01*
X3204Y3068D01*
X3205Y3068D01*
X3206Y3068D01*
X3207Y3068D01*
X3208Y3068D01*
X3209Y3068D01*
X3210Y3068D01*
X3211Y3068D01*
X3212Y3068D01*
X3213Y3068D01*
X3214Y3068D01*
X3215Y3068D01*
X3216Y3068D01*
X3217Y3068D01*
X3218Y3068D01*
X3219Y3068D01*
X3220Y3068D01*
X3221Y3068D01*
X3222Y3068D01*
X3223Y3068D01*
X3224Y3068D01*
X3225Y3068D01*
X3226Y3068D01*
X3227Y3068D01*
X3228Y3068D01*
X3229Y3068D01*
X3230Y3068D01*
X3231Y3068D01*
X3232Y3068D01*
X3233Y3068D01*
X3234Y3068D01*
X3235Y3068D01*
X3236Y3068D01*
X3237Y3068D01*
X3238Y3068D01*
X3239Y3068D01*
X3240Y3068D01*
X3241Y3068D01*
X3242Y3068D01*
X3243Y3068D01*
X3244Y3068D01*
X3245Y3068D01*
X3246Y3068D01*
X3247Y3068D01*
X3248Y3068D01*
X3249Y3068D01*
X3250Y3068D01*
X3251Y3068D01*
X3252Y3068D01*
X3253Y3068D01*
X3254Y3068D01*
X3255Y3068D01*
X3256Y3068D01*
X3257Y3068D01*
X3258Y3068D01*
X3259Y3068D01*
X3260Y3068D01*
X3261Y3068D01*
X3262Y3068D01*
X3263Y3068D01*
X3264Y3068D01*
X3265Y3068D01*
X3266Y3068D01*
X3267Y3068D01*
X3268Y3068D01*
X3269Y3068D01*
X3270Y3068D01*
X3271Y3068D01*
X3272Y3068D01*
X3273Y3068D01*
X3274Y3068D01*
X3275Y3068D01*
X3276Y3068D01*
X3277Y3068D01*
X3278Y3068D01*
X3279Y3068D01*
X3280Y3068D01*
X3281Y3068D01*
X3282Y3068D01*
X3283Y3068D01*
X3284Y3068D01*
X3285Y3068D01*
X3286Y3068D01*
X3287Y3068D01*
X3288Y3068D01*
X3289Y3068D01*
X3290Y3068D01*
X3291Y3068D01*
X3292Y3068D01*
X3293Y3068D01*
X3294Y3068D01*
X3295Y3068D01*
X3296Y3068D01*
X3297Y3068D01*
X3298Y3068D01*
X3299Y3068D01*
X3300Y3068D01*
X3301Y3068D01*
X3302Y3068D01*
X3303Y3068D01*
X3304Y3068D01*
X3305Y3068D01*
X3306Y3068D01*
X3307Y3068D01*
X3308Y3068D01*
X3309Y3068D01*
X3310Y3068D01*
X3311Y3068D01*
X3312Y3068D01*
X3313Y3068D01*
X3314Y3068D01*
X3315Y3068D01*
X3316Y3068D01*
X3317Y3068D01*
X3318Y3068D01*
X3319Y3068D01*
X3320Y3068D01*
X3321Y3068D01*
X3322Y3068D01*
X3323Y3068D01*
X3324Y3068D01*
X3325Y3068D01*
X3326Y3068D01*
X3327Y3068D01*
X3328Y3068D01*
X3329Y3068D01*
X3330Y3068D01*
X3331Y3068D01*
X3332Y3068D01*
X3333Y3068D01*
X3334Y3068D01*
X3335Y3068D01*
X3336Y3068D01*
X3337Y3068D01*
X3338Y3068D01*
X3339Y3068D01*
X3340Y3068D01*
X3341Y3068D01*
X3342Y3068D01*
X3343Y3068D01*
X3344Y3068D01*
X3345Y3068D01*
X3346Y3068D01*
X3347Y3068D01*
X3348Y3068D01*
X3349Y3068D01*
X3350Y3068D01*
X3351Y3068D01*
X3352Y3068D01*
X3353Y3068D01*
X3354Y3068D01*
X3355Y3068D01*
X3356Y3068D01*
X3357Y3068D01*
X3358Y3068D01*
X3359Y3068D01*
X3360Y3068D01*
X3361Y3068D01*
X3362Y3068D01*
X3363Y3068D01*
X3364Y3068D01*
X3365Y3068D01*
X3366Y3068D01*
X3367Y3068D01*
X3368Y3068D01*
X3369Y3068D01*
X3370Y3068D01*
X3371Y3068D01*
X3372Y3068D01*
X3373Y3068D01*
X3374Y3068D01*
X3375Y3068D01*
X3376Y3068D01*
X3377Y3068D01*
X3378Y3068D01*
X3379Y3068D01*
X3380Y3068D01*
X3381Y3068D01*
X3382Y3068D01*
X3383Y3068D01*
X3384Y3068D01*
X3385Y3068D01*
X3386Y3068D01*
X3387Y3068D01*
X3388Y3068D01*
X3389Y3068D01*
X3390Y3068D01*
X3391Y3068D01*
X3392Y3068D01*
X3393Y3068D01*
X3394Y3068D01*
X3395Y3068D01*
X3396Y3068D01*
X3397Y3068D01*
X3398Y3068D01*
X3399Y3068D01*
X3400Y3068D01*
X3401Y3068D01*
X3402Y3068D01*
X3403Y3068D01*
X3404Y3068D01*
X3405Y3068D01*
X3406Y3068D01*
X3407Y3068D01*
X3408Y3068D01*
X3409Y3068D01*
X3410Y3068D01*
X3411Y3068D01*
X3412Y3068D01*
X3413Y3068D01*
X3414Y3068D01*
X3415Y3068D01*
X3416Y3068D01*
X3417Y3068D01*
X3418Y3068D01*
X3419Y3068D01*
X3420Y3068D01*
X3421Y3068D01*
X3422Y3068D01*
X3423Y3068D01*
X3424Y3068D01*
X3425Y3068D01*
X3426Y3068D01*
X3427Y3068D01*
X3428Y3068D01*
X3429Y3068D01*
X3430Y3068D01*
X3431Y3068D01*
X3432Y3068D01*
X3433Y3068D01*
X3434Y3068D01*
X3435Y3068D01*
X3436Y3068D01*
X3437Y3068D01*
X3438Y3068D01*
X3439Y3068D01*
X3440Y3068D01*
X3441Y3068D01*
X3442Y3068D01*
X3443Y3068D01*
X3444Y3068D01*
X3445Y3068D01*
X3446Y3068D01*
X3447Y3068D01*
X3448Y3068D01*
X3449Y3068D01*
X3450Y3068D01*
X3451Y3068D01*
X3452Y3068D01*
X3453Y3068D01*
X3454Y3068D01*
X3455Y3068D01*
X3456Y3068D01*
X3457Y3068D01*
X3458Y3068D01*
X3459Y3068D01*
X3460Y3068D01*
X3461Y3068D01*
X3462Y3068D01*
X3463Y3068D01*
X3464Y3068D01*
X3465Y3068D01*
X3466Y3068D01*
X3467Y3068D01*
X3468Y3068D01*
X3469Y3068D01*
X3470Y3068D01*
X3471Y3068D01*
X3472Y3068D01*
X3473Y3068D01*
X3474Y3068D01*
X3475Y3068D01*
X3476Y3068D01*
X3477Y3068D01*
X3478Y3068D01*
X3479Y3068D01*
X3480Y3068D01*
X3481Y3068D01*
X3482Y3068D01*
X3483Y3068D01*
X3484Y3068D01*
X3485Y3068D01*
X3486Y3068D01*
X3487Y3068D01*
X3488Y3068D01*
X3489Y3068D01*
X3490Y3068D01*
X3491Y3068D01*
X3492Y3068D01*
X3493Y3068D01*
X3494Y3068D01*
X3495Y3068D01*
X3496Y3068D01*
X3497Y3068D01*
X3498Y3068D01*
X3499Y3068D01*
X3500Y3068D01*
X3501Y3068D01*
X3502Y3068D01*
X3503Y3068D01*
X3504Y3068D01*
X3505Y3068D01*
X3506Y3068D01*
X3507Y3068D01*
X3508Y3068D01*
X3509Y3068D01*
X3510Y3068D01*
X3511Y3068D01*
X3512Y3068D01*
X3513Y3068D01*
X3514Y3068D01*
X3515Y3068D01*
X3516Y3068D01*
X3517Y3068D01*
X3518Y3068D01*
X3519Y3068D01*
X3520Y3068D01*
X3521Y3068D01*
X3522Y3068D01*
X3523Y3068D01*
X3524Y3068D01*
X3525Y3068D01*
X3526Y3068D01*
X3527Y3068D01*
X3528Y3068D01*
X3529Y3068D01*
X3530Y3068D01*
X3531Y3068D01*
X3532Y3068D01*
X3533Y3068D01*
X3534Y3068D01*
X3535Y3068D01*
X3536Y3068D01*
X3537Y3068D01*
X3538Y3068D01*
X3539Y3068D01*
X3540Y3068D01*
X3541Y3068D01*
X3542Y3068D01*
X3543Y3068D01*
X3544Y3068D01*
X3545Y3068D01*
X3546Y3068D01*
X3547Y3068D01*
X3548Y3068D01*
X3549Y3068D01*
X3550Y3068D01*
X3551Y3068D01*
X3552Y3068D01*
X3553Y3068D01*
X3554Y3068D01*
X3555Y3068D01*
X3556Y3068D01*
X3557Y3068D01*
X3558Y3068D01*
X3559Y3068D01*
X3560Y3068D01*
X3561Y3068D01*
X3562Y3068D01*
X3563Y3068D01*
X3564Y3068D01*
X3565Y3068D01*
X3566Y3068D01*
X3567Y3068D01*
X3568Y3068D01*
X3569Y3068D01*
X3570Y3068D01*
X3571Y3068D01*
X3572Y3068D01*
X3573Y3068D01*
X3574Y3068D01*
X3575Y3068D01*
X3576Y3068D01*
X3577Y3068D01*
X3578Y3068D01*
X3579Y3068D01*
X3580Y3068D01*
X3581Y3068D01*
X3582Y3068D01*
X3583Y3068D01*
X3584Y3068D01*
X3585Y3068D01*
X3586Y3068D01*
X3587Y3068D01*
X3588Y3068D01*
X3589Y3068D01*
X3590Y3068D01*
X3591Y3068D01*
X3592Y3068D01*
X3593Y3068D01*
X3594Y3068D01*
X3595Y3068D01*
X3596Y3068D01*
X3597Y3068D01*
X3598Y3068D01*
X3599Y3068D01*
X3600Y3068D01*
X3601Y3068D01*
X3602Y3068D01*
X3603Y3068D01*
X3604Y3068D01*
X3605Y3068D01*
X3606Y3068D01*
X3607Y3068D01*
X3608Y3068D01*
X3609Y3068D01*
X3610Y3068D01*
X3611Y3068D01*
X3612Y3068D01*
X3613Y3068D01*
X3614Y3068D01*
X3615Y3068D01*
X3616Y3068D01*
X3617Y3068D01*
X3618Y3068D01*
X3619Y3068D01*
X3620Y3068D01*
X3621Y3068D01*
X3622Y3068D01*
X3623Y3068D01*
X3624Y3068D01*
X3625Y3068D01*
X3626Y3068D01*
X3627Y3068D01*
X3628Y3068D01*
X3629Y3068D01*
X3630Y3068D01*
X3631Y3068D01*
X3632Y3068D01*
X3633Y3068D01*
X3634Y3068D01*
X3635Y3068D01*
X3636Y3068D01*
X3637Y3068D01*
X3638Y3068D01*
X3639Y3068D01*
X3640Y3068D01*
X3641Y3068D01*
X3642Y3068D01*
X3643Y3068D01*
X3644Y3068D01*
X3645Y3068D01*
X3646Y3068D01*
X3647Y3068D01*
X3648Y3068D01*
X3649Y3068D01*
X3650Y3068D01*
X3651Y3068D01*
X3652Y3068D01*
X3653Y3068D01*
X3654Y3068D01*
X3655Y3068D01*
X3656Y3068D01*
X3657Y3068D01*
X3658Y3068D01*
X3659Y3068D01*
X3660Y3068D01*
X3661Y3068D01*
X3662Y3068D01*
X3663Y3068D01*
X3664Y3068D01*
X3665Y3068D01*
X3666Y3068D01*
X3667Y3068D01*
X3668Y3068D01*
X3669Y3068D01*
X3670Y3068D01*
X3671Y3068D01*
X3672Y3068D01*
X3673Y3068D01*
X3674Y3068D01*
X3675Y3068D01*
X3676Y3068D01*
X3677Y3068D01*
X3678Y3068D01*
X3679Y3068D01*
X3680Y3068D01*
X3681Y3068D01*
X3682Y3068D01*
X3683Y3068D01*
X3684Y3068D01*
X3685Y3068D01*
X3686Y3068D01*
X3687Y3068D01*
X3688Y3068D01*
X3689Y3068D01*
X3690Y3068D01*
X3691Y3068D01*
X3692Y3068D01*
X3693Y3068D01*
X3694Y3068D01*
X3695Y3068D01*
X3696Y3068D01*
X3697Y3068D01*
X3698Y3068D01*
X3699Y3068D01*
X3700Y3068D01*
X3701Y3068D01*
X3702Y3068D01*
X3703Y3068D01*
X3704Y3068D01*
X3705Y3068D01*
X3706Y3068D01*
X3707Y3068D01*
X3708Y3068D01*
X3709Y3068D01*
X3710Y3068D01*
X3711Y3068D01*
X3712Y3068D01*
X3713Y3068D01*
X3714Y3068D01*
X3715Y3068D01*
X3716Y3068D01*
X3717Y3068D01*
X3718Y3068D01*
X3719Y3068D01*
X3720Y3068D01*
X3721Y3068D01*
X3722Y3068D01*
X3723Y3068D01*
X3724Y3068D01*
X3725Y3068D01*
X3726Y3068D01*
X3727Y3068D01*
X3728Y3068D01*
X3729Y3068D01*
X3730Y3068D01*
X3731Y3068D01*
X3732Y3068D01*
X3733Y3068D01*
X3734Y3068D01*
X3735Y3068D01*
X3736Y3068D01*
X3737Y3068D01*
X3738Y3068D01*
X3739Y3068D01*
X3740Y3068D01*
X3741Y3068D01*
X3742Y3068D01*
X3743Y3068D01*
X3744Y3068D01*
X3745Y3068D01*
X3746Y3068D01*
X3747Y3068D01*
X3748Y3068D01*
X3749Y3068D01*
X3750Y3068D01*
X3751Y3068D01*
X3752Y3068D01*
X3753Y3068D01*
X3754Y3068D01*
X3755Y3068D01*
X3756Y3068D01*
X3757Y3068D01*
X3758Y3068D01*
X3759Y3068D01*
X3760Y3068D01*
X3761Y3068D01*
X3762Y3068D01*
X3763Y3068D01*
X3764Y3068D01*
X3765Y3068D01*
X3766Y3068D01*
X3767Y3068D01*
X3768Y3068D01*
X3769Y3068D01*
X3770Y3068D01*
X3771Y3068D01*
X3772Y3068D01*
X3773Y3068D01*
X3774Y3068D01*
X3775Y3068D01*
X3776Y3068D01*
X3777Y3068D01*
X3778Y3068D01*
X3779Y3068D01*
X3780Y3068D01*
X3781Y3068D01*
X3782Y3068D01*
X3783Y3068D01*
X3784Y3068D01*
X3785Y3068D01*
X3786Y3068D01*
X3787Y3068D01*
X3788Y3068D01*
X3789Y3068D01*
X3790Y3068D01*
X3791Y3068D01*
X3792Y3068D01*
X3793Y3068D01*
X3794Y3068D01*
X3795Y3068D01*
X3796Y3068D01*
X3797Y3068D01*
X3798Y3068D01*
X3799Y3068D01*
X3800Y3068D01*
X3801Y3068D01*
X3802Y3068D01*
X3803Y3068D01*
X3804Y3068D01*
X3805Y3068D01*
X3806Y3068D01*
X3807Y3068D01*
X3808Y3068D01*
X3809Y3068D01*
X3810Y3068D01*
X3811Y3068D01*
X3812Y3068D01*
X3813Y3068D01*
X3814Y3068D01*
X3815Y3068D01*
X3816Y3068D01*
X3817Y3068D01*
X3818Y3068D01*
X3819Y3068D01*
X3820Y3068D01*
X3821Y3068D01*
X3822Y3068D01*
X3823Y3068D01*
X3824Y3068D01*
X3825Y3068D01*
X3826Y3068D01*
X3827Y3068D01*
X3828Y3068D01*
X3829Y3068D01*
X3830Y3068D01*
X3831Y3068D01*
X3832Y3068D01*
X3833Y3068D01*
X3834Y3068D01*
X3835Y3068D01*
X3836Y3068D01*
X3837Y3068D01*
X3838Y3068D01*
X3839Y3068D01*
X3840Y3068D01*
X3841Y3068D01*
X3842Y3068D01*
X3843Y3068D01*
X3844Y3068D01*
X3845Y3068D01*
X3846Y3068D01*
X3847Y3068D01*
X3848Y3068D01*
X3849Y3068D01*
X3850Y3068D01*
X3851Y3068D01*
X3852Y3068D01*
X3853Y3068D01*
X3854Y3068D01*
X3855Y3068D01*
X3856Y3068D01*
X3857Y3068D01*
X3858Y3068D01*
X3859Y3068D01*
X3860Y3068D01*
X3861Y3068D01*
X3862Y3068D01*
X3863Y3068D01*
X3864Y3068D01*
X3865Y3068D01*
X3866Y3068D01*
X3867Y3068D01*
X3868Y3068D01*
X3869Y3068D01*
X3870Y3068D01*
X3871Y3068D01*
X3872Y3068D01*
X3873Y3068D01*
X3874Y3068D01*
X3875Y3068D01*
X3876Y3068D01*
X3877Y3068D01*
X3878Y3068D01*
X3879Y3068D01*
X3880Y3068D01*
X3881Y3068D01*
X3882Y3068D01*
X3883Y3068D01*
X3884Y3068D01*
X3885Y3068D01*
X3886Y3068D01*
X3887Y3068D01*
X3888Y3068D01*
X3889Y3068D01*
X3890Y3068D01*
X3891Y3068D01*
X3892Y3068D01*
X3893Y3068D01*
X3894Y3068D01*
X3895Y3068D01*
X3896Y3068D01*
X3897Y3068D01*
X3898Y3068D01*
X3899Y3068D01*
X3900Y3068D01*
X3901Y3068D01*
X3902Y3068D01*
X3903Y3068D01*
X3904Y3068D01*
X3905Y3068D01*
X3906Y3068D01*
X3907Y3068D01*
X3908Y3068D01*
X3909Y3068D01*
X3910Y3068D01*
X3911Y3068D01*
X3912Y3068D01*
X3913Y3068D01*
X3914Y3068D01*
X3915Y3068D01*
X3916Y3068D01*
X3917Y3068D01*
X3918Y3068D01*
X3919Y3068D01*
X3920Y3068D01*
X3921Y3068D01*
X3922Y3068D01*
X3923Y3068D01*
X3924Y3068D01*
X3925Y3068D01*
X3926Y3068D01*
X3927Y3068D01*
X3928Y3068D01*
X3929Y3068D01*
X3930Y3068D01*
X3931Y3068D01*
X3932Y3068D01*
X3933Y3068D01*
X3934Y3068D01*
X3935Y3068D01*
X3936Y3068D01*
X3937Y3068D01*
X3938Y3068D01*
X3939Y3068D01*
X3940Y3068D01*
X3941Y3068D01*
X3942Y3068D01*
X3943Y3068D01*
X3944Y3068D01*
X3945Y3068D01*
X3946Y3068D01*
X3947Y3068D01*
X3948Y3068D01*
X3949Y3068D01*
X3950Y3068D01*
X3951Y3068D01*
X3952Y3068D01*
X3953Y3068D01*
X3954Y3068D01*
X3955Y3068D01*
X3956Y3068D01*
X3957Y3068D01*
X3958Y3068D01*
X3959Y3068D01*
X3960Y3068D01*
X3961Y3068D01*
X3962Y3068D01*
X3963Y3068D01*
X3964Y3068D01*
X3965Y3068D01*
X3966Y3068D01*
X3967Y3068D01*
X3968Y3068D01*
X3969Y3068D01*
X3970Y3068D01*
X3971Y3068D01*
X3972Y3068D01*
X3973Y3068D01*
X3974Y3068D01*
X3975Y3068D01*
X3976Y3068D01*
X3977Y3068D01*
X3978Y3068D01*
X3979Y3068D01*
X3980Y3068D01*
X3981Y3068D01*
X3982Y3068D01*
X3983Y3068D01*
X3984Y3068D01*
X3985Y3068D01*
X3986Y3068D01*
X3987Y3068D01*
X3988Y3068D01*
X3989Y3068D01*
X3990Y3068D01*
X3991Y3068D01*
X3992Y3068D01*
X3993Y3068D01*
X3994Y3068D01*
X3995Y3068D01*
X3996Y3068D01*
X3997Y3068D01*
X3998Y3068D01*
X3999Y3068D01*
X4000Y3068D01*
X4001Y3068D01*
X4002Y3068D01*
X4003Y3068D01*
X4004Y3068D01*
X4005Y3068D01*
X4006Y3068D01*
X4007Y3068D01*
X4008Y3068D01*
X4009Y3068D01*
X4010Y3068D01*
X4011Y3068D01*
X4012Y3068D01*
X4013Y3068D01*
X4014Y3068D01*
X4015Y3068D01*
X4016Y3068D01*
X4017Y3068D01*
X4018Y3068D01*
X4019Y3068D01*
X4020Y3068D01*
X4021Y3068D01*
X4022Y3068D01*
X4023Y3068D01*
X4024Y3068D01*
X4025Y3068D01*
X4026Y3068D01*
X4027Y3068D01*
X4028Y3068D01*
X4029Y3068D01*
X4030Y3068D01*
X4031Y3068D01*
X4032Y3068D01*
X4033Y3068D01*
X4034Y3068D01*
X4035Y3068D01*
X4036Y3068D01*
X4037Y3068D01*
X4038Y3068D01*
X4039Y3068D01*
X4040Y3068D01*
X4041Y3068D01*
X4042Y3068D01*
X4043Y3068D01*
X4044Y3068D01*
X4045Y3068D01*
X4046Y3068D01*
X4047Y3068D01*
X4048Y3068D01*
X4049Y3068D01*
X4050Y3068D01*
X4051Y3068D01*
X4052Y3068D01*
X4053Y3068D01*
X4054Y3068D01*
X4055Y3068D01*
X4056Y3068D01*
X4057Y3068D01*
X4058Y3068D01*
X4059Y3068D01*
X4060Y3068D01*
X4061Y3068D01*
X4062Y3068D01*
X4063Y3068D01*
X4064Y3068D01*
X4065Y3068D01*
X4066Y3068D01*
X4067Y3068D01*
X4068Y3068D01*
X4069Y3068D01*
X4070Y3068D01*
X4071Y3068D01*
X4072Y3068D01*
X4073Y3068D01*
X4074Y3068D01*
X4075Y3068D01*
X4076Y3068D01*
X4077Y3068D01*
X4078Y3068D01*
X4079Y3068D01*
X4080Y3068D01*
X4081Y3068D01*
X4082Y3068D01*
X4083Y3068D01*
X4084Y3068D01*
X4085Y3068D01*
X4086Y3068D01*
X4087Y3068D01*
X4088Y3068D01*
X4089Y3068D01*
X4090Y3068D01*
X4091Y3068D01*
X4092Y3068D01*
X4093Y3068D01*
X4094Y3068D01*
X4095Y3068D01*
X4096Y3068D01*
X4097Y3068D01*
X4098Y3068D01*
X4099Y3068D01*
X4100Y3068D01*
X4101Y3068D01*
X4102Y3068D01*
X4103Y3068D01*
X4104Y3068D01*
X4105Y3068D01*
X4106Y3068D01*
X4107Y3068D01*
X4108Y3068D01*
X4109Y3068D01*
X4110Y3068D01*
X4111Y3068D01*
X4112Y3068D01*
X4113Y3068D01*
X4114Y3068D01*
X4115Y3068D01*
X4116Y3068D01*
X4117Y3068D01*
X4118Y3068D01*
X4119Y3068D01*
X4120Y3068D01*
X4121Y3068D01*
X4122Y3068D01*
X4123Y3068D01*
X4124Y3068D01*
X4125Y3068D01*
X4126Y3068D01*
X4127Y3068D01*
X4128Y3068D01*
X4129Y3068D01*
X4130Y3068D01*
X4131Y3068D01*
X4132Y3068D01*
X4133Y3068D01*
X4134Y3068D01*
X4135Y3068D01*
X4136Y3068D01*
X4137Y3068D01*
X4138Y3068D01*
X4139Y3068D01*
X4140Y3068D01*
X4141Y3068D01*
X4142Y3068D01*
X4143Y3068D01*
X4144Y3068D01*
X4145Y3068D01*
X4146Y3068D01*
X4147Y3068D01*
X4148Y3068D01*
X4149Y3068D01*
X4150Y3068D01*
X4151Y3068D01*
X4152Y3068D01*
X4153Y3068D01*
X4154Y3068D01*
X4155Y3068D01*
X4156Y3068D01*
X4157Y3068D01*
X4158Y3068D01*
X4159Y3068D01*
X4160Y3068D01*
X4161Y3068D01*
X4162Y3068D01*
X4163Y3068D01*
X4164Y3068D01*
X4165Y3068D01*
X4166Y3068D01*
X4167Y3068D01*
X4168Y3068D01*
X4169Y3068D01*
X4170Y3068D01*
X4171Y3068D01*
X4172Y3068D01*
X4173Y3068D01*
X4174Y3068D01*
X4175Y3068D01*
X4176Y3068D01*
X4177Y3068D01*
X4178Y3068D01*
X4179Y3068D01*
X4180Y3068D01*
X4181Y3068D01*
X4182Y3068D01*
X4183Y3068D01*
X4184Y3068D01*
X4185Y3068D01*
X4186Y3068D01*
X4187Y3068D01*
X4188Y3068D01*
X4189Y3068D01*
X4190Y3068D01*
X4191Y3068D01*
X4192Y3068D01*
X4193Y3068D01*
X4194Y3068D01*
X4195Y3068D01*
X4196Y3068D01*
X4197Y3068D01*
X4198Y3068D01*
X4199Y3068D01*
X4200Y3068D01*
X4201Y3068D01*
X4202Y3068D01*
X4203Y3068D01*
X4204Y3068D01*
X4205Y3068D01*
X4206Y3068D01*
X4207Y3068D01*
X4208Y3068D01*
X4209Y3068D01*
X4210Y3068D01*
X4211Y3068D01*
X4212Y3068D01*
X4213Y3068D01*
X4214Y3068D01*
X4215Y3068D01*
X4216Y3068D01*
X4217Y3068D01*
X4218Y3068D01*
X4219Y3068D01*
X4220Y3068D01*
X4221Y3068D01*
X4222Y3068D01*
X4223Y3068D01*
X4224Y3068D01*
X4225Y3068D01*
X4226Y3068D01*
X4227Y3068D01*
X4228Y3068D01*
X4229Y3068D01*
X4230Y3068D01*
X4231Y3068D01*
X4232Y3068D01*
X4233Y3068D01*
X4234Y3068D01*
X4235Y3068D01*
X4236Y3068D01*
X4237Y3068D01*
X4238Y3068D01*
X4239Y3068D01*
X4240Y3068D01*
X4241Y3068D01*
X4242Y3068D01*
X4243Y3068D01*
X4244Y3068D01*
X4245Y3068D01*
X4246Y3068D01*
X4247Y3068D01*
X4248Y3068D01*
X4249Y3068D01*
X4250Y3068D01*
X4251Y3068D01*
X4252Y3068D01*
X4253Y3068D01*
X4254Y3068D01*
X4255Y3068D01*
X4256Y3068D01*
X4257Y3068D01*
X4258Y3068D01*
X4259Y3068D01*
X4260Y3068D01*
X4261Y3068D01*
X4262Y3068D01*
X4263Y3068D01*
X4264Y3068D01*
X4265Y3068D01*
X4266Y3068D01*
X4267Y3068D01*
X4268Y3068D01*
X4269Y3068D01*
X4270Y3068D01*
X4271Y3068D01*
X4272Y3068D01*
X4273Y3068D01*
X4274Y3068D01*
X4275Y3068D01*
X4276Y3068D01*
X4277Y3068D01*
X4278Y3068D01*
X4279Y3068D01*
X4280Y3068D01*
X4281Y3068D01*
X4282Y3068D01*
X4283Y3068D01*
X4284Y3068D01*
X4285Y3068D01*
X4286Y3068D01*
X4287Y3068D01*
X4288Y3068D01*
X4289Y3068D01*
X4290Y3068D01*
X4291Y3068D01*
X4292Y3068D01*
X4293Y3068D01*
X4294Y3068D01*
X4295Y3068D01*
X4296Y3068D01*
X4297Y3068D01*
X4298Y3068D01*
X4299Y3068D01*
X4300Y3068D01*
X4301Y3068D01*
X4302Y3068D01*
X4303Y3068D01*
X4304Y3068D01*
X4305Y3068D01*
X4306Y3068D01*
X4307Y3068D01*
X4308Y3068D01*
X4309Y3068D01*
X4310Y3068D01*
X4311Y3068D01*
X4312Y3068D01*
X4313Y3068D01*
X4314Y3068D01*
X4315Y3068D01*
X4316Y3068D01*
X4317Y3068D01*
X4318Y3068D01*
X4319Y3068D01*
X4320Y3068D01*
X4321Y3068D01*
X4322Y3068D01*
X4323Y3068D01*
X4324Y3068D01*
X4325Y3068D01*
X4326Y3068D01*
X4327Y3068D01*
X4328Y3068D01*
X4329Y3068D01*
X4330Y3068D01*
X4331Y3068D01*
X4332Y3068D01*
X4333Y3068D01*
X4334Y3068D01*
X4335Y3068D01*
X4336Y3068D01*
X4337Y3068D01*
X4338Y3068D01*
X4339Y3068D01*
X4340Y3068D01*
X4341Y3068D01*
X4342Y3068D01*
X4343Y3068D01*
X4344Y3068D01*
X4345Y3068D01*
X4346Y3068D01*
X4347Y3068D01*
X4348Y3068D01*
X4349Y3068D01*
X4350Y3068D01*
X4351Y3068D01*
X4352Y3068D01*
X4353Y3068D01*
X4354Y3068D01*
X4355Y3068D01*
X4356Y3068D01*
X4357Y3068D01*
X4358Y3068D01*
X4359Y3068D01*
X4360Y3068D01*
X4361Y3068D01*
X4362Y3068D01*
X4363Y3068D01*
X4364Y3068D01*
X4365Y3068D01*
X4366Y3068D01*
X4367Y3068D01*
X4368Y3068D01*
X4369Y3068D01*
X4370Y3068D01*
X4371Y3068D01*
X4372Y3068D01*
X4373Y3068D01*
X4374Y3068D01*
X4375Y3068D01*
X4376Y3068D01*
X4377Y3068D01*
X4378Y3068D01*
X4379Y3068D01*
X4380Y3068D01*
X4381Y3068D01*
X4382Y3068D01*
X4383Y3068D01*
X4384Y3068D01*
X4385Y3068D01*
X4386Y3068D01*
X4387Y3068D01*
X4388Y3068D01*
X4389Y3068D01*
X4390Y3068D01*
X4391Y3068D01*
X4392Y3068D01*
X4393Y3068D01*
X4394Y3068D01*
X4395Y3068D01*
X4396Y3068D01*
X4397Y3068D01*
X4398Y3068D01*
X4399Y3068D01*
X4400Y3068D01*
X4401Y3068D01*
X4402Y3068D01*
X4403Y3068D01*
X4404Y3068D01*
X4405Y3068D01*
X4406Y3068D01*
X4407Y3068D01*
X4408Y3068D01*
X4409Y3068D01*
X4410Y3068D01*
X4411Y3068D01*
X4412Y3068D01*
X4413Y3068D01*
X4414Y3068D01*
X4415Y3068D01*
X4416Y3068D01*
X4417Y3068D01*
X4418Y3068D01*
X4419Y3068D01*
X4420Y3068D01*
X4421Y3068D01*
X4422Y3068D01*
X4423Y3068D01*
X4424Y3068D01*
X4425Y3068D01*
X4426Y3068D01*
X4427Y3068D01*
X4428Y3068D01*
X4429Y3068D01*
X4430Y3068D01*
X4431Y3068D01*
X4432Y3068D01*
X4433Y3068D01*
X4434Y3068D01*
X4435Y3068D01*
X4436Y3068D01*
X4437Y3068D01*
X4438Y3068D01*
X4439Y3068D01*
X4440Y3068D01*
X4441Y3068D01*
X4442Y3068D01*
X4443Y3068D01*
X4444Y3068D01*
X4445Y3068D01*
X4446Y3068D01*
X4447Y3068D01*
X4448Y3068D01*
X4449Y3068D01*
X4450Y3068D01*
X4451Y3068D01*
X4452Y3068D01*
X4453Y3068D01*
X4454Y3068D01*
X4455Y3068D01*
X4456Y3068D01*
X4457Y3068D01*
X4458Y3068D01*
X4459Y3068D01*
X4460Y3068D01*
X4461Y3068D01*
X4462Y3068D01*
X4463Y3068D01*
X4464Y3068D01*
X4465Y3068D01*
X4466Y3068D01*
X4467Y3068D01*
X4468Y3068D01*
X4469Y3068D01*
X4470Y3068D01*
X4471Y3068D01*
X4472Y3068D01*
X4473Y3068D01*
X4474Y3068D01*
X4475Y3068D01*
X4476Y3068D01*
X4477Y3068D01*
X4478Y3068D01*
X4479Y3068D01*
X4480Y3068D01*
X4481Y3068D01*
X4482Y3068D01*
X4483Y3068D01*
X4484Y3068D01*
X4485Y3068D01*
X4486Y3068D01*
X4487Y3068D01*
X4488Y3068D01*
X4489Y3068D01*
X4490Y3068D01*
X4491Y3068D01*
X4492Y3068D01*
X4493Y3068D01*
X4494Y3068D01*
X4495Y3068D01*
X4496Y3068D01*
X4497Y3068D01*
X4498Y3068D01*
X4499Y3068D01*
X4500Y3068D01*
X4501Y3068D01*
X4502Y3068D01*
X4503Y3068D01*
X4504Y3068D01*
X4505Y3068D01*
X4506Y3068D01*
X4507Y3068D01*
X4508Y3068D01*
X4509Y3068D01*
X4510Y3068D01*
X4511Y3068D01*
X4512Y3068D01*
X4513Y3068D01*
X4514Y3068D01*
X4515Y3068D01*
X4516Y3068D01*
X4517Y3068D01*
X4518Y3068D01*
X4519Y3068D01*
X4520Y3068D01*
X4521Y3068D01*
X4522Y3068D01*
X4523Y3068D01*
X4524Y3068D01*
X4525Y3068D01*
X4526Y3068D01*
X4527Y3068D01*
X4528Y3068D01*
X4529Y3068D01*
X4530Y3068D01*
X4531Y3068D01*
X4532Y3068D01*
X4533Y3068D01*
X4534Y3068D01*
X4535Y3068D01*
X4536Y3068D01*
X4537Y3068D01*
X4538Y3068D01*
X4539Y3068D01*
X4540Y3068D01*
X4541Y3068D01*
X4542Y3068D01*
X4543Y3068D01*
X4544Y3068D01*
X4545Y3068D01*
X4546Y3068D01*
X4547Y3068D01*
X4548Y3068D01*
X4549Y3068D01*
X4550Y3068D01*
X4551Y3068D01*
X4552Y3068D01*
X4553Y3068D01*
X4554Y3068D01*
X4555Y3068D01*
X4556Y3068D01*
X4557Y3068D01*
X4558Y3068D01*
X4559Y3068D01*
X4560Y3068D01*
X4561Y3068D01*
X4562Y3068D01*
X4563Y3068D01*
X4564Y3068D01*
X4565Y3068D01*
X4566Y3068D01*
X4567Y3068D01*
X4568Y3068D01*
X4569Y3068D01*
X4570Y3068D01*
X4571Y3068D01*
X4572Y3068D01*
X4573Y3068D01*
X4574Y3068D01*
X4575Y3068D01*
X4576Y3068D01*
X4577Y3068D01*
X4578Y3068D01*
X4579Y3068D01*
X4580Y3068D01*
X4581Y3068D01*
X4582Y3068D01*
X4583Y3068D01*
X4584Y3068D01*
X4585Y3068D01*
X4586Y3068D01*
X4587Y3068D01*
X4588Y3068D01*
X4589Y3068D01*
X4590Y3068D01*
X4591Y3068D01*
X4592Y3068D01*
X4593Y3068D01*
X4594Y3068D01*
X4595Y3068D01*
X4596Y3068D01*
X4597Y3068D01*
X4598Y3068D01*
X4599Y3068D01*
X4600Y3068D01*
X4601Y3068D01*
X4602Y3068D01*
X4603Y3068D01*
X4604Y3068D01*
X4605Y3068D01*
X4606Y3068D01*
X4607Y3068D01*
X4608Y3068D01*
X4609Y3068D01*
X4610Y3068D01*
X4611Y3068D01*
X4612Y3068D01*
X4613Y3068D01*
X4614Y3068D01*
X4615Y3068D01*
X4616Y3068D01*
X4617Y3068D01*
X4618Y3068D01*
X4619Y3068D01*
X4620Y3068D01*
X4621Y3068D01*
X4622Y3068D01*
X4623Y3068D01*
X4624Y3068D01*
X4625Y3068D01*
X4626Y3068D01*
X4627Y3068D01*
X4628Y3068D01*
X4629Y3068D01*
X4630Y3068D01*
X4631Y3068D01*
X4632Y3068D01*
X4633Y3068D01*
X4634Y3068D01*
X4635Y3068D01*
X4636Y3068D01*
X4637Y3068D01*
X4638Y3068D01*
X4639Y3068D01*
X4640Y3068D01*
X4641Y3068D01*
X4642Y3068D01*
X4643Y3068D01*
X4644Y3068D01*
X4645Y3068D01*
X4646Y3068D01*
X4647Y3068D01*
X4648Y3068D01*
X4649Y3068D01*
X4650Y3068D01*
X4651Y3068D01*
X4652Y3068D01*
X4653Y3068D01*
X4654Y3068D01*
X4655Y3068D01*
X4656Y3068D01*
X4657Y3068D01*
X4658Y3068D01*
X4659Y3068D01*
X4660Y3068D01*
X4661Y3068D01*
X4662Y3068D01*
X4663Y3068D01*
X4664Y3068D01*
X4665Y3068D01*
X4666Y3068D01*
X4667Y3068D01*
X4668Y3068D01*
X4669Y3068D01*
X4670Y3068D01*
X4671Y3068D01*
X4672Y3068D01*
X4673Y3068D01*
X4674Y3068D01*
X4675Y3068D01*
X4676Y3068D01*
X4677Y3068D01*
X4678Y3068D01*
X4679Y3068D01*
X4680Y3068D01*
X4681Y3068D01*
X4682Y3068D01*
X4683Y3068D01*
X4684Y3068D01*
X4685Y3068D01*
X4686Y3068D01*
X4687Y3068D01*
X4688Y3068D01*
X4689Y3068D01*
X4690Y3068D01*
X4691Y3068D01*
X4692Y3068D01*
X4693Y3068D01*
X4694Y3068D01*
X4695Y3068D01*
X4696Y3068D01*
X4697Y3068D01*
X4698Y3068D01*
X4699Y3068D01*
X4700Y3068D01*
X4701Y3068D01*
X4702Y3068D01*
X4703Y3068D01*
X4704Y3068D01*
X4705Y3068D01*
X4706Y3068D01*
X4707Y3068D01*
X4708Y3068D01*
X4709Y3068D01*
X4710Y3068D01*
X4711Y3068D01*
X4712Y3068D01*
X4713Y3068D01*
X4714Y3068D01*
X4715Y3068D01*
X4716Y3068D01*
X4717Y3068D01*
X4718Y3068D01*
X4719Y3068D01*
X4720Y3068D01*
X4721Y3068D01*
X4722Y3068D01*
X4723Y3068D01*
X4724Y3068D01*
X4725Y3068D01*
X4726Y3068D01*
X4727Y3068D01*
X4728Y3068D01*
X4729Y3068D01*
X4730Y3068D01*
X4731Y3068D01*
X4732Y3068D01*
X4733Y3068D01*
X4734Y3068D01*
X4735Y3068D01*
X4736Y3068D01*
X4737Y3068D01*
X4738Y3068D01*
X4739Y3068D01*
X4740Y3068D01*
X4741Y3068D01*
X4742Y3068D01*
X4743Y3068D01*
X4744Y3068D01*
X4745Y3068D01*
X4746Y3068D01*
X4747Y3068D01*
X4748Y3068D01*
X4749Y3068D01*
X4750Y3068D01*
X4751Y3068D01*
X4752Y3068D01*
X4753Y3068D01*
X4754Y3068D01*
X4755Y3068D01*
X4756Y3068D01*
X4757Y3068D01*
X4758Y3068D01*
X4759Y3068D01*
X4760Y3068D01*
X4761Y3068D01*
X4762Y3068D01*
X4763Y3068D01*
X4764Y3068D01*
X4765Y3068D01*
X4766Y3068D01*
X4767Y3068D01*
X4768Y3068D01*
X4769Y3068D01*
X4770Y3068D01*
X4771Y3068D01*
X4772Y3068D01*
X4773Y3068D01*
X4774Y3068D01*
X4775Y3068D01*
X4776Y3068D01*
X4777Y3068D01*
X4778Y3068D01*
X4779Y3068D01*
X4780Y3068D01*
X4781Y3068D01*
X4782Y3068D01*
X4783Y3068D01*
X4784Y3068D01*
X4785Y3068D01*
X4786Y3068D01*
X4787Y3068D01*
X4788Y3068D01*
X4789Y3068D01*
X4790Y3068D01*
X4791Y3068D01*
X4792Y3068D01*
X4793Y3068D01*
X4794Y3068D01*
X4795Y3068D01*
X4796Y3068D01*
X4797Y3068D01*
X4798Y3068D01*
X4799Y3068D01*
X4800Y3068D01*
X4801Y3068D01*
X4802Y3068D01*
X4803Y3068D01*
X4804Y3068D01*
X4805Y3068D01*
X4806Y3068D01*
X4807Y3068D01*
X4808Y3068D01*
X4809Y3068D01*
X4810Y3068D01*
X4811Y3068D01*
X4812Y3068D01*
X4813Y3068D01*
X4814Y3068D01*
X4815Y3068D01*
X4816Y3068D01*
X4817Y3068D01*
X4818Y3068D01*
X4819Y3068D01*
X4820Y3068D01*
X4821Y3068D01*
X4822Y3068D01*
X4823Y3068D01*
X4824Y3068D01*
X4825Y3068D01*
X4826Y3068D01*
X4827Y3068D01*
X4828Y3068D01*
X4829Y3068D01*
X4830Y3068D01*
X4831Y3068D01*
X4832Y3068D01*
X4833Y3068D01*
X4834Y3068D01*
X4835Y3068D01*
X4836Y3068D01*
X4837Y3068D01*
X4838Y3068D01*
X4839Y3068D01*
X4840Y3068D01*
X4841Y3068D01*
X4842Y3068D01*
X4843Y3068D01*
X4844Y3068D01*
X4845Y3068D01*
X4846Y3068D01*
X4847Y3068D01*
X4848Y3068D01*
X4849Y3068D01*
X4850Y3068D01*
X4851Y3068D01*
X4852Y3068D01*
X4853Y3068D01*
X4854Y3068D01*
X4855Y3068D01*
X4856Y3068D01*
X4857Y3068D01*
X4858Y3068D01*
X4859Y3068D01*
X4860Y3068D01*
X4861Y3068D01*
X4862Y3068D01*
X4863Y3068D01*
X4864Y3068D01*
X4865Y3068D01*
X4866Y3068D01*
X4867Y3068D01*
X4868Y3068D01*
X4869Y3068D01*
X4870Y3068D01*
X4871Y3068D01*
X4872Y3068D01*
X4873Y3068D01*
X4874Y3068D01*
X4875Y3068D01*
X4876Y3068D01*
X4877Y3068D01*
X4878Y3068D01*
X4879Y3068D01*
X4880Y3068D01*
X4881Y3068D01*
X4882Y3068D01*
X4883Y3068D01*
X4884Y3068D01*
X4885Y3068D01*
X4886Y3068D01*
X4887Y3068D01*
X4888Y3068D01*
X4889Y3068D01*
X4890Y3068D01*
X4891Y3068D01*
X4892Y3068D01*
X4893Y3068D01*
X4894Y3068D01*
X4895Y3068D01*
X4896Y3068D01*
X4897Y3068D01*
X4898Y3068D01*
X4899Y3068D01*
X4900Y3068D01*
X4901Y3068D01*
X4902Y3068D01*
X4903Y3068D01*
X4904Y3068D01*
X4905Y3068D01*
X4906Y3068D01*
X4907Y3068D01*
X4908Y3068D01*
X4909Y3068D01*
X4910Y3068D01*
X4911Y3068D01*
X4912Y3068D01*
X4913Y3068D01*
X4914Y3068D01*
X4915Y3068D01*
X4916Y3068D01*
X4917Y3068D01*
X4918Y3068D01*
X4919Y3068D01*
X4920Y3068D01*
X4921Y3068D01*
X4922Y3068D01*
X4923Y3068D01*
X4924Y3068D01*
X4925Y3068D01*
X4926Y3068D01*
X4927Y3068D01*
X4928Y3068D01*
X4929Y3068D01*
X4930Y3068D01*
X4931Y3068D01*
X4932Y3068D01*
X4933Y3068D01*
X4934Y3068D01*
X4935Y3068D01*
X4936Y3068D01*
X4937Y3068D01*
X4938Y3068D01*
X4939Y3068D01*
X4940Y3068D01*
X4941Y3068D01*
X4942Y3068D01*
X4943Y3068D01*
X4944Y3068D01*
X4945Y3068D01*
X4946Y3068D01*
X4947Y3068D01*
X4948Y3068D01*
X4949Y3068D01*
X4950Y3068D01*
X4951Y3068D01*
X4952Y3068D01*
X4953Y3068D01*
X4954Y3068D01*
X4955Y3068D01*
X4956Y3068D01*
X4957Y3068D01*
X4958Y3068D01*
X4959Y3068D01*
X4960Y3068D01*
X4961Y3068D01*
X4962Y3068D01*
X4963Y3068D01*
X4964Y3068D01*
X4965Y3068D01*
X4966Y3068D01*
X4967Y3068D01*
X4968Y3068D01*
X4969Y3068D01*
X4970Y3068D01*
X4971Y3068D01*
X4972Y3068D01*
X4973Y3068D01*
X4974Y3068D01*
X4975Y3068D01*
X4976Y3068D01*
X4977Y3068D01*
X4978Y3068D01*
X4979Y3068D01*
X4980Y3068D01*
X4981Y3068D01*
X4982Y3068D01*
X4983Y3068D01*
X4984Y3068D01*
X4985Y3068D01*
X4986Y3068D01*
X4987Y3068D01*
X4988Y3068D01*
X4989Y3068D01*
X4990Y3068D01*
X4991Y3068D01*
X4992Y3068D01*
X4993Y3068D01*
X4994Y3068D01*
X4995Y3068D01*
X4996Y3068D01*
X4997Y3068D01*
X4998Y3068D01*
X4999Y3068D01*
X5000Y3068D01*
X5001Y3068D01*
X5002Y3068D01*
X5003Y3068D01*
X5004Y3068D01*
X5005Y3068D01*
X5006Y3068D01*
X5007Y3068D01*
X5008Y3068D01*
X5009Y3068D01*
X5010Y3068D01*
X5011Y3068D01*
X5012Y3068D01*
X5013Y3068D01*
X5014Y3068D01*
X5015Y3068D01*
X5016Y3068D01*
X5017Y3068D01*
X5018Y3068D01*
X5019Y3068D01*
X5020Y3068D01*
X5021Y3068D01*
X5022Y3068D01*
X5023Y3068D01*
X5024Y3068D01*
X5025Y3068D01*
X5026Y3068D01*
X5027Y3068D01*
X5028Y3068D01*
X5029Y3068D01*
X5030Y3068D01*
X5031Y3068D01*
X5032Y3068D01*
X5033Y3068D01*
X5034Y3068D01*
X5035Y3068D01*
X5036Y3068D01*
X5037Y3068D01*
X5038Y3068D01*
X5039Y3068D01*
X5040Y3068D01*
X5041Y3068D01*
X5042Y3068D01*
X5043Y3068D01*
X5044Y3068D01*
X5045Y3068D01*
X5046Y3068D01*
X5047Y3068D01*
X5048Y3068D01*
X5049Y3068D01*
X5050Y3068D01*
X5051Y3068D01*
X5052Y3068D01*
X5053Y3068D01*
X5054Y3068D01*
X5055Y3068D01*
X5056Y3068D01*
X5057Y3068D01*
X5058Y3068D01*
X5059Y3068D01*
X5060Y3068D01*
X5061Y3068D01*
X5062Y3068D01*
X5063Y3068D01*
X5064Y3068D01*
X5065Y3068D01*
X5066Y3068D01*
X5067Y3068D01*
X5068Y3068D01*
X5069Y3068D01*
X5070Y3068D01*
X5071Y3068D01*
X5072Y3068D01*
X5073Y3068D01*
X5074Y3068D01*
X5075Y3068D01*
X5076Y3068D01*
X5077Y3068D01*
X5078Y3068D01*
X5079Y3068D01*
X5080Y3068D01*
X5081Y3068D01*
X5082Y3068D01*
X5083Y3068D01*
X5084Y3068D01*
X5085Y3068D01*
X5086Y3068D01*
X5087Y3068D01*
X5088Y3068D01*
X5089Y3068D01*
X5090Y3068D01*
X5091Y3068D01*
X5092Y3068D01*
X5093Y3068D01*
X5094Y3068D01*
X5095Y3068D01*
X5096Y3068D01*
X5097Y3068D01*
X5098Y3068D01*
X5099Y3068D01*
X5100Y3068D01*
X5101Y3068D01*
X5102Y3068D01*
X5103Y3068D01*
X5104Y3068D01*
X5105Y3068D01*
X5106Y3068D01*
X5107Y3068D01*
X5108Y3068D01*
X5109Y3068D01*
X5110Y3068D01*
X5111Y3068D01*
X5112Y3068D01*
X5113Y3068D01*
X5114Y3068D01*
X5115Y3068D01*
X5116Y3068D01*
X5117Y3068D01*
X5118Y3068D01*
X5119Y3068D01*
X5120Y3068D01*
X5121Y3068D01*
X5122Y3068D01*
X5123Y3068D01*
X5124Y3068D01*
X5125Y3068D01*
X5126Y3068D01*
X5127Y3068D01*
X5128Y3068D01*
X5129Y3068D01*
X5130Y3068D01*
X5131Y3068D01*
X5132Y3068D01*
X5133Y3068D01*
X5134Y3068D01*
X5135Y3068D01*
X5136Y3068D01*
X5137Y3068D01*
X5138Y3068D01*
X5139Y3068D01*
X5140Y3068D01*
X5141Y3068D01*
X5142Y3068D01*
X5143Y3068D01*
X5144Y3068D01*
X5145Y3068D01*
X5146Y3068D01*
X5147Y3068D01*
X5148Y3068D01*
X5149Y3068D01*
X5150Y3068D01*
X5151Y3068D01*
X5152Y3068D01*
X5153Y3068D01*
X5154Y3068D01*
X5155Y3068D01*
X5156Y3068D01*
X5157Y3068D01*
X5158Y3068D01*
X5159Y3068D01*
X5160Y3068D01*
X5161Y3068D01*
X5162Y3068D01*
X5163Y3068D01*
X5164Y3068D01*
X5165Y3068D01*
X5166Y3068D01*
X5167Y3068D01*
X5168Y3068D01*
X5169Y3068D01*
X5170Y3068D01*
X5171Y3068D01*
X5172Y3068D01*
X5173Y3068D01*
X5174Y3068D01*
X5175Y3068D01*
X5176Y3068D01*
X5177Y3068D01*
X5178Y3068D01*
X5179Y3068D01*
X5180Y3068D01*
X5181Y3068D01*
X5182Y3068D01*
X5183Y3068D01*
X5184Y3068D01*
X5185Y3068D01*
X5186Y3068D01*
X5187Y3068D01*
X5188Y3068D01*
X5189Y3068D01*
X5190Y3068D01*
X5191Y3068D01*
X5192Y3068D01*
X5193Y3068D01*
X5194Y3068D01*
X5195Y3068D01*
X5196Y3068D01*
X5197Y3068D01*
X5198Y3068D01*
X5199Y3068D01*
X5200Y3068D01*
X5201Y3068D01*
X5202Y3068D01*
X5203Y3068D01*
X5204Y3068D01*
X5205Y3068D01*
X5206Y3068D01*
X5207Y3068D01*
X5208Y3068D01*
X5209Y3068D01*
X5210Y3068D01*
X5211Y3068D01*
X5212Y3068D01*
X5213Y3068D01*
X5214Y3068D01*
X5215Y3068D01*
X5216Y3068D01*
X5217Y3068D01*
X5218Y3068D01*
X5219Y3068D01*
X5220Y3068D01*
X5221Y3068D01*
X5222Y3068D01*
X5223Y3068D01*
X5224Y3068D01*
X5225Y3068D01*
X5226Y3068D01*
X5227Y3068D01*
X5228Y3068D01*
X5229Y3068D01*
X5230Y3068D01*
X5231Y3068D01*
X5232Y3068D01*
X5233Y3068D01*
X5234Y3068D01*
X5235Y3068D01*
X5236Y3068D01*
X5237Y3068D01*
X5238Y3068D01*
X5239Y3068D01*
X5240Y3068D01*
X5241Y3068D01*
X5242Y3068D01*
X5243Y3068D01*
X5244Y3068D01*
X5245Y3068D01*
X5246Y3068D01*
X5247Y3068D01*
X5248Y3068D01*
X5249Y3068D01*
X5250Y3068D01*
X5251Y3068D01*
X5252Y3068D01*
X5253Y3068D01*
X5254Y3068D01*
X5255Y3068D01*
X5256Y3068D01*
X5257Y3068D01*
X5258Y3068D01*
X5259Y3068D01*
X5260Y3068D01*
X5261Y3068D01*
X5262Y3068D01*
X5263Y3068D01*
X5264Y3068D01*
X5265Y3068D01*
X5266Y3068D01*
X5267Y3068D01*
X5268Y3068D01*
X5269Y3068D01*
X5270Y3068D01*
X5271Y3068D01*
X5272Y3068D01*
X5273Y3068D01*
X5274Y3068D01*
X5275Y3068D01*
X5276Y3068D01*
X5277Y3068D01*
X5278Y3068D01*
X5279Y3068D01*
X5280Y3068D01*
X5281Y3068D01*
X5282Y3068D01*
X5283Y3068D01*
X5284Y3068D01*
X5285Y3068D01*
X5286Y3068D01*
X5287Y3068D01*
X5288Y3068D01*
X5289Y3068D01*
X5290Y3068D01*
X5291Y3068D01*
X5292Y3068D01*
X5293Y3068D01*
X5294Y3068D01*
X5295Y3068D01*
X5296Y3068D01*
X5297Y3068D01*
X5298Y3068D01*
X5299Y3068D01*
X5300Y3068D01*
X5301Y3068D01*
X5302Y3068D01*
X5303Y3068D01*
X5304Y3068D01*
X5305Y3068D01*
X5306Y3068D01*
X5307Y3068D01*
X5308Y3068D01*
X5309Y3068D01*
X5310Y3068D01*
X5311Y3068D01*
X5312Y3068D01*
X5313Y3068D01*
X5314Y3068D01*
X5315Y3068D01*
X5316Y3068D01*
X5317Y3068D01*
X5318Y3068D01*
X5319Y3068D01*
X5320Y3068D01*
X5321Y3068D01*
X5322Y3068D01*
X5323Y3068D01*
X5324Y3068D01*
X5325Y3068D01*
X5326Y3068D01*
X5327Y3068D01*
X5328Y3068D01*
X5329Y3068D01*
X5330Y3068D01*
X5331Y3068D01*
X5332Y3068D01*
X5333Y3068D01*
X5334Y3068D01*
X5335Y3068D01*
X5336Y3068D01*
X5337Y3068D01*
X5338Y3068D01*
X5339Y3068D01*
X5340Y3068D01*
X5341Y3068D01*
X5342Y3068D01*
X5343Y3068D01*
X5344Y3068D01*
X5345Y3068D01*
X5346Y3068D01*
X5347Y3068D01*
X5348Y3068D01*
X5349Y3068D01*
X5350Y3068D01*
X5351Y3068D01*
X5352Y3068D01*
X5353Y3068D01*
X5354Y3068D01*
X5355Y3068D01*
X5356Y3067D01*
X5357Y3067D01*
X5358Y3067D01*
X5359Y3067D01*
X5360Y3067D01*
X5361Y3067D01*
X5362Y3067D01*
X5363Y3067D01*
X5364Y3067D01*
X5365Y3067D01*
X5366Y3067D01*
X5367Y3067D01*
X5368Y3067D01*
X5369Y3066D01*
X5370Y3066D01*
X5371Y3066D01*
X5372Y3066D01*
X5373Y3066D01*
X5374Y3066D01*
X5375Y3066D01*
X5376Y3066D01*
X5377Y3066D01*
X5378Y3066D01*
X5379Y3065D01*
X5380Y3065D01*
X5381Y3065D01*
X5382Y3065D01*
X5383Y3065D01*
X5384Y3065D01*
X5385Y3065D01*
X5386Y3065D01*
X5387Y3064D01*
X5388Y3064D01*
X5389Y3064D01*
X5390Y3064D01*
X5391Y3064D01*
X5392Y3064D01*
X5393Y3064D01*
X5394Y3063D01*
X5395Y3063D01*
X5396Y3063D01*
X5397Y3063D01*
X5398Y3063D01*
X5399Y3062D01*
X5400Y3062D01*
X5401Y3062D01*
X5402Y3062D01*
X5403Y3062D01*
X5404Y3062D01*
X5405Y3061D01*
X5406Y3061D01*
X5407Y3061D01*
X5408Y3061D01*
X5409Y3061D01*
X5410Y3060D01*
X5411Y3060D01*
X5412Y3060D01*
X5413Y3060D01*
X5414Y3059D01*
X5415Y3059D01*
X5416Y3059D01*
X5417Y3059D01*
X5418Y3059D01*
X5419Y3058D01*
X5420Y3058D01*
X5421Y3058D01*
X5422Y3058D01*
X5423Y3057D01*
X5424Y3057D01*
X5425Y3057D01*
X5426Y3057D01*
X5427Y3056D01*
X5428Y3056D01*
X5429Y3056D01*
X5430Y3056D01*
X5431Y3055D01*
X5432Y3055D01*
X5433Y3055D01*
X5434Y3055D01*
X5435Y3054D01*
X5436Y3054D01*
X5437Y3054D01*
X5438Y3053D01*
X5439Y3053D01*
X5440Y3053D01*
X5441Y3052D01*
X5442Y3052D01*
X5443Y3052D01*
X5444Y3052D01*
X5445Y3051D01*
X5446Y3051D01*
X5447Y3051D01*
X5448Y3050D01*
X5449Y3050D01*
X5450Y3050D01*
X5451Y3049D01*
X5452Y3049D01*
X5453Y3049D01*
X5454Y3048D01*
X5455Y3048D01*
X5456Y3047D01*
X5457Y3047D01*
X5458Y3047D01*
X5459Y3046D01*
X5460Y3046D01*
X5461Y3046D01*
X5462Y3045D01*
X5463Y3045D01*
X5464Y3045D01*
X5465Y3044D01*
X5466Y3044D01*
X5467Y3044D01*
X5468Y3043D01*
X5469Y3043D01*
X5470Y3042D01*
X5471Y3042D01*
X5472Y3041D01*
X5473Y3041D01*
X5474Y3041D01*
X5475Y3040D01*
X5476Y3040D01*
X5477Y3039D01*
X5478Y3039D01*
X5479Y3039D01*
X5480Y3038D01*
X5481Y3038D01*
X5482Y3037D01*
X5483Y3037D01*
X5484Y3036D01*
X5485Y3036D01*
X5486Y3036D01*
X5487Y3035D01*
X5488Y3035D01*
X5489Y3034D01*
X5490Y3034D01*
X5491Y3033D01*
X5492Y3033D01*
X5493Y3032D01*
X5494Y3032D01*
X5495Y3031D01*
X5496Y3031D01*
X5497Y3030D01*
X5498Y3030D01*
X5499Y3029D01*
X5500Y3029D01*
X5501Y3028D01*
X5502Y3028D01*
X5503Y3027D01*
X5504Y3027D01*
X5505Y3026D01*
X5506Y3026D01*
X5507Y3025D01*
X5508Y3025D01*
X5509Y3024D01*
X5510Y3024D01*
X5511Y3023D01*
X5512Y3023D01*
X5513Y3022D01*
X5514Y3022D01*
X5515Y3021D01*
X5516Y3020D01*
X5517Y3020D01*
X5518Y3019D01*
X5519Y3019D01*
X5520Y3018D01*
X5521Y3017D01*
X5522Y3017D01*
X5523Y3016D01*
X5524Y3016D01*
X5525Y3015D01*
X5526Y3014D01*
X5527Y3014D01*
X5528Y3013D01*
X5529Y3013D01*
X5530Y3012D01*
X5531Y3011D01*
X5532Y3011D01*
X5533Y3010D01*
X5534Y3009D01*
X5535Y3009D01*
X5536Y3008D01*
X5537Y3007D01*
X5538Y3007D01*
X5539Y3006D01*
X5540Y3005D01*
X5541Y3005D01*
X5542Y3004D01*
X5543Y3003D01*
X5544Y3003D01*
X5545Y3002D01*
X5546Y3001D01*
X5547Y3001D01*
X5548Y3000D01*
X5549Y2999D01*
X5550Y2999D01*
X5551Y2998D01*
X5552Y2997D01*
X5553Y2996D01*
X5554Y2996D01*
X5555Y2995D01*
X5556Y2994D01*
X5557Y2993D01*
X5558Y2993D01*
X5559Y2992D01*
X5560Y2991D01*
X5561Y2990D01*
X5562Y2990D01*
X5563Y2989D01*
X5564Y2988D01*
X5565Y2987D01*
X5566Y2986D01*
X5567Y2986D01*
X5568Y2985D01*
X5569Y2984D01*
X5570Y2983D01*
X5571Y2982D01*
X5572Y2981D01*
X5573Y2981D01*
X5574Y2980D01*
X5575Y2979D01*
X5576Y2978D01*
X5577Y2977D01*
X5578Y2976D01*
X5579Y2975D01*
X5580Y2975D01*
X5581Y2974D01*
X5582Y2973D01*
X5583Y2972D01*
X5584Y2971D01*
X5585Y2970D01*
X5586Y2969D01*
X5587Y2968D01*
X5588Y2967D01*
X5589Y2966D01*
X5590Y2965D01*
X5591Y2964D01*
X5592Y2963D01*
X5593Y2962D01*
X5594Y2961D01*
X5595Y2961D01*
X5596Y2960D01*
X5597Y2959D01*
X5598Y2958D01*
X5599Y2957D01*
X5600Y2956D01*
X5601Y2955D01*
X5602Y2954D01*
X5602Y2953D01*
X5603Y2952D01*
X5604Y2951D01*
X5605Y2950D01*
X5606Y2949D01*
X5607Y2948D01*
X5608Y2947D01*
X5609Y2946D01*
X5610Y2945D01*
X5611Y2944D01*
X5612Y2943D01*
X5613Y2942D01*
X5613Y2941D01*
X5614Y2940D01*
X5615Y2939D01*
X5616Y2938D01*
X5617Y2937D01*
X5618Y2936D01*
X5618Y2935D01*
X5619Y2934D01*
X5620Y2933D01*
X5621Y2932D01*
X5622Y2931D01*
X5623Y2930D01*
X5624Y2929D01*
X5624Y2928D01*
X5625Y2927D01*
X5626Y2926D01*
X5627Y2925D01*
X5627Y2924D01*
X5628Y2923D01*
X5629Y2922D01*
X5630Y2921D01*
X5630Y2920D01*
X5631Y2919D01*
X5632Y2918D01*
X5633Y2917D01*
X5633Y2916D01*
X5634Y2915D01*
X5635Y2914D01*
X5636Y2913D01*
X5636Y2912D01*
X5637Y2911D01*
X5638Y2910D01*
X5639Y2909D01*
X5639Y2908D01*
X5640Y2907D01*
X5641Y2906D01*
X5641Y2905D01*
X5642Y2904D01*
X5643Y2903D01*
X5643Y2902D01*
X5644Y2901D01*
X5645Y2900D01*
X5645Y2899D01*
X5646Y2898D01*
X5647Y2897D01*
X5647Y2896D01*
X5648Y2895D01*
X5649Y2894D01*
X5649Y2893D01*
X5650Y2892D01*
X5650Y2891D01*
X5651Y2890D01*
X5652Y2889D01*
X5652Y2888D01*
X5653Y2887D01*
X5654Y2886D01*
X5654Y2885D01*
X5655Y2884D01*
X5655Y2883D01*
X5656Y2882D01*
X5657Y2881D01*
X5657Y2880D01*
X5658Y2879D01*
X5658Y2878D01*
X5659Y2877D01*
X5659Y2876D01*
X5660Y2875D01*
X5660Y2874D01*
X5661Y2873D01*
X5662Y2872D01*
X5662Y2871D01*
X5663Y2870D01*
X5663Y2869D01*
X5664Y2868D01*
X5664Y2867D01*
X5665Y2866D01*
X5665Y2865D01*
X5666Y2864D01*
X5666Y2863D01*
X5667Y2862D01*
X5667Y2861D01*
X5668Y2860D01*
X5668Y2859D01*
X5669Y2858D01*
X5669Y2857D01*
X5670Y2856D01*
X5670Y2855D01*
X5671Y2854D01*
X5671Y2853D01*
X5672Y2852D01*
X5672Y2851D01*
X5673Y2850D01*
X5673Y2849D01*
X5674Y2848D01*
X5674Y2847D01*
X5675Y2846D01*
X5675Y2844D01*
X5676Y2843D01*
X5676Y2842D01*
X5677Y2841D01*
X5677Y2840D01*
X5678Y2839D01*
X5678Y2838D01*
X5679Y2837D01*
X5679Y2835D01*
X5680Y2834D01*
X5680Y2833D01*
X5681Y2832D01*
X5681Y2830D01*
X5682Y2829D01*
X5682Y2828D01*
X5683Y2827D01*
X5683Y2825D01*
X5684Y2824D01*
X5684Y2823D01*
X5685Y2822D01*
X5685Y2820D01*
X5686Y2819D01*
X5686Y2817D01*
X5687Y2816D01*
X5687Y2815D01*
X5688Y2814D01*
X5688Y2812D01*
X5689Y2811D01*
X5689Y2808D01*
X5690Y2807D01*
X5690Y2805D01*
X5691Y2804D01*
X5691Y2802D01*
X5692Y2801D01*
X5692Y2799D01*
X5693Y2798D01*
X5693Y2796D01*
X5694Y2795D01*
X5694Y2792D01*
X5695Y2791D01*
X5695Y2789D01*
X5696Y2788D01*
X5696Y2785D01*
X5697Y2784D01*
X5697Y2782D01*
X5698Y2781D01*
X5698Y2778D01*
X5699Y2777D01*
X5699Y2774D01*
X5700Y2773D01*
X5700Y2769D01*
X5701Y2768D01*
X5701Y2765D01*
X5702Y2764D01*
X5702Y2760D01*
X5703Y2759D01*
X5703Y2754D01*
X5704Y2753D01*
X5704Y2749D01*
X5705Y2748D01*
X5705Y2742D01*
X5706Y2741D01*
X5706Y2735D01*
X5707Y2734D01*
X5707Y2727D01*
X5708Y2726D01*
X5708Y2717D01*
X5709Y2716D01*
X5709Y2703D01*
X5710Y2702D01*
X5710Y368D01*
X5709Y367D01*
X5709Y354D01*
X5708Y353D01*
X5708Y344D01*
X5707Y343D01*
X5707Y336D01*
X5706Y335D01*
X5706Y329D01*
X5705Y328D01*
X5705Y322D01*
X5704Y321D01*
X5704Y317D01*
X5703Y316D01*
X5703Y311D01*
X5702Y310D01*
X5702Y306D01*
X5701Y305D01*
X5701Y302D01*
X5700Y301D01*
X5700Y297D01*
X5699Y296D01*
X5699Y293D01*
X5698Y292D01*
X5698Y289D01*
X5697Y288D01*
X5697Y286D01*
X5696Y285D01*
X5696Y282D01*
X5695Y281D01*
X5695Y279D01*
X5694Y278D01*
X5694Y275D01*
X5693Y274D01*
X5693Y272D01*
X5692Y271D01*
X5692Y269D01*
X5691Y268D01*
X5691Y266D01*
X5690Y265D01*
X5690Y263D01*
X5689Y262D01*
X5689Y259D01*
X5688Y258D01*
X5688Y256D01*
X5687Y255D01*
X5687Y254D01*
X5686Y253D01*
X5686Y251D01*
X5685Y250D01*
X5685Y248D01*
X5684Y247D01*
X5684Y246D01*
X5683Y245D01*
X5683Y243D01*
X5682Y242D01*
X5682Y241D01*
X5681Y240D01*
X5681Y238D01*
X5680Y237D01*
X5680Y236D01*
X5679Y235D01*
X5679Y233D01*
X5678Y232D01*
X5678Y231D01*
X5677Y230D01*
X5677Y229D01*
X5676Y228D01*
X5676Y227D01*
X5675Y226D01*
X5675Y224D01*
X5674Y223D01*
X5674Y222D01*
X5673Y221D01*
X5673Y220D01*
X5672Y219D01*
X5672Y218D01*
X5671Y217D01*
X5671Y216D01*
X5670Y215D01*
X5670Y214D01*
X5669Y213D01*
X5669Y212D01*
X5668Y211D01*
X5668Y210D01*
X5667Y209D01*
X5667Y208D01*
X5666Y207D01*
X5666Y206D01*
X5665Y205D01*
X5665Y204D01*
X5664Y203D01*
X5664Y202D01*
X5663Y201D01*
X5663Y200D01*
X5662Y199D01*
X5662Y198D01*
X5661Y197D01*
X5660Y196D01*
X5660Y195D01*
X5659Y194D01*
X5659Y193D01*
X5658Y192D01*
X5658Y191D01*
X5657Y190D01*
X5657Y189D01*
X5656Y188D01*
X5655Y187D01*
X5655Y186D01*
X5654Y185D01*
X5654Y184D01*
X5653Y183D01*
X5652Y182D01*
X5652Y181D01*
X5651Y180D01*
X5650Y179D01*
X5650Y178D01*
X5649Y177D01*
X5649Y176D01*
X5648Y175D01*
X5647Y174D01*
X5647Y173D01*
X5646Y172D01*
X5645Y171D01*
X5645Y170D01*
X5644Y169D01*
X5643Y168D01*
X5643Y167D01*
X5642Y166D01*
X5641Y165D01*
X5641Y164D01*
X5640Y163D01*
X5639Y162D01*
X5639Y161D01*
X5638Y160D01*
X5637Y159D01*
X5636Y158D01*
X5636Y157D01*
X5635Y156D01*
X5634Y155D01*
X5633Y154D01*
X5633Y153D01*
X5632Y152D01*
X5631Y151D01*
X5630Y150D01*
X5630Y149D01*
X5629Y148D01*
X5628Y147D01*
X5627Y146D01*
X5627Y145D01*
X5626Y144D01*
X5625Y143D01*
X5624Y142D01*
X5624Y141D01*
X5623Y140D01*
X5622Y139D01*
X5621Y138D01*
X5620Y137D01*
X5619Y136D01*
X5618Y135D01*
X5618Y134D01*
X5617Y133D01*
X5616Y132D01*
X5615Y131D01*
X5614Y130D01*
X5613Y129D01*
X5613Y128D01*
X5612Y127D01*
X5611Y126D01*
X5610Y125D01*
X5609Y124D01*
X5608Y123D01*
X5607Y122D01*
X5606Y121D01*
X5605Y120D01*
X5604Y119D01*
X5603Y118D01*
X5602Y117D01*
X5602Y116D01*
X5601Y115D01*
X5600Y114D01*
X5599Y113D01*
X5598Y112D01*
X5597Y111D01*
X5596Y110D01*
X5595Y109D01*
X5594Y109D01*
X5593Y108D01*
X5592Y107D01*
X5591Y106D01*
X5590Y105D01*
X5589Y104D01*
X5588Y103D01*
X5587Y102D01*
X5586Y101D01*
X5585Y100D01*
X5584Y99D01*
X5583Y98D01*
X5582Y97D01*
X5581Y96D01*
X5580Y95D01*
X5579Y95D01*
X5578Y94D01*
X5577Y93D01*
X5576Y92D01*
X5575Y91D01*
X5574Y90D01*
X5573Y89D01*
X5572Y89D01*
X5571Y88D01*
X5570Y87D01*
X5569Y86D01*
X5568Y85D01*
X5567Y84D01*
X5566Y84D01*
X5565Y83D01*
X5564Y82D01*
X5563Y81D01*
X5562Y80D01*
X5561Y80D01*
X5560Y79D01*
X5559Y78D01*
X5558Y77D01*
X5557Y77D01*
X5556Y76D01*
X5555Y75D01*
X5554Y74D01*
X5553Y74D01*
X5552Y73D01*
X5551Y72D01*
X5550Y71D01*
X5549Y71D01*
X5548Y70D01*
X5547Y69D01*
X5546Y69D01*
X5545Y68D01*
X5544Y67D01*
X5543Y67D01*
X5542Y66D01*
X5541Y65D01*
X5540Y65D01*
X5539Y64D01*
X5538Y63D01*
X5537Y63D01*
X5536Y62D01*
X5535Y61D01*
X5534Y61D01*
X5533Y60D01*
X5532Y59D01*
X5531Y59D01*
X5530Y58D01*
X5529Y57D01*
X5528Y57D01*
X5527Y56D01*
X5526Y56D01*
X5525Y55D01*
X5524Y54D01*
X5523Y54D01*
X5522Y53D01*
X5521Y53D01*
X5520Y52D01*
X5519Y51D01*
X5518Y51D01*
X5517Y50D01*
X5516Y50D01*
X5515Y49D01*
X5514Y48D01*
X5513Y48D01*
X5512Y47D01*
X5511Y47D01*
X5510Y46D01*
X5509Y46D01*
X5508Y45D01*
X5507Y45D01*
X5506Y44D01*
X5505Y44D01*
X5504Y43D01*
X5503Y43D01*
X5502Y42D01*
X5501Y42D01*
X5500Y41D01*
X5499Y41D01*
X5498Y40D01*
X5497Y40D01*
X5496Y39D01*
X5495Y39D01*
X5494Y38D01*
X5493Y38D01*
X5492Y37D01*
X5491Y37D01*
X5490Y36D01*
X5489Y36D01*
X5488Y35D01*
X5487Y35D01*
X5486Y34D01*
X5485Y34D01*
X5484Y34D01*
X5483Y33D01*
X5482Y33D01*
X5481Y32D01*
X5480Y32D01*
X5479Y31D01*
X5478Y31D01*
X5477Y31D01*
X5476Y30D01*
X5475Y30D01*
X5474Y29D01*
X5473Y29D01*
X5472Y29D01*
X5471Y28D01*
X5470Y28D01*
X5469Y27D01*
X5468Y27D01*
X5467Y26D01*
X5466Y26D01*
X5465Y26D01*
X5464Y25D01*
X5463Y25D01*
X5462Y25D01*
X5461Y24D01*
X5460Y24D01*
X5459Y24D01*
X5458Y23D01*
X5457Y23D01*
X5456Y23D01*
X5455Y22D01*
X5454Y22D01*
X5453Y21D01*
X5452Y21D01*
X5451Y21D01*
X5450Y20D01*
X5449Y20D01*
X5448Y20D01*
X5447Y19D01*
X5446Y19D01*
X5445Y19D01*
X5444Y18D01*
X5443Y18D01*
X5442Y18D01*
X5441Y18D01*
X5440Y17D01*
X5439Y17D01*
X5438Y17D01*
X5437Y16D01*
X5436Y16D01*
X5435Y16D01*
X5434Y16D01*
X5433Y15D01*
X5432Y15D01*
X5431Y15D01*
X5430Y14D01*
X5429Y14D01*
X5428Y14D01*
X5427Y14D01*
X5426Y13D01*
X5425Y13D01*
X5424Y13D01*
X5423Y13D01*
X5422Y12D01*
X5421Y12D01*
X5420Y12D01*
X5419Y12D01*
X5418Y11D01*
X5417Y11D01*
X5416Y11D01*
X5415Y11D01*
X5414Y11D01*
X5413Y10D01*
X5412Y10D01*
X5411Y10D01*
X5410Y10D01*
X5409Y9D01*
X5408Y9D01*
X5407Y9D01*
X5406Y9D01*
X5405Y9D01*
X5404Y8D01*
X5403Y8D01*
X5402Y8D01*
X5401Y8D01*
X5400Y8D01*
X5399Y8D01*
X5398Y7D01*
X5397Y7D01*
X5396Y7D01*
X5395Y7D01*
X5394Y7D01*
X5393Y6D01*
X5392Y6D01*
X5391Y6D01*
X5390Y6D01*
X5389Y6D01*
X5388Y6D01*
X5387Y6D01*
X5386Y5D01*
X5385Y5D01*
X5384Y5D01*
X5383Y5D01*
X5382Y5D01*
X5381Y5D01*
X5380Y5D01*
X5379Y5D01*
X5378Y4D01*
X5377Y4D01*
X5376Y4D01*
X5375Y4D01*
X5374Y4D01*
X5373Y4D01*
X5372Y4D01*
X5371Y4D01*
X5370Y4D01*
X5369Y4D01*
X5368Y3D01*
X5367Y3D01*
X5366Y3D01*
X5365Y3D01*
X5364Y3D01*
X5363Y3D01*
X5362Y3D01*
X5361Y3D01*
X5360Y3D01*
X5359Y3D01*
X5358Y3D01*
X5357Y3D01*
X5356Y3D01*
X5355Y2D01*
X5354Y2D01*
X5353Y2D01*
X5352Y2D01*
X5351Y2D01*
X5350Y2D01*
X5349Y2D01*
X5348Y2D01*
X5347Y2D01*
X5346Y2D01*
X5345Y2D01*
X5344Y2D01*
X5343Y2D01*
X5342Y2D01*
X5341Y2D01*
X5340Y2D01*
X5339Y2D01*
X5338Y2D01*
X5337Y2D01*
X5336Y2D01*
X5335Y2D01*
X5334Y2D01*
X5333Y2D01*
X5332Y2D01*
X5331Y2D01*
X5330Y2D01*
X5329Y2D01*
X5328Y2D01*
X5327Y2D01*
X5326Y2D01*
X5325Y2D01*
X5324Y2D01*
X5323Y2D01*
X5322Y2D01*
X5321Y2D01*
X5320Y2D01*
X5319Y2D01*
X5318Y2D01*
X5317Y2D01*
X5316Y2D01*
X5315Y2D01*
X5314Y2D01*
X5313Y2D01*
X5312Y2D01*
X5311Y2D01*
X5310Y2D01*
X5309Y2D01*
X5308Y2D01*
X5307Y2D01*
X5306Y2D01*
X5305Y2D01*
X5304Y2D01*
X5303Y2D01*
X5302Y2D01*
X5301Y2D01*
X5300Y2D01*
X5299Y2D01*
X5298Y2D01*
X5297Y2D01*
X5296Y2D01*
X5295Y2D01*
X5294Y2D01*
X5293Y2D01*
X5292Y2D01*
X5291Y2D01*
X5290Y2D01*
X5289Y2D01*
X5288Y2D01*
X5287Y2D01*
X5286Y2D01*
X5285Y2D01*
X5284Y2D01*
X5283Y2D01*
X5282Y2D01*
X5281Y2D01*
X5280Y2D01*
X5279Y2D01*
X5278Y2D01*
X5277Y2D01*
X5276Y2D01*
X5275Y2D01*
X5274Y2D01*
X5273Y2D01*
X5272Y2D01*
X5271Y2D01*
X5270Y2D01*
X5269Y2D01*
X5268Y2D01*
X5267Y2D01*
X5266Y2D01*
X5265Y2D01*
X5264Y2D01*
X5263Y2D01*
X5262Y2D01*
X5261Y2D01*
X5260Y2D01*
X5259Y2D01*
X5258Y2D01*
X5257Y2D01*
X5256Y2D01*
X5255Y2D01*
X5254Y2D01*
X5253Y2D01*
X5252Y2D01*
X5251Y2D01*
X5250Y2D01*
X5249Y2D01*
X5248Y2D01*
X5247Y2D01*
X5246Y2D01*
X5245Y2D01*
X5244Y2D01*
X5243Y2D01*
X5242Y2D01*
X5241Y2D01*
X5240Y2D01*
X5239Y2D01*
X5238Y2D01*
X5237Y2D01*
X5236Y2D01*
X5235Y2D01*
X5234Y2D01*
X5233Y2D01*
X5232Y2D01*
X5231Y2D01*
X5230Y2D01*
X5229Y2D01*
X5228Y2D01*
X5227Y2D01*
X5226Y2D01*
X5225Y2D01*
X5224Y2D01*
X5223Y2D01*
X5222Y2D01*
X5221Y2D01*
X5220Y2D01*
X5219Y2D01*
X5218Y2D01*
X5217Y2D01*
X5216Y2D01*
X5215Y2D01*
X5214Y2D01*
X5213Y2D01*
X5212Y2D01*
X5211Y2D01*
X5210Y2D01*
X5209Y2D01*
X5208Y2D01*
X5207Y2D01*
X5206Y2D01*
X5205Y2D01*
X5204Y2D01*
X5203Y2D01*
X5202Y2D01*
X5201Y2D01*
X5200Y2D01*
X5199Y2D01*
X5198Y2D01*
X5197Y2D01*
X5196Y2D01*
X5195Y2D01*
X5194Y2D01*
X5193Y2D01*
X5192Y2D01*
X5191Y2D01*
X5190Y2D01*
X5189Y2D01*
X5188Y2D01*
X5187Y2D01*
X5186Y2D01*
X5185Y2D01*
X5184Y2D01*
X5183Y2D01*
X5182Y2D01*
X5181Y2D01*
X5180Y2D01*
X5179Y2D01*
X5178Y2D01*
X5177Y2D01*
X5176Y2D01*
X5175Y2D01*
X5174Y2D01*
X5173Y2D01*
X5172Y2D01*
X5171Y2D01*
X5170Y2D01*
X5169Y2D01*
X5168Y2D01*
X5167Y2D01*
X5166Y2D01*
X5165Y2D01*
X5164Y2D01*
X5163Y2D01*
X5162Y2D01*
X5161Y2D01*
X5160Y2D01*
X5159Y2D01*
X5158Y2D01*
X5157Y2D01*
X5156Y2D01*
X5155Y2D01*
X5154Y2D01*
X5153Y2D01*
X5152Y2D01*
X5151Y2D01*
X5150Y2D01*
X5149Y2D01*
X5148Y2D01*
X5147Y2D01*
X5146Y2D01*
X5145Y2D01*
X5144Y2D01*
X5143Y2D01*
X5142Y2D01*
X5141Y2D01*
X5140Y2D01*
X5139Y2D01*
X5138Y2D01*
X5137Y2D01*
X5136Y2D01*
X5135Y2D01*
X5134Y2D01*
X5133Y2D01*
X5132Y2D01*
X5131Y2D01*
X5130Y2D01*
X5129Y2D01*
X5128Y2D01*
X5127Y2D01*
X5126Y2D01*
X5125Y2D01*
X5124Y2D01*
X5123Y2D01*
X5122Y2D01*
X5121Y2D01*
X5120Y2D01*
X5119Y2D01*
X5118Y2D01*
X5117Y2D01*
X5116Y2D01*
X5115Y2D01*
X5114Y2D01*
X5113Y2D01*
X5112Y2D01*
X5111Y2D01*
X5110Y2D01*
X5109Y2D01*
X5108Y2D01*
X5107Y2D01*
X5106Y2D01*
X5105Y2D01*
X5104Y2D01*
X5103Y2D01*
X5102Y2D01*
X5101Y2D01*
X5100Y2D01*
X5099Y2D01*
X5098Y2D01*
X5097Y2D01*
X5096Y2D01*
X5095Y2D01*
X5094Y2D01*
X5093Y2D01*
X5092Y2D01*
X5091Y2D01*
X5090Y2D01*
X5089Y2D01*
X5088Y2D01*
X5087Y2D01*
X5086Y2D01*
X5085Y2D01*
X5084Y2D01*
X5083Y2D01*
X5082Y2D01*
X5081Y2D01*
X5080Y2D01*
X5079Y2D01*
X5078Y2D01*
X5077Y2D01*
X5076Y2D01*
X5075Y2D01*
X5074Y2D01*
X5073Y2D01*
X5072Y2D01*
X5071Y2D01*
X5070Y2D01*
X5069Y2D01*
X5068Y2D01*
X5067Y2D01*
X5066Y2D01*
X5065Y2D01*
X5064Y2D01*
X5063Y2D01*
X5062Y2D01*
X5061Y2D01*
X5060Y2D01*
X5059Y2D01*
X5058Y2D01*
X5057Y2D01*
X5056Y2D01*
X5055Y2D01*
X5054Y2D01*
X5053Y2D01*
X5052Y2D01*
X5051Y2D01*
X5050Y2D01*
X5049Y2D01*
X5048Y2D01*
X5047Y2D01*
X5046Y2D01*
X5045Y2D01*
X5044Y2D01*
X5043Y2D01*
X5042Y2D01*
X5041Y2D01*
X5040Y2D01*
X5039Y2D01*
X5038Y2D01*
X5037Y2D01*
X5036Y2D01*
X5035Y2D01*
X5034Y2D01*
X5033Y2D01*
X5032Y2D01*
X5031Y2D01*
X5030Y2D01*
X5029Y2D01*
X5028Y2D01*
X5027Y2D01*
X5026Y2D01*
X5025Y2D01*
X5024Y2D01*
X5023Y2D01*
X5022Y2D01*
X5021Y2D01*
X5020Y2D01*
X5019Y2D01*
X5018Y2D01*
X5017Y2D01*
X5016Y2D01*
X5015Y2D01*
X5014Y2D01*
X5013Y2D01*
X5012Y2D01*
X5011Y2D01*
X5010Y2D01*
X5009Y2D01*
X5008Y2D01*
X5007Y2D01*
X5006Y2D01*
X5005Y2D01*
X5004Y2D01*
X5003Y2D01*
X5002Y2D01*
X5001Y2D01*
X5000Y2D01*
X4999Y2D01*
X4998Y2D01*
X4997Y2D01*
X4996Y2D01*
X4995Y2D01*
X4994Y2D01*
X4993Y2D01*
X4992Y2D01*
X4991Y2D01*
X4990Y2D01*
X4989Y2D01*
X4988Y2D01*
X4987Y2D01*
X4986Y2D01*
X4985Y2D01*
X4984Y2D01*
X4983Y2D01*
X4982Y2D01*
X4981Y2D01*
X4980Y2D01*
X4979Y2D01*
X4978Y2D01*
X4977Y2D01*
X4976Y2D01*
X4975Y2D01*
X4974Y2D01*
X4973Y2D01*
X4972Y2D01*
X4971Y2D01*
X4970Y2D01*
X4969Y2D01*
X4968Y2D01*
X4967Y2D01*
X4966Y2D01*
X4965Y2D01*
X4964Y2D01*
X4963Y2D01*
X4962Y2D01*
X4961Y2D01*
X4960Y2D01*
X4959Y2D01*
X4958Y2D01*
X4957Y2D01*
X4956Y2D01*
X4955Y2D01*
X4954Y2D01*
X4953Y2D01*
X4952Y2D01*
X4951Y2D01*
X4950Y2D01*
X4949Y2D01*
X4948Y2D01*
X4947Y2D01*
X4946Y2D01*
X4945Y2D01*
X4944Y2D01*
X4943Y2D01*
X4942Y2D01*
X4941Y2D01*
X4940Y2D01*
X4939Y2D01*
X4938Y2D01*
X4937Y2D01*
X4936Y2D01*
X4935Y2D01*
X4934Y2D01*
X4933Y2D01*
X4932Y2D01*
X4931Y2D01*
X4930Y2D01*
X4929Y2D01*
X4928Y2D01*
X4927Y2D01*
X4926Y2D01*
X4925Y2D01*
X4924Y2D01*
X4923Y2D01*
X4922Y2D01*
X4921Y2D01*
X4920Y2D01*
X4919Y2D01*
X4918Y2D01*
X4917Y2D01*
X4916Y2D01*
X4915Y2D01*
X4914Y2D01*
X4913Y2D01*
X4912Y2D01*
X4911Y2D01*
X4910Y2D01*
X4909Y2D01*
X4908Y2D01*
X4907Y2D01*
X4906Y2D01*
X4905Y2D01*
X4904Y2D01*
X4903Y2D01*
X4902Y2D01*
X4901Y2D01*
X4900Y2D01*
X4899Y2D01*
X4898Y2D01*
X4897Y2D01*
X4896Y2D01*
X4895Y2D01*
X4894Y2D01*
X4893Y2D01*
X4892Y2D01*
X4891Y2D01*
X4890Y2D01*
X4889Y2D01*
X4888Y2D01*
X4887Y2D01*
X4886Y2D01*
X4885Y2D01*
X4884Y2D01*
X4883Y2D01*
X4882Y2D01*
X4881Y2D01*
X4880Y2D01*
X4879Y2D01*
X4878Y2D01*
X4877Y2D01*
X4876Y2D01*
X4875Y2D01*
X4874Y2D01*
X4873Y2D01*
X4872Y2D01*
X4871Y2D01*
X4870Y2D01*
X4869Y2D01*
X4868Y2D01*
X4867Y2D01*
X4866Y2D01*
X4865Y2D01*
X4864Y2D01*
X4863Y2D01*
X4862Y2D01*
X4861Y2D01*
X4860Y2D01*
X4859Y2D01*
X4858Y2D01*
X4857Y2D01*
X4856Y2D01*
X4855Y2D01*
X4854Y2D01*
X4853Y2D01*
X4852Y2D01*
X4851Y2D01*
X4850Y2D01*
X4849Y2D01*
X4848Y2D01*
X4847Y2D01*
X4846Y2D01*
X4845Y2D01*
X4844Y2D01*
X4843Y2D01*
X4842Y2D01*
X4841Y2D01*
X4840Y2D01*
X4839Y2D01*
X4838Y2D01*
X4837Y2D01*
X4836Y2D01*
X4835Y2D01*
X4834Y2D01*
X4833Y2D01*
X4832Y2D01*
X4831Y2D01*
X4830Y2D01*
X4829Y2D01*
X4828Y2D01*
X4827Y2D01*
X4826Y2D01*
X4825Y2D01*
X4824Y2D01*
X4823Y2D01*
X4822Y2D01*
X4821Y2D01*
X4820Y2D01*
X4819Y2D01*
X4818Y2D01*
X4817Y2D01*
X4816Y2D01*
X4815Y2D01*
X4814Y2D01*
X4813Y2D01*
X4812Y2D01*
X4811Y2D01*
X4810Y2D01*
X4809Y2D01*
X4808Y2D01*
X4807Y2D01*
X4806Y2D01*
X4805Y2D01*
X4804Y2D01*
X4803Y2D01*
X4802Y2D01*
X4801Y2D01*
X4800Y2D01*
X4799Y2D01*
X4798Y2D01*
X4797Y2D01*
X4796Y2D01*
X4795Y2D01*
X4794Y2D01*
X4793Y2D01*
X4792Y2D01*
X4791Y2D01*
X4790Y2D01*
X4789Y2D01*
X4788Y2D01*
X4787Y2D01*
X4786Y2D01*
X4785Y2D01*
X4784Y2D01*
X4783Y2D01*
X4782Y2D01*
X4781Y2D01*
X4780Y2D01*
X4779Y2D01*
X4778Y2D01*
X4777Y2D01*
X4776Y2D01*
X4775Y2D01*
X4774Y2D01*
X4773Y2D01*
X4772Y2D01*
X4771Y2D01*
X4770Y2D01*
X4769Y2D01*
X4768Y2D01*
X4767Y2D01*
X4766Y2D01*
X4765Y2D01*
X4764Y2D01*
X4763Y2D01*
X4762Y2D01*
X4761Y2D01*
X4760Y2D01*
X4759Y2D01*
X4758Y2D01*
X4757Y2D01*
X4756Y2D01*
X4755Y2D01*
X4754Y2D01*
X4753Y2D01*
X4752Y2D01*
X4751Y2D01*
X4750Y2D01*
X4749Y2D01*
X4748Y2D01*
X4747Y2D01*
X4746Y2D01*
X4745Y2D01*
X4744Y2D01*
X4743Y2D01*
X4742Y2D01*
X4741Y2D01*
X4740Y2D01*
X4739Y2D01*
X4738Y2D01*
X4737Y2D01*
X4736Y2D01*
X4735Y2D01*
X4734Y2D01*
X4733Y2D01*
X4732Y2D01*
X4731Y2D01*
X4730Y2D01*
X4729Y2D01*
X4728Y2D01*
X4727Y2D01*
X4726Y2D01*
X4725Y2D01*
X4724Y2D01*
X4723Y2D01*
X4722Y2D01*
X4721Y2D01*
X4720Y2D01*
X4719Y2D01*
X4718Y2D01*
X4717Y2D01*
X4716Y2D01*
X4715Y2D01*
X4714Y2D01*
X4713Y2D01*
X4712Y2D01*
X4711Y2D01*
X4710Y2D01*
X4709Y2D01*
X4708Y2D01*
X4707Y2D01*
X4706Y2D01*
X4705Y2D01*
X4704Y2D01*
X4703Y2D01*
X4702Y2D01*
X4701Y2D01*
X4700Y2D01*
X4699Y2D01*
X4698Y2D01*
X4697Y2D01*
X4696Y2D01*
X4695Y2D01*
X4694Y2D01*
X4693Y2D01*
X4692Y2D01*
X4691Y2D01*
X4690Y2D01*
X4689Y2D01*
X4688Y2D01*
X4687Y2D01*
X4686Y2D01*
X4685Y2D01*
X4684Y2D01*
X4683Y2D01*
X4682Y2D01*
X4681Y2D01*
X4680Y2D01*
X4679Y2D01*
X4678Y2D01*
X4677Y2D01*
X4676Y2D01*
X4675Y2D01*
X4674Y2D01*
X4673Y2D01*
X4672Y2D01*
X4671Y2D01*
X4670Y2D01*
X4669Y2D01*
X4668Y2D01*
X4667Y2D01*
X4666Y2D01*
X4665Y2D01*
X4664Y2D01*
X4663Y2D01*
X4662Y2D01*
X4661Y2D01*
X4660Y2D01*
X4659Y2D01*
X4658Y2D01*
X4657Y2D01*
X4656Y2D01*
X4655Y2D01*
X4654Y2D01*
X4653Y2D01*
X4652Y2D01*
X4651Y2D01*
X4650Y2D01*
X4649Y2D01*
X4648Y2D01*
X4647Y2D01*
X4646Y2D01*
X4645Y2D01*
X4644Y2D01*
X4643Y2D01*
X4642Y2D01*
X4641Y2D01*
X4640Y2D01*
X4639Y2D01*
X4638Y2D01*
X4637Y2D01*
X4636Y2D01*
X4635Y2D01*
X4634Y2D01*
X4633Y2D01*
X4632Y2D01*
X4631Y2D01*
X4630Y2D01*
X4629Y2D01*
X4628Y2D01*
X4627Y2D01*
X4626Y2D01*
X4625Y2D01*
X4624Y2D01*
X4623Y2D01*
X4622Y2D01*
X4621Y2D01*
X4620Y2D01*
X4619Y2D01*
X4618Y2D01*
X4617Y2D01*
X4616Y2D01*
X4615Y2D01*
X4614Y2D01*
X4613Y2D01*
X4612Y2D01*
X4611Y2D01*
X4610Y2D01*
X4609Y2D01*
X4608Y2D01*
X4607Y2D01*
X4606Y2D01*
X4605Y2D01*
X4604Y2D01*
X4603Y2D01*
X4602Y2D01*
X4601Y2D01*
X4600Y2D01*
X4599Y2D01*
X4598Y2D01*
X4597Y2D01*
X4596Y2D01*
X4595Y2D01*
X4594Y2D01*
X4593Y2D01*
X4592Y2D01*
X4591Y2D01*
X4590Y2D01*
X4589Y2D01*
X4588Y2D01*
X4587Y2D01*
X4586Y2D01*
X4585Y2D01*
X4584Y2D01*
X4583Y2D01*
X4582Y2D01*
X4581Y2D01*
X4580Y2D01*
X4579Y2D01*
X4578Y2D01*
X4577Y2D01*
X4576Y2D01*
X4575Y2D01*
X4574Y2D01*
X4573Y2D01*
X4572Y2D01*
X4571Y2D01*
X4570Y2D01*
X4569Y2D01*
X4568Y2D01*
X4567Y2D01*
X4566Y2D01*
X4565Y2D01*
X4564Y2D01*
X4563Y2D01*
X4562Y2D01*
X4561Y2D01*
X4560Y2D01*
X4559Y2D01*
X4558Y2D01*
X4557Y2D01*
X4556Y2D01*
X4555Y2D01*
X4554Y2D01*
X4553Y2D01*
X4552Y2D01*
X4551Y2D01*
X4550Y2D01*
X4549Y2D01*
X4548Y2D01*
X4547Y2D01*
X4546Y2D01*
X4545Y2D01*
X4544Y2D01*
X4543Y2D01*
X4542Y2D01*
X4541Y2D01*
X4540Y2D01*
X4539Y2D01*
X4538Y2D01*
X4537Y2D01*
X4536Y2D01*
X4535Y2D01*
X4534Y2D01*
X4533Y2D01*
X4532Y2D01*
X4531Y2D01*
X4530Y2D01*
X4529Y2D01*
X4528Y2D01*
X4527Y2D01*
X4526Y2D01*
X4525Y2D01*
X4524Y2D01*
X4523Y2D01*
X4522Y2D01*
X4521Y2D01*
X4520Y2D01*
X4519Y2D01*
X4518Y2D01*
X4517Y2D01*
X4516Y2D01*
X4515Y2D01*
X4514Y2D01*
X4513Y2D01*
X4512Y2D01*
X4511Y2D01*
X4510Y2D01*
X4509Y2D01*
X4508Y2D01*
X4507Y2D01*
X4506Y2D01*
X4505Y2D01*
X4504Y2D01*
X4503Y2D01*
X4502Y2D01*
X4501Y2D01*
X4500Y2D01*
X4499Y2D01*
X4498Y2D01*
X4497Y2D01*
X4496Y2D01*
X4495Y2D01*
X4494Y2D01*
X4493Y2D01*
X4492Y2D01*
X4491Y2D01*
X4490Y2D01*
X4489Y2D01*
X4488Y2D01*
X4487Y2D01*
X4486Y2D01*
X4485Y2D01*
X4484Y2D01*
X4483Y2D01*
X4482Y2D01*
X4481Y2D01*
X4480Y2D01*
X4479Y2D01*
X4478Y2D01*
X4477Y2D01*
X4476Y2D01*
X4475Y2D01*
X4474Y2D01*
X4473Y2D01*
X4472Y2D01*
X4471Y2D01*
X4470Y2D01*
X4469Y2D01*
X4468Y2D01*
X4467Y2D01*
X4466Y2D01*
X4465Y2D01*
X4464Y2D01*
X4463Y2D01*
X4462Y2D01*
X4461Y2D01*
X4460Y2D01*
X4459Y2D01*
X4458Y2D01*
X4457Y2D01*
X4456Y2D01*
X4455Y2D01*
X4454Y2D01*
X4453Y2D01*
X4452Y2D01*
X4451Y2D01*
X4450Y2D01*
X4449Y2D01*
X4448Y2D01*
X4447Y2D01*
X4446Y2D01*
X4445Y2D01*
X4444Y2D01*
X4443Y2D01*
X4442Y2D01*
X4441Y2D01*
X4440Y2D01*
X4439Y2D01*
X4438Y2D01*
X4437Y2D01*
X4436Y2D01*
X4435Y2D01*
X4434Y2D01*
X4433Y2D01*
X4432Y2D01*
X4431Y2D01*
X4430Y2D01*
X4429Y2D01*
X4428Y2D01*
X4427Y2D01*
X4426Y2D01*
X4425Y2D01*
X4424Y2D01*
X4423Y2D01*
X4422Y2D01*
X4421Y2D01*
X4420Y2D01*
X4419Y2D01*
X4418Y2D01*
X4417Y2D01*
X4416Y2D01*
X4415Y2D01*
X4414Y2D01*
X4413Y2D01*
X4412Y2D01*
X4411Y2D01*
X4410Y2D01*
X4409Y2D01*
X4408Y2D01*
X4407Y2D01*
X4406Y2D01*
X4405Y2D01*
X4404Y2D01*
X4403Y2D01*
X4402Y2D01*
X4401Y2D01*
X4400Y2D01*
X4399Y2D01*
X4398Y2D01*
X4397Y2D01*
X4396Y2D01*
X4395Y2D01*
X4394Y2D01*
X4393Y2D01*
X4392Y2D01*
X4391Y2D01*
X4390Y2D01*
X4389Y2D01*
X4388Y2D01*
X4387Y2D01*
X4386Y2D01*
X4385Y2D01*
X4384Y2D01*
X4383Y2D01*
X4382Y2D01*
X4381Y2D01*
X4380Y2D01*
X4379Y2D01*
X4378Y2D01*
X4377Y2D01*
X4376Y2D01*
X4375Y2D01*
X4374Y2D01*
X4373Y2D01*
X4372Y2D01*
X4371Y2D01*
X4370Y2D01*
X4369Y2D01*
X4368Y2D01*
X4367Y2D01*
X4366Y2D01*
X4365Y2D01*
X4364Y2D01*
X4363Y2D01*
X4362Y2D01*
X4361Y2D01*
X4360Y2D01*
X4359Y2D01*
X4358Y2D01*
X4357Y2D01*
X4356Y2D01*
X4355Y2D01*
X4354Y2D01*
X4353Y2D01*
X4352Y2D01*
X4351Y2D01*
X4350Y2D01*
X4349Y2D01*
X4348Y2D01*
X4347Y2D01*
X4346Y2D01*
X4345Y2D01*
X4344Y2D01*
X4343Y2D01*
X4342Y2D01*
X4341Y2D01*
X4340Y2D01*
X4339Y2D01*
X4338Y2D01*
X4337Y2D01*
X4336Y2D01*
X4335Y2D01*
X4334Y2D01*
X4333Y2D01*
X4332Y2D01*
X4331Y2D01*
X4330Y2D01*
X4329Y2D01*
X4328Y2D01*
X4327Y2D01*
X4326Y2D01*
X4325Y2D01*
X4324Y2D01*
X4323Y2D01*
X4322Y2D01*
X4321Y2D01*
X4320Y2D01*
X4319Y2D01*
X4318Y2D01*
X4317Y2D01*
X4316Y2D01*
X4315Y2D01*
X4314Y2D01*
X4313Y2D01*
X4312Y2D01*
X4311Y2D01*
X4310Y2D01*
X4309Y2D01*
X4308Y2D01*
X4307Y2D01*
X4306Y2D01*
X4305Y2D01*
X4304Y2D01*
X4303Y2D01*
X4302Y2D01*
X4301Y2D01*
X4300Y2D01*
X4299Y2D01*
X4298Y2D01*
X4297Y2D01*
X4296Y2D01*
X4295Y2D01*
X4294Y2D01*
X4293Y2D01*
X4292Y2D01*
X4291Y2D01*
X4290Y2D01*
X4289Y2D01*
X4288Y2D01*
X4287Y2D01*
X4286Y2D01*
X4285Y2D01*
X4284Y2D01*
X4283Y2D01*
X4282Y2D01*
X4281Y2D01*
X4280Y2D01*
X4279Y2D01*
X4278Y2D01*
X4277Y2D01*
X4276Y2D01*
X4275Y2D01*
X4274Y2D01*
X4273Y2D01*
X4272Y2D01*
X4271Y2D01*
X4270Y2D01*
X4269Y2D01*
X4268Y2D01*
X4267Y2D01*
X4266Y2D01*
X4265Y2D01*
X4264Y2D01*
X4263Y2D01*
X4262Y2D01*
X4261Y2D01*
X4260Y2D01*
X4259Y2D01*
X4258Y2D01*
X4257Y2D01*
X4256Y2D01*
X4255Y2D01*
X4254Y2D01*
X4253Y2D01*
X4252Y2D01*
X4251Y2D01*
X4250Y2D01*
X4249Y2D01*
X4248Y2D01*
X4247Y2D01*
X4246Y2D01*
X4245Y2D01*
X4244Y2D01*
X4243Y2D01*
X4242Y2D01*
X4241Y2D01*
X4240Y2D01*
X4239Y2D01*
X4238Y2D01*
X4237Y2D01*
X4236Y2D01*
X4235Y2D01*
X4234Y2D01*
X4233Y2D01*
X4232Y2D01*
X4231Y2D01*
X4230Y2D01*
X4229Y2D01*
X4228Y2D01*
X4227Y2D01*
X4226Y2D01*
X4225Y2D01*
X4224Y2D01*
X4223Y2D01*
X4222Y2D01*
X4221Y2D01*
X4220Y2D01*
X4219Y2D01*
X4218Y2D01*
X4217Y2D01*
X4216Y2D01*
X4215Y2D01*
X4214Y2D01*
X4213Y2D01*
X4212Y2D01*
X4211Y2D01*
X4210Y2D01*
X4209Y2D01*
X4208Y2D01*
X4207Y2D01*
X4206Y2D01*
X4205Y2D01*
X4204Y2D01*
X4203Y2D01*
X4202Y2D01*
X4201Y2D01*
X4200Y2D01*
X4199Y2D01*
X4198Y2D01*
X4197Y2D01*
X4196Y2D01*
X4195Y2D01*
X4194Y2D01*
X4193Y2D01*
X4192Y2D01*
X4191Y2D01*
X4190Y2D01*
X4189Y2D01*
X4188Y2D01*
X4187Y2D01*
X4186Y2D01*
X4185Y2D01*
X4184Y2D01*
X4183Y2D01*
X4182Y2D01*
X4181Y2D01*
X4180Y2D01*
X4179Y2D01*
X4178Y2D01*
X4177Y2D01*
X4176Y2D01*
X4175Y2D01*
X4174Y2D01*
X4173Y2D01*
X4172Y2D01*
X4171Y2D01*
X4170Y2D01*
X4169Y2D01*
X4168Y2D01*
X4167Y2D01*
X4166Y2D01*
X4165Y2D01*
X4164Y2D01*
X4163Y2D01*
X4162Y2D01*
X4161Y2D01*
X4160Y2D01*
X4159Y2D01*
X4158Y2D01*
X4157Y2D01*
X4156Y2D01*
X4155Y2D01*
X4154Y2D01*
X4153Y2D01*
X4152Y2D01*
X4151Y2D01*
X4150Y2D01*
X4149Y2D01*
X4148Y2D01*
X4147Y2D01*
X4146Y2D01*
X4145Y2D01*
X4144Y2D01*
X4143Y2D01*
X4142Y2D01*
X4141Y2D01*
X4140Y2D01*
X4139Y2D01*
X4138Y2D01*
X4137Y2D01*
X4136Y2D01*
X4135Y2D01*
X4134Y2D01*
X4133Y2D01*
X4132Y2D01*
X4131Y2D01*
X4130Y2D01*
X4129Y2D01*
X4128Y2D01*
X4127Y2D01*
X4126Y2D01*
X4125Y2D01*
X4124Y2D01*
X4123Y2D01*
X4122Y2D01*
X4121Y2D01*
X4120Y2D01*
X4119Y2D01*
X4118Y2D01*
X4117Y2D01*
X4116Y2D01*
X4115Y2D01*
X4114Y2D01*
X4113Y2D01*
X4112Y2D01*
X4111Y2D01*
X4110Y2D01*
X4109Y2D01*
X4108Y2D01*
X4107Y2D01*
X4106Y2D01*
X4105Y2D01*
X4104Y2D01*
X4103Y2D01*
X4102Y2D01*
X4101Y2D01*
X4100Y2D01*
X4099Y2D01*
X4098Y2D01*
X4097Y2D01*
X4096Y2D01*
X4095Y2D01*
X4094Y2D01*
X4093Y2D01*
X4092Y2D01*
X4091Y2D01*
X4090Y2D01*
X4089Y2D01*
X4088Y2D01*
X4087Y2D01*
X4086Y2D01*
X4085Y2D01*
X4084Y2D01*
X4083Y2D01*
X4082Y2D01*
X4081Y2D01*
X4080Y2D01*
X4079Y2D01*
X4078Y2D01*
X4077Y2D01*
X4076Y2D01*
X4075Y2D01*
X4074Y2D01*
X4073Y2D01*
X4072Y2D01*
X4071Y2D01*
X4070Y2D01*
X4069Y2D01*
X4068Y2D01*
X4067Y2D01*
X4066Y2D01*
X4065Y2D01*
X4064Y2D01*
X4063Y2D01*
X4062Y2D01*
X4061Y2D01*
X4060Y2D01*
X4059Y2D01*
X4058Y2D01*
X4057Y2D01*
X4056Y2D01*
X4055Y2D01*
X4054Y2D01*
X4053Y2D01*
X4052Y2D01*
X4051Y2D01*
X4050Y2D01*
X4049Y2D01*
X4048Y2D01*
X4047Y2D01*
X4046Y2D01*
X4045Y2D01*
X4044Y2D01*
X4043Y2D01*
X4042Y2D01*
X4041Y2D01*
X4040Y2D01*
X4039Y2D01*
X4038Y2D01*
X4037Y2D01*
X4036Y2D01*
X4035Y2D01*
X4034Y2D01*
X4033Y2D01*
X4032Y2D01*
X4031Y2D01*
X4030Y2D01*
X4029Y2D01*
X4028Y2D01*
X4027Y2D01*
X4026Y2D01*
X4025Y2D01*
X4024Y2D01*
X4023Y2D01*
X4022Y2D01*
X4021Y2D01*
X4020Y2D01*
X4019Y2D01*
X4018Y2D01*
X4017Y2D01*
X4016Y2D01*
X4015Y2D01*
X4014Y2D01*
X4013Y2D01*
X4012Y2D01*
X4011Y2D01*
X4010Y2D01*
X4009Y2D01*
X4008Y2D01*
X4007Y2D01*
X4006Y2D01*
X4005Y2D01*
X4004Y2D01*
X4003Y2D01*
X4002Y2D01*
X4001Y2D01*
X4000Y2D01*
X3999Y2D01*
X3998Y2D01*
X3997Y2D01*
X3996Y2D01*
X3995Y2D01*
X3994Y2D01*
X3993Y2D01*
X3992Y2D01*
X3991Y2D01*
X3990Y2D01*
X3989Y2D01*
X3988Y2D01*
X3987Y2D01*
X3986Y2D01*
X3985Y2D01*
X3984Y2D01*
X3983Y2D01*
X3982Y2D01*
X3981Y2D01*
X3980Y2D01*
X3979Y2D01*
X3978Y2D01*
X3977Y2D01*
X3976Y2D01*
X3975Y2D01*
X3974Y2D01*
X3973Y2D01*
X3972Y2D01*
X3971Y2D01*
X3970Y2D01*
X3969Y2D01*
X3968Y2D01*
X3967Y2D01*
X3966Y2D01*
X3965Y2D01*
X3964Y2D01*
X3963Y2D01*
X3962Y2D01*
X3961Y2D01*
X3960Y2D01*
X3959Y2D01*
X3958Y2D01*
X3957Y2D01*
X3956Y2D01*
X3955Y2D01*
X3954Y2D01*
X3953Y2D01*
X3952Y2D01*
X3951Y2D01*
X3950Y2D01*
X3949Y2D01*
X3948Y2D01*
X3947Y2D01*
X3946Y2D01*
X3945Y2D01*
X3944Y2D01*
X3943Y2D01*
X3942Y2D01*
X3941Y2D01*
X3940Y2D01*
X3939Y2D01*
X3938Y2D01*
X3937Y2D01*
X3936Y2D01*
X3935Y2D01*
X3934Y2D01*
X3933Y2D01*
X3932Y2D01*
X3931Y2D01*
X3930Y2D01*
X3929Y2D01*
X3928Y2D01*
X3927Y2D01*
X3926Y2D01*
X3925Y2D01*
X3924Y2D01*
X3923Y2D01*
X3922Y2D01*
X3921Y2D01*
X3920Y2D01*
X3919Y2D01*
X3918Y2D01*
X3917Y2D01*
X3916Y2D01*
X3915Y2D01*
X3914Y2D01*
X3913Y2D01*
X3912Y2D01*
X3911Y2D01*
X3910Y2D01*
X3909Y2D01*
X3908Y2D01*
X3907Y2D01*
X3906Y2D01*
X3905Y2D01*
X3904Y2D01*
X3903Y2D01*
X3902Y2D01*
X3901Y2D01*
X3900Y2D01*
X3899Y2D01*
X3898Y2D01*
X3897Y2D01*
X3896Y2D01*
X3895Y2D01*
X3894Y2D01*
X3893Y2D01*
X3892Y2D01*
X3891Y2D01*
X3890Y2D01*
X3889Y2D01*
X3888Y2D01*
X3887Y2D01*
X3886Y2D01*
X3885Y2D01*
X3884Y2D01*
X3883Y2D01*
X3882Y2D01*
X3881Y2D01*
X3880Y2D01*
X3879Y2D01*
X3878Y2D01*
X3877Y2D01*
X3876Y2D01*
X3875Y2D01*
X3874Y2D01*
X3873Y2D01*
X3872Y2D01*
X3871Y2D01*
X3870Y2D01*
X3869Y2D01*
X3868Y2D01*
X3867Y2D01*
X3866Y2D01*
X3865Y2D01*
X3864Y2D01*
X3863Y2D01*
X3862Y2D01*
X3861Y2D01*
X3860Y2D01*
X3859Y2D01*
X3858Y2D01*
X3857Y2D01*
X3856Y2D01*
X3855Y2D01*
X3854Y2D01*
X3853Y2D01*
X3852Y2D01*
X3851Y2D01*
X3850Y2D01*
X3849Y2D01*
X3848Y2D01*
X3847Y2D01*
X3846Y2D01*
X3845Y2D01*
X3844Y2D01*
X3843Y2D01*
X3842Y2D01*
X3841Y2D01*
X3840Y2D01*
X3839Y2D01*
X3838Y2D01*
X3837Y2D01*
X3836Y2D01*
X3835Y2D01*
X3834Y2D01*
X3833Y2D01*
X3832Y2D01*
X3831Y2D01*
X3830Y2D01*
X3829Y2D01*
X3828Y2D01*
X3827Y2D01*
X3826Y2D01*
X3825Y2D01*
X3824Y2D01*
X3823Y2D01*
X3822Y2D01*
X3821Y2D01*
X3820Y2D01*
X3819Y2D01*
X3818Y2D01*
X3817Y2D01*
X3816Y2D01*
X3815Y2D01*
X3814Y2D01*
X3813Y2D01*
X3812Y2D01*
X3811Y2D01*
X3810Y2D01*
X3809Y2D01*
X3808Y2D01*
X3807Y2D01*
X3806Y2D01*
X3805Y2D01*
X3804Y2D01*
X3803Y2D01*
X3802Y2D01*
X3801Y2D01*
X3800Y2D01*
X3799Y2D01*
X3798Y2D01*
X3797Y2D01*
X3796Y2D01*
X3795Y2D01*
X3794Y2D01*
X3793Y2D01*
X3792Y2D01*
X3791Y2D01*
X3790Y2D01*
X3789Y2D01*
X3788Y2D01*
X3787Y2D01*
X3786Y2D01*
X3785Y2D01*
X3784Y2D01*
X3783Y2D01*
X3782Y2D01*
X3781Y2D01*
X3780Y2D01*
X3779Y2D01*
X3778Y2D01*
X3777Y2D01*
X3776Y2D01*
X3775Y2D01*
X3774Y2D01*
X3773Y2D01*
X3772Y2D01*
X3771Y2D01*
X3770Y2D01*
X3769Y2D01*
X3768Y2D01*
X3767Y2D01*
X3766Y2D01*
X3765Y2D01*
X3764Y2D01*
X3763Y2D01*
X3762Y2D01*
X3761Y2D01*
X3760Y2D01*
X3759Y2D01*
X3758Y2D01*
X3757Y2D01*
X3756Y2D01*
X3755Y2D01*
X3754Y2D01*
X3753Y2D01*
X3752Y2D01*
X3751Y2D01*
X3750Y2D01*
X3749Y2D01*
X3748Y2D01*
X3747Y2D01*
X3746Y2D01*
X3745Y2D01*
X3744Y2D01*
X3743Y2D01*
X3742Y2D01*
X3741Y2D01*
X3740Y2D01*
X3739Y2D01*
X3738Y2D01*
X3737Y2D01*
X3736Y2D01*
X3735Y2D01*
X3734Y2D01*
X3733Y2D01*
X3732Y2D01*
X3731Y2D01*
X3730Y2D01*
X3729Y2D01*
X3728Y2D01*
X3727Y2D01*
X3726Y2D01*
X3725Y2D01*
X3724Y2D01*
X3723Y2D01*
X3722Y2D01*
X3721Y2D01*
X3720Y2D01*
X3719Y2D01*
X3718Y2D01*
X3717Y2D01*
X3716Y2D01*
X3715Y2D01*
X3714Y2D01*
X3713Y2D01*
X3712Y2D01*
X3711Y2D01*
X3710Y2D01*
X3709Y2D01*
X3708Y2D01*
X3707Y2D01*
X3706Y2D01*
X3705Y2D01*
X3704Y2D01*
X3703Y2D01*
X3702Y2D01*
X3701Y2D01*
X3700Y2D01*
X3699Y2D01*
X3698Y2D01*
X3697Y2D01*
X3696Y2D01*
X3695Y2D01*
X3694Y2D01*
X3693Y2D01*
X3692Y2D01*
X3691Y2D01*
X3690Y2D01*
X3689Y2D01*
X3688Y2D01*
X3687Y2D01*
X3686Y2D01*
X3685Y2D01*
X3684Y2D01*
X3683Y2D01*
X3682Y2D01*
X3681Y2D01*
X3680Y2D01*
X3679Y2D01*
X3678Y2D01*
X3677Y2D01*
X3676Y2D01*
X3675Y2D01*
X3674Y2D01*
X3673Y2D01*
X3672Y2D01*
X3671Y2D01*
X3670Y2D01*
X3669Y2D01*
X3668Y2D01*
X3667Y2D01*
X3666Y2D01*
X3665Y2D01*
X3664Y2D01*
X3663Y2D01*
X3662Y2D01*
X3661Y2D01*
X3660Y2D01*
X3659Y2D01*
X3658Y2D01*
X3657Y2D01*
X3656Y2D01*
X3655Y2D01*
X3654Y2D01*
X3653Y2D01*
X3652Y2D01*
X3651Y2D01*
X3650Y2D01*
X3649Y2D01*
X3648Y2D01*
X3647Y2D01*
X3646Y2D01*
X3645Y2D01*
X3644Y2D01*
X3643Y2D01*
X3642Y2D01*
X3641Y2D01*
X3640Y2D01*
X3639Y2D01*
X3638Y2D01*
X3637Y2D01*
X3636Y2D01*
X3635Y2D01*
X3634Y2D01*
X3633Y2D01*
X3632Y2D01*
X3631Y2D01*
X3630Y2D01*
X3629Y2D01*
X3628Y2D01*
X3627Y2D01*
X3626Y2D01*
X3625Y2D01*
X3624Y2D01*
X3623Y2D01*
X3622Y2D01*
X3621Y2D01*
X3620Y2D01*
X3619Y2D01*
X3618Y2D01*
X3617Y2D01*
X3616Y2D01*
X3615Y2D01*
X3614Y2D01*
X3613Y2D01*
X3612Y2D01*
X3611Y2D01*
X3610Y2D01*
X3609Y2D01*
X3608Y2D01*
X3607Y2D01*
X3606Y2D01*
X3605Y2D01*
X3604Y2D01*
X3603Y2D01*
X3602Y2D01*
X3601Y2D01*
X3600Y2D01*
X3599Y2D01*
X3598Y2D01*
X3597Y2D01*
X3596Y2D01*
X3595Y2D01*
X3594Y2D01*
X3593Y2D01*
X3592Y2D01*
X3591Y2D01*
X3590Y2D01*
X3589Y2D01*
X3588Y2D01*
X3587Y2D01*
X3586Y2D01*
X3585Y2D01*
X3584Y2D01*
X3583Y2D01*
X3582Y2D01*
X3581Y2D01*
X3580Y2D01*
X3579Y2D01*
X3578Y2D01*
X3577Y2D01*
X3576Y2D01*
X3575Y2D01*
X3574Y2D01*
X3573Y2D01*
X3572Y2D01*
X3571Y2D01*
X3570Y2D01*
X3569Y2D01*
X3568Y2D01*
X3567Y2D01*
X3566Y2D01*
X3565Y2D01*
X3564Y2D01*
X3563Y2D01*
X3562Y2D01*
X3561Y2D01*
X3560Y2D01*
X3559Y2D01*
X3558Y2D01*
X3557Y2D01*
X3556Y2D01*
X3555Y2D01*
X3554Y2D01*
X3553Y2D01*
X3552Y2D01*
X3551Y2D01*
X3550Y2D01*
X3549Y2D01*
X3548Y2D01*
X3547Y2D01*
X3546Y2D01*
X3545Y2D01*
X3544Y2D01*
X3543Y2D01*
X3542Y2D01*
X3541Y2D01*
X3540Y2D01*
X3539Y2D01*
X3538Y2D01*
X3537Y2D01*
X3536Y2D01*
X3535Y2D01*
X3534Y2D01*
X3533Y2D01*
X3532Y2D01*
X3531Y2D01*
X3530Y2D01*
X3529Y2D01*
X3528Y2D01*
X3527Y2D01*
X3526Y2D01*
X3525Y2D01*
X3524Y2D01*
X3523Y2D01*
X3522Y2D01*
X3521Y2D01*
X3520Y2D01*
X3519Y2D01*
X3518Y2D01*
X3517Y2D01*
X3516Y2D01*
X3515Y2D01*
X3514Y2D01*
X3513Y2D01*
X3512Y2D01*
X3511Y2D01*
X3510Y2D01*
X3509Y2D01*
X3508Y2D01*
X3507Y2D01*
X3506Y2D01*
X3505Y2D01*
X3504Y2D01*
X3503Y2D01*
X3502Y2D01*
X3501Y2D01*
X3500Y2D01*
X3499Y2D01*
X3498Y2D01*
X3497Y2D01*
X3496Y2D01*
X3495Y2D01*
X3494Y2D01*
X3493Y2D01*
X3492Y2D01*
X3491Y2D01*
X3490Y2D01*
X3489Y2D01*
X3488Y2D01*
X3487Y2D01*
X3486Y2D01*
X3485Y2D01*
X3484Y2D01*
X3483Y2D01*
X3482Y2D01*
X3481Y2D01*
X3480Y2D01*
X3479Y2D01*
X3478Y2D01*
X3477Y2D01*
X3476Y2D01*
X3475Y2D01*
X3474Y2D01*
X3473Y2D01*
X3472Y2D01*
X3471Y2D01*
X3470Y2D01*
X3469Y2D01*
X3468Y2D01*
X3467Y2D01*
X3466Y2D01*
X3465Y2D01*
X3464Y2D01*
X3463Y2D01*
X3462Y2D01*
X3461Y2D01*
X3460Y2D01*
X3459Y2D01*
X3458Y2D01*
X3457Y2D01*
X3456Y2D01*
X3455Y2D01*
X3454Y2D01*
X3453Y2D01*
X3452Y2D01*
X3451Y2D01*
X3450Y2D01*
X3449Y2D01*
X3448Y2D01*
X3447Y2D01*
X3446Y2D01*
X3445Y2D01*
X3444Y2D01*
X3443Y2D01*
X3442Y2D01*
X3441Y2D01*
X3440Y2D01*
X3439Y2D01*
X3438Y2D01*
X3437Y2D01*
X3436Y2D01*
X3435Y2D01*
X3434Y2D01*
X3433Y2D01*
X3432Y2D01*
X3431Y2D01*
X3430Y2D01*
X3429Y2D01*
X3428Y2D01*
X3427Y2D01*
X3426Y2D01*
X3425Y2D01*
X3424Y2D01*
X3423Y2D01*
X3422Y2D01*
X3421Y2D01*
X3420Y2D01*
X3419Y2D01*
X3418Y2D01*
X3417Y2D01*
X3416Y2D01*
X3415Y2D01*
X3414Y2D01*
X3413Y2D01*
X3412Y2D01*
X3411Y2D01*
X3410Y2D01*
X3409Y2D01*
X3408Y2D01*
X3407Y2D01*
X3406Y2D01*
X3405Y2D01*
X3404Y2D01*
X3403Y2D01*
X3402Y2D01*
X3401Y2D01*
X3400Y2D01*
X3399Y2D01*
X3398Y2D01*
X3397Y2D01*
X3396Y2D01*
X3395Y2D01*
X3394Y2D01*
X3393Y2D01*
X3392Y2D01*
X3391Y2D01*
X3390Y2D01*
X3389Y2D01*
X3388Y2D01*
X3387Y2D01*
X3386Y2D01*
X3385Y2D01*
X3384Y2D01*
X3383Y2D01*
X3382Y2D01*
X3381Y2D01*
X3380Y2D01*
X3379Y2D01*
X3378Y2D01*
X3377Y2D01*
X3376Y2D01*
X3375Y2D01*
X3374Y2D01*
X3373Y2D01*
X3372Y2D01*
X3371Y2D01*
X3370Y2D01*
X3369Y2D01*
X3368Y2D01*
X3367Y2D01*
X3366Y2D01*
X3365Y2D01*
X3364Y2D01*
X3363Y2D01*
X3362Y2D01*
X3361Y2D01*
X3360Y2D01*
X3359Y2D01*
X3358Y2D01*
X3357Y2D01*
X3356Y2D01*
X3355Y2D01*
X3354Y2D01*
X3353Y2D01*
X3352Y2D01*
X3351Y2D01*
X3350Y2D01*
X3349Y2D01*
X3348Y2D01*
X3347Y2D01*
X3346Y2D01*
X3345Y2D01*
X3344Y2D01*
X3343Y2D01*
X3342Y2D01*
X3341Y2D01*
X3340Y2D01*
X3339Y2D01*
X3338Y2D01*
X3337Y2D01*
X3336Y2D01*
X3335Y2D01*
X3334Y2D01*
X3333Y2D01*
X3332Y2D01*
X3331Y2D01*
X3330Y2D01*
X3329Y2D01*
X3328Y2D01*
X3327Y2D01*
X3326Y2D01*
X3325Y2D01*
X3324Y2D01*
X3323Y2D01*
X3322Y2D01*
X3321Y2D01*
X3320Y2D01*
X3319Y2D01*
X3318Y2D01*
X3317Y2D01*
X3316Y2D01*
X3315Y2D01*
X3314Y2D01*
X3313Y2D01*
X3312Y2D01*
X3311Y2D01*
X3310Y2D01*
X3309Y2D01*
X3308Y2D01*
X3307Y2D01*
X3306Y2D01*
X3305Y2D01*
X3304Y2D01*
X3303Y2D01*
X3302Y2D01*
X3301Y2D01*
X3300Y2D01*
X3299Y2D01*
X3298Y2D01*
X3297Y2D01*
X3296Y2D01*
X3295Y2D01*
X3294Y2D01*
X3293Y2D01*
X3292Y2D01*
X3291Y2D01*
X3290Y2D01*
X3289Y2D01*
X3288Y2D01*
X3287Y2D01*
X3286Y2D01*
X3285Y2D01*
X3284Y2D01*
X3283Y2D01*
X3282Y2D01*
X3281Y2D01*
X3280Y2D01*
X3279Y2D01*
X3278Y2D01*
X3277Y2D01*
X3276Y2D01*
X3275Y2D01*
X3274Y2D01*
X3273Y2D01*
X3272Y2D01*
X3271Y2D01*
X3270Y2D01*
X3269Y2D01*
X3268Y2D01*
X3267Y2D01*
X3266Y2D01*
X3265Y2D01*
X3264Y2D01*
X3263Y2D01*
X3262Y2D01*
X3261Y2D01*
X3260Y2D01*
X3259Y2D01*
X3258Y2D01*
X3257Y2D01*
X3256Y2D01*
X3255Y2D01*
X3254Y2D01*
X3253Y2D01*
X3252Y2D01*
X3251Y2D01*
X3250Y2D01*
X3249Y2D01*
X3248Y2D01*
X3247Y2D01*
X3246Y2D01*
X3245Y2D01*
X3244Y2D01*
X3243Y2D01*
X3242Y2D01*
X3241Y2D01*
X3240Y2D01*
X3239Y2D01*
X3238Y2D01*
X3237Y2D01*
X3236Y2D01*
X3235Y2D01*
X3234Y2D01*
X3233Y2D01*
X3232Y2D01*
X3231Y2D01*
X3230Y2D01*
X3229Y2D01*
X3228Y2D01*
X3227Y2D01*
X3226Y2D01*
X3225Y2D01*
X3224Y2D01*
X3223Y2D01*
X3222Y2D01*
X3221Y2D01*
X3220Y2D01*
X3219Y2D01*
X3218Y2D01*
X3217Y2D01*
X3216Y2D01*
X3215Y2D01*
X3214Y2D01*
X3213Y2D01*
X3212Y2D01*
X3211Y2D01*
X3210Y2D01*
X3209Y2D01*
X3208Y2D01*
X3207Y2D01*
X3206Y2D01*
X3205Y2D01*
X3204Y2D01*
X3203Y2D01*
X3202Y2D01*
X3201Y2D01*
X3200Y2D01*
X3199Y2D01*
X3198Y2D01*
X3197Y2D01*
X3196Y2D01*
X3195Y2D01*
X3194Y2D01*
X3193Y2D01*
X3192Y2D01*
X3191Y2D01*
X3190Y2D01*
X3189Y2D01*
X3188Y2D01*
X3187Y2D01*
X3186Y2D01*
X3185Y2D01*
X3184Y2D01*
X3183Y2D01*
X3182Y2D01*
X3181Y2D01*
X3180Y2D01*
X3179Y2D01*
X3178Y2D01*
X3177Y2D01*
X3176Y2D01*
X3175Y2D01*
X3174Y2D01*
X3173Y2D01*
X3172Y2D01*
X3171Y2D01*
X3170Y2D01*
X3169Y2D01*
X3168Y2D01*
X3167Y2D01*
X3166Y2D01*
X3165Y2D01*
X3164Y2D01*
X3163Y2D01*
X3162Y2D01*
X3161Y2D01*
X3160Y2D01*
X3159Y2D01*
X3158Y2D01*
X3157Y2D01*
X3156Y2D01*
X3155Y2D01*
X3154Y2D01*
X3153Y2D01*
X3152Y2D01*
X3151Y2D01*
X3150Y2D01*
X3149Y2D01*
X3148Y2D01*
X3147Y2D01*
X3146Y2D01*
X3145Y2D01*
X3144Y2D01*
X3143Y2D01*
X3142Y2D01*
X3141Y2D01*
X3140Y2D01*
X3139Y2D01*
X3138Y2D01*
X3137Y2D01*
X3136Y2D01*
X3135Y2D01*
X3134Y2D01*
X3133Y2D01*
X3132Y2D01*
X3131Y2D01*
X3130Y2D01*
X3129Y2D01*
X3128Y2D01*
X3127Y2D01*
X3126Y2D01*
X3125Y2D01*
X3124Y2D01*
X3123Y2D01*
X3122Y2D01*
X3121Y2D01*
X3120Y2D01*
X3119Y2D01*
X3118Y2D01*
X3117Y2D01*
X3116Y2D01*
X3115Y2D01*
X3114Y2D01*
X3113Y2D01*
X3112Y2D01*
X3111Y2D01*
X3110Y2D01*
X3109Y2D01*
X3108Y2D01*
X3107Y2D01*
X3106Y2D01*
X3105Y2D01*
X3104Y2D01*
X3103Y2D01*
X3102Y2D01*
X3101Y2D01*
X3100Y2D01*
X3099Y2D01*
X3098Y2D01*
X3097Y2D01*
X3096Y2D01*
X3095Y2D01*
X3094Y2D01*
X3093Y2D01*
X3092Y2D01*
X3091Y2D01*
X3090Y2D01*
X3089Y2D01*
X3088Y2D01*
X3087Y2D01*
X3086Y2D01*
X3085Y2D01*
X3084Y2D01*
X3083Y2D01*
X3082Y2D01*
X3081Y2D01*
X3080Y2D01*
X3079Y2D01*
X3078Y2D01*
X3077Y2D01*
X3076Y2D01*
X3075Y2D01*
X3074Y2D01*
X3073Y2D01*
X3072Y2D01*
X3071Y2D01*
X3070Y2D01*
X3069Y2D01*
X3068Y2D01*
X3067Y2D01*
X3066Y2D01*
X3065Y2D01*
X3064Y2D01*
X3063Y2D01*
X3062Y2D01*
X3061Y2D01*
X3060Y2D01*
X3059Y2D01*
X3058Y2D01*
X3057Y2D01*
X3056Y2D01*
X3055Y2D01*
X3054Y2D01*
X3053Y2D01*
X3052Y2D01*
X3051Y2D01*
X3050Y2D01*
X3049Y2D01*
X3048Y2D01*
X3047Y2D01*
X3046Y2D01*
X3045Y2D01*
X3044Y2D01*
X3043Y2D01*
X3042Y2D01*
X3041Y2D01*
X3040Y2D01*
X3039Y2D01*
X3038Y2D01*
X3037Y2D01*
X3036Y2D01*
X3035Y2D01*
X3034Y2D01*
X3033Y2D01*
X3032Y2D01*
X3031Y2D01*
X3030Y2D01*
X3029Y2D01*
X3028Y2D01*
X3027Y2D01*
X3026Y2D01*
X3025Y2D01*
X3024Y2D01*
X3023Y2D01*
X3022Y2D01*
X3021Y2D01*
X3020Y2D01*
X3019Y2D01*
X3018Y2D01*
X3017Y2D01*
X3016Y2D01*
X3015Y2D01*
X3014Y2D01*
X3013Y2D01*
X3012Y2D01*
X3011Y2D01*
X3010Y2D01*
X3009Y2D01*
X3008Y2D01*
X3007Y2D01*
X3006Y2D01*
X3005Y2D01*
X3004Y2D01*
X3003Y2D01*
X3002Y2D01*
X3001Y2D01*
X3000Y2D01*
X2999Y2D01*
X2998Y2D01*
X2997Y2D01*
X2996Y2D01*
X2995Y2D01*
X2994Y2D01*
X2993Y2D01*
X2992Y2D01*
X2991Y2D01*
X2990Y2D01*
X2989Y2D01*
X2988Y2D01*
X2987Y2D01*
X2986Y2D01*
X2985Y2D01*
X2984Y2D01*
X2983Y2D01*
X2982Y2D01*
X2981Y2D01*
X2980Y2D01*
X2979Y2D01*
X2978Y2D01*
X2977Y2D01*
X2976Y2D01*
X2975Y2D01*
X2974Y2D01*
X2973Y2D01*
X2972Y2D01*
X2971Y2D01*
X2970Y2D01*
X2969Y2D01*
X2968Y2D01*
X2967Y2D01*
X2966Y2D01*
X2965Y2D01*
X2964Y2D01*
X2963Y2D01*
X2962Y2D01*
X2961Y2D01*
X2960Y2D01*
X2959Y2D01*
X2958Y2D01*
X2957Y2D01*
X2956Y2D01*
X2955Y2D01*
X2954Y2D01*
X2953Y2D01*
X2952Y2D01*
X2951Y2D01*
X2950Y2D01*
X2949Y2D01*
X2948Y2D01*
X2947Y2D01*
X2946Y2D01*
X2945Y2D01*
X2944Y2D01*
X2943Y2D01*
X2942Y2D01*
X2941Y2D01*
X2940Y2D01*
X2939Y2D01*
X2938Y2D01*
X2937Y2D01*
X2936Y2D01*
X2935Y2D01*
X2934Y2D01*
X2933Y2D01*
X2932Y2D01*
X2931Y2D01*
X2930Y2D01*
X2929Y2D01*
X2928Y2D01*
X2927Y2D01*
X2926Y2D01*
X2925Y2D01*
X2924Y2D01*
X2923Y2D01*
X2922Y2D01*
X2921Y2D01*
X2920Y2D01*
X2919Y2D01*
X2918Y2D01*
X2917Y2D01*
X2916Y2D01*
X2915Y2D01*
X2914Y2D01*
X2913Y2D01*
X2912Y2D01*
X2911Y2D01*
X2910Y2D01*
X2909Y2D01*
X2908Y2D01*
X2907Y2D01*
X2906Y2D01*
X2905Y2D01*
X2904Y2D01*
X2903Y2D01*
X2902Y2D01*
X2901Y2D01*
X2900Y2D01*
X2899Y2D01*
X2898Y2D01*
X2897Y2D01*
X2896Y2D01*
X2895Y2D01*
X2894Y2D01*
X2893Y2D01*
X2892Y2D01*
X2891Y2D01*
X2890Y2D01*
X2889Y2D01*
X2888Y2D01*
X2887Y2D01*
X2886Y2D01*
X2885Y2D01*
X2884Y2D01*
X2883Y2D01*
X2882Y2D01*
X2881Y2D01*
X2880Y2D01*
X2879Y2D01*
X2878Y2D01*
X2877Y2D01*
X2876Y2D01*
X2875Y2D01*
X2874Y2D01*
X2873Y2D01*
X2872Y2D01*
X2871Y2D01*
X2870Y2D01*
X2869Y2D01*
X2868Y2D01*
X2867Y2D01*
X2866Y2D01*
X2865Y2D01*
X2864Y2D01*
X2863Y2D01*
X2862Y2D01*
X2861Y2D01*
X2860Y2D01*
X2859Y2D01*
X2858Y2D01*
X2857Y2D01*
X2856Y2D01*
X2855Y2D01*
X2854Y2D01*
X2853Y2D01*
X2852Y2D01*
X2851Y2D01*
X2850Y2D01*
X2849Y2D01*
X2848Y2D01*
X2847Y2D01*
X2846Y2D01*
X2845Y2D01*
X2844Y2D01*
X2843Y2D01*
X2842Y2D01*
X2841Y2D01*
X2840Y2D01*
X2839Y2D01*
X2838Y2D01*
X2837Y2D01*
X2836Y2D01*
X2835Y2D01*
X2834Y2D01*
X2833Y2D01*
X2832Y2D01*
X2831Y2D01*
X2830Y2D01*
X2829Y2D01*
X2828Y2D01*
X2827Y2D01*
X2826Y2D01*
X2825Y2D01*
X2824Y2D01*
X2823Y2D01*
X2822Y2D01*
X2821Y2D01*
X2820Y2D01*
X2819Y2D01*
X2818Y2D01*
X2817Y2D01*
X2816Y2D01*
X2815Y2D01*
X2814Y2D01*
X2813Y2D01*
X2812Y2D01*
X2811Y2D01*
X2810Y2D01*
X2809Y2D01*
X2808Y2D01*
X2807Y2D01*
X2806Y2D01*
X2805Y2D01*
X2804Y2D01*
X2803Y2D01*
X2802Y2D01*
X2801Y2D01*
X2800Y2D01*
X2799Y2D01*
X2798Y2D01*
X2797Y2D01*
X2796Y2D01*
X2795Y2D01*
X2794Y2D01*
X2793Y2D01*
X2792Y2D01*
X2791Y2D01*
X2790Y2D01*
X2789Y2D01*
X2788Y2D01*
X2787Y2D01*
X2786Y2D01*
X2785Y2D01*
X2784Y2D01*
X2783Y2D01*
X2782Y2D01*
X2781Y2D01*
X2780Y2D01*
X2779Y2D01*
X2778Y2D01*
X2777Y2D01*
X2776Y2D01*
X2775Y2D01*
X2774Y2D01*
X2773Y2D01*
X2772Y2D01*
X2771Y2D01*
X2770Y2D01*
X2769Y2D01*
X2768Y2D01*
X2767Y2D01*
X2766Y2D01*
X2765Y2D01*
X2764Y2D01*
X2763Y2D01*
X2762Y2D01*
X2761Y2D01*
X2760Y2D01*
X2759Y2D01*
X2758Y2D01*
X2757Y2D01*
X2756Y2D01*
X2755Y2D01*
X2754Y2D01*
X2753Y2D01*
X2752Y2D01*
X2751Y2D01*
X2750Y2D01*
X2749Y2D01*
X2748Y2D01*
X2747Y2D01*
X2746Y2D01*
X2745Y2D01*
X2744Y2D01*
X2743Y2D01*
X2742Y2D01*
X2741Y2D01*
X2740Y2D01*
X2739Y2D01*
X2738Y2D01*
X2737Y2D01*
X2736Y2D01*
X2735Y2D01*
X2734Y2D01*
X2733Y2D01*
X2732Y2D01*
X2731Y2D01*
X2730Y2D01*
X2729Y2D01*
X2728Y2D01*
X2727Y2D01*
X2726Y2D01*
X2725Y2D01*
X2724Y2D01*
X2723Y2D01*
X2722Y2D01*
X2721Y2D01*
X2720Y2D01*
X2719Y2D01*
X2718Y2D01*
X2717Y2D01*
X2716Y2D01*
X2715Y2D01*
X2714Y2D01*
X2713Y2D01*
X2712Y2D01*
X2711Y2D01*
X2710Y2D01*
X2709Y2D01*
X2708Y2D01*
X2707Y2D01*
X2706Y2D01*
X2705Y2D01*
X2704Y2D01*
X2703Y2D01*
X2702Y2D01*
X2701Y2D01*
X2700Y2D01*
X2699Y2D01*
X2698Y2D01*
X2697Y2D01*
X2696Y2D01*
X2695Y2D01*
X2694Y2D01*
X2693Y2D01*
X2692Y2D01*
X2691Y2D01*
X2690Y2D01*
X2689Y2D01*
X2688Y2D01*
X2687Y2D01*
X2686Y2D01*
X2685Y2D01*
X2684Y2D01*
X2683Y2D01*
X2682Y2D01*
X2681Y2D01*
X2680Y2D01*
X2679Y2D01*
X2678Y2D01*
X2677Y2D01*
X2676Y2D01*
X2675Y2D01*
X2674Y2D01*
X2673Y2D01*
X2672Y2D01*
X2671Y2D01*
X2670Y2D01*
X2669Y2D01*
X2668Y2D01*
X2667Y2D01*
X2666Y2D01*
X2665Y2D01*
X2664Y2D01*
X2663Y2D01*
X2662Y2D01*
X2661Y2D01*
X2660Y2D01*
X2659Y2D01*
X2658Y2D01*
X2657Y2D01*
X2656Y2D01*
X2655Y2D01*
X2654Y2D01*
X2653Y2D01*
X2652Y2D01*
X2651Y2D01*
X2650Y2D01*
X2649Y2D01*
X2648Y2D01*
X2647Y2D01*
X2646Y2D01*
X2645Y2D01*
X2644Y2D01*
X2643Y2D01*
X2642Y2D01*
X2641Y2D01*
X2640Y2D01*
X2639Y2D01*
X2638Y2D01*
X2637Y2D01*
X2636Y2D01*
X2635Y2D01*
X2634Y2D01*
X2633Y2D01*
X2632Y2D01*
X2631Y2D01*
X2630Y2D01*
X2629Y2D01*
X2628Y2D01*
X2627Y2D01*
X2626Y2D01*
X2625Y2D01*
X2624Y2D01*
X2623Y2D01*
X2622Y2D01*
X2621Y2D01*
X2620Y2D01*
X2619Y2D01*
X2618Y2D01*
X2617Y2D01*
X2616Y2D01*
X2615Y2D01*
X2614Y2D01*
X2613Y2D01*
X2612Y2D01*
X2611Y2D01*
X2610Y2D01*
X2609Y2D01*
X2608Y2D01*
X2607Y2D01*
X2606Y2D01*
X2605Y2D01*
X2604Y2D01*
X2603Y2D01*
X2602Y2D01*
X2601Y2D01*
X2600Y2D01*
X2599Y2D01*
X2598Y2D01*
X2597Y2D01*
X2596Y2D01*
X2595Y2D01*
X2594Y2D01*
X2593Y2D01*
X2592Y2D01*
X2591Y2D01*
X2590Y2D01*
X2589Y2D01*
X2588Y2D01*
X2587Y2D01*
X2586Y2D01*
X2585Y2D01*
X2584Y2D01*
X2583Y2D01*
X2582Y2D01*
X2581Y2D01*
X2580Y2D01*
X2579Y2D01*
X2578Y2D01*
X2577Y2D01*
X2576Y2D01*
X2575Y2D01*
X2574Y2D01*
X2573Y2D01*
X2572Y2D01*
X2571Y2D01*
X2570Y2D01*
X2569Y2D01*
X2568Y2D01*
X2567Y2D01*
X2566Y2D01*
X2565Y2D01*
X2564Y2D01*
X2563Y2D01*
X2562Y2D01*
X2561Y2D01*
X2560Y2D01*
X2559Y2D01*
X2558Y2D01*
X2557Y2D01*
X2556Y2D01*
X2555Y2D01*
X2554Y2D01*
X2553Y2D01*
X2552Y2D01*
X2551Y2D01*
X2550Y2D01*
X2549Y2D01*
X2548Y2D01*
X2547Y2D01*
X2546Y2D01*
X2545Y2D01*
X2544Y2D01*
X2543Y2D01*
X2542Y2D01*
X2541Y2D01*
X2540Y2D01*
X2539Y2D01*
X2538Y2D01*
X2537Y2D01*
X2536Y2D01*
X2535Y2D01*
X2534Y2D01*
X2533Y2D01*
X2532Y2D01*
X2531Y2D01*
X2530Y2D01*
X2529Y2D01*
X2528Y2D01*
X2527Y2D01*
X2526Y2D01*
X2525Y2D01*
X2524Y2D01*
X2523Y2D01*
X2522Y2D01*
X2521Y2D01*
X2520Y2D01*
X2519Y2D01*
X2518Y2D01*
X2517Y2D01*
X2516Y2D01*
X2515Y2D01*
X2514Y2D01*
X2513Y2D01*
X2512Y2D01*
X2511Y2D01*
X2510Y2D01*
X2509Y2D01*
X2508Y2D01*
X2507Y2D01*
X2506Y2D01*
X2505Y2D01*
X2504Y2D01*
X2503Y2D01*
X2502Y2D01*
X2501Y2D01*
X2500Y2D01*
X2499Y2D01*
X2498Y2D01*
X2497Y2D01*
X2496Y2D01*
X2495Y2D01*
X2494Y2D01*
X2493Y2D01*
X2492Y2D01*
X2491Y2D01*
X2490Y2D01*
X2489Y2D01*
X2488Y2D01*
X2487Y2D01*
X2486Y2D01*
X2485Y2D01*
X2484Y2D01*
X2483Y2D01*
X2482Y2D01*
X2481Y2D01*
X2480Y2D01*
X2479Y2D01*
X2478Y2D01*
X2477Y2D01*
X2476Y2D01*
X2475Y2D01*
X2474Y2D01*
X2473Y2D01*
X2472Y2D01*
X2471Y2D01*
X2470Y2D01*
X2469Y2D01*
X2468Y2D01*
X2467Y2D01*
X2466Y2D01*
X2465Y2D01*
X2464Y2D01*
X2463Y2D01*
X2462Y2D01*
X2461Y2D01*
X2460Y2D01*
X2459Y2D01*
X2458Y2D01*
X2457Y2D01*
X2456Y2D01*
X2455Y2D01*
X2454Y2D01*
X2453Y2D01*
X2452Y2D01*
X2451Y2D01*
X2450Y2D01*
X2449Y2D01*
X2448Y2D01*
X2447Y2D01*
X2446Y2D01*
X2445Y2D01*
X2444Y2D01*
X2443Y2D01*
X2442Y2D01*
X2441Y2D01*
X2440Y2D01*
X2439Y2D01*
X2438Y2D01*
X2437Y2D01*
X2436Y2D01*
X2435Y2D01*
X2434Y2D01*
X2433Y2D01*
X2432Y2D01*
X2431Y2D01*
X2430Y2D01*
X2429Y2D01*
X2428Y2D01*
X2427Y2D01*
X2426Y2D01*
X2425Y2D01*
X2424Y2D01*
X2423Y2D01*
X2422Y2D01*
X2421Y2D01*
X2420Y2D01*
X2419Y2D01*
X2418Y2D01*
X2417Y2D01*
X2416Y2D01*
X2415Y2D01*
X2414Y2D01*
X2413Y2D01*
X2412Y2D01*
X2411Y2D01*
X2410Y2D01*
X2409Y2D01*
X2408Y2D01*
X2407Y2D01*
X2406Y2D01*
X2405Y2D01*
X2404Y2D01*
X2403Y2D01*
X2402Y2D01*
X2401Y2D01*
X2400Y2D01*
X2399Y2D01*
X2398Y2D01*
X2397Y2D01*
X2396Y2D01*
X2395Y2D01*
X2394Y2D01*
X2393Y2D01*
X2392Y2D01*
X2391Y2D01*
X2390Y2D01*
X2389Y2D01*
X2388Y2D01*
X2387Y2D01*
X2386Y2D01*
X2385Y2D01*
X2384Y2D01*
X2383Y2D01*
X2382Y2D01*
X2381Y2D01*
X2380Y2D01*
X2379Y2D01*
X2378Y2D01*
X2377Y2D01*
X2376Y2D01*
X2375Y2D01*
X2374Y2D01*
X2373Y2D01*
X2372Y2D01*
X2371Y2D01*
X2370Y2D01*
X2369Y2D01*
X2368Y2D01*
X2367Y2D01*
X2366Y2D01*
X2365Y2D01*
X2364Y2D01*
X2363Y2D01*
X2362Y2D01*
X2361Y2D01*
X2360Y2D01*
X2359Y2D01*
X2358Y2D01*
X2357Y2D01*
X2356Y2D01*
X2355Y2D01*
X2354Y2D01*
X2353Y2D01*
X2352Y2D01*
X2351Y2D01*
X2350Y2D01*
X2349Y2D01*
X2348Y2D01*
X2347Y2D01*
X2346Y2D01*
X2345Y2D01*
X2344Y2D01*
X2343Y2D01*
X2342Y2D01*
X2341Y2D01*
X2340Y2D01*
X2339Y2D01*
X2338Y2D01*
X2337Y2D01*
X2336Y2D01*
X2335Y2D01*
X2334Y2D01*
X2333Y2D01*
X2332Y2D01*
X2331Y2D01*
X2330Y2D01*
X2329Y2D01*
X2328Y2D01*
X2327Y2D01*
X2326Y2D01*
X2325Y2D01*
X2324Y2D01*
X2323Y2D01*
X2322Y2D01*
X2321Y2D01*
X2320Y2D01*
X2319Y2D01*
X2318Y2D01*
X2317Y2D01*
X2316Y2D01*
X2315Y2D01*
X2314Y2D01*
X2313Y2D01*
X2312Y2D01*
X2311Y2D01*
X2310Y2D01*
X2309Y2D01*
X2308Y2D01*
X2307Y2D01*
X2306Y2D01*
X2305Y2D01*
X2304Y2D01*
X2303Y2D01*
X2302Y2D01*
X2301Y2D01*
X2300Y2D01*
X2299Y2D01*
X2298Y2D01*
X2297Y2D01*
X2296Y2D01*
X2295Y2D01*
X2294Y2D01*
X2293Y2D01*
X2292Y2D01*
X2291Y2D01*
X2290Y2D01*
X2289Y2D01*
X2288Y2D01*
X2287Y2D01*
X2286Y2D01*
X2285Y2D01*
X2284Y2D01*
X2283Y2D01*
X2282Y2D01*
X2281Y2D01*
X2280Y2D01*
X2279Y2D01*
X2278Y2D01*
X2277Y2D01*
X2276Y2D01*
X2275Y2D01*
X2274Y2D01*
X2273Y2D01*
X2272Y2D01*
X2271Y2D01*
X2270Y2D01*
X2269Y2D01*
X2268Y2D01*
X2267Y2D01*
X2266Y2D01*
X2265Y2D01*
X2264Y2D01*
X2263Y2D01*
X2262Y2D01*
X2261Y2D01*
X2260Y2D01*
X2259Y2D01*
X2258Y2D01*
X2257Y2D01*
X2256Y2D01*
X2255Y2D01*
X2254Y2D01*
X2253Y2D01*
X2252Y2D01*
X2251Y2D01*
X2250Y2D01*
X2249Y2D01*
X2248Y2D01*
X2247Y2D01*
X2246Y2D01*
X2245Y2D01*
X2244Y2D01*
X2243Y2D01*
X2242Y2D01*
X2241Y2D01*
X2240Y2D01*
X2239Y2D01*
X2238Y2D01*
X2237Y2D01*
X2236Y2D01*
X2235Y2D01*
X2234Y2D01*
X2233Y2D01*
X2232Y2D01*
X2231Y2D01*
X2230Y2D01*
X2229Y2D01*
X2228Y2D01*
X2227Y2D01*
X2226Y2D01*
X2225Y2D01*
X2224Y2D01*
X2223Y2D01*
X2222Y2D01*
X2221Y2D01*
X2220Y2D01*
X2219Y2D01*
X2218Y2D01*
X2217Y2D01*
X2216Y2D01*
X2215Y2D01*
X2214Y2D01*
X2213Y2D01*
X2212Y2D01*
X2211Y2D01*
X2210Y2D01*
X2209Y2D01*
X2208Y2D01*
X2207Y2D01*
X2206Y2D01*
X2205Y2D01*
X2204Y2D01*
X2203Y2D01*
X2202Y2D01*
X2201Y2D01*
X2200Y2D01*
X2199Y2D01*
X2198Y2D01*
X2197Y2D01*
X2196Y2D01*
X2195Y2D01*
X2194Y2D01*
X2193Y2D01*
X2192Y2D01*
X2191Y2D01*
X2190Y2D01*
X2189Y2D01*
X2188Y2D01*
X2187Y2D01*
X2186Y2D01*
X2185Y2D01*
X2184Y2D01*
X2183Y2D01*
X2182Y2D01*
X2181Y2D01*
X2180Y2D01*
X2179Y2D01*
X2178Y2D01*
X2177Y2D01*
X2176Y2D01*
X2175Y2D01*
X2174Y2D01*
X2173Y2D01*
X2172Y2D01*
X2171Y2D01*
X2170Y2D01*
X2169Y2D01*
X2168Y2D01*
X2167Y2D01*
X2166Y2D01*
X2165Y2D01*
X2164Y2D01*
X2163Y2D01*
X2162Y2D01*
X2161Y2D01*
X2160Y2D01*
X2159Y2D01*
X2158Y2D01*
X2157Y2D01*
X2156Y2D01*
X2155Y2D01*
X2154Y2D01*
X2153Y2D01*
X2152Y2D01*
X2151Y2D01*
X2150Y2D01*
X2149Y2D01*
X2148Y2D01*
X2147Y2D01*
X2146Y2D01*
X2145Y2D01*
X2144Y2D01*
X2143Y2D01*
X2142Y2D01*
X2141Y2D01*
X2140Y2D01*
X2139Y2D01*
X2138Y2D01*
X2137Y2D01*
X2136Y2D01*
X2135Y2D01*
X2134Y2D01*
X2133Y2D01*
X2132Y2D01*
X2131Y2D01*
X2130Y2D01*
X2129Y2D01*
X2128Y2D01*
X2127Y2D01*
X2126Y2D01*
X2125Y2D01*
X2124Y2D01*
X2123Y2D01*
X2122Y2D01*
X2121Y2D01*
X2120Y2D01*
X2119Y2D01*
X2118Y2D01*
X2117Y2D01*
X2116Y2D01*
X2115Y2D01*
X2114Y2D01*
X2113Y2D01*
X2112Y2D01*
X2111Y2D01*
X2110Y2D01*
X2109Y2D01*
X2108Y2D01*
X2107Y2D01*
X2106Y2D01*
X2105Y2D01*
X2104Y2D01*
X2103Y2D01*
X2102Y2D01*
X2101Y2D01*
X2100Y2D01*
X2099Y2D01*
X2098Y2D01*
X2097Y2D01*
X2096Y2D01*
X2095Y2D01*
X2094Y2D01*
X2093Y2D01*
X2092Y2D01*
X2091Y2D01*
X2090Y2D01*
X2089Y2D01*
X2088Y2D01*
X2087Y2D01*
X2086Y2D01*
X2085Y2D01*
X2084Y2D01*
X2083Y2D01*
X2082Y2D01*
X2081Y2D01*
X2080Y2D01*
X2079Y2D01*
X2078Y2D01*
X2077Y2D01*
X2076Y2D01*
X2075Y2D01*
X2074Y2D01*
X2073Y2D01*
X2072Y2D01*
X2071Y2D01*
X2070Y2D01*
X2069Y2D01*
X2068Y2D01*
X2067Y2D01*
X2066Y2D01*
X2065Y2D01*
X2064Y2D01*
X2063Y2D01*
X2062Y2D01*
X2061Y2D01*
X2060Y2D01*
X2059Y2D01*
X2058Y2D01*
X2057Y2D01*
X2056Y2D01*
X2055Y2D01*
X2054Y2D01*
X2053Y2D01*
X2052Y2D01*
X2051Y2D01*
X2050Y2D01*
X2049Y2D01*
X2048Y2D01*
X2047Y2D01*
X2046Y2D01*
X2045Y2D01*
X2044Y2D01*
X2043Y2D01*
X2042Y2D01*
X2041Y2D01*
X2040Y2D01*
X2039Y2D01*
X2038Y2D01*
X2037Y2D01*
X2036Y2D01*
X2035Y2D01*
X2034Y2D01*
X2033Y2D01*
X2032Y2D01*
X2031Y2D01*
X2030Y2D01*
X2029Y2D01*
X2028Y2D01*
X2027Y2D01*
X2026Y2D01*
X2025Y2D01*
X2024Y2D01*
X2023Y2D01*
X2022Y2D01*
X2021Y2D01*
X2020Y2D01*
X2019Y2D01*
X2018Y2D01*
X2017Y2D01*
X2016Y2D01*
X2015Y2D01*
X2014Y2D01*
X2013Y2D01*
X2012Y2D01*
X2011Y2D01*
X2010Y2D01*
X2009Y2D01*
X2008Y2D01*
X2007Y2D01*
X2006Y2D01*
X2005Y2D01*
X2004Y2D01*
X2003Y2D01*
X2002Y2D01*
X2001Y2D01*
X2000Y2D01*
X1999Y2D01*
X1998Y2D01*
X1997Y2D01*
X1996Y2D01*
X1995Y2D01*
X1994Y2D01*
X1993Y2D01*
X1992Y2D01*
X1991Y2D01*
X1990Y2D01*
X1989Y2D01*
X1988Y2D01*
X1987Y2D01*
X1986Y2D01*
X1985Y2D01*
X1984Y2D01*
X1983Y2D01*
X1982Y2D01*
X1981Y2D01*
X1980Y2D01*
X1979Y2D01*
X1978Y2D01*
X1977Y2D01*
X1976Y2D01*
X1975Y2D01*
X1974Y2D01*
X1973Y2D01*
X1972Y2D01*
X1971Y2D01*
X1970Y2D01*
X1969Y2D01*
X1968Y2D01*
X1967Y2D01*
X1966Y2D01*
X1965Y2D01*
X1964Y2D01*
X1963Y2D01*
X1962Y2D01*
X1961Y2D01*
X1960Y2D01*
X1959Y2D01*
X1958Y2D01*
X1957Y2D01*
X1956Y2D01*
X1955Y2D01*
X1954Y2D01*
X1953Y2D01*
X1952Y2D01*
X1951Y2D01*
X1950Y2D01*
X1949Y2D01*
X1948Y2D01*
X1947Y2D01*
X1946Y2D01*
X1945Y2D01*
X1944Y2D01*
X1943Y2D01*
X1942Y2D01*
X1941Y2D01*
X1940Y2D01*
X1939Y2D01*
X1938Y2D01*
X1937Y2D01*
X1936Y2D01*
X1935Y2D01*
X1934Y2D01*
X1933Y2D01*
X1932Y2D01*
X1931Y2D01*
X1930Y2D01*
X1929Y2D01*
X1928Y2D01*
X1927Y2D01*
X1926Y2D01*
X1925Y2D01*
X1924Y2D01*
X1923Y2D01*
X1922Y2D01*
X1921Y2D01*
X1920Y2D01*
X1919Y2D01*
X1918Y2D01*
X1917Y2D01*
X1916Y2D01*
X1915Y2D01*
X1914Y2D01*
X1913Y2D01*
X1912Y2D01*
X1911Y2D01*
X1910Y2D01*
X1909Y2D01*
X1908Y2D01*
X1907Y2D01*
X1906Y2D01*
X1905Y2D01*
X1904Y2D01*
X1903Y2D01*
X1902Y2D01*
X1901Y2D01*
X1900Y2D01*
X1899Y2D01*
X1898Y2D01*
X1897Y2D01*
X1896Y2D01*
X1895Y2D01*
X1894Y2D01*
X1893Y2D01*
X1892Y2D01*
X1891Y2D01*
X1890Y2D01*
X1889Y2D01*
X1888Y2D01*
X1887Y2D01*
X1886Y2D01*
X1885Y2D01*
X1884Y2D01*
X1883Y2D01*
X1882Y2D01*
X1881Y2D01*
X1880Y2D01*
X1879Y2D01*
X1878Y2D01*
X1877Y2D01*
X1876Y2D01*
X1875Y2D01*
X1874Y2D01*
X1873Y2D01*
X1872Y2D01*
X1871Y2D01*
X1870Y2D01*
X1869Y2D01*
X1868Y2D01*
X1867Y2D01*
X1866Y2D01*
X1865Y2D01*
X1864Y2D01*
X1863Y2D01*
X1862Y2D01*
X1861Y2D01*
X1860Y2D01*
X1859Y2D01*
X1858Y2D01*
X1857Y2D01*
X1856Y2D01*
X1855Y2D01*
X1854Y2D01*
X1853Y2D01*
X1852Y2D01*
X1851Y2D01*
X1850Y2D01*
X1849Y2D01*
X1848Y2D01*
X1847Y2D01*
X1846Y2D01*
X1845Y2D01*
X1844Y2D01*
X1843Y2D01*
X1842Y2D01*
X1841Y2D01*
X1840Y2D01*
X1839Y2D01*
X1838Y2D01*
X1837Y2D01*
X1836Y2D01*
X1835Y2D01*
X1834Y2D01*
X1833Y2D01*
X1832Y2D01*
X1831Y2D01*
X1830Y2D01*
X1829Y2D01*
X1828Y2D01*
X1827Y2D01*
X1826Y2D01*
X1825Y2D01*
X1824Y2D01*
X1823Y2D01*
X1822Y2D01*
X1821Y2D01*
X1820Y2D01*
X1819Y2D01*
X1818Y2D01*
X1817Y2D01*
X1816Y2D01*
X1815Y2D01*
X1814Y2D01*
X1813Y2D01*
X1812Y2D01*
X1811Y2D01*
X1810Y2D01*
X1809Y2D01*
X1808Y2D01*
X1807Y2D01*
X1806Y2D01*
X1805Y2D01*
X1804Y2D01*
X1803Y2D01*
X1802Y2D01*
X1801Y2D01*
X1800Y2D01*
X1799Y2D01*
X1798Y2D01*
X1797Y2D01*
X1796Y2D01*
X1795Y2D01*
X1794Y2D01*
X1793Y2D01*
X1792Y2D01*
X1791Y2D01*
X1790Y2D01*
X1789Y2D01*
X1788Y2D01*
X1787Y2D01*
X1786Y2D01*
X1785Y2D01*
X1784Y2D01*
X1783Y2D01*
X1782Y2D01*
X1781Y2D01*
X1780Y2D01*
X1779Y2D01*
X1778Y2D01*
X1777Y2D01*
X1776Y2D01*
X1775Y2D01*
X1774Y2D01*
X1773Y2D01*
X1772Y2D01*
X1771Y2D01*
X1770Y2D01*
X1769Y2D01*
X1768Y2D01*
X1767Y2D01*
X1766Y2D01*
X1765Y2D01*
X1764Y2D01*
X1763Y2D01*
X1762Y2D01*
X1761Y2D01*
X1760Y2D01*
X1759Y2D01*
X1758Y2D01*
X1757Y2D01*
X1756Y2D01*
X1755Y2D01*
X1754Y2D01*
X1753Y2D01*
X1752Y2D01*
X1751Y2D01*
X1750Y2D01*
X1749Y2D01*
X1748Y2D01*
X1747Y2D01*
X1746Y2D01*
X1745Y2D01*
X1744Y2D01*
X1743Y2D01*
X1742Y2D01*
X1741Y2D01*
X1740Y2D01*
X1739Y2D01*
X1738Y2D01*
X1737Y2D01*
X1736Y2D01*
X1735Y2D01*
X1734Y2D01*
X1733Y2D01*
X1732Y2D01*
X1731Y2D01*
X1730Y2D01*
X1729Y2D01*
X1728Y2D01*
X1727Y2D01*
X1726Y2D01*
X1725Y2D01*
X1724Y2D01*
X1723Y2D01*
X1722Y2D01*
X1721Y2D01*
X1720Y2D01*
X1719Y2D01*
X1718Y2D01*
X1717Y2D01*
X1716Y2D01*
X1715Y2D01*
X1714Y2D01*
X1713Y2D01*
X1712Y2D01*
X1711Y2D01*
X1710Y2D01*
X1709Y2D01*
X1708Y2D01*
X1707Y2D01*
X1706Y2D01*
X1705Y2D01*
X1704Y2D01*
X1703Y2D01*
X1702Y2D01*
X1701Y2D01*
X1700Y2D01*
X1699Y2D01*
X1698Y2D01*
X1697Y2D01*
X1696Y2D01*
X1695Y2D01*
X1694Y2D01*
X1693Y2D01*
X1692Y2D01*
X1691Y2D01*
X1690Y2D01*
X1689Y2D01*
X1688Y2D01*
X1687Y2D01*
X1686Y2D01*
X1685Y2D01*
X1684Y2D01*
X1683Y2D01*
X1682Y2D01*
X1681Y2D01*
X1680Y2D01*
X1679Y2D01*
X1678Y2D01*
X1677Y2D01*
X1676Y2D01*
X1675Y2D01*
X1674Y2D01*
X1673Y2D01*
X1672Y2D01*
X1671Y2D01*
X1670Y2D01*
X1669Y2D01*
X1668Y2D01*
X1667Y2D01*
X1666Y2D01*
X1665Y2D01*
X1664Y2D01*
X1663Y2D01*
X1662Y2D01*
X1661Y2D01*
X1660Y2D01*
X1659Y2D01*
X1658Y2D01*
X1657Y2D01*
X1656Y2D01*
X1655Y2D01*
X1654Y2D01*
X1653Y2D01*
X1652Y2D01*
X1651Y2D01*
X1650Y2D01*
X1649Y2D01*
X1648Y2D01*
X1647Y2D01*
X1646Y2D01*
X1645Y2D01*
X1644Y2D01*
X1643Y2D01*
X1642Y2D01*
X1641Y2D01*
X1640Y2D01*
X1639Y2D01*
X1638Y2D01*
X1637Y2D01*
X1636Y2D01*
X1635Y2D01*
X1634Y2D01*
X1633Y2D01*
X1632Y2D01*
X1631Y2D01*
X1630Y2D01*
X1629Y2D01*
X1628Y2D01*
X1627Y2D01*
X1626Y2D01*
X1625Y2D01*
X1624Y2D01*
X1623Y2D01*
X1622Y2D01*
X1621Y2D01*
X1620Y2D01*
X1619Y2D01*
X1618Y2D01*
X1617Y2D01*
X1616Y2D01*
X1615Y2D01*
X1614Y2D01*
X1613Y2D01*
X1612Y2D01*
X1611Y2D01*
X1610Y2D01*
X1609Y2D01*
X1608Y2D01*
X1607Y2D01*
X1606Y2D01*
X1605Y2D01*
X1604Y2D01*
X1603Y2D01*
X1602Y2D01*
X1601Y2D01*
X1600Y2D01*
X1599Y2D01*
X1598Y2D01*
X1597Y2D01*
X1596Y2D01*
X1595Y2D01*
X1594Y2D01*
X1593Y2D01*
X1592Y2D01*
X1591Y2D01*
X1590Y2D01*
X1589Y2D01*
X1588Y2D01*
X1587Y2D01*
X1586Y2D01*
X1585Y2D01*
X1584Y2D01*
X1583Y2D01*
X1582Y2D01*
X1581Y2D01*
X1580Y2D01*
X1579Y2D01*
X1578Y2D01*
X1577Y2D01*
X1576Y2D01*
X1575Y2D01*
X1574Y2D01*
X1573Y2D01*
X1572Y2D01*
X1571Y2D01*
X1570Y2D01*
X1569Y2D01*
X1568Y2D01*
X1567Y2D01*
X1566Y2D01*
X1565Y2D01*
X1564Y2D01*
X1563Y2D01*
X1562Y2D01*
X1561Y2D01*
X1560Y2D01*
X1559Y2D01*
X1558Y2D01*
X1557Y2D01*
X1556Y2D01*
X1555Y2D01*
X1554Y2D01*
X1553Y2D01*
X1552Y2D01*
X1551Y2D01*
X1550Y2D01*
X1549Y2D01*
X1548Y2D01*
X1547Y2D01*
X1546Y2D01*
X1545Y2D01*
X1544Y2D01*
X1543Y2D01*
X1542Y2D01*
X1541Y2D01*
X1540Y2D01*
X1539Y2D01*
X1538Y2D01*
X1537Y2D01*
X1536Y2D01*
X1535Y2D01*
X1534Y2D01*
X1533Y2D01*
X1532Y2D01*
X1531Y2D01*
X1530Y2D01*
X1529Y2D01*
X1528Y2D01*
X1527Y2D01*
X1526Y2D01*
X1525Y2D01*
X1524Y2D01*
X1523Y2D01*
X1522Y2D01*
X1521Y2D01*
X1520Y2D01*
X1519Y2D01*
X1518Y2D01*
X1517Y2D01*
X1516Y2D01*
X1515Y2D01*
X1514Y2D01*
X1513Y2D01*
X1512Y2D01*
X1511Y2D01*
X1510Y2D01*
X1509Y2D01*
X1508Y2D01*
X1507Y2D01*
X1506Y2D01*
X1505Y2D01*
X1504Y2D01*
X1503Y2D01*
X1502Y2D01*
X1501Y2D01*
X1500Y2D01*
X1499Y2D01*
X1498Y2D01*
X1497Y2D01*
X1496Y2D01*
X1495Y2D01*
X1494Y2D01*
X1493Y2D01*
X1492Y2D01*
X1491Y2D01*
X1490Y2D01*
X1489Y2D01*
X1488Y2D01*
X1487Y2D01*
X1486Y2D01*
X1485Y2D01*
X1484Y2D01*
X1483Y2D01*
X1482Y2D01*
X1481Y2D01*
X1480Y2D01*
X1479Y2D01*
X1478Y2D01*
X1477Y2D01*
X1476Y2D01*
X1475Y2D01*
X1474Y2D01*
X1473Y2D01*
X1472Y2D01*
X1471Y2D01*
X1470Y2D01*
X1469Y2D01*
X1468Y2D01*
X1467Y2D01*
X1466Y2D01*
X1465Y2D01*
X1464Y2D01*
X1463Y2D01*
X1462Y2D01*
X1461Y2D01*
X1460Y2D01*
X1459Y2D01*
X1458Y2D01*
X1457Y2D01*
X1456Y2D01*
X1455Y2D01*
X1454Y2D01*
X1453Y2D01*
X1452Y2D01*
X1451Y2D01*
X1450Y2D01*
X1449Y2D01*
X1448Y2D01*
X1447Y2D01*
X1446Y2D01*
X1445Y2D01*
X1444Y2D01*
X1443Y2D01*
X1442Y2D01*
X1441Y2D01*
X1440Y2D01*
X1439Y2D01*
X1438Y2D01*
X1437Y2D01*
X1436Y2D01*
X1435Y2D01*
X1434Y2D01*
X1433Y2D01*
X1432Y2D01*
X1431Y2D01*
X1430Y2D01*
X1429Y2D01*
X1428Y2D01*
X1427Y2D01*
X1426Y2D01*
X1425Y2D01*
X1424Y2D01*
X1423Y2D01*
X1422Y2D01*
X1421Y2D01*
X1420Y2D01*
X1419Y2D01*
X1418Y2D01*
X1417Y2D01*
X1416Y2D01*
X1415Y2D01*
X1414Y2D01*
X1413Y2D01*
X1412Y2D01*
X1411Y2D01*
X1410Y2D01*
X1409Y2D01*
X1408Y2D01*
X1407Y2D01*
X1406Y2D01*
X1405Y2D01*
X1404Y2D01*
X1403Y2D01*
X1402Y2D01*
X1401Y2D01*
X1400Y2D01*
X1399Y2D01*
X1398Y2D01*
X1397Y2D01*
X1396Y2D01*
X1395Y2D01*
X1394Y2D01*
X1393Y2D01*
X1392Y2D01*
X1391Y2D01*
X1390Y2D01*
X1389Y2D01*
X1388Y2D01*
X1387Y2D01*
X1386Y2D01*
X1385Y2D01*
X1384Y2D01*
X1383Y2D01*
X1382Y2D01*
X1381Y2D01*
X1380Y2D01*
X1379Y2D01*
X1378Y2D01*
X1377Y2D01*
X1376Y2D01*
X1375Y2D01*
X1374Y2D01*
X1373Y2D01*
X1372Y2D01*
X1371Y2D01*
X1370Y2D01*
X1369Y2D01*
X1368Y2D01*
X1367Y2D01*
X1366Y2D01*
X1365Y2D01*
X1364Y2D01*
X1363Y2D01*
X1362Y2D01*
X1361Y2D01*
X1360Y2D01*
X1359Y2D01*
X1358Y2D01*
X1357Y2D01*
X1356Y2D01*
X1355Y2D01*
X1354Y2D01*
X1353Y2D01*
X1352Y2D01*
X1351Y2D01*
X1350Y2D01*
X1349Y2D01*
X1348Y2D01*
X1347Y2D01*
X1346Y2D01*
X1345Y2D01*
X1344Y2D01*
X1343Y2D01*
X1342Y2D01*
X1341Y2D01*
X1340Y2D01*
X1339Y2D01*
X1338Y2D01*
X1337Y2D01*
X1336Y2D01*
X1335Y2D01*
X1334Y2D01*
X1333Y2D01*
X1332Y2D01*
X1331Y2D01*
X1330Y2D01*
X1329Y2D01*
X1328Y2D01*
X1327Y2D01*
X1326Y2D01*
X1325Y2D01*
X1324Y2D01*
X1323Y2D01*
X1322Y2D01*
X1321Y2D01*
X1320Y2D01*
X1319Y2D01*
X1318Y2D01*
X1317Y2D01*
X1316Y2D01*
X1315Y2D01*
X1314Y2D01*
X1313Y2D01*
X1312Y2D01*
X1311Y2D01*
X1310Y2D01*
X1309Y2D01*
X1308Y2D01*
X1307Y2D01*
X1306Y2D01*
X1305Y2D01*
X1304Y2D01*
X1303Y2D01*
X1302Y2D01*
X1301Y2D01*
X1300Y2D01*
X1299Y2D01*
X1298Y2D01*
X1297Y2D01*
X1296Y2D01*
X1295Y2D01*
X1294Y2D01*
X1293Y2D01*
X1292Y2D01*
X1291Y2D01*
X1290Y2D01*
X1289Y2D01*
X1288Y2D01*
X1287Y2D01*
X1286Y2D01*
X1285Y2D01*
X1284Y2D01*
X1283Y2D01*
X1282Y2D01*
X1281Y2D01*
X1280Y2D01*
X1279Y2D01*
X1278Y2D01*
X1277Y2D01*
X1276Y2D01*
X1275Y2D01*
X1274Y2D01*
X1273Y2D01*
X1272Y2D01*
X1271Y2D01*
X1270Y2D01*
X1269Y2D01*
X1268Y2D01*
X1267Y2D01*
X1266Y2D01*
X1265Y2D01*
X1264Y2D01*
X1263Y2D01*
X1262Y2D01*
X1261Y2D01*
X1260Y2D01*
X1259Y2D01*
X1258Y2D01*
X1257Y2D01*
X1256Y2D01*
X1255Y2D01*
X1254Y2D01*
X1253Y2D01*
X1252Y2D01*
X1251Y2D01*
X1250Y2D01*
X1249Y2D01*
X1248Y2D01*
X1247Y2D01*
X1246Y2D01*
X1245Y2D01*
X1244Y2D01*
X1243Y2D01*
X1242Y2D01*
X1241Y2D01*
X1240Y2D01*
X1239Y2D01*
X1238Y2D01*
X1237Y2D01*
X1236Y2D01*
X1235Y2D01*
X1234Y2D01*
X1233Y2D01*
X1232Y2D01*
X1231Y2D01*
X1230Y2D01*
X1229Y2D01*
X1228Y2D01*
X1227Y2D01*
X1226Y2D01*
X1225Y2D01*
X1224Y2D01*
X1223Y2D01*
X1222Y2D01*
X1221Y2D01*
X1220Y2D01*
X1219Y2D01*
X1218Y2D01*
X1217Y2D01*
X1216Y2D01*
X1215Y2D01*
X1214Y2D01*
X1213Y2D01*
X1212Y2D01*
X1211Y2D01*
X1210Y2D01*
X1209Y2D01*
X1208Y2D01*
X1207Y2D01*
X1206Y2D01*
X1205Y2D01*
X1204Y2D01*
X1203Y2D01*
X1202Y2D01*
X1201Y2D01*
X1200Y2D01*
X1199Y2D01*
X1198Y2D01*
X1197Y2D01*
X1196Y2D01*
X1195Y2D01*
X1194Y2D01*
X1193Y2D01*
X1192Y2D01*
X1191Y2D01*
X1190Y2D01*
X1189Y2D01*
X1188Y2D01*
X1187Y2D01*
X1186Y2D01*
X1185Y2D01*
X1184Y2D01*
X1183Y2D01*
X1182Y2D01*
X1181Y2D01*
X1180Y2D01*
X1179Y2D01*
X1178Y2D01*
X1177Y2D01*
X1176Y2D01*
X1175Y2D01*
X1174Y2D01*
X1173Y2D01*
X1172Y2D01*
X1171Y2D01*
X1170Y2D01*
X1169Y2D01*
X1168Y2D01*
X1167Y2D01*
X1166Y2D01*
X1165Y2D01*
X1164Y2D01*
X1163Y2D01*
X1162Y2D01*
X1161Y2D01*
X1160Y2D01*
X1159Y2D01*
X1158Y2D01*
X1157Y2D01*
X1156Y2D01*
X1155Y2D01*
X1154Y2D01*
X1153Y2D01*
X1152Y2D01*
X1151Y2D01*
X1150Y2D01*
X1149Y2D01*
X1148Y2D01*
X1147Y2D01*
X1146Y2D01*
X1145Y2D01*
X1144Y2D01*
X1143Y2D01*
X1142Y2D01*
X1141Y2D01*
X1140Y2D01*
X1139Y2D01*
X1138Y2D01*
X1137Y2D01*
X1136Y2D01*
X1135Y2D01*
X1134Y2D01*
X1133Y2D01*
X1132Y2D01*
X1131Y2D01*
X1130Y2D01*
X1129Y2D01*
X1128Y2D01*
X1127Y2D01*
X1126Y2D01*
X1125Y2D01*
X1124Y2D01*
X1123Y2D01*
X1122Y2D01*
X1121Y2D01*
X1120Y2D01*
X1119Y2D01*
X1118Y2D01*
X1117Y2D01*
X1116Y2D01*
X1115Y2D01*
X1114Y2D01*
X1113Y2D01*
X1112Y2D01*
X1111Y2D01*
X1110Y2D01*
X1109Y2D01*
X1108Y2D01*
X1107Y2D01*
X1106Y2D01*
X1105Y2D01*
X1104Y2D01*
X1103Y2D01*
X1102Y2D01*
X1101Y2D01*
X1100Y2D01*
X1099Y2D01*
X1098Y2D01*
X1097Y2D01*
X1096Y2D01*
X1095Y2D01*
X1094Y2D01*
X1093Y2D01*
X1092Y2D01*
X1091Y2D01*
X1090Y2D01*
X1089Y2D01*
X1088Y2D01*
X1087Y2D01*
X1086Y2D01*
X1085Y2D01*
X1084Y2D01*
X1083Y2D01*
X1082Y2D01*
X1081Y2D01*
X1080Y2D01*
X1079Y2D01*
X1078Y2D01*
X1077Y2D01*
X1076Y2D01*
X1075Y2D01*
X1074Y2D01*
X1073Y2D01*
X1072Y2D01*
X1071Y2D01*
X1070Y2D01*
X1069Y2D01*
X1068Y2D01*
X1067Y2D01*
X1066Y2D01*
X1065Y2D01*
X1064Y2D01*
X1063Y2D01*
X1062Y2D01*
X1061Y2D01*
X1060Y2D01*
X1059Y2D01*
X1058Y2D01*
X1057Y2D01*
X1056Y2D01*
X1055Y2D01*
X1054Y2D01*
X1053Y2D01*
X1052Y2D01*
X1051Y2D01*
X1050Y2D01*
X1049Y2D01*
X1048Y2D01*
X1047Y2D01*
X1046Y2D01*
X1045Y2D01*
X1044Y2D01*
X1043Y2D01*
X1042Y2D01*
X1041Y2D01*
X1040Y2D01*
X1039Y2D01*
X1038Y2D01*
X1037Y2D01*
X1036Y2D01*
X1035Y2D01*
X1034Y2D01*
X1033Y2D01*
X1032Y2D01*
X1031Y2D01*
X1030Y2D01*
X1029Y2D01*
X1028Y2D01*
X1027Y2D01*
X1026Y2D01*
X1025Y2D01*
X1024Y2D01*
X1023Y2D01*
X1022Y2D01*
X1021Y2D01*
X1020Y2D01*
X1019Y2D01*
X1018Y2D01*
X1017Y2D01*
X1016Y2D01*
X1015Y2D01*
X1014Y2D01*
X1013Y2D01*
X1012Y2D01*
X1011Y2D01*
X1010Y2D01*
X1009Y2D01*
X1008Y2D01*
X1007Y2D01*
X1006Y2D01*
X1005Y2D01*
X1004Y2D01*
X1003Y2D01*
X1002Y2D01*
X1001Y2D01*
X1000Y2D01*
X999Y2D01*
X998Y2D01*
X997Y2D01*
X996Y2D01*
X995Y2D01*
X994Y2D01*
X993Y2D01*
X992Y2D01*
X991Y2D01*
X990Y2D01*
X989Y2D01*
X988Y2D01*
X987Y2D01*
X986Y2D01*
X985Y2D01*
X984Y2D01*
X983Y2D01*
X982Y2D01*
X981Y2D01*
X980Y2D01*
X979Y2D01*
X978Y2D01*
X977Y2D01*
X976Y2D01*
X975Y2D01*
X974Y2D01*
X973Y2D01*
X972Y2D01*
X971Y2D01*
X970Y2D01*
X969Y2D01*
X968Y2D01*
X967Y2D01*
X966Y2D01*
X965Y2D01*
X964Y2D01*
X963Y2D01*
X962Y2D01*
X961Y2D01*
X960Y2D01*
X959Y2D01*
X958Y2D01*
X957Y2D01*
X956Y2D01*
X955Y2D01*
X954Y2D01*
X953Y2D01*
X952Y2D01*
X951Y2D01*
X950Y2D01*
X949Y2D01*
X948Y2D01*
X947Y2D01*
X946Y2D01*
X945Y2D01*
X944Y2D01*
X943Y2D01*
X942Y2D01*
X941Y2D01*
X940Y2D01*
X939Y2D01*
X938Y2D01*
X937Y2D01*
X936Y2D01*
X935Y2D01*
X934Y2D01*
X933Y2D01*
X932Y2D01*
X931Y2D01*
X930Y2D01*
X929Y2D01*
X928Y2D01*
X927Y2D01*
X926Y2D01*
X925Y2D01*
X924Y2D01*
X923Y2D01*
X922Y2D01*
X921Y2D01*
X920Y2D01*
X919Y2D01*
X918Y2D01*
X917Y2D01*
X916Y2D01*
X915Y2D01*
X914Y2D01*
X913Y2D01*
X912Y2D01*
X911Y2D01*
X910Y2D01*
X909Y2D01*
X908Y2D01*
X907Y2D01*
X906Y2D01*
X905Y2D01*
X904Y2D01*
X903Y2D01*
X902Y2D01*
X901Y2D01*
X900Y2D01*
X899Y2D01*
X898Y2D01*
X897Y2D01*
X896Y2D01*
X895Y2D01*
X894Y2D01*
X893Y2D01*
X892Y2D01*
X891Y2D01*
X890Y2D01*
X889Y2D01*
X888Y2D01*
X887Y2D01*
X886Y2D01*
X885Y2D01*
X884Y2D01*
X883Y2D01*
X882Y2D01*
X881Y2D01*
X880Y2D01*
X879Y2D01*
X878Y2D01*
X877Y2D01*
X876Y2D01*
X875Y2D01*
X874Y2D01*
X873Y2D01*
X872Y2D01*
X871Y2D01*
X870Y2D01*
X869Y2D01*
X868Y2D01*
X867Y2D01*
X866Y2D01*
X865Y2D01*
X864Y2D01*
X863Y2D01*
X862Y2D01*
X861Y2D01*
X860Y2D01*
X859Y2D01*
X858Y2D01*
X857Y2D01*
X856Y2D01*
X855Y2D01*
X854Y2D01*
X853Y2D01*
X852Y2D01*
X851Y2D01*
X850Y2D01*
X849Y2D01*
X848Y2D01*
X847Y2D01*
X846Y2D01*
X845Y2D01*
X844Y2D01*
X843Y2D01*
X842Y2D01*
X841Y2D01*
X840Y2D01*
X839Y2D01*
X838Y2D01*
X837Y2D01*
X836Y2D01*
X835Y2D01*
X834Y2D01*
X833Y2D01*
X832Y2D01*
X831Y2D01*
X830Y2D01*
X829Y2D01*
X828Y2D01*
X827Y2D01*
X826Y2D01*
X825Y2D01*
X824Y2D01*
X823Y2D01*
X822Y2D01*
X821Y2D01*
X820Y2D01*
X819Y2D01*
X818Y2D01*
X817Y2D01*
X816Y2D01*
X815Y2D01*
X814Y2D01*
X813Y2D01*
X812Y2D01*
X811Y2D01*
X810Y2D01*
X809Y2D01*
X808Y2D01*
X807Y2D01*
X806Y2D01*
X805Y2D01*
X804Y2D01*
X803Y2D01*
X802Y2D01*
X801Y2D01*
X800Y2D01*
X799Y2D01*
X798Y2D01*
X797Y2D01*
X796Y2D01*
X795Y2D01*
X794Y2D01*
X793Y2D01*
X792Y2D01*
X791Y2D01*
X790Y2D01*
X789Y2D01*
X788Y2D01*
X787Y2D01*
X786Y2D01*
X785Y2D01*
X784Y2D01*
X783Y2D01*
X782Y2D01*
X781Y2D01*
X780Y2D01*
X779Y2D01*
X778Y2D01*
X777Y2D01*
X776Y2D01*
X775Y2D01*
X774Y2D01*
X773Y2D01*
X772Y2D01*
X771Y2D01*
X770Y2D01*
X769Y2D01*
X768Y2D01*
X767Y2D01*
X766Y2D01*
X765Y2D01*
X764Y2D01*
X763Y2D01*
X762Y2D01*
X761Y2D01*
X760Y2D01*
X759Y2D01*
X758Y2D01*
X757Y2D01*
X756Y2D01*
X755Y2D01*
X754Y2D01*
X753Y2D01*
X752Y2D01*
X751Y2D01*
X750Y2D01*
X749Y2D01*
X748Y2D01*
X747Y2D01*
X746Y2D01*
X745Y2D01*
X744Y2D01*
X743Y2D01*
X742Y2D01*
X741Y2D01*
X740Y2D01*
X739Y2D01*
X738Y2D01*
X737Y2D01*
X736Y2D01*
X735Y2D01*
X734Y2D01*
X733Y2D01*
X732Y2D01*
X731Y2D01*
X730Y2D01*
X729Y2D01*
X728Y2D01*
X727Y2D01*
X726Y2D01*
X725Y2D01*
X724Y2D01*
X723Y2D01*
X722Y2D01*
X721Y2D01*
X720Y2D01*
X719Y2D01*
X718Y2D01*
X717Y2D01*
X716Y2D01*
X715Y2D01*
X714Y2D01*
X713Y2D01*
X712Y2D01*
X711Y2D01*
X710Y2D01*
X709Y2D01*
X708Y2D01*
X707Y2D01*
X706Y2D01*
X705Y2D01*
X704Y2D01*
X703Y2D01*
X702Y2D01*
X701Y2D01*
X700Y2D01*
X699Y2D01*
X698Y2D01*
X697Y2D01*
X696Y2D01*
X695Y2D01*
X694Y2D01*
X693Y2D01*
X692Y2D01*
X691Y2D01*
X690Y2D01*
X689Y2D01*
X688Y2D01*
X687Y2D01*
X686Y2D01*
X685Y2D01*
X684Y2D01*
X683Y2D01*
X682Y2D01*
X681Y2D01*
X680Y2D01*
X679Y2D01*
X678Y2D01*
X677Y2D01*
X676Y2D01*
X675Y2D01*
X674Y2D01*
X673Y2D01*
X672Y2D01*
X671Y2D01*
X670Y2D01*
X669Y2D01*
X668Y2D01*
X667Y2D01*
X666Y2D01*
X665Y2D01*
X664Y2D01*
X663Y2D01*
X662Y2D01*
X661Y2D01*
X660Y2D01*
X659Y2D01*
X658Y2D01*
X657Y2D01*
X656Y2D01*
X655Y2D01*
X654Y2D01*
X653Y2D01*
X652Y2D01*
X651Y2D01*
X650Y2D01*
X649Y2D01*
X648Y2D01*
X647Y2D01*
X646Y2D01*
X645Y2D01*
X644Y2D01*
X643Y2D01*
X642Y2D01*
X641Y2D01*
X640Y2D01*
X639Y2D01*
X638Y2D01*
X637Y2D01*
X636Y2D01*
X635Y2D01*
X634Y2D01*
X633Y2D01*
X632Y2D01*
X631Y2D01*
X630Y2D01*
X629Y2D01*
X628Y2D01*
X627Y2D01*
X626Y2D01*
X625Y2D01*
X624Y2D01*
X623Y2D01*
X622Y2D01*
X621Y2D01*
X620Y2D01*
X619Y2D01*
X618Y2D01*
X617Y2D01*
X616Y2D01*
X615Y2D01*
X614Y2D01*
X613Y2D01*
X612Y2D01*
X611Y2D01*
X610Y2D01*
X609Y2D01*
X608Y2D01*
X607Y2D01*
X606Y2D01*
X605Y2D01*
X604Y2D01*
X603Y2D01*
X602Y2D01*
X601Y2D01*
X600Y2D01*
X599Y2D01*
X598Y2D01*
X597Y2D01*
X596Y2D01*
X595Y2D01*
X594Y2D01*
X593Y2D01*
X592Y2D01*
X591Y2D01*
X590Y2D01*
X589Y2D01*
X588Y2D01*
X587Y2D01*
X586Y2D01*
X585Y2D01*
X584Y2D01*
X583Y2D01*
X582Y2D01*
X581Y2D01*
X580Y2D01*
X579Y2D01*
X578Y2D01*
X577Y2D01*
X576Y2D01*
X575Y2D01*
X574Y2D01*
X573Y2D01*
X572Y2D01*
X571Y2D01*
X570Y2D01*
X569Y2D01*
X568Y2D01*
X567Y2D01*
X566Y2D01*
X565Y2D01*
X564Y2D01*
X563Y2D01*
X562Y2D01*
X561Y2D01*
X560Y2D01*
X559Y2D01*
X558Y2D01*
X557Y2D01*
X556Y2D01*
X555Y2D01*
X554Y2D01*
X553Y2D01*
X552Y2D01*
X551Y2D01*
X550Y2D01*
X549Y2D01*
X548Y2D01*
X547Y2D01*
X546Y2D01*
X545Y2D01*
X544Y2D01*
X543Y2D01*
X542Y2D01*
X541Y2D01*
X540Y2D01*
X539Y2D01*
X538Y2D01*
X537Y2D01*
X536Y2D01*
X535Y2D01*
X534Y2D01*
X533Y2D01*
X532Y2D01*
X531Y2D01*
X530Y2D01*
X529Y2D01*
X528Y2D01*
X527Y2D01*
X526Y2D01*
X525Y2D01*
X524Y2D01*
X523Y2D01*
X522Y2D01*
X521Y2D01*
X520Y2D01*
X519Y2D01*
X518Y2D01*
X517Y2D01*
X516Y2D01*
X515Y2D01*
X514Y2D01*
X513Y2D01*
X512Y2D01*
X511Y2D01*
X510Y2D01*
X509Y2D01*
X508Y2D01*
X507Y2D01*
X506Y2D01*
X505Y2D01*
X504Y2D01*
X503Y2D01*
X502Y2D01*
X501Y2D01*
X500Y2D01*
X499Y2D01*
X498Y2D01*
X497Y2D01*
X496Y2D01*
X495Y2D01*
X494Y2D01*
X493Y2D01*
X492Y2D01*
X491Y2D01*
X490Y2D01*
X489Y2D01*
X488Y2D01*
X487Y2D01*
X486Y2D01*
X485Y2D01*
X484Y2D01*
X483Y2D01*
X482Y2D01*
X481Y2D01*
X480Y2D01*
X479Y2D01*
X478Y2D01*
X477Y2D01*
X476Y2D01*
X475Y2D01*
X474Y2D01*
X473Y2D01*
X472Y2D01*
X471Y2D01*
X470Y2D01*
X469Y2D01*
X468Y2D01*
X467Y2D01*
X466Y2D01*
X465Y2D01*
X464Y2D01*
X463Y2D01*
X462Y2D01*
X461Y2D01*
X460Y2D01*
X459Y2D01*
X458Y2D01*
X457Y2D01*
X456Y2D01*
X455Y2D01*
X454Y2D01*
X453Y2D01*
X452Y2D01*
X451Y2D01*
X450Y2D01*
X449Y2D01*
X448Y2D01*
X447Y2D01*
X446Y2D01*
X445Y2D01*
X444Y2D01*
X443Y2D01*
X442Y2D01*
X441Y2D01*
X440Y2D01*
X439Y2D01*
X438Y2D01*
X437Y2D01*
X436Y2D01*
X435Y2D01*
X434Y2D01*
X433Y2D01*
X432Y2D01*
X431Y2D01*
X430Y2D01*
X429Y2D01*
X428Y2D01*
X427Y2D01*
X426Y2D01*
X425Y2D01*
X424Y2D01*
X423Y2D01*
X422Y2D01*
X421Y2D01*
X420Y2D01*
X419Y2D01*
X418Y2D01*
X417Y2D01*
X416Y2D01*
X415Y2D01*
X414Y2D01*
X413Y2D01*
X412Y2D01*
X411Y2D01*
X410Y2D01*
X409Y2D01*
X408Y2D01*
X407Y2D01*
X406Y2D01*
X405Y2D01*
X404Y2D01*
X403Y2D01*
X402Y2D01*
X401Y2D01*
X400Y2D01*
X399Y2D01*
X398Y2D01*
X397Y2D01*
X396Y2D01*
X395Y2D01*
X394Y2D01*
X393Y2D01*
X392Y2D01*
X391Y2D01*
X390Y2D01*
X389Y2D01*
X388Y2D01*
X387Y2D01*
X386Y2D01*
X385Y2D01*
X384Y2D01*
X383Y2D01*
X382Y2D01*
X381Y2D01*
X380Y2D01*
X379Y2D01*
X378Y2D01*
X377Y2D01*
X376Y2D01*
X375Y2D01*
X374Y2D01*
X373Y2D01*
X372Y2D01*
X371Y2D01*
X370Y2D01*
X369Y2D01*
X368Y2D01*
X367Y2D01*
X366Y2D01*
X365Y2D01*
X364Y2D01*
X363Y2D01*
X362Y2D01*
X361Y2D01*
X360Y2D01*
X359Y2D01*
X358Y2D01*
X357Y2D01*
X356Y2D01*
X355Y2D01*
X354Y3D01*
X353Y3D01*
X352Y3D01*
X351Y3D01*
X350Y3D01*
X349Y3D01*
X348Y3D01*
X347Y3D01*
X346Y3D01*
X345Y3D01*
X344Y3D01*
X343Y3D01*
X342Y3D01*
X341Y4D01*
X340Y4D01*
X339Y4D01*
X338Y4D01*
X337Y4D01*
X336Y4D01*
X335Y4D01*
X334Y4D01*
X333Y4D01*
X332Y4D01*
X331Y5D01*
X330Y5D01*
X329Y5D01*
X328Y5D01*
X327Y5D01*
X326Y5D01*
X325Y5D01*
X324Y5D01*
X323Y6D01*
X322Y6D01*
X321Y6D01*
X320Y6D01*
X319Y6D01*
X318Y6D01*
X317Y6D01*
X316Y7D01*
X315Y7D01*
X314Y7D01*
X313Y7D01*
X312Y7D01*
X311Y8D01*
X310Y8D01*
X309Y8D01*
X308Y8D01*
X307Y8D01*
X306Y8D01*
X305Y9D01*
X304Y9D01*
X303Y9D01*
X302Y9D01*
X301Y9D01*
X300Y10D01*
X299Y10D01*
X298Y10D01*
X297Y10D01*
X296Y11D01*
X295Y11D01*
X294Y11D01*
X293Y11D01*
X292Y11D01*
X291Y12D01*
X290Y12D01*
X289Y12D01*
X288Y12D01*
X287Y13D01*
X286Y13D01*
X285Y13D01*
X284Y13D01*
X283Y14D01*
X282Y14D01*
X281Y14D01*
X280Y14D01*
X279Y15D01*
X278Y15D01*
X277Y15D01*
X276Y16D01*
X275Y16D01*
X274Y16D01*
X273Y16D01*
X272Y17D01*
X271Y17D01*
X270Y17D01*
X269Y18D01*
X268Y18D01*
X267Y18D01*
X266Y18D01*
X265Y19D01*
X264Y19D01*
X263Y19D01*
X262Y20D01*
X261Y20D01*
X260Y20D01*
X259Y21D01*
X258Y21D01*
X257Y21D01*
X256Y22D01*
X255Y22D01*
X254Y23D01*
X253Y23D01*
X252Y23D01*
X251Y24D01*
X250Y24D01*
X249Y24D01*
X248Y25D01*
X247Y25D01*
X246Y25D01*
X245Y26D01*
X244Y26D01*
X243Y26D01*
X242Y27D01*
X241Y27D01*
X240Y28D01*
X239Y28D01*
X238Y29D01*
X237Y29D01*
X236Y29D01*
X235Y30D01*
X234Y30D01*
X233Y31D01*
X232Y31D01*
X231Y31D01*
X230Y32D01*
X229Y32D01*
X228Y33D01*
X227Y33D01*
X226Y34D01*
X225Y34D01*
X224Y34D01*
X223Y35D01*
X222Y35D01*
X221Y36D01*
X220Y36D01*
X219Y37D01*
X218Y37D01*
X217Y38D01*
X216Y38D01*
X215Y39D01*
X214Y39D01*
X213Y40D01*
X212Y40D01*
X211Y41D01*
X210Y41D01*
X209Y42D01*
X208Y42D01*
X207Y43D01*
X206Y43D01*
X205Y44D01*
X204Y44D01*
X203Y45D01*
X202Y45D01*
X201Y46D01*
X200Y46D01*
X199Y47D01*
X198Y47D01*
X197Y48D01*
X196Y48D01*
X195Y49D01*
X194Y50D01*
X193Y50D01*
X192Y51D01*
X191Y51D01*
X190Y52D01*
X189Y53D01*
X188Y53D01*
X187Y54D01*
X186Y54D01*
X185Y55D01*
X184Y56D01*
X183Y56D01*
X182Y57D01*
X181Y57D01*
X180Y58D01*
X179Y59D01*
X178Y59D01*
X177Y60D01*
X176Y61D01*
X175Y61D01*
X174Y62D01*
X173Y63D01*
X172Y63D01*
X171Y64D01*
X170Y65D01*
X169Y65D01*
X168Y66D01*
X167Y67D01*
X166Y67D01*
X165Y68D01*
X164Y69D01*
X163Y69D01*
X162Y70D01*
X161Y71D01*
X160Y71D01*
X159Y72D01*
X158Y73D01*
X157Y74D01*
X156Y74D01*
X155Y75D01*
X154Y76D01*
X153Y77D01*
X152Y77D01*
X151Y78D01*
X150Y79D01*
X149Y80D01*
X148Y80D01*
X147Y81D01*
X146Y82D01*
X145Y83D01*
X144Y84D01*
X143Y84D01*
X142Y85D01*
X141Y86D01*
X140Y87D01*
X139Y88D01*
X138Y89D01*
X137Y89D01*
X136Y90D01*
X135Y91D01*
X134Y92D01*
X133Y93D01*
X132Y94D01*
X131Y95D01*
X130Y95D01*
X129Y96D01*
X128Y97D01*
X127Y98D01*
X126Y99D01*
X125Y100D01*
X124Y101D01*
X123Y102D01*
X122Y103D01*
X121Y104D01*
X120Y105D01*
X119Y106D01*
X118Y107D01*
X117Y108D01*
X116Y109D01*
X115Y110D01*
X114Y110D01*
X113Y111D01*
X112Y112D01*
X111Y113D01*
X110Y114D01*
X109Y115D01*
X108Y116D01*
X108Y117D01*
X107Y118D01*
X106Y119D01*
X105Y120D01*
X104Y121D01*
X103Y122D01*
X102Y123D01*
X101Y124D01*
X100Y125D01*
X99Y126D01*
X98Y127D01*
X97Y128D01*
X97Y129D01*
X96Y130D01*
X95Y131D01*
X94Y132D01*
X93Y133D01*
X92Y134D01*
X92Y135D01*
X91Y136D01*
X90Y137D01*
X89Y138D01*
X88Y139D01*
X87Y140D01*
X86Y141D01*
X86Y142D01*
X85Y143D01*
X84Y144D01*
X83Y145D01*
X83Y146D01*
X82Y147D01*
X81Y148D01*
X80Y149D01*
X80Y150D01*
X79Y151D01*
X78Y152D01*
X77Y153D01*
X77Y154D01*
X76Y155D01*
X75Y156D01*
X74Y157D01*
X74Y158D01*
X73Y159D01*
X72Y160D01*
X72Y161D01*
X71Y162D01*
X70Y163D01*
X69Y164D01*
X69Y165D01*
X68Y166D01*
X67Y167D01*
X67Y168D01*
X66Y169D01*
X65Y170D01*
X65Y171D01*
X64Y172D01*
X63Y173D01*
X63Y174D01*
X62Y175D01*
X61Y176D01*
X61Y177D01*
X60Y178D01*
X60Y179D01*
X59Y180D01*
X58Y181D01*
X58Y182D01*
X57Y183D01*
X56Y184D01*
X56Y185D01*
X55Y186D01*
X55Y187D01*
X54Y188D01*
X53Y189D01*
X53Y190D01*
X52Y191D01*
X52Y192D01*
X51Y193D01*
X51Y194D01*
X50Y195D01*
X50Y196D01*
X49Y197D01*
X48Y198D01*
X48Y199D01*
X47Y200D01*
X47Y201D01*
X46Y202D01*
X46Y203D01*
X45Y204D01*
X45Y205D01*
X44Y206D01*
X44Y207D01*
X43Y208D01*
X43Y209D01*
X42Y210D01*
X42Y211D01*
X41Y212D01*
X41Y213D01*
X40Y214D01*
X40Y215D01*
X39Y216D01*
X39Y217D01*
X38Y218D01*
X38Y219D01*
X37Y220D01*
X37Y221D01*
X36Y222D01*
X36Y223D01*
X35Y224D01*
X35Y226D01*
X34Y227D01*
X34Y228D01*
X33Y229D01*
X33Y230D01*
X32Y231D01*
X32Y232D01*
X31Y233D01*
X31Y235D01*
X30Y236D01*
X30Y237D01*
X29Y238D01*
X29Y240D01*
X28Y241D01*
X28Y242D01*
X27Y243D01*
X27Y245D01*
X26Y246D01*
X26Y247D01*
X25Y248D01*
X25Y250D01*
X24Y251D01*
X24Y253D01*
X23Y254D01*
X23Y255D01*
X22Y256D01*
X22Y258D01*
X21Y259D01*
X21Y262D01*
X20Y263D01*
X20Y265D01*
X19Y266D01*
X19Y268D01*
X18Y269D01*
X18Y271D01*
X17Y272D01*
X17Y274D01*
X16Y275D01*
X16Y278D01*
X15Y279D01*
X15Y281D01*
X14Y282D01*
X14Y285D01*
X13Y286D01*
X13Y288D01*
X12Y289D01*
X12Y292D01*
X11Y293D01*
X11Y296D01*
X10Y297D01*
X10Y301D01*
X9Y302D01*
X9Y306D01*
X8Y307D01*
X8Y310D01*
X7Y311D01*
X7Y316D01*
X6Y317D01*
X6Y321D01*
X5Y322D01*
X5Y328D01*
X4Y329D01*
X4Y335D01*
X3Y336D01*
X3Y343D01*
X2Y344D01*
X2Y353D01*
X1Y354D01*
X1Y367D01*
X0Y368D01*
X0Y2702D01*
X1Y2703D01*
X1Y2716D01*
X2Y2717D01*
X2Y2726D01*
X3Y2727D01*
X3Y2734D01*
X4Y2735D01*
X4Y2741D01*
X5Y2742D01*
X5Y2748D01*
X6Y2749D01*
X6Y2753D01*
X7Y2754D01*
X7Y2759D01*
X8Y2760D01*
X8Y2763D01*
X9Y2764D01*
X9Y2768D01*
X10Y2769D01*
X10Y2773D01*
X11Y2774D01*
X11Y2777D01*
X12Y2778D01*
X12Y2781D01*
X13Y2782D01*
X13Y2784D01*
X14Y2785D01*
X14Y2788D01*
X15Y2789D01*
X15Y2791D01*
X16Y2792D01*
X16Y2795D01*
X17Y2796D01*
X17Y2798D01*
X18Y2799D01*
X18Y2801D01*
X19Y2802D01*
X19Y2804D01*
X20Y2805D01*
X20Y2807D01*
X21Y2808D01*
X21Y2811D01*
X22Y2812D01*
X22Y2814D01*
X23Y2815D01*
X23Y2816D01*
X24Y2817D01*
X24Y2819D01*
X25Y2820D01*
X25Y2822D01*
X26Y2823D01*
X26Y2824D01*
X27Y2825D01*
X27Y2827D01*
X28Y2828D01*
X28Y2829D01*
X29Y2830D01*
X29Y2832D01*
X30Y2833D01*
X30Y2834D01*
X31Y2835D01*
X31Y2837D01*
X32Y2838D01*
X32Y2839D01*
X33Y2840D01*
X33Y2841D01*
X34Y2842D01*
X34Y2843D01*
X35Y2844D01*
X35Y2846D01*
X36Y2847D01*
X36Y2848D01*
X37Y2849D01*
X37Y2850D01*
X38Y2851D01*
X38Y2852D01*
X39Y2853D01*
X39Y2854D01*
X40Y2855D01*
X40Y2856D01*
X41Y2857D01*
X41Y2858D01*
X42Y2859D01*
X42Y2860D01*
X43Y2861D01*
X43Y2862D01*
X44Y2863D01*
X44Y2864D01*
X45Y2865D01*
X45Y2866D01*
X46Y2867D01*
X46Y2868D01*
X47Y2869D01*
X47Y2870D01*
X48Y2871D01*
X48Y2872D01*
X49Y2873D01*
X50Y2874D01*
X50Y2875D01*
X51Y2876D01*
X51Y2877D01*
X52Y2878D01*
X52Y2879D01*
X53Y2880D01*
X53Y2881D01*
X54Y2882D01*
X55Y2883D01*
X55Y2884D01*
X56Y2885D01*
X56Y2886D01*
X57Y2887D01*
X58Y2888D01*
X58Y2889D01*
X59Y2890D01*
X60Y2891D01*
X60Y2892D01*
X61Y2893D01*
X61Y2894D01*
X62Y2895D01*
X63Y2896D01*
X63Y2897D01*
X64Y2898D01*
X65Y2899D01*
X65Y2900D01*
X66Y2901D01*
X67Y2902D01*
X67Y2903D01*
X68Y2904D01*
X69Y2905D01*
X69Y2906D01*
X70Y2907D01*
X71Y2908D01*
X72Y2909D01*
X72Y2910D01*
X73Y2911D01*
X74Y2912D01*
X74Y2913D01*
X75Y2914D01*
X76Y2915D01*
X77Y2916D01*
X77Y2917D01*
X78Y2918D01*
X79Y2919D01*
X80Y2920D01*
X80Y2921D01*
X81Y2922D01*
X82Y2923D01*
X83Y2924D01*
X83Y2925D01*
X84Y2926D01*
X85Y2927D01*
X86Y2928D01*
X86Y2929D01*
X87Y2930D01*
X88Y2931D01*
X89Y2932D01*
X90Y2933D01*
X91Y2934D01*
X92Y2935D01*
X92Y2936D01*
X93Y2937D01*
X94Y2938D01*
X95Y2939D01*
X96Y2940D01*
X97Y2941D01*
X97Y2942D01*
X98Y2943D01*
X99Y2944D01*
X100Y2945D01*
X101Y2946D01*
X102Y2947D01*
X103Y2948D01*
X104Y2949D01*
X105Y2950D01*
X106Y2951D01*
X107Y2952D01*
X108Y2953D01*
X108Y2954D01*
X109Y2955D01*
X110Y2956D01*
X111Y2957D01*
X112Y2958D01*
X113Y2959D01*
X114Y2960D01*
X115Y2960D01*
X116Y2961D01*
X117Y2962D01*
X118Y2963D01*
X119Y2964D01*
X120Y2965D01*
X121Y2966D01*
X122Y2967D01*
X123Y2968D01*
X124Y2969D01*
X125Y2970D01*
X126Y2971D01*
X127Y2972D01*
X128Y2973D01*
X129Y2974D01*
X130Y2975D01*
X131Y2975D01*
X132Y2976D01*
X133Y2977D01*
X134Y2978D01*
X135Y2979D01*
X136Y2980D01*
X137Y2981D01*
X138Y2981D01*
X139Y2982D01*
X140Y2983D01*
X141Y2984D01*
X142Y2985D01*
X143Y2986D01*
X144Y2986D01*
X145Y2987D01*
X146Y2988D01*
X147Y2989D01*
X148Y2990D01*
X149Y2990D01*
X150Y2991D01*
X151Y2992D01*
X152Y2993D01*
X153Y2993D01*
X154Y2994D01*
X155Y2995D01*
X156Y2996D01*
X157Y2996D01*
X158Y2997D01*
X159Y2998D01*
X160Y2999D01*
X161Y2999D01*
X162Y3000D01*
X163Y3001D01*
X164Y3001D01*
X165Y3002D01*
X166Y3003D01*
X167Y3003D01*
X168Y3004D01*
X169Y3005D01*
X170Y3005D01*
X171Y3006D01*
X172Y3007D01*
X173Y3007D01*
X174Y3008D01*
X175Y3009D01*
X176Y3009D01*
X177Y3010D01*
X178Y3011D01*
X179Y3011D01*
X180Y3012D01*
X181Y3013D01*
X182Y3013D01*
X183Y3014D01*
X184Y3014D01*
X185Y3015D01*
X186Y3016D01*
X187Y3016D01*
X188Y3017D01*
X189Y3017D01*
X190Y3018D01*
X191Y3019D01*
X192Y3019D01*
X193Y3020D01*
X194Y3020D01*
X195Y3021D01*
X196Y3022D01*
X197Y3022D01*
X198Y3023D01*
X199Y3023D01*
X200Y3024D01*
X201Y3024D01*
X202Y3025D01*
X203Y3025D01*
X204Y3026D01*
X205Y3026D01*
X206Y3027D01*
X207Y3027D01*
X208Y3028D01*
X209Y3028D01*
X210Y3029D01*
X211Y3029D01*
X212Y3030D01*
X213Y3030D01*
X214Y3031D01*
X215Y3031D01*
X216Y3032D01*
X217Y3032D01*
X218Y3033D01*
X219Y3033D01*
X220Y3034D01*
X221Y3034D01*
X222Y3035D01*
X223Y3035D01*
X224Y3036D01*
X225Y3036D01*
X226Y3036D01*
X227Y3037D01*
X228Y3037D01*
X229Y3038D01*
X230Y3038D01*
X231Y3039D01*
X232Y3039D01*
X233Y3039D01*
X234Y3040D01*
X235Y3040D01*
X236Y3041D01*
X237Y3041D01*
X238Y3041D01*
X239Y3042D01*
X240Y3042D01*
X241Y3043D01*
X242Y3043D01*
X243Y3044D01*
X244Y3044D01*
X245Y3044D01*
X246Y3045D01*
X247Y3045D01*
X248Y3045D01*
X249Y3046D01*
X250Y3046D01*
X251Y3046D01*
X252Y3047D01*
X253Y3047D01*
X254Y3047D01*
X255Y3048D01*
X256Y3048D01*
X257Y3049D01*
X258Y3049D01*
X259Y3049D01*
X260Y3050D01*
X261Y3050D01*
X262Y3050D01*
X263Y3051D01*
X264Y3051D01*
X265Y3051D01*
X266Y3052D01*
X267Y3052D01*
X268Y3052D01*
X269Y3052D01*
X270Y3053D01*
X271Y3053D01*
X272Y3053D01*
X273Y3054D01*
X274Y3054D01*
X275Y3054D01*
X276Y3055D01*
X277Y3055D01*
X278Y3055D01*
X279Y3055D01*
X280Y3056D01*
X281Y3056D01*
X282Y3056D01*
X283Y3056D01*
X284Y3057D01*
X285Y3057D01*
X286Y3057D01*
X287Y3057D01*
X288Y3058D01*
X289Y3058D01*
X290Y3058D01*
X291Y3058D01*
X292Y3059D01*
X293Y3059D01*
X294Y3059D01*
X295Y3059D01*
X296Y3059D01*
X297Y3060D01*
X298Y3060D01*
X299Y3060D01*
X300Y3060D01*
X301Y3061D01*
X302Y3061D01*
X303Y3061D01*
X304Y3061D01*
X305Y3061D01*
X306Y3062D01*
X307Y3062D01*
X308Y3062D01*
X309Y3062D01*
X310Y3062D01*
X311Y3062D01*
X312Y3063D01*
X313Y3063D01*
X314Y3063D01*
X315Y3063D01*
X316Y3063D01*
X317Y3064D01*
X318Y3064D01*
X319Y3064D01*
X320Y3064D01*
X321Y3064D01*
X322Y3064D01*
X323Y3064D01*
X324Y3065D01*
X325Y3065D01*
X326Y3065D01*
X327Y3065D01*
X328Y3065D01*
X329Y3065D01*
X330Y3065D01*
X331Y3065D01*
X332Y3066D01*
X333Y3066D01*
X334Y3066D01*
X335Y3066D01*
X336Y3066D01*
X337Y3066D01*
X338Y3066D01*
X339Y3066D01*
X340Y3066D01*
X341Y3066D01*
X342Y3067D01*
X343Y3067D01*
X344Y3067D01*
X345Y3067D01*
X346Y3067D01*
X347Y3067D01*
X348Y3067D01*
X349Y3067D01*
X350Y3067D01*
X351Y3067D01*
X352Y3067D01*
X353Y3067D01*
X354Y3067D01*
X355Y3068D01*
D02*
G04 End of contour*
M02*